# Blender 4.4.1
# www.blender.org
o M_Medium_Branch
v 0.592109 -0.355316 -0.158054
v -0.409245 -0.172114 0.049589
v 0.438778 -0.525805 -1.115461
v 0.011757 0.000000 0.103764
v 0.022739 -0.041567 -0.544550
v -0.607297 -0.335686 -0.290004
v -0.114510 -0.243093 -1.086462
v -0.571520 -0.473533 -1.048266
v -0.458416 -0.125283 -0.487977
v 0.373436 -0.200890 -0.556639
vn 0.5332 0.8452 0.0349
vn -0.4962 0.8598 0.1203
vn 0.3935 0.8140 -0.4273
vn 0.0553 0.9983 0.0164
vn 0.1276 0.9679 -0.2165
vn -0.7505 0.6489 0.1252
vn -0.0145 0.9073 -0.4202
vn -0.4379 0.8005 -0.4092
vn -0.4024 0.9075 -0.1203
vn 0.4422 0.8735 -0.2036
vt 0.027614 0.795761
vt 0.222748 1.004669
vt -0.030770 0.955029
vt 0.167953 0.795761
vt -0.027614 0.570906
vt 0.169530 0.609566
vt 0.027614 0.795761
vt 0.328112 0.776037
vt 0.298921 0.579585
vt 0.388434 0.949506
vt 0.428635 0.810836
s 1
f 10/1/10 4/2/4 1/3/1
f 4/2/4 10/1/10 5/4/5
f 3/5/3 7/6/7 10/7/10
f 5/4/5 9/8/9 4/2/4
f 5/4/5 7/6/7 9/8/9
f 7/6/7 8/9/8 9/8/9
f 4/2/4 9/8/9 2/10/2
f 2/10/2 9/8/9 6/11/6
f 7/6/7 5/4/5 10/7/10
