# Blender 4.4.1
# www.blender.org
o M_Big_Branch
v -0.034645 -0.774499 -2.507706
v -0.761658 -0.154395 0.158591
v 0.023781 0.000000 0.191556
v 0.856000 -0.449373 -0.817675
v 0.916915 -0.478341 -1.458708
v -0.030793 0.000000 -0.465674
v -1.128136 -0.425771 -0.954792
v -0.996131 -0.499497 -1.696563
v 0.689645 -0.279635 -0.046138
v -0.642801 -0.407794 -1.892725
v 0.716735 -0.733418 -2.533092
v 0.141337 -0.176708 -1.467684
v -0.619788 -0.649412 -2.378423
v -0.034645 -0.774499 -2.507706
v -0.761658 -0.154395 0.158591
v 0.023781 0.000000 0.191556
v 0.856000 -0.449373 -0.817675
v 0.916915 -0.478341 -1.458708
v -0.030793 0.000000 -0.465674
v -1.128136 -0.425771 -0.954792
v -0.996131 -0.499497 -1.696563
v 0.689645 -0.279635 -0.046138
v -0.642801 -0.407794 -1.892725
v 0.716735 -0.733418 -2.533092
v 0.141337 -0.176708 -1.467684
v -0.619788 -0.649412 -2.378423
v -0.339272 -0.034751 -0.596443
v -0.339272 -0.034751 -0.596443
v -0.453914 -0.181123 -1.227191
v -0.453914 -0.181123 -1.227191
vn -0.0082 0.8753 -0.4835
vn -0.2858 0.9581 -0.0197
vn 0.0974 0.9949 -0.0276
vn 0.4343 0.9004 -0.0249
vn 0.3814 0.9094 -0.1656
vn 0.1379 0.9894 -0.0445
vn -0.3918 0.9094 -0.1400
vn -0.3259 0.9333 -0.1508
vn 0.3440 0.9299 -0.1304
vn -0.1292 0.9264 -0.3538
vn 0.0938 0.9023 -0.4208
vn 0.1311 0.9520 -0.2768
vn 0.0937 0.8932 -0.4399
vn 0.0082 -0.8753 0.4835
vn 0.2858 -0.9581 0.0197
vn -0.0974 -0.9949 0.0276
vn -0.4343 -0.9004 0.0249
vn -0.3814 -0.9094 0.1656
vn -0.1379 -0.9894 0.0445
vn 0.3918 -0.9094 0.1400
vn 0.3259 -0.9333 0.1508
vn -0.3440 -0.9299 0.1304
vn 0.1292 -0.9264 0.3538
vn -0.0938 -0.9023 0.4208
vn -0.1311 -0.9520 0.2768
vn -0.0937 -0.8932 0.4399
vn 0.2142 -0.9729 0.0874
vn -0.2142 0.9729 -0.0874
vn 0.2487 -0.9455 0.2100
vn -0.2487 0.9455 -0.2100
vt 1.005523 0.549678
vt 0.712187 0.552668
vt 0.654853 0.218913
vt 0.545444 0.262471
vt 0.398093 0.000000
vt 0.673031 0.000000
vt 0.712186 0.552668
vt 0.631316 1.004431
vt 0.449805 0.694243
vt 0.954785 0.079172
vt 0.985233 0.336160
vt 0.412502 0.856022
vt 0.493419 0.472563
vt 1.005523 0.549678
vt 0.883800 0.989308
vt 0.631316 1.004431
vt 0.245627 0.381831
vt 0.319975 0.628904
s 1
f 5/1/5 12/2/12 6/3/6
f 6/3/6 12/2/12 28/4/28
f 6/3/6 28/4/28 2/5/2
f 6/3/6 2/5/2 3/6/3
f 12/7/12 1/8/1 10/9/10
f 9/10/9 4/11/4 3/6/3
f 10/9/10 1/8/1 13/12/13
f 4/11/4 5/1/5 6/3/6
f 4/11/4 6/3/6 3/6/3
f 12/2/12 10/9/10 30/13/30
f 12/2/12 5/14/5 11/15/11
f 11/15/11 1/16/1 12/7/12
f 7/17/7 10/9/10 8/18/8
f 18/1/18 19/3/19 25/2/25
f 19/3/19 27/4/27 25/2/25
f 19/3/19 15/5/15 27/4/27
f 19/3/19 16/6/16 15/5/15
f 25/7/25 23/9/23 14/8/14
f 22/10/22 16/6/16 17/11/17
f 23/9/23 26/12/26 14/8/14
f 17/11/17 19/3/19 18/1/18
f 17/11/17 16/6/16 19/3/19
f 25/2/25 29/13/29 23/9/23
f 25/2/25 24/15/24 18/14/18
f 24/15/24 25/7/25 14/16/14
f 20/17/20 21/18/21 23/9/23
f 2/5/2 28/4/28 7/17/7
f 25/2/25 27/4/27 29/13/29
f 28/4/28 30/13/30 7/17/7
f 27/4/27 15/5/15 20/17/20
f 30/13/30 10/9/10 7/17/7
f 29/13/29 27/4/27 20/17/20
f 30/13/30 28/4/28 12/2/12
f 23/9/23 29/13/29 20/17/20
