# Blender 4.4.1
# www.blender.org
o M_Small_Branch
v -0.344568 -0.177779 0.056216
v -0.377688 -0.116866 -0.307736
v 0.000729 0.000000 0.056216
v 0.389412 -0.173535 0.056216
v -0.053053 0.000000 -0.352210
v -0.150965 -0.149804 -0.728973
v 0.272400 -0.105084 -0.509076
v -0.344568 -0.177779 0.056216
v -0.377688 -0.116866 -0.307736
v 0.000729 0.000000 0.056216
v 0.389412 -0.173535 0.056216
v -0.053053 0.000000 -0.352210
v -0.150965 -0.149804 -0.728973
v 0.272400 -0.105084 -0.509076
vn -0.4497 0.8734 0.1871
vn -0.3852 0.9224 -0.0291
vn 0.0154 0.9980 0.0615
vn 0.4075 0.9128 0.0262
vn -0.0560 0.9870 -0.1505
vn -0.1194 0.9329 -0.3399
vn 0.2554 0.9515 -0.1715
vn 0.4497 -0.8734 -0.1871
vn 0.3852 -0.9224 0.0291
vn -0.0154 -0.9980 -0.0615
vn -0.4075 -0.9128 -0.0262
vn 0.0560 -0.9870 0.1505
vn 0.1194 -0.9329 0.3399
vn -0.2554 -0.9515 0.1715
vt 0.000000 0.000000
vt 0.173197 0.000000
vt 0.000000 0.166577
vt 0.148582 0.186932
vt 0.297538 0.258728
vt 0.402786 0.000000
vt 0.103769 0.373285
s 1
f 1/1/1 3/2/3 2/3/2
f 2/3/2 3/2/3 5/4/5
f 5/4/5 3/2/3 7/5/7
f 7/5/7 3/2/3 4/6/4
f 6/7/6 2/3/2 5/4/5
f 6/7/6 5/4/5 7/5/7
f 8/1/8 9/3/9 10/2/10
f 9/3/9 12/4/12 10/2/10
f 12/4/12 14/5/14 10/2/10
f 14/5/14 11/6/11 10/2/10
f 13/7/13 12/4/12 9/3/9
f 13/7/13 14/5/14 12/4/12
