# Blender 4.4.1
# www.blender.org
o M_Interactable_Button_Base
v 0.218981 1.393980 0.025000
v 0.193981 1.379336 0.050000
v 0.229336 1.343980 0.050000
v 0.243981 1.368980 0.025000
v 0.218981 1.806020 0.025000
v 0.243981 1.831020 0.025000
v 0.229336 1.856020 0.050000
v 0.193981 1.820664 0.050000
v 0.175000 1.300000 0.000000
v 0.150000 1.325000 0.000000
v 0.150000 1.875000 0.000000
v 0.175000 1.900000 0.000000
v 0.581020 1.393980 0.025000
v 0.556020 1.368980 0.025000
v 0.570664 1.343980 0.050000
v 0.606020 1.379336 0.050000
v 0.581020 1.806020 0.025000
v 0.606020 1.820664 0.050000
v 0.570664 1.856020 0.050000
v 0.556020 1.831020 0.025000
v 0.650000 1.325000 0.000000
v 0.625000 1.300000 0.000000
v 0.625000 1.900000 0.000000
v 0.650000 1.875000 0.000000
v 0.175000 1.300000 0.025000
v 0.210355 1.325000 0.050000
v 0.175000 1.360355 0.050000
v 0.150000 1.325000 0.025000
v 0.175000 1.839645 0.050000
v 0.210355 1.875000 0.050000
v 0.175000 1.900000 0.025000
v 0.150000 1.875000 0.025000
v 0.625000 1.900000 0.025000
v 0.589645 1.875000 0.050000
v 0.625000 1.839645 0.050000
v 0.650000 1.875000 0.025000
v 0.625000 1.300000 0.025000
v 0.650000 1.325000 0.025000
v 0.625000 1.360355 0.050000
v 0.589645 1.325000 0.050000
v 0.218981 1.393980 0.013343
v 0.243981 1.368980 0.013343
v 0.243981 1.831020 0.013343
v 0.218981 1.806020 0.013343
v 0.581020 1.806020 0.013343
v 0.556020 1.831020 0.013343
v 0.556020 1.368980 0.013343
v 0.581020 1.393980 0.013343
vn -0.0000 1.0000 -0.0000
vn -0.0000 -0.0000 1.0000
vn -1.0000 -0.0000 -0.0000
vn 1.0000 -0.0000 -0.0000
vn -0.0000 -1.0000 -0.0000
vn -0.0001 -0.0000 1.0000
vn -0.0000 -0.0001 1.0000
vn -0.0000 0.0001 1.0000
vn 0.0001 -0.0000 1.0000
vn -0.0001 -1.0000 -0.0000
vn -1.0000 0.0001 -0.0000
vn 0.0001 1.0000 -0.0000
vn 1.0000 -0.0001 -0.0000
vn -0.0000 -1.0000 0.0002
vt 0.431758 0.742476
vt 0.431758 0.003601
vt 0.472812 0.003524
vt 0.472824 0.742580
vt 0.935911 0.841920
vt 0.932295 0.838310
vt 0.932295 0.778819
vt 0.935909 0.775210
vt 0.980950 0.775207
vt 0.984567 0.778818
vt 0.984567 0.838308
vt 0.980953 0.841917
vt 0.864292 0.653377
vt 0.864269 0.092706
vt 0.895443 0.061520
vt 0.895465 0.684542
vt 0.041055 0.003524
vt 0.041065 0.906816
vt -0.000000 0.906713
vt 0.000000 0.003606
vt 0.235692 0.116717
vt 0.235704 0.793451
vt 0.216557 0.793399
vt 0.216548 0.116769
vt 0.806205 0.116806
vt 0.806221 0.629300
vt 0.787073 0.629249
vt 0.787061 0.116856
vt 0.424067 0.003524
vt 0.424067 0.906632
vt 0.383012 0.906713
vt 0.383002 0.003422
vt 0.620134 0.629276
vt 0.620119 0.116781
vt 0.639267 0.116833
vt 0.639278 0.629226
vt 0.994582 0.003606
vt 0.994582 0.742480
vt 0.953528 0.742557
vt 0.953516 0.003501
vt 0.130292 0.092701
vt 0.130310 0.817621
vt 0.099137 0.848802
vt 0.099118 0.061536
vt 0.562048 0.092703
vt 0.562070 0.653375
vt 0.530897 0.684561
vt 0.530874 0.061539
vt 0.293775 0.817536
vt 0.293756 0.092617
vt 0.324930 0.061436
vt 0.324949 0.848702
vt 0.731359 0.114605
vt 0.743543 0.176340
vt 0.661355 0.176520
vt 0.673317 0.114875
vt 0.102902 0.958487
vt 0.102678 0.900454
vt 0.164400 0.888359
vt 0.164560 0.970466
vt 0.611543 0.074233
vt 0.611073 0.016065
vt 0.672873 0.003893
vt 0.673124 0.085936
vt 0.730956 0.378863
vt 0.743133 0.440672
vt 0.661052 0.440869
vt 0.672788 0.379296
vt 0.674068 0.302235
vt 0.661323 0.220681
vt 0.743543 0.220351
vt 0.732065 0.301270
vt 0.208744 0.970466
vt 0.208388 0.888469
vt 0.289185 0.899498
vt 0.290422 0.957781
vt 0.673524 0.566534
vt 0.660914 0.484975
vt 0.743133 0.484738
vt 0.731524 0.565653
vt 0.797680 0.014947
vt 0.798963 0.073227
vt 0.717301 0.085936
vt 0.716868 0.003980
vt 0.675375 0.343531
vt 0.733210 0.342064
vt 0.329892 0.898166
vt 0.331786 0.956027
vt 0.838384 0.013581
vt 0.840327 0.071437
vt 0.674780 0.607835
vt 0.732615 0.606444
vt 0.188363 0.116787
vt 0.188375 0.793521
vt 0.592459 0.074477
vt 0.591871 0.016440
vt 0.731133 0.095421
vt 0.673156 0.095769
vt 0.083494 0.900663
vt 0.083796 0.958635
vt 0.730595 0.359661
vt 0.672557 0.360211
vt 0.207510 0.116838
vt 0.207519 0.793469
s 0
f 23/1/1 12/2/1 31/3/1 33/4/1
f 47/5/2 48/6/2 45/7/2 46/8/2 43/9/2 44/10/2 41/11/2 42/12/2
f 15/13/2 3/14/2 26/15/2 40/16/2
f 28/17/3 32/18/3 11/19/3 10/20/3
f 13/21/3 17/22/3 45/23/3 48/24/3
f 4/25/1 14/26/1 47/27/1 42/28/1
f 21/29/4 24/30/4 36/31/4 38/32/4
f 20/33/5 6/34/5 43/35/5 46/36/5
f 9/37/5 22/38/5 37/39/5 25/40/5
f 2/41/2 8/42/2 29/43/2 27/44/2
f 7/45/2 19/46/2 34/47/2 30/48/2
f 18/49/2 16/50/2 39/51/2 35/52/2
f 1/53/4 2/54/6 3/55/7 4/56/1
f 5/57/4 6/58/5 7/59/8 8/60/6
f 13/61/3 14/62/1 15/63/7 16/64/9
f 17/65/3 18/66/9 19/67/8 20/68/5
f 25/69/10 26/70/2 27/71/2 28/72/3
f 29/73/2 30/74/2 31/75/1 32/76/11
f 33/77/12 34/78/2 35/79/2 36/80/4
f 37/81/5 38/82/13 39/83/2 40/84/2
f 9/85/5 25/69/5 28/72/3 10/86/3
f 27/44/2 29/43/2 32/18/3 28/17/3
f 31/75/1 12/87/1 11/88/3 32/76/3
f 37/81/5 22/89/14 21/90/4 38/82/4
f 23/91/1 33/77/1 36/80/4 24/92/4
f 35/52/2 39/51/2 38/32/4 36/31/4
f 25/40/5 37/39/5 40/16/2 26/15/2
f 33/4/1 31/3/1 30/48/2 34/47/2
f 1/93/4 5/94/4 8/42/2 2/41/7
f 17/22/3 13/21/3 16/50/2 18/49/8
f 3/14/2 15/13/9 14/26/1 4/25/1
f 19/46/2 7/45/6 6/34/5 20/33/5
f 26/70/2 3/55/2 2/54/2 27/71/2
f 7/59/2 30/74/2 29/73/2 8/60/2
f 34/78/2 19/67/2 18/66/2 35/79/2
f 15/63/2 40/84/2 39/83/2 16/64/2
f 13/61/3 48/95/3 47/96/1 14/62/1
f 41/97/4 1/53/4 4/56/1 42/98/1
f 43/99/5 6/58/5 5/57/4 44/100/4
f 45/101/3 17/65/3 20/68/5 46/102/5
f 5/94/4 1/93/4 41/103/4 44/104/4
