# Blender 4.4.1
# www.blender.org
o M_Sliding_Gate_End_Support
v -2.500000 0.000000 -0.375000
v -2.475000 0.000000 -0.400000
v -1.525000 0.000000 -0.400000
v -1.500000 0.000000 -0.375000
v -2.475000 0.000000 0.400000
v -2.500000 0.000000 0.375000
v -1.500000 0.000000 0.375000
v -1.525000 0.000000 0.400000
v -2.475000 0.075000 -0.400000
v -2.500000 0.075000 -0.375000
v -2.475000 0.100000 -0.375000
v -1.525000 0.075000 -0.400000
v -1.525000 0.100000 -0.375000
v -1.500000 0.075000 -0.375000
v -2.475000 0.075000 0.400000
v -2.475000 0.100000 0.375000
v -2.500000 0.075000 0.375000
v -1.525000 0.075000 0.400000
v -1.500000 0.075000 0.375000
v -1.525000 0.100000 0.375000
v -2.370236 0.100000 0.037610
v -2.395236 0.100000 0.012610
v -2.395236 0.253222 0.012610
v -2.370236 0.253222 0.037610
v -2.395236 0.100000 -0.012610
v -2.370236 0.100000 -0.037610
v -2.370236 0.253222 -0.037610
v -2.395236 0.253222 -0.012610
v -2.295236 0.100000 0.012610
v -2.320236 0.100000 0.037610
v -2.320236 0.253222 0.037610
v -2.295236 0.253222 0.012610
v -2.320236 0.100000 -0.037610
v -2.295236 0.100000 -0.012610
v -2.295236 0.253222 -0.012610
v -2.320236 0.253222 -0.037610
vn -1.0000 -0.0000 -0.0000
vn -0.0000 1.0000 -0.0000
vn -0.0000 -0.0000 1.0000
vn 1.0000 -0.0000 -0.0000
vn -0.0000 -0.0000 -1.0000
vn -0.0000 0.0003 -1.0000
vn -0.0000 -0.0003 1.0000
vn -1.0000 -0.0004 -0.0000
vn -1.0000 0.0004 -0.0000
vn 1.0000 -0.0004 -0.0000
vn 1.0000 0.0004 -0.0000
vt 0.157472 0.973444
vt 0.157472 0.967846
vt 0.159348 0.967846
vt 0.159348 0.973444
vt 0.163572 0.034956
vt 0.164448 0.030505
vt 0.164431 0.031195
vt 0.163557 0.035531
vt 0.169703 0.036387
vt 0.163716 0.035742
vt 0.164609 0.031448
vt 0.171811 0.032397
vt 0.164667 0.030383
vt 0.171878 0.031372
vt 0.171876 0.032039
vt 0.164651 0.031076
vt 0.171997 0.031535
vt 0.169873 0.035662
vt 0.169868 0.036219
vt 0.171995 0.032199
vt 0.173803 0.973444
vt 0.173803 0.967846
vt 0.176602 0.967846
vt 0.176602 0.973444
vt 0.168667 0.973444
vt 0.168667 0.967846
vt 0.170543 0.967846
vt 0.170543 0.973444
vt 0.162608 0.973444
vt 0.162608 0.967846
vt 0.165407 0.967846
vt 0.165407 0.973444
vt 0.163685 0.035693
vt 0.169641 0.036336
vt 0.163699 0.035122
vt 0.169646 0.035782
vt 0.155611 0.973444
vt 0.155611 0.967846
s 0
f 22/1/1 23/2/1 28/3/1 25/4/1
f 1/5/1 6/6/1 17/7/1 10/8/1
f 13/9/2 11/10/2 16/11/2 20/12/2
f 5/13/3 8/14/3 18/15/3 15/16/3
f 7/17/4 4/18/4 14/19/4 19/20/4
f 30/21/3 31/22/3 24/23/3 21/24/3
f 34/25/4 35/26/4 32/27/4 29/28/4
f 26/29/5 27/30/5 36/31/5 33/32/5
f 9/33/5 10/8/1 11/10/2
f 12/34/5 13/9/2 14/19/4
f 15/16/3 16/11/2 17/7/1
f 18/15/3 19/20/4 20/12/2
f 11/10/2 13/9/2 12/34/5 9/33/5
f 15/16/3 18/15/3 20/12/2 16/11/2
f 19/20/4 14/19/4 13/9/2 20/12/2
f 10/8/1 17/7/1 16/11/2 11/10/2
f 1/5/1 10/8/1 9/33/5 2/35/6
f 3/36/5 12/34/5 14/19/4 4/18/4
f 5/13/3 15/16/7 17/7/1 6/6/1
f 7/17/4 19/20/4 18/15/3 8/14/3
f 21/37/3 24/38/3 23/2/1 22/1/8
f 27/30/5 26/29/5 25/4/1 28/3/9
f 35/26/4 34/25/10 33/32/5 36/31/5
f 31/22/3 30/21/3 29/28/4 32/27/11
f 3/36/5 2/35/5 9/33/5 12/34/5
