# Blender 4.4.1
# www.blender.org
o M_Sliding_Gate_Caps
v 0.000000 3.024250 0.075000
v 0.000000 3.000000 0.050750
v 0.000000 3.200000 0.050750
v 0.000000 3.175750 0.075000
v 0.000000 3.000000 -0.050750
v 0.000000 3.024250 -0.075000
v 0.000000 3.175750 -0.075000
v 0.000000 3.200000 -0.050750
v 0.030451 3.034606 0.050000
v 0.005451 3.024250 0.075000
v 0.005451 3.000000 0.050750
v 0.030451 3.025000 0.040395
v 0.030451 3.175000 0.040395
v 0.005451 3.200000 0.050750
v 0.005451 3.175750 0.075000
v 0.030451 3.165395 0.050000
v 0.030451 3.025000 -0.040395
v 0.005451 3.000000 -0.050750
v 0.005451 3.024250 -0.075000
v 0.030451 3.034606 -0.050000
v 0.030451 3.165395 -0.050000
v 0.005451 3.175750 -0.075000
v 0.005451 3.200000 -0.050750
v 0.030451 3.175000 -0.040395
v 0.000000 3.024250 0.075000
v 0.000000 3.000000 0.050750
v 0.000000 3.200000 0.050750
v 0.000000 3.175750 0.075000
v 0.000000 3.000000 -0.050750
v 0.000000 3.024250 -0.075000
v 0.000000 3.175750 -0.075000
v 0.000000 3.200000 -0.050750
v 0.000000 0.375750 0.075000
v 0.000000 0.400000 0.050750
v 0.000000 0.200000 0.050750
v 0.000000 0.224250 0.075000
v 0.000000 0.400000 -0.050750
v 0.000000 0.375750 -0.075000
v 0.000000 0.224250 -0.075000
v 0.000000 0.200000 -0.050750
v 0.030451 0.365395 0.050000
v 0.005451 0.375750 0.075000
v 0.005451 0.400000 0.050750
v 0.030451 0.375000 0.040395
v 0.030451 0.225000 0.040395
v 0.005451 0.200000 0.050750
v 0.005451 0.224250 0.075000
v 0.030451 0.234605 0.050000
v 0.030451 0.375000 -0.040395
v 0.005451 0.400000 -0.050750
v 0.005451 0.375750 -0.075000
v 0.030451 0.365395 -0.050000
v 0.030451 0.234605 -0.050000
v 0.005451 0.224250 -0.075000
v 0.005451 0.200000 -0.050750
v 0.030451 0.225000 -0.040395
v 0.000000 0.375750 0.075000
v 0.000000 0.400000 0.050750
v 0.000000 0.200000 0.050750
v 0.000000 0.224250 0.075000
v 0.000000 0.400000 -0.050750
v 0.000000 0.375750 -0.075000
v 0.000000 0.224250 -0.075000
v 0.000000 0.200000 -0.050750
vn -0.0000 0.1367 0.9906
vn -0.0000 -0.1367 0.9906
vn 0.6411 -0.0862 0.7626
vn 0.6411 0.0862 0.7626
vn 0.9820 -0.0000 0.1888
vn 1.0000 -0.0000 -0.0000
vn 0.9820 -0.0000 -0.1888
vn -0.0000 0.9819 -0.1893
vn -0.0000 0.9819 0.1893
vn 0.6424 0.7563 0.1240
vn 0.6424 0.7563 -0.1240
vn -0.0000 -0.1367 -0.9906
vn -0.0000 0.1367 -0.9906
vn 0.6411 0.0862 -0.7626
vn 0.6411 -0.0862 -0.7626
vn -0.0000 -0.9819 0.1893
vn -0.0000 -0.9819 -0.1893
vn 0.6424 -0.7563 -0.1240
vn 0.6424 -0.7563 0.1240
vn 0.6411 0.0863 0.7626
vn 0.6411 0.0863 -0.7626
vn 0.6411 -0.0863 -0.7626
vn 0.6411 -0.0863 0.7626
vn 0.9820 -0.0000 0.1889
vn 0.6410 0.0863 0.7626
vn 0.6410 -0.0863 -0.7626
vn 0.9820 -0.0000 -0.1889
vn -1.0000 -0.0000 -0.0000
vt 0.166087 0.034654
vt 0.166093 0.033483
vt 0.166125 0.033473
vt 0.166120 0.034647
vt 0.166405 0.033555
vt 0.166454 0.033502
vt 0.166853 0.033655
vt 0.166899 0.033740
vt 0.166921 0.034704
vt 0.166876 0.034766
vt 0.166462 0.034658
vt 0.166410 0.034568
vt 0.166746 0.035002
vt 0.166220 0.034882
vt 0.166253 0.034876
vt 0.166778 0.034997
vt 0.166837 0.033758
vt 0.166859 0.034847
vt 0.166892 0.034841
vt 0.166868 0.033750
vt 0.166222 0.033353
vt 0.166722 0.033548
vt 0.166753 0.033539
vt 0.166253 0.033343
s 0
f 4/1/1 1/2/2 10/3/3 15/4/4
f 9/5/5 12/6/6 17/7/6 20/8/7 21/9/7 24/10/6 13/11/6 16/12/5
f 8/13/8 3/14/9 14/15/10 23/16/11
f 6/17/12 7/18/13 22/19/14 19/20/15
f 2/21/16 5/22/17 18/23/18 11/24/19
f 3/14/9 4/1/1 15/4/20 14/15/10
f 7/18/13 8/13/8 23/16/11 22/19/21
f 5/22/17 6/17/12 19/20/22 18/23/18
f 10/3/23 11/24/19 12/6/6 9/5/24
f 14/15/10 15/4/25 16/12/24 13/11/6
f 18/23/18 19/20/26 20/8/27 17/7/6
f 22/19/21 23/16/11 24/10/6 21/9/27
f 15/4/4 10/3/3 9/5/24 16/12/24
f 11/24/19 18/23/18 17/7/6 12/6/6
f 19/20/15 22/19/14 21/9/27 20/8/27
f 23/16/11 14/15/10 13/11/6 24/10/6
f 1/2/2 2/21/16 11/24/19 10/3/23
f 25/2/28 28/1/28 27/14/28 32/13/28 31/18/28 30/17/28 29/22/28 26/21/28
f 36/1/2 47/4/3 42/3/4 33/2/1
f 41/5/5 48/12/5 45/11/6 56/10/6 53/9/7 52/8/7 49/7/6 44/6/6
f 40/13/17 55/16/18 46/15/19 35/14/16
f 38/17/13 51/20/14 54/19/15 39/18/12
f 34/21/9 43/24/10 50/23/11 37/22/8
f 35/14/16 46/15/19 47/4/23 36/1/2
f 39/18/12 54/19/22 55/16/18 40/13/17
f 37/22/8 50/23/11 51/20/21 38/17/13
f 42/3/25 41/5/24 44/6/6 43/24/10
f 46/15/19 45/11/6 48/12/24 47/4/23
f 50/23/11 49/7/6 52/8/27 51/20/21
f 54/19/26 53/9/27 56/10/6 55/16/18
f 47/4/3 48/12/24 41/5/24 42/3/4
f 43/24/10 44/6/6 49/7/6 50/23/11
f 51/20/14 52/8/27 53/9/27 54/19/15
f 55/16/18 56/10/6 45/11/6 46/15/19
f 33/2/1 42/3/20 43/24/10 34/21/9
f 57/2/28 58/21/28 61/22/28 62/17/28 63/18/28 64/13/28 59/14/28 60/1/28
