# Blender 4.4.1
# www.blender.org
o M_Sliding_Gate_Connection
v 0.225000 1.575000 0.075000
v 0.225000 1.550000 0.050000
v 0.250000 1.575000 0.050000
v -0.225000 1.575000 0.075000
v -0.250000 1.575000 0.050000
v -0.225000 1.550000 0.050000
v 0.225000 1.825000 0.075000
v 0.250000 1.825000 0.050000
v 0.225000 1.850000 0.050000
v -0.225000 1.825000 0.075000
v -0.225000 1.850000 0.050000
v -0.250000 1.825000 0.050000
v 0.225000 1.550000 -0.050000
v 0.225000 1.575000 -0.075000
v 0.250000 1.575000 -0.050000
v -0.225000 1.575000 -0.075000
v -0.225000 1.550000 -0.050000
v -0.250000 1.575000 -0.050000
v 0.225000 1.850000 -0.050000
v 0.250000 1.825000 -0.050000
v 0.225000 1.825000 -0.075000
v -0.225000 1.825000 -0.075000
v -0.250000 1.825000 -0.050000
v -0.225000 1.850000 -0.050000
v 0.002346 1.697576 0.095951
v 0.002346 1.702424 0.095951
v -0.002346 1.702424 0.095951
v -0.002346 1.697576 0.095951
v 0.057330 1.702424 0.075000
v 0.057330 1.697576 0.075000
v -0.002346 1.780182 0.075000
v 0.002346 1.780182 0.075000
v -0.057329 1.697576 0.075000
v -0.057329 1.702424 0.075000
v 0.002346 1.619818 0.075000
v -0.002346 1.619818 0.075000
v 0.225000 1.550000 0.000000
v 0.250000 1.575000 0.000000
v -0.250000 1.575000 0.000000
v -0.225000 1.550000 0.000000
v 0.225000 1.850000 0.000000
v 0.250000 1.825000 0.000000
v -0.225000 1.850000 0.000000
v -0.250000 1.825000 0.000000
v 0.002346 1.697576 -0.095951
v -0.002346 1.697576 -0.095951
v -0.002346 1.702424 -0.095951
v 0.002346 1.702424 -0.095951
v 0.057330 1.697576 -0.075000
v 0.057330 1.702424 -0.075000
v 0.002346 1.780182 -0.075000
v -0.002346 1.780182 -0.075000
v -0.057329 1.702424 -0.075000
v -0.057329 1.697576 -0.075000
v -0.002346 1.619818 -0.075000
v 0.002346 1.619818 -0.075000
vn -0.0000 -1.0000 -0.0000
vn 0.3453 0.2442 -0.9062
vn -0.3453 -0.2442 -0.9062
vn -0.3453 0.2442 -0.9062
vn 0.3453 -0.2442 -0.9062
vn -0.3453 -0.2442 0.9062
vn 0.3453 -0.2442 0.9062
vn -0.3453 0.2442 0.9062
vn 1.0000 -0.0000 -0.0000
vn -0.0000 1.0000 -0.0000
vn -1.0000 -0.0000 -0.0000
vn -0.0000 -0.0000 -1.0000
vn 0.3453 0.2442 0.9062
vn -0.0000 -0.0000 1.0000
vn 0.3453 -0.2441 -0.9062
vn 0.3453 0.2441 -0.9062
vn 0.3453 0.2441 0.9062
vn 0.3453 -0.2441 0.9062
vn -0.3453 0.2441 0.9062
vn -0.3453 -0.2441 0.9062
vn -0.3453 -0.2441 -0.9062
vn -0.3453 0.2441 -0.9062
vt 0.164940 0.030872
vt 0.165105 0.030948
vt 0.167202 0.030410
vt 0.167078 0.030295
vt 0.167204 0.965607
vt 0.169238 0.962710
vt 0.167041 0.962917
vt 0.166893 0.959664
vt 0.164860 0.962552
vt 0.166858 0.962739
vt 0.164864 0.962732
vt 0.167025 0.965608
vt 0.166862 0.962918
vt 0.169234 0.962530
vt 0.167072 0.959663
vt 0.167037 0.962738
vt 0.167615 0.958173
vt 0.167784 0.960896
vt 0.165546 0.961112
vt 0.169999 0.961089
vt 0.167966 0.960895
vt 0.167797 0.958173
vt 0.165550 0.961295
vt 0.167788 0.961079
vt 0.167751 0.964220
vt 0.167208 0.030420
vt 0.167329 0.030532
vt 0.167441 0.032047
vt 0.167314 0.031992
vt 0.164880 0.032405
vt 0.167197 0.032162
vt 0.167326 0.032211
vt 0.165059 0.032436
vt 0.164815 0.031029
vt 0.164757 0.032292
vt 0.164938 0.032326
vt 0.164984 0.031100
vt 0.165139 0.031165
vt 0.164984 0.031100
vt 0.164938 0.032326
vt 0.165102 0.032357
vt 0.165222 0.032465
vt 0.167441 0.032255
vt 0.165257 0.031017
vt 0.167312 0.030513
vt 0.167202 0.030410
vt 0.165105 0.030948
vt 0.167438 0.030632
vt 0.167553 0.032096
vt 0.167441 0.032047
vt 0.165332 0.031174
vt 0.165304 0.032358
vt 0.167489 0.032136
vt 0.167377 0.030705
vt 0.167933 0.964219
vt 0.167971 0.961078
vt 0.170003 0.961272
vt 0.167024 0.030393
vt 0.164853 0.030966
vt 0.167124 0.031982
vt 0.164794 0.032256
s 0
f 6/1/1 40/2/1 37/3/1 2/4/1
f 51/5/2 50/6/2 48/7/2
f 55/8/3 54/9/3 46/10/3
f 53/11/4 52/12/4 47/13/4
f 49/14/5 56/15/5 45/16/5
f 36/17/6 28/18/6 33/19/6
f 30/20/7 25/21/7 35/22/7
f 34/23/8 27/24/8 31/25/8
f 3/26/9 38/27/9 42/28/9 8/29/9
f 11/30/10 9/31/10 41/32/10 43/33/10
f 5/34/11 12/35/11 44/36/11 39/37/11
f 18/38/11 39/39/11 44/40/11 23/41/11
f 24/42/10 43/33/10 41/32/10 19/43/10
f 17/44/1 13/45/1 37/46/1 40/47/1
f 15/48/9 20/49/9 42/50/9 38/27/9
f 16/51/12 22/52/12 21/53/12 14/54/12
f 32/55/13 26/56/13 29/57/13
f 1/58/14 2/4/1 3/26/9
f 4/59/14 5/34/11 6/1/1
f 7/60/14 8/29/9 9/31/10
f 10/61/14 11/30/10 12/35/11
f 13/45/1 14/54/12 15/48/9
f 16/51/12 17/44/1 18/38/11
f 19/43/10 20/49/9 21/53/12
f 22/52/12 23/41/11 24/42/10
f 25/21/7 26/56/13 27/24/8 28/18/6
f 45/16/5 46/10/3 47/13/4 48/7/2
f 12/35/11 5/34/11 4/59/14 10/61/14
f 7/60/14 1/58/14 3/26/9 8/29/9
f 22/52/12 16/51/12 18/38/11 23/41/11
f 49/14/15 45/16/15 48/7/16 50/6/16
f 29/57/17 26/56/17 25/21/18 30/20/18
f 27/24/19 34/23/19 33/19/20 28/18/20
f 31/25/19 27/24/8 26/56/13 32/55/17
f 28/18/6 36/17/20 35/22/18 25/21/7
f 5/34/11 39/37/11 40/2/1 6/1/1
f 11/30/10 43/33/10 44/36/11 12/35/11
f 19/43/10 41/32/10 42/50/9 20/49/9
f 8/29/9 42/28/9 41/32/10 9/31/10
f 46/10/21 54/9/21 53/11/22 47/13/22
f 51/5/16 48/7/2 47/13/4 52/12/22
f 45/16/5 56/15/15 55/8/21 46/10/3
f 2/4/1 37/3/1 38/27/9 3/26/9
f 17/44/1 40/47/1 39/39/11 18/38/11
f 15/48/9 38/27/9 37/46/1 13/45/1
f 23/41/11 44/40/11 43/33/10 24/42/10
f 20/49/9 15/48/9 14/54/12 21/53/12
f 24/42/10 19/43/10 21/53/12 22/52/12
f 6/1/1 2/4/1 1/58/14 4/59/14
f 10/61/14 7/60/14 9/31/10 11/30/10
f 16/51/12 14/54/12 13/45/1 17/44/1
f 4/59/14 1/58/14 7/60/14 10/61/14
