# Blender 4.4.1
# www.blender.org
o M_Sliding_Gate_Wall
v 0.275000 0.025000 0.200000
v 0.275000 0.000000 0.173169
v 0.300000 0.025000 0.175000
v 0.275000 3.375000 0.342315
v 0.300000 3.375000 0.307951
v 0.275000 3.400000 0.307951
v 0.275000 0.100000 0.075000
v 0.275000 0.125000 0.100000
v 0.300000 0.075000 0.125000
v 0.275000 3.275000 0.204857
v 0.275000 3.300000 0.170493
v 0.300000 3.325000 0.239222
v 0.275000 0.000000 -0.173169
v 0.275000 0.025000 -0.200000
v 0.300000 0.025000 -0.175000
v 0.275000 3.375000 -0.274917
v 0.275000 3.400000 -0.240552
v 0.300000 3.375000 -0.240552
v 0.275000 0.125000 -0.100000
v 0.275000 0.100000 -0.075000
v 0.300000 0.075000 -0.125000
v 0.275000 3.275000 -0.137459
v 0.300000 3.325000 -0.171823
v 0.275000 3.300000 -0.103094
v 0.210755 0.000000 0.173096
v 0.235755 0.025000 0.200000
v 0.192199 0.025000 0.216754
v 0.192199 3.386659 0.365345
v 0.235755 3.375000 0.342315
v 0.235755 3.400000 0.307951
v 0.192199 3.416754 0.323977
v 0.210755 0.000000 -0.173096
v 0.192199 0.025000 -0.216754
v 0.235755 0.025000 -0.200000
v 0.235755 3.375000 -0.274917
v 0.192199 3.386659 -0.297946
v 0.192199 3.416754 -0.256579
v 0.235755 3.400000 -0.240552
v 0.118556 0.025000 0.283246
v 0.075000 0.025000 0.300000
v 0.100000 0.000000 0.273096
v 0.118556 3.453151 0.456744
v 0.118556 3.483246 0.415377
v 0.075000 3.500000 0.445409
v 0.075000 3.475000 0.479774
v 0.075000 0.025000 -0.300000
v 0.118556 0.025000 -0.283246
v 0.100000 0.000000 -0.273096
v 0.118556 3.483246 -0.347978
v 0.118556 3.453151 -0.389346
v 0.075000 3.475000 -0.412375
v 0.075000 3.500000 -0.378011
v 0.100000 0.125000 0.100000
v 0.100000 0.100000 0.075000
v 0.100000 3.300000 0.170493
v 0.100000 3.275000 0.204857
v 0.100000 0.100000 -0.075000
v 0.100000 0.125000 -0.100000
v 0.100000 3.275000 -0.137458
v 0.100000 3.300000 -0.103094
v 0.000000 3.500000 -0.378011
v 0.000000 3.475000 -0.412375
v 0.000000 0.025000 -0.300000
v 0.000000 0.000000 -0.273169
v -0.000000 3.475000 0.479774
v -0.000000 3.500000 0.445409
v 0.000000 0.000000 0.273169
v 0.000000 0.025000 0.300000
v 0.257734 2.025000 -0.112573
v 0.300000 2.675000 -0.125000
v 0.275000 2.645000 -0.100000
v 0.232734 2.015000 -0.087573
v 0.149934 2.041996 -0.204327
v 0.192199 2.714327 -0.216754
v 0.235755 2.705000 -0.200000
v 0.193489 2.035000 -0.187573
v 0.232734 2.035000 -0.187573
v 0.275000 2.705000 -0.200000
v 0.300000 2.705000 -0.175000
v 0.257734 2.035000 -0.162573
v 0.118556 2.767521 -0.283246
v 0.118556 2.081891 -0.270819
v 0.075000 2.095000 -0.287573
v 0.075000 2.785000 -0.300000
v 0.100000 2.645000 -0.100000
v 0.100000 2.015000 -0.087573
v -0.000000 2.095000 -0.287573
v 0.000000 2.785000 -0.300000
v 0.261580 1.365000 0.175000
v 0.300000 2.035000 0.175000
v 0.300000 2.705000 0.217417
v 0.275000 2.705000 0.242417
v 0.275000 2.035000 0.200000
v 0.236580 1.365000 0.200000
v 0.236580 1.385000 0.100000
v 0.275000 2.015000 0.100000
v 0.275000 2.645000 0.124921
v 0.300000 2.675000 0.149921
v 0.300000 2.025000 0.125000
v 0.261580 1.375000 0.125000
v 0.197335 1.365000 0.200000
v 0.235755 2.035000 0.200000
v 0.235755 2.705000 0.242417
v 0.192199 2.714328 0.259170
v 0.192199 2.041996 0.216754
v 0.153780 1.369664 0.216754
v 0.075000 2.785000 0.342417
v 0.075000 2.095000 0.300000
v 0.036580 1.405000 0.300000
v 0.080136 1.396260 0.283246
v 0.118556 2.081891 0.283246
v 0.118556 2.767521 0.325663
v 0.061580 1.385000 0.100000
v 0.100000 2.015000 0.100000
v 0.100000 2.645000 0.124921
v -0.000000 2.785000 0.342417
v 0.000000 2.095000 0.300000
v 0.000000 1.405000 0.300000
v 0.275000 3.421849 0.033699
v 0.300000 3.396849 0.033699
v 0.118556 3.505095 0.033699
v 0.075000 3.521848 0.033699
v 0.300000 3.346848 0.033699
v 0.275000 3.321848 0.033699
v 0.192199 3.438602 0.033699
v 0.235755 3.421849 0.033699
v 0.100000 3.321848 0.033699
v -0.000000 3.521848 0.033699
vn 0.6861 0.7275 -0.0000
vn 0.6854 0.7266 -0.0473
vn 0.6854 0.7267 -0.0473
vn 0.9997 0.0214 -0.0085
vn 0.9994 0.0291 0.0174
vn 0.9994 0.0291 0.0175
vn 0.9997 0.0214 -0.0086
vn 0.7864 0.0119 -0.6176
vn 0.7865 0.0119 -0.6175
vn -0.0000 0.0060 -1.0000
vn 0.0001 0.0060 -1.0000
vn 0.3627 0.9319 -0.0000
vn 0.3376 0.9339 -0.1175
vn 0.2075 0.9752 -0.0766
vn 0.2080 0.9781 -0.0000
vn 0.9722 -0.2341 -0.0000
vn 1.0000 -0.0000 -0.0000
vn 0.9439 0.3302 -0.0000
vn -0.0000 -1.0000 -0.0000
vn -0.0000 -1.0000 -0.0001
vn -0.0000 -0.9875 -0.1577
vn -0.0000 -0.9875 -0.1578
vn -0.0000 1.0000 -0.0000
vn -0.0000 0.9986 -0.0530
vn 0.0001 -0.1292 0.9916
vn -0.0000 -0.1952 0.9808
vn -0.0000 -0.1292 0.9916
vn 0.6650 -0.0879 0.7417
vn 0.6755 -0.1269 0.7263
vn 0.6755 -0.1268 0.7263
vn 0.6650 -0.0880 0.7417
vn -0.0000 1.0000 0.0001
vn -0.0000 1.0000 -0.0001
vn 0.2073 -0.0707 -0.9757
vn 0.2188 -0.1107 -0.9695
vn 0.4174 -0.0986 -0.9034
vn 0.3907 -0.0698 -0.9179
vn 0.6891 -0.0990 -0.7179
vn -0.0000 0.0831 -0.9965
vn -0.0000 0.1259 -0.9920
vn 0.0001 0.0829 -0.9966
vn -0.0000 0.0593 0.9982
vn -0.0000 0.0594 0.9982
vn 0.0001 -1.0000 -0.0000
vn 0.3626 0.0104 0.9319
vn 0.2707 -0.9627 -0.0000
vn 0.4158 -0.1317 0.8999
vn 0.3376 0.9339 0.1175
vn -0.0000 -0.0000 -1.0000
vn 0.3626 0.0134 -0.9318
vn -0.0001 -0.0065 1.0000
vn -0.0000 -0.9875 0.1577
vn 0.1986 0.0057 0.9801
vn 0.6719 0.0190 0.7404
vn 0.2134 -0.1463 0.9659
vn 0.2074 0.9753 0.0766
vn 0.6854 0.7266 0.0473
vn 0.7864 0.0120 -0.6175
vn 0.3599 0.0133 -0.9329
vn -0.0000 -0.0000 1.0000
vn -0.0000 0.9986 0.0530
vn -0.0000 -0.1608 -0.9870
vn 1.0000 -0.0000 0.0001
vn 0.3898 -0.0960 0.9159
vn -0.0000 0.0001 -1.0000
vn 1.0000 -0.0000 -0.0001
vn 0.9995 -0.0303 -0.0121
vn 0.9995 -0.0303 -0.0122
vn 0.2031 -0.1045 0.9736
vn -0.0000 -0.9875 0.1578
vn -0.0000 -0.0065 1.0000
vn -0.0001 0.9986 0.0530
vn 0.0001 -0.0000 1.0000
vn 0.0002 -1.0000 -0.0000
vn -0.0001 -1.0000 -0.0000
vn 0.0002 0.0060 -1.0000
vn -0.0000 -0.1607 -0.9870
vn 0.0001 -0.0901 -0.9959
vn 0.7864 0.0119 -0.6175
vn -0.0000 -0.0066 1.0000
vn -0.0000 -0.0899 -0.9959
vn 0.3623 -0.0399 0.9312
vn 0.1950 -0.0366 0.9801
vn -0.0000 -0.0613 0.9981
vn 0.6566 -0.0422 0.7531
vn 0.9994 0.0290 0.0174
vn 0.9994 0.0290 0.0175
vn -0.0000 0.0198 -0.9998
vn 0.9996 -0.0270 -0.0000
vn 0.9996 -0.0270 0.0001
vn -0.0000 0.0194 -0.9998
vn -0.0000 -0.0614 0.9981
vt 0.928223 0.960164
vt 0.945764 0.960164
vt 0.977580 0.991980
vt 0.928223 0.991981
vt 0.179894 0.035906
vt 0.181101 0.035589
vt 0.181744 0.035515
vt 0.180035 0.035957
vt 0.161465 0.034716
vt 0.179284 0.034487
vt 0.179264 0.034286
vt 0.161342 0.034493
vt 0.150050 0.036135
vt 0.150162 0.036387
vt 0.150158 0.035998
vt 0.150045 0.035730
vt 0.150877 0.036381
vt 0.150939 0.036554
vt 0.150433 0.036631
vt 0.150327 0.036388
vt 0.151121 0.034337
vt 0.151148 0.036123
vt 0.151118 0.036015
vt 0.151091 0.034202
vt 0.148915 0.034073
vt 0.149157 0.034589
vt 0.149150 0.033863
vt 0.148908 0.033303
vt 0.148918 0.034332
vt 0.149141 0.034794
vt 0.155542 0.033471
vt 0.148890 0.033506
vt 0.148884 0.032689
vt 0.155522 0.032684
vt 0.896281 0.624056
vt 0.896281 0.945764
vt 0.864465 0.977580
vt 0.864465 0.649509
vt 0.180637 0.035443
vt 0.179920 0.035638
vt 0.179776 0.034164
vt 0.180485 0.033930
vt 0.156281 0.035915
vt 0.150393 0.036029
vt 0.150397 0.036417
vt 0.156291 0.036290
vt 0.960164 0.624056
vt 0.991980 0.649508
vt 0.991980 0.977580
vt 0.960164 0.945764
vt 0.157124 0.034102
vt 0.151311 0.034154
vt 0.151339 0.035974
vt 0.157176 0.035862
vt 0.156995 0.034452
vt 0.157045 0.036144
vt 0.151412 0.036261
vt 0.151385 0.034514
vt 0.917171 -0.674741
vt 0.869322 -0.674741
vt 0.987124 -0.674741
vt 0.939274 -0.674741
vt 0.181806 0.035261
vt 0.181907 0.035294
vt 0.150158 0.035841
vt 0.150221 0.036145
vt 0.149938 0.035883
vt 0.180527 0.035413
vt 0.150814 0.036208
vt 0.180212 0.035744
vt 0.179866 0.035782
vt 0.179579 0.035674
vt 0.151178 0.036230
vt 0.904298 -0.674741
vt 0.896281 -0.674741
vt 0.149183 0.031695
vt 0.149272 0.032226
vt 0.148898 0.032295
vt 0.148732 0.031779
vt 0.960164 -0.674741
vt 0.952148 -0.674741
vt 0.147471 0.033359
vt 0.147239 0.032940
vt 0.147066 0.032853
vt 0.147328 0.033287
vt 0.182326 0.033578
vt 0.182388 0.033329
vt 0.182274 0.033594
vt 0.149103 0.033777
vt 0.148813 0.033779
vt 0.148649 0.033507
vt 0.179481 0.034284
vt 0.179577 0.034459
vt 0.179624 0.034444
vt 0.149325 0.034872
vt 0.149586 0.034869
vt 0.149394 0.034631
vt 0.149177 0.034633
vt 0.156526 0.036019
vt 0.156487 0.035725
vt 0.180375 0.033893
vt 0.156872 0.036084
vt 0.156730 0.036424
vt 0.179834 0.035459
vt 0.180160 0.035213
vt 0.153144 0.033022
vt 0.153364 0.033430
vt 0.156354 0.036496
vt 0.896281 -0.662778
vt 0.864465 -0.662778
vt 0.155302 0.032328
vt 0.155238 0.031812
vt 0.151152 0.034472
vt 0.181848 0.034730
vt 0.181771 0.034915
vt 0.149933 0.035463
vt 0.150153 0.035420
vt 0.179437 0.034205
vt 0.991980 -0.662778
vt 0.960164 -0.662778
vt 0.910681 0.960164
vt 0.878865 0.991981
vt 0.179423 0.032739
vt 0.167362 0.032534
vt 0.167348 0.032045
vt 0.179458 0.032279
vt 0.148673 0.033558
vt 0.148666 0.032743
vt 0.147899 0.032316
vt 0.148113 0.032791
vt 0.182147 0.033330
vt 0.182077 0.032663
vt 0.182181 0.032711
vt 0.179545 0.033639
vt 0.179206 0.033684
vt 0.149387 0.033909
vt 0.156476 0.035319
vt 0.155525 0.034793
vt 0.155368 0.034562
vt 0.162185 0.036163
vt 0.162274 0.036361
vt 0.176766 0.033350
vt 0.159050 0.033104
vt 0.159256 0.033502
vt 0.176934 0.033716
vt 0.162521 0.036294
vt 0.162679 0.036026
vt 0.161315 0.033819
vt 0.155351 0.033864
vt 0.162606 0.034390
vt 0.991980 0.321437
vt 0.960164 0.302347
vt 0.162169 0.035801
vt 0.168844 0.033400
vt 0.182170 0.033552
vt 0.168944 0.033642
vt 0.169123 0.035117
vt 0.169147 0.035493
vt 0.162817 0.035609
vt 0.162800 0.035218
vt 0.155717 0.033732
vt 0.162193 0.033436
vt 0.162330 0.033687
vt 0.168852 0.035638
vt 0.168987 0.035837
vt 0.161332 0.032431
vt 0.161293 0.031929
vt 0.169135 0.035767
vt 0.163014 0.035750
vt 0.162929 0.035960
vt 0.168750 0.033997
vt 0.162830 0.035893
vt 0.896281 -0.019361
vt 0.864465 -0.006635
vt 0.162937 0.034049
vt 0.168800 0.032673
vt 0.896281 0.302347
vt 0.864465 0.321437
vt 0.162161 0.032679
vt 0.148695 0.033871
s 1
f 125/1/1 37/2/2 49/3/3 121/4/1
f 21/5/4 9/6/5 3/7/6 15/8/7
f 82/9/8 47/10/9 46/11/10 83/12/11
f 119/13/12 17/14/13 38/15/14 126/16/15
f 123/17/16 23/18/17 18/19/17 120/20/18
f 127/21/19 124/22/20 11/23/21 55/24/22
f 122/25/23 52/26/24 61/27/24 128/28/23
f 121/29/1 49/30/3 52/26/24 122/25/23
f 107/31/25 45/32/26 65/33/26 116/34/27
f 104/35/28 28/36/29 42/37/30 112/38/31
f 7/39/32 20/40/23 57/41/32 54/42/33
f 75/43/34 35/44/35 16/45/36 78/46/37
f 74/47/38 81/48/38 50/49/38 36/50/38
f 115/51/39 56/52/40 10/53/40 97/54/41
f 85/55/42 71/56/42 22/57/43 59/58/42
f 25/59/19 41/60/19 48/61/44 32/62/19
f 1/63/45 2/64/46 3/7/6
f 4/65/47 5/66/17 6/67/48
f 7/39/32 8/68/49 9/6/5
f 10/53/40 11/23/21 12/69/17
f 13/70/46 14/71/50 15/8/7
f 16/45/36 17/14/13 18/19/17
f 19/72/51 20/40/23 21/5/4
f 22/57/43 23/18/17 24/73/52
f 25/59/19 26/74/53 27/75/54
f 28/76/29 29/77/55 30/78/56 31/79/57
f 32/62/19 33/80/58 34/81/59
f 35/82/35 36/83/38 37/84/2 38/85/14
f 39/86/54 40/87/60 41/88/19
f 42/89/30 43/90/57 44/91/61 45/32/26
f 46/92/10 47/93/9 48/94/44
f 49/95/3 50/96/38 51/97/62 52/98/24
f 91/99/63 5/66/17 4/65/47 92/100/64
f 53/101/65 8/68/49 7/39/32 54/42/33
f 97/54/41 10/53/40 12/69/17 98/102/66
f 70/103/67 23/18/17 22/57/43 71/56/42
f 34/104/59 14/71/50 13/70/46 32/105/19
f 74/106/38 36/83/38 35/82/35 75/107/34
f 36/50/38 50/49/38 49/3/3 37/2/2
f 78/46/37 16/45/36 18/19/17 79/108/68
f 41/60/19 25/59/19 27/109/54 39/110/54
f 103/111/69 29/77/55 28/76/29 104/112/28
f 24/73/52 60/113/70 59/58/42 22/57/43
f 25/114/19 2/64/46 1/63/45 26/115/53
f 6/67/48 30/116/56 29/117/55 4/65/47
f 16/45/36 35/44/35 38/15/14 17/14/13
f 57/41/32 20/40/23 19/72/51 58/118/71
f 47/119/9 33/120/58 32/62/19 48/61/44
f 31/121/57 43/122/57 42/37/30 28/36/29
f 20/40/23 7/39/32 9/6/5 21/5/4
f 26/123/53 101/124/53 106/125/54 27/126/54
f 10/53/40 56/52/40 55/24/22 11/23/21
f 44/127/61 66/128/72 65/33/26 45/32/26
f 15/8/7 3/7/6 2/64/46 13/70/46
f 119/13/12 6/67/48 5/66/17 120/20/18
f 125/129/1 31/79/57 30/78/56 126/130/15
f 123/17/16 12/69/17 11/23/21 124/22/20
f 25/114/19 32/105/19 13/70/46 2/64/46
f 40/131/60 68/132/73 67/133/74 41/88/19
f 48/94/44 64/134/75 63/135/76 46/11/10
f 51/97/62 62/136/77 61/27/24 52/26/24
f 103/137/69 92/100/64 4/65/47 29/117/55
f 41/88/19 67/133/74 64/134/75 48/94/44
f 50/96/38 81/138/38 84/139/78 51/97/62
f 81/138/38 82/9/8 83/12/11 84/139/78
f 14/71/50 77/140/50 80/141/7 15/8/7
f 33/142/58 73/143/79 76/144/59 34/145/59
f 77/140/50 78/46/37 79/108/68 80/141/7
f 21/5/4 69/146/4 72/147/80 19/72/51
f 73/143/79 74/106/38 75/107/34 76/144/59
f 46/11/10 63/135/76 87/148/10 83/12/11
f 69/146/4 70/103/67 71/56/42 72/147/80
f 51/97/62 84/139/78 88/149/81 62/136/77
f 84/139/78 83/12/11 87/148/10 88/149/81
f 19/72/51 72/147/80 86/150/80 58/118/71
f 47/119/9 82/151/8 73/152/79 33/120/58
f 86/150/80 72/147/80 71/56/42 85/55/42
f 34/104/59 76/153/59 77/140/50 14/71/50
f 73/152/79 82/151/8 81/48/38 74/47/38
f 21/5/4 15/8/7 80/141/7 69/146/4
f 76/153/59 75/43/34 78/46/37 77/140/50
f 18/19/17 23/18/17 70/103/67 79/108/68
f 79/108/68 70/103/67 69/146/4 80/141/7
f 109/154/73 40/131/60 39/155/54 110/156/54
f 101/157/53 94/158/45 93/159/82 102/160/83
f 102/160/83 93/159/82 92/100/64 103/137/69
f 45/32/26 107/31/25 112/161/31 42/89/30
f 107/31/25 108/162/84 111/163/85 112/161/31
f 108/162/84 109/154/73 110/156/54 111/163/85
f 8/68/49 95/164/49 100/165/86 9/6/5
f 101/124/53 102/166/83 105/167/85 106/125/54
f 102/166/83 103/111/69 104/112/28 105/167/85
f 3/7/6 89/168/87 94/158/45 1/63/45
f 95/164/49 96/169/88 99/170/89 100/165/86
f 96/169/88 97/54/41 98/102/66 99/170/89
f 53/101/65 113/171/49 95/164/49 8/68/49
f 89/168/87 90/172/90 93/159/82 94/158/45
f 90/172/90 91/99/63 92/100/64 93/159/82
f 27/109/54 106/173/54 110/174/54 39/110/54
f 113/171/49 114/175/91 96/169/88 95/164/49
f 114/175/91 115/51/39 97/54/41 96/169/88
f 40/131/60 109/154/73 118/176/60 68/132/73
f 106/173/54 105/177/85 111/178/85 110/174/54
f 105/177/85 104/35/28 112/38/31 111/178/85
f 89/168/87 3/7/6 9/6/5 100/165/86
f 109/154/73 108/162/84 117/179/92 118/176/60
f 108/162/84 107/31/25 116/34/27 117/179/92
f 5/66/17 91/99/63 98/102/66 12/69/17
f 91/99/63 90/172/90 99/170/89 98/102/66
f 90/172/90 89/168/87 100/165/86 99/170/89
f 23/18/17 123/17/16 124/22/20 24/73/52
f 37/84/2 125/129/1 126/130/15 38/85/14
f 17/14/13 119/13/12 120/20/18 18/19/17
f 43/180/57 121/29/1 122/25/23 44/127/61
f 44/127/61 122/25/23 128/28/23 66/128/72
f 60/113/70 24/73/52 124/22/20 127/21/19
f 12/69/17 123/17/16 120/20/18 5/66/17
f 6/67/48 119/13/12 126/16/15 30/116/56
f 31/121/57 125/1/1 121/4/1 43/122/57
f 26/115/53 1/63/45 94/158/45 101/157/53
