# Blender 4.4.3
# www.blender.org
o Clock_Hour_Hand_Hour
v -2.561405 14.700001 -0.000000
v -2.561405 15.188663 0.000000
v -2.561405 15.315720 0.000000
v -2.561405 15.363320 0.000000
v -2.561405 15.451079 0.000000
v -2.561405 15.538838 0.000000
v -2.561405 15.026998 0.000000
v -2.561405 14.896031 0.000000
v -2.561405 14.781750 0.000000
v -2.598500 14.700001 0.000000
v -2.598500 15.188663 0.000000
v -2.598500 15.315720 0.000000
v -2.598500 15.363320 0.000000
v -2.598500 15.451079 0.000000
v -2.598500 15.538838 0.000000
v -2.598500 15.026998 0.000000
v -2.598500 14.896031 0.000000
v -2.598500 14.781750 0.000000
v -2.561405 15.570959 -0.008921
v -2.579952 15.586137 -0.019591
v -2.579952 14.700001 -0.077145
v -2.561405 14.700001 -0.058216
v -2.561405 15.570959 0.008921
v -2.579952 15.586137 0.019591
v -2.561405 14.700001 0.058216
v -2.579952 14.700001 0.077145
v -2.561405 15.026998 -0.016520
v -2.579952 15.026998 -0.035564
v -2.579952 15.188663 -0.030043
v -2.561405 15.188663 -0.010935
v -2.579952 15.315720 -0.035767
v -2.561405 15.315720 -0.016551
v -2.561405 15.315720 0.016551
v -2.579952 15.315720 0.035767
v -2.561405 15.363320 -0.038690
v -2.579952 15.363320 -0.058019
v -2.579952 15.538838 -0.047415
v -2.561405 15.538838 -0.027893
v -2.579952 15.451079 -0.071906
v -2.561405 15.451079 -0.052498
v -2.561405 15.538838 0.027894
v -2.579952 15.538838 0.047416
v -2.579952 15.363320 0.058019
v -2.561405 15.363320 0.038690
v -2.561405 15.451079 0.052499
v -2.579952 15.451079 0.071906
v -2.579952 15.026998 0.035564
v -2.561405 15.026998 0.016520
v -2.561405 15.188663 0.010935
v -2.579952 15.188663 0.030043
v -2.561405 14.896031 -0.052600
v -2.579952 14.896031 -0.071589
v -2.579952 14.896031 0.071589
v -2.561405 14.896031 0.052600
v -2.579952 14.781750 -0.079057
v -2.561405 14.781750 -0.060113
v -2.579952 14.781750 0.079057
v -2.561405 14.781750 0.060113
v -2.579952 15.589620 -0.014896
v -2.579952 15.589620 0.014896
v -2.561405 15.577577 0.000000
v -2.579952 15.586137 -0.019591
v -2.598500 15.570959 -0.008921
v -2.598500 14.700001 -0.058216
v -2.579952 14.700001 -0.077145
v -2.579952 15.586137 0.019591
v -2.598500 15.570959 0.008921
v -2.579952 14.700001 0.077145
v -2.598500 14.700001 0.058216
v -2.579952 15.026998 -0.035564
v -2.598500 15.026998 -0.016520
v -2.598500 15.188663 -0.010935
v -2.579952 15.188663 -0.030043
v -2.598500 15.315720 -0.016551
v -2.579952 15.315720 -0.035767
v -2.579952 15.315720 0.035767
v -2.598500 15.315720 0.016551
v -2.579952 15.363320 -0.058019
v -2.598500 15.363320 -0.038690
v -2.598500 15.538838 -0.027893
v -2.579952 15.538838 -0.047415
v -2.598500 15.451079 -0.052498
v -2.579952 15.451079 -0.071906
v -2.579952 15.538838 0.047416
v -2.598500 15.538838 0.027894
v -2.598500 15.363320 0.038690
v -2.579952 15.363320 0.058019
v -2.579952 15.451079 0.071906
v -2.598500 15.451079 0.052499
v -2.598500 15.026998 0.016520
v -2.579952 15.026998 0.035564
v -2.579952 15.188663 0.030043
v -2.598500 15.188663 0.010935
v -2.579952 14.896031 -0.071589
v -2.598500 14.896031 -0.052600
v -2.598500 14.896031 0.052600
v -2.579952 14.896031 0.071589
v -2.598500 14.781750 -0.060113
v -2.579952 14.781750 -0.079057
v -2.598500 14.781750 0.060113
v -2.579952 14.781750 0.079057
v -2.579952 15.589620 -0.014896
v -2.598500 15.577577 0.000000
v -2.579952 15.589620 0.014896
vn 0.9675 -0.0059 0.2527
vn 0.9275 0.0077 0.3737
vn 0.4013 0.0189 0.9158
vn -0.7070 -0.0165 0.7070
vn 0.9179 -0.1038 0.3830
vn 0.9295 -0.1017 0.3546
vn 0.4589 -0.2449 0.8541
vn 0.2981 -0.2497 0.9213
vn 1.0000 -0.0000 -0.0000
vn 0.8386 -0.5149 0.1777
vn 0.9919 -0.0783 -0.0996
vn 0.9364 0.0186 0.3505
vn 0.4998 0.0458 0.8649
vn 0.8569 -0.4022 0.3225
vn 0.4852 -0.0917 0.8696
vn 0.2205 0.5377 0.8138
vn -0.3569 -0.5747 0.7364
vn -0.1231 0.8869 0.4452
vn 0.9287 0.0590 0.3660
vn 0.9214 0.0620 0.3837
vn 0.3246 0.1510 0.9337
vn 0.4352 0.1432 0.8889
vn 0.8394 -0.4190 0.3461
vn 0.9957 0.0542 -0.0753
vn -0.7838 -0.2436 -0.5713
vn -0.9799 0.1881 0.0666
vn -1.0000 -0.0000 -0.0000
vn -0.8572 0.1215 -0.5004
vn 0.9179 -0.1038 -0.3830
vn 0.9254 -0.0020 -0.3789
vn 0.3555 -0.0048 -0.9346
vn 0.2981 -0.2497 -0.9213
vn 0.9214 0.0620 -0.3837
vn 0.9287 0.0590 -0.3660
vn 0.4352 0.1432 -0.8889
vn 0.3246 0.1510 -0.9337
vn 0.8465 0.3318 -0.4163
vn 0.9267 0.1396 -0.3489
vn 0.4565 0.3305 -0.8261
vn 0.4974 0.5915 -0.6346
vn 0.9267 0.1396 0.3489
vn 0.4565 0.3305 0.8261
vn 0.9364 0.0186 -0.3505
vn 0.4998 0.0458 -0.8649
vn 0.9295 -0.1017 -0.3546
vn 0.4589 -0.2449 -0.8541
vn 0.9254 -0.0020 0.3789
vn 0.3555 -0.0048 0.9346
vn -0.8394 -0.4190 -0.3461
vn -0.9957 0.0542 0.0753
vn -0.9890 -0.1401 0.0476
vn -0.8569 -0.4022 -0.3225
vn -0.8242 0.3190 0.4678
vn -0.9890 -0.1401 -0.0476
vn -0.8334 0.4654 0.2979
vn -0.9985 -0.0020 -0.0544
vn -0.9994 0.0294 -0.0188
vn -0.7509 -0.3862 0.5358
vn -0.9991 0.0090 -0.0404
vn -0.8416 0.4794 0.2489
vn -0.8441 -0.3652 -0.3925
vn -0.9991 0.0090 0.0404
vn -0.8291 -0.4883 -0.2722
vn -0.9740 -0.2261 0.0153
vn -0.9799 0.1881 -0.0666
vn -0.7940 0.5843 -0.1677
vn 0.9957 0.0542 0.0753
vn 0.8416 0.4794 -0.2489
vn 0.7940 0.5843 0.1677
vn 0.9933 -0.1153 -0.0000
vn 0.8318 0.5409 -0.1245
vn 0.8402 -0.2655 0.4729
vn 0.8441 -0.3652 0.3925
vn 0.9991 0.0090 -0.0404
vn 0.9991 0.0090 0.0404
vn 0.7509 -0.3862 -0.5358
vn 0.9275 0.0077 -0.3737
vn 0.7214 -0.0161 -0.6923
vn 0.8725 -0.0114 -0.4884
vn 0.4013 0.0189 -0.9158
vn 0.8457 0.3121 -0.4329
vn 0.9994 0.0294 0.0188
vn 0.9985 -0.0020 0.0544
vn 0.7838 -0.2436 0.5713
vn 0.8242 0.3190 -0.4678
vn 0.9740 -0.2261 -0.0153
vn 0.8023 -0.4418 0.4013
vn 0.7539 0.3003 -0.5843
vt 0.731105 0.864147
vt 0.731105 0.865814
vt 0.731105 0.876706
vt 0.731105 0.877677
vt 0.731484 0.877677
vt 0.731484 0.876706
vt 0.731105 0.879467
vt 0.731484 0.879467
vt 0.731105 0.882222
vt 0.731105 0.882293
vt 0.731105 0.868145
vt 0.731105 0.870817
vt 0.731484 0.874114
vt 0.731484 0.870817
vt 0.730727 0.881912
vt 0.730727 0.881257
vt 0.730727 0.882047
vt 0.731105 0.874114
vt 0.731105 0.881257
vt 0.730727 0.874114
vt 0.730727 0.870817
vt 0.730727 0.877677
vt 0.730727 0.879467
vt 0.730727 0.876706
vt 0.730727 0.865814
vt 0.730727 0.864147
vt 0.730727 0.868145
vt 0.731484 0.868145
vt 0.731484 0.881912
vt 0.731484 0.882047
vt 0.731484 0.881257
vt 0.731484 0.865814
vt 0.731484 0.864147
s 1
f 26/1/1 57/2/2 101/2/3 68/1/4
f 34/3/5 43/4/6 87/4/7 76/3/8
f 4/5/9 44/5/10 33/6/11 3/6/9
f 43/4/6 46/7/12 88/7/13 87/4/7
f 4/5/9 5/8/9 45/8/14 44/5/10
f 24/9/15 60/10/16 104/10/17 66/9/18
f 53/11/19 47/12/20 91/12/21 97/11/22
f 2/13/9 49/13/23 48/14/24 7/14/9
f 63/15/25 80/16/26 15/16/27 103/17/28
f 57/2/2 53/11/19 97/11/22 101/2/3
f 31/3/29 29/18/30 73/18/31 75/3/32
f 28/12/33 52/11/34 94/11/35 70/12/36
f 20/9/37 37/19/38 81/19/39 62/9/40
f 46/7/12 42/19/41 84/19/42 88/7/13
f 37/19/38 39/7/43 83/7/44 81/19/39
f 36/4/45 31/3/29 75/3/32 78/4/46
f 50/18/47 34/3/5 76/3/8 92/18/48
f 42/19/41 24/9/15 66/9/18 84/19/42
f 72/20/49 71/21/50 16/21/27 11/20/27
f 79/22/51 13/22/27 14/23/27 82/23/52
f 13/22/27 12/24/27 77/24/53 86/22/54
f 11/20/27 16/21/27 90/21/55 93/20/56
f 13/22/27 86/22/54 89/23/57 14/23/27
f 18/25/27 10/26/27 69/26/58 100/25/59
f 16/21/27 17/27/27 96/27/60 90/21/55
f 95/27/61 98/25/62 18/25/27 17/27/27
f 17/27/27 18/25/27 100/25/59 96/27/60
f 74/24/63 72/20/49 11/20/27 12/24/27
f 71/21/50 95/27/61 17/27/27 16/21/27
f 98/25/62 64/26/64 10/26/27 18/25/27
f 14/23/27 89/23/57 85/16/65 15/16/27
f 82/23/52 14/23/27 15/16/27 80/16/26
f 79/22/51 74/24/63 12/24/27 13/22/27
f 12/24/27 11/20/27 93/20/56 77/24/53
f 103/17/28 15/16/27 85/16/65 67/15/66
f 27/14/67 7/14/9 8/28/9 51/28/68
f 19/29/69 61/30/70 6/31/9 38/31/71
f 5/8/9 6/31/9 41/31/72 45/8/14
f 3/6/9 33/6/11 49/13/23 2/13/9
f 8/28/9 54/28/73 58/32/74 9/32/9
f 56/32/75 9/32/9 1/33/9 22/33/76
f 55/2/77 21/1/78 65/1/79 99/2/80
f 35/5/81 40/8/82 5/8/9 4/5/9
f 51/28/68 8/28/9 9/32/9 56/32/75
f 30/13/83 2/13/9 7/14/9 27/14/67
f 61/30/70 23/29/84 41/31/72 6/31/9
f 29/18/30 28/12/33 70/12/36 73/18/31
f 35/5/81 4/5/9 3/6/9 32/6/85
f 47/12/20 50/18/47 92/18/48 91/12/21
f 32/6/85 3/6/9 2/13/9 30/13/83
f 39/7/43 36/4/45 78/4/46 83/7/44
f 9/32/9 58/32/74 25/33/86 1/33/9
f 7/14/9 48/14/24 54/28/73 8/28/9
f 40/8/82 38/31/71 6/31/9 5/8/9
f 52/11/34 55/2/77 99/2/80 94/11/35
f 59/10/87 60/10/16 61/30/70
f 102/10/88 103/17/28 104/10/17
f 61/30/70 19/29/69 20/9/37 59/10/87
f 56/32/75 22/33/76 21/1/78 55/2/77
f 30/13/83 27/14/67 28/12/33 29/18/30
f 32/6/85 30/13/83 29/18/30 31/3/29
f 48/14/24 49/13/23 50/18/47 47/12/20
f 54/28/73 48/14/24 47/12/20 53/11/19
f 49/13/23 33/6/11 34/3/5 50/18/47
f 40/8/82 35/5/81 36/4/45 39/7/43
f 44/5/10 45/8/14 46/7/12 43/4/6
f 38/31/71 40/8/82 39/7/43 37/19/38
f 45/8/14 41/31/72 42/19/41 46/7/12
f 19/29/69 38/31/71 37/19/38 20/9/37
f 41/31/72 23/29/84 24/9/15 42/19/41
f 35/5/81 32/6/85 31/3/29 36/4/45
f 33/6/11 44/5/10 43/4/6 34/3/5
f 27/14/67 51/28/68 52/11/34 28/12/33
f 58/32/74 54/28/73 53/11/19 57/2/2
f 51/28/68 56/32/75 55/2/77 52/11/34
f 25/33/86 58/32/74 57/2/2 26/1/1
f 23/29/84 61/30/70 60/10/16 24/9/15
f 102/10/88 62/9/40 63/15/25 103/17/28
f 99/2/80 65/1/79 64/26/64 98/25/62
f 73/18/31 70/12/36 71/21/50 72/20/49
f 75/3/32 73/18/31 72/20/49 74/24/63
f 91/12/21 92/18/48 93/20/56 90/21/55
f 97/11/22 91/12/21 90/21/55 96/27/60
f 92/18/48 76/3/8 77/24/53 93/20/56
f 83/7/44 78/4/46 79/22/51 82/23/52
f 87/4/7 88/7/13 89/23/57 86/22/54
f 81/19/39 83/7/44 82/23/52 80/16/26
f 88/7/13 84/19/42 85/16/65 89/23/57
f 62/9/40 81/19/39 80/16/26 63/15/25
f 84/19/42 66/9/18 67/15/66 85/16/65
f 78/4/46 75/3/32 74/24/63 79/22/51
f 76/3/8 87/4/7 86/22/54 77/24/53
f 70/12/36 94/11/35 95/27/61 71/21/50
f 101/2/3 97/11/22 96/27/60 100/25/59
f 94/11/35 99/2/80 98/25/62 95/27/61
f 68/1/4 101/2/3 100/25/59 69/26/58
f 66/9/18 104/10/17 103/17/28 67/15/66
f 104/10/17 60/10/16 59/10/87 102/10/88
f 59/10/87 20/9/37 62/9/40 102/10/88
