# Blender 4.4.3
# www.blender.org
o Clock_Hour_Hand_Min
v -2.524311 14.700001 0.000000
v -2.524311 13.979538 0.000000
v -2.524311 13.792209 0.000000
v -2.524311 13.722028 0.000000
v -2.524311 13.592640 -0.000000
v -2.524311 13.463251 -0.000000
v -2.524311 14.217889 0.000000
v -2.524311 14.458945 0.000000
v -2.524311 14.579473 0.000000
v -2.561405 14.700001 -0.000000
v -2.561405 13.979538 -0.000000
v -2.561405 13.792209 -0.000000
v -2.561405 13.722028 -0.000000
v -2.561405 13.592640 -0.000000
v -2.561405 13.463251 -0.000000
v -2.561405 14.217889 0.000000
v -2.561405 14.458945 -0.000000
v -2.561405 14.579473 -0.000000
v -2.524311 13.410793 0.010256
v -2.542858 13.393517 0.019591
v -2.542858 14.700001 0.077145
v -2.524311 14.700001 0.058332
v -2.524311 13.410793 -0.010256
v -2.542858 13.393517 -0.019591
v -2.524311 14.700001 -0.058332
v -2.542858 14.700001 -0.077145
v -2.524311 14.217889 0.026025
v -2.542858 14.217889 0.044930
v -2.542858 13.979538 0.033047
v -2.524311 13.979538 0.014069
v -2.542858 13.792209 0.045647
v -2.524311 13.792209 0.026564
v -2.524311 13.792209 -0.026564
v -2.542858 13.792209 -0.045647
v -2.524311 13.722028 0.054855
v -2.542858 13.722028 0.074045
v -2.542858 13.463251 0.060512
v -2.524311 13.463251 0.041121
v -2.542858 13.592640 0.091767
v -2.524311 13.592640 0.072493
v -2.524311 13.463251 -0.041121
v -2.542858 13.463251 -0.060512
v -2.542858 13.722028 -0.074045
v -2.524311 13.722028 -0.054855
v -2.524311 13.592640 -0.072493
v -2.542858 13.592640 -0.091767
v -2.542858 14.217889 -0.044930
v -2.524311 14.217889 -0.026025
v -2.524311 13.979538 -0.014069
v -2.542858 13.979538 -0.033047
v -2.524311 14.458945 0.052734
v -2.542858 14.458945 0.071589
v -2.542858 14.458945 -0.071589
v -2.524311 14.458945 -0.052734
v -2.542858 14.579473 0.079057
v -2.524311 14.579473 0.060233
v -2.542858 14.579473 -0.079057
v -2.524311 14.579473 -0.060233
v -2.542858 13.385777 0.012515
v -2.542858 13.385777 -0.012515
v -2.524311 13.399576 -0.000000
v -2.542858 13.393517 0.019591
v -2.561405 13.410793 0.010256
v -2.561405 14.700001 0.058332
v -2.542858 14.700001 0.077145
v -2.542858 13.393517 -0.019591
v -2.561405 13.410793 -0.010256
v -2.542858 14.700001 -0.077145
v -2.561405 14.700001 -0.058332
v -2.542858 14.217889 0.044930
v -2.561405 14.217889 0.026025
v -2.561405 13.979538 0.014069
v -2.542858 13.979538 0.033047
v -2.561405 13.792209 0.026564
v -2.542858 13.792209 0.045647
v -2.542858 13.792209 -0.045647
v -2.561405 13.792209 -0.026564
v -2.542858 13.722028 0.074045
v -2.561405 13.722028 0.054855
v -2.561405 13.463251 0.041121
v -2.542858 13.463251 0.060512
v -2.561405 13.592640 0.072493
v -2.542858 13.592640 0.091767
v -2.542858 13.463251 -0.060512
v -2.561405 13.463251 -0.041121
v -2.561405 13.722028 -0.054855
v -2.542858 13.722028 -0.074045
v -2.542858 13.592640 -0.091767
v -2.561405 13.592640 -0.072493
v -2.561405 14.217889 -0.026025
v -2.542858 14.217889 -0.044930
v -2.542858 13.979538 -0.033047
v -2.561405 13.979538 -0.014069
v -2.542858 14.458945 0.071589
v -2.561405 14.458945 0.052734
v -2.561405 14.458945 -0.052734
v -2.542858 14.458945 -0.071589
v -2.561405 14.579473 0.060233
v -2.542858 14.579473 0.079057
v -2.561405 14.579473 -0.060233
v -2.542858 14.579473 -0.079057
v -2.542858 13.385777 0.012515
v -2.561405 13.399576 -0.000000
v -2.542858 13.385777 -0.012515
vn 0.5500 0.4001 -0.7331
vn 0.3828 -0.0218 -0.9236
vn -0.3591 0.3612 -0.8606
vn 0.0101 0.2386 -0.9711
vn 0.3408 -0.1982 -0.9190
vn 0.3760 0.2062 -0.9034
vn -0.3652 0.5907 -0.7196
vn 0.0114 0.2337 -0.9722
vn 1.0000 -0.0000 -0.0000
vn 0.8393 0.5057 -0.1995
vn 0.9930 0.0769 0.0899
vn -0.0872 -0.0902 -0.9921
vn -0.3693 0.3761 -0.8498
vn 0.8538 0.4059 -0.3260
vn 0.2214 -0.8796 -0.4212
vn -0.5049 -0.8052 0.3111
vn -0.4743 -0.5088 -0.7184
vn -0.2382 -0.4939 -0.8363
vn 0.3292 -0.5992 -0.7298
vn 0.3891 -0.0833 -0.9174
vn -0.3629 0.2646 -0.8935
vn -0.2315 -0.3603 -0.9037
vn 0.8370 0.4213 -0.3493
vn 0.9980 -0.0317 0.0547
vn -0.7715 0.2774 0.5726
vn -0.9811 -0.1834 -0.0622
vn -1.0000 -0.0000 -0.0000
vn -0.9063 -0.0255 0.4219
vn 0.3378 0.5943 0.7299
vn -0.0378 0.0062 0.9993
vn -0.3459 -0.4223 0.8379
vn 0.0115 0.2337 0.9722
vn 0.3471 0.3599 0.8660
vn 0.3836 -0.0849 0.9196
vn -0.3524 -0.4867 0.7994
vn 0.0434 -0.0808 0.9958
vn 0.4924 -0.2883 0.8212
vn -0.0717 -0.3343 0.9397
vn -0.3568 -0.6825 0.6379
vn 0.3206 -0.5897 0.7412
vn -0.0717 -0.3343 -0.9397
vn -0.3443 0.1253 -0.9305
vn -0.0829 -0.0183 0.9964
vn -0.3719 -0.4666 0.8025
vn 0.3518 0.6418 0.6814
vn -0.3727 0.2701 0.8878
vn 0.3446 -0.4302 -0.8344
vn 0.0376 -0.0033 -0.9993
vn -0.8370 0.4213 0.3493
vn -0.9980 -0.0317 -0.0547
vn -0.9916 0.1211 -0.0447
vn -0.8538 0.4059 0.3260
vn -0.8259 -0.3291 -0.4578
vn -0.9916 0.1211 0.0447
vn -0.8372 -0.4478 -0.3140
vn -0.9983 0.0032 0.0586
vn -0.9995 -0.0250 0.0215
vn -0.7488 0.3851 -0.5394
vn -0.9991 -0.0099 0.0417
vn -0.8391 -0.4527 -0.3016
vn -0.8394 0.3936 0.3748
vn -0.9991 -0.0099 -0.0417
vn -0.8298 0.4869 0.2726
vn -0.9744 0.2245 -0.0138
vn -0.9811 -0.1834 0.0622
vn -0.7811 -0.6187 0.0839
vn 0.9980 -0.0317 -0.0547
vn 0.8391 -0.4527 0.3016
vn 0.7811 -0.6187 -0.0839
vn 0.9912 0.1325 -0.0000
vn 0.8323 -0.5387 0.1303
vn 0.8416 0.2752 -0.4646
vn 0.8394 0.3936 -0.3748
vn 0.9991 -0.0099 0.0417
vn 0.9991 -0.0099 -0.0417
vn 0.7488 0.3851 0.5394
vn 0.3506 0.4159 0.8391
vn -0.0101 0.2386 0.9711
vn -0.5500 0.4001 0.7331
vn 0.0580 -0.0236 0.9980
vn 0.8447 -0.3279 0.4231
vn 0.9995 -0.0250 -0.0215
vn 0.9983 0.0032 -0.0586
vn 0.7715 0.2774 -0.5726
vn 0.8259 -0.3291 0.4578
vn 0.9744 0.2245 0.0138
vn 0.3881 -0.8627 -0.3244
vn -0.9452 -0.3130 -0.0932
vt 0.731862 0.864147
vt 0.731862 0.861688
vt 0.731862 0.845629
vt 0.731862 0.844198
vt 0.732240 0.844198
vt 0.732240 0.845629
vt 0.731862 0.841559
vt 0.732240 0.841559
vt 0.731862 0.837497
vt 0.731862 0.837339
vt 0.731862 0.859230
vt 0.731862 0.854312
vt 0.732240 0.849451
vt 0.732240 0.854312
vt 0.731484 0.837849
vt 0.731484 0.838919
vt 0.731484 0.837620
vt 0.731862 0.849451
vt 0.731862 0.838919
vt 0.731484 0.849451
vt 0.731484 0.854312
vt 0.731484 0.844198
vt 0.731484 0.841559
vt 0.731484 0.845629
vt 0.731484 0.861688
vt 0.731484 0.864147
vt 0.731484 0.859230
vt 0.732240 0.859230
vt 0.732240 0.837849
vt 0.732240 0.837620
vt 0.732240 0.838919
vt 0.732240 0.861688
vt 0.732240 0.864147
s 1
f 26/1/1 57/2/2 101/2/3 68/1/4
f 34/3/5 43/4/6 87/4/7 76/3/8
f 4/5/9 44/5/10 33/6/11 3/6/9
f 43/4/6 46/7/12 88/7/13 87/4/7
f 4/5/9 5/8/9 45/8/14 44/5/10
f 24/9/15 60/10/16 104/10/17 66/9/18
f 53/11/19 47/12/20 91/12/21 97/11/22
f 2/13/9 49/13/23 48/14/24 7/14/9
f 63/15/25 80/16/26 15/16/27 103/17/28
f 57/2/2 53/11/19 97/11/22 101/2/3
f 31/3/29 29/18/30 73/18/31 75/3/32
f 28/12/33 52/11/34 94/11/35 70/12/36
f 20/9/37 37/19/38 81/19/39 62/9/40
f 46/7/12 42/19/41 84/19/42 88/7/13
f 37/19/38 39/7/43 83/7/44 81/19/39
f 36/4/45 31/3/29 75/3/32 78/4/46
f 50/18/47 34/3/5 76/3/8 92/18/48
f 42/19/41 24/9/15 66/9/18 84/19/42
f 72/20/49 71/21/50 16/21/27 11/20/27
f 79/22/51 13/22/27 14/23/27 82/23/52
f 13/22/27 12/24/27 77/24/53 86/22/54
f 11/20/27 16/21/27 90/21/55 93/20/56
f 13/22/27 86/22/54 89/23/57 14/23/27
f 18/25/27 10/26/27 69/26/58 100/25/59
f 16/21/27 17/27/27 96/27/60 90/21/55
f 95/27/61 98/25/62 18/25/27 17/27/27
f 17/27/27 18/25/27 100/25/59 96/27/60
f 74/24/63 72/20/49 11/20/27 12/24/27
f 71/21/50 95/27/61 17/27/27 16/21/27
f 98/25/62 64/26/64 10/26/27 18/25/27
f 14/23/27 89/23/57 85/16/65 15/16/27
f 82/23/52 14/23/27 15/16/27 80/16/26
f 79/22/51 74/24/63 12/24/27 13/22/27
f 12/24/27 11/20/27 93/20/56 77/24/53
f 103/17/28 15/16/27 85/16/65 67/15/66
f 27/14/67 7/14/9 8/28/9 51/28/68
f 19/29/69 61/30/70 6/31/9 38/31/71
f 5/8/9 6/31/9 41/31/72 45/8/14
f 3/6/9 33/6/11 49/13/23 2/13/9
f 8/28/9 54/28/73 58/32/74 9/32/9
f 56/32/75 9/32/9 1/33/9 22/33/76
f 55/2/77 21/1/78 65/1/79 99/2/80
f 35/5/81 40/8/82 5/8/9 4/5/9
f 51/28/68 8/28/9 9/32/9 56/32/75
f 30/13/83 2/13/9 7/14/9 27/14/67
f 61/30/70 23/29/84 41/31/72 6/31/9
f 29/18/30 28/12/33 70/12/36 73/18/31
f 35/5/81 4/5/9 3/6/9 32/6/85
f 47/12/20 50/18/47 92/18/48 91/12/21
f 32/6/85 3/6/9 2/13/9 30/13/83
f 39/7/43 36/4/45 78/4/46 83/7/44
f 9/32/9 58/32/74 25/33/86 1/33/9
f 7/14/9 48/14/24 54/28/73 8/28/9
f 40/8/82 38/31/71 6/31/9 5/8/9
f 52/11/34 55/2/77 99/2/80 94/11/35
f 59/10/87 60/10/16 61/30/70
f 102/10/88 103/17/28 104/10/17
f 61/30/70 19/29/69 20/9/37 59/10/87
f 56/32/75 22/33/76 21/1/78 55/2/77
f 30/13/83 27/14/67 28/12/33 29/18/30
f 32/6/85 30/13/83 29/18/30 31/3/29
f 48/14/24 49/13/23 50/18/47 47/12/20
f 54/28/73 48/14/24 47/12/20 53/11/19
f 49/13/23 33/6/11 34/3/5 50/18/47
f 40/8/82 35/5/81 36/4/45 39/7/43
f 44/5/10 45/8/14 46/7/12 43/4/6
f 38/31/71 40/8/82 39/7/43 37/19/38
f 45/8/14 41/31/72 42/19/41 46/7/12
f 19/29/69 38/31/71 37/19/38 20/9/37
f 41/31/72 23/29/84 24/9/15 42/19/41
f 35/5/81 32/6/85 31/3/29 36/4/45
f 33/6/11 44/5/10 43/4/6 34/3/5
f 27/14/67 51/28/68 52/11/34 28/12/33
f 58/32/74 54/28/73 53/11/19 57/2/2
f 51/28/68 56/32/75 55/2/77 52/11/34
f 25/33/86 58/32/74 57/2/2 26/1/1
f 23/29/84 61/30/70 60/10/16 24/9/15
f 102/10/88 62/9/40 63/15/25 103/17/28
f 99/2/80 65/1/79 64/26/64 98/25/62
f 73/18/31 70/12/36 71/21/50 72/20/49
f 75/3/32 73/18/31 72/20/49 74/24/63
f 91/12/21 92/18/48 93/20/56 90/21/55
f 97/11/22 91/12/21 90/21/55 96/27/60
f 92/18/48 76/3/8 77/24/53 93/20/56
f 83/7/44 78/4/46 79/22/51 82/23/52
f 87/4/7 88/7/13 89/23/57 86/22/54
f 81/19/39 83/7/44 82/23/52 80/16/26
f 88/7/13 84/19/42 85/16/65 89/23/57
f 62/9/40 81/19/39 80/16/26 63/15/25
f 84/19/42 66/9/18 67/15/66 85/16/65
f 78/4/46 75/3/32 74/24/63 79/22/51
f 76/3/8 87/4/7 86/22/54 77/24/53
f 70/12/36 94/11/35 95/27/61 71/21/50
f 101/2/3 97/11/22 96/27/60 100/25/59
f 94/11/35 99/2/80 98/25/62 95/27/61
f 68/1/4 101/2/3 100/25/59 69/26/58
f 66/9/18 104/10/17 103/17/28 67/15/66
f 104/10/17 60/10/16 59/10/87 102/10/88
f 59/10/87 20/9/37 62/9/40 102/10/88
