# Blender 4.4.3
# www.blender.org
o Fence_Broken_Left_Connection
v 0.045526 0.032968 0.973780
v 0.030672 -0.020850 0.973803
v 0.171974 -0.013165 0.958816
v 0.157120 -0.066982 0.958839
v 0.314667 0.596867 0.974522
v 0.290128 0.547959 0.974406
v 0.429601 0.520700 0.959558
v 0.405062 0.471792 0.959442
v -0.066525 0.012436 -1.150316
v -0.066851 0.616490 -1.154621
v -0.066851 0.558852 -1.154594
v 0.055722 0.616490 -1.154621
v 0.055722 0.558852 -1.154594
v 0.067194 0.561950 -0.300605
v 0.176997 0.563566 0.424180
v 0.043034 0.510053 0.430747
v -0.066310 0.508397 -0.287471
v 0.043504 0.565675 0.425918
v -0.066310 0.563184 -0.297128
v 0.176527 0.507944 0.429008
v 0.067194 0.507163 -0.290948
v 0.066752 -0.033732 -0.281965
v 0.171719 -0.034471 0.433500
v 0.037744 -0.089438 0.433500
v -0.066752 -0.090193 -0.281965
v 0.038221 -0.032980 0.433500
v -0.066752 -0.033732 -0.281965
v 0.171242 -0.090930 0.433500
v 0.066752 -0.090193 -0.281965
v -0.065222 -0.596620 0.911046
v -0.038089 -0.606519 0.890031
v -0.041870 -0.605140 0.854871
v -0.072782 -0.593862 0.840726
v -0.099915 -0.583963 0.861741
v -0.096135 -0.585342 0.896900
v -0.000078 -0.624922 -0.783705
v 0.036285 -0.624922 -0.804700
v 0.036285 -0.624922 -0.846688
v -0.000078 -0.624922 -0.867682
v -0.036441 -0.624922 -0.846688
v -0.036441 -0.624922 -0.804700
v 0.003979 0.175272 -0.812494
v 0.033816 0.188772 -0.831568
v 0.031487 0.210390 -0.866157
v -0.000679 0.218507 -0.881672
v -0.030516 0.205006 -0.862598
v -0.028187 0.183389 -0.828010
v 0.024342 -0.222004 0.794004
v 0.051475 -0.231902 0.772990
v 0.047695 -0.230523 0.737830
v 0.016782 -0.219245 0.723685
v -0.010351 -0.209346 0.744699
v -0.006571 -0.210726 0.779859
v 0.159375 0.179416 0.794004
v 0.184037 0.163072 0.772990
v 0.180601 0.165349 0.737830
v 0.152503 0.183970 0.723685
v 0.127841 0.200313 0.744699
v 0.131277 0.198036 0.779859
v 0.342253 0.514294 0.908852
v 0.366936 0.498183 0.887223
v 0.363268 0.501090 0.851041
v 0.335529 0.519725 0.836806
v 0.311086 0.535676 0.858464
v 0.314096 0.533198 0.894227
v 0.030388 0.549607 -0.789208
v 0.028010 0.552739 -0.826050
v -0.003705 0.554643 -0.842264
v -0.033770 0.553387 -0.821294
v -0.031608 0.550276 -0.784975
v 0.000354 0.548392 -0.768595
v -0.030831 -0.043379 -0.822509
v -0.029660 0.013117 -0.822914
v 0.002361 -0.044887 -0.805103
v 0.003064 0.011713 -0.806703
v -0.032370 -0.040303 -0.858029
v -0.031653 0.016186 -0.858347
v -0.000983 -0.038503 -0.878821
v -0.000388 0.017876 -0.877862
v 0.032710 -0.040067 -0.860755
v 0.032601 0.016471 -0.861637
v 0.032687 0.016480 -0.861747
v 0.034282 -0.043145 -0.825210
v 0.034016 0.013362 -0.825739
v 0.043712 -0.028048 0.778510
v 0.063548 0.063102 0.781966
v 0.074584 -0.039072 0.793174
v 0.091948 0.044528 0.795509
v 0.039885 -0.027117 0.743197
v 0.060306 0.064732 0.746199
v 0.067050 -0.037263 0.721911
v 0.084778 0.048259 0.725174
v 0.097768 -0.048237 0.736186
v 0.112849 0.029913 0.739489
v 0.101967 -0.049293 0.772244
v 0.116630 0.027914 0.774303
v 0.067352 0.550358 -0.805713
v -0.066153 0.551824 -0.798531
v 0.066752 -0.041616 -0.842877
v 0.032601 -0.040023 -0.861265
v 0.407276 0.538308 0.719610
v 0.267827 0.566101 0.732589
v 0.292464 0.614565 0.735166
v 0.382639 0.489844 0.717033
v -0.008986 -0.011022 0.615762
v 0.006177 0.042560 0.618899
v 0.132625 -0.003573 0.603935
v 0.117463 -0.057155 0.600798
v 0.122096 0.562758 0.061787
v -0.011638 0.509225 0.071638
v -0.011403 0.564429 0.064395
v 0.121861 0.507554 0.069030
v 0.149546 0.563162 0.242983
v 0.015698 0.509639 0.251192
v 0.016051 0.565052 0.245157
v 0.149194 0.507749 0.249019
v -0.066525 -0.043950 -1.147411
v -0.066752 -0.036154 -0.996077
v 0.055676 0.012436 -1.150316
v 0.055676 -0.043950 -1.147411
v 0.066752 0.007227 -0.826176
v -0.066752 0.006198 -0.812504
vn 0.8965 -0.0207 -0.4426
vn -0.9007 -0.0220 -0.4339
vn -0.9102 -0.0209 -0.4137
vn 0.9095 -0.0193 -0.4152
vn 0.1070 -0.0291 0.9938
vn 0.0105 -0.9992 -0.0381
vn -0.0047 -0.9996 -0.0278
vn 0.0106 -0.9985 -0.0532
vn 0.0296 -0.9960 -0.0845
vn 0.0059 -0.9990 -0.0453
vn -0.0213 -0.9998 -0.0004
vn 0.0139 -0.9988 -0.0465
vn -0.0103 -0.9983 -0.0576
vn -0.0081 -0.9992 -0.0381
vn -0.0057 -0.9998 -0.0177
vn -0.0078 -0.9993 -0.0361
vn -0.0102 -0.9983 -0.0569
vn 0.0960 -0.0505 0.9941
vn -0.0120 -0.9993 -0.0368
vn -0.0134 -0.9964 -0.0843
vn -0.0122 -0.9989 -0.0451
vn 0.9972 0.0294 -0.0691
vn 0.9976 0.0693 -0.0092
vn 0.9959 0.0157 -0.0895
vn -0.0000 -0.0005 -1.0000
vn 0.0029 0.9989 0.0459
vn -0.0018 0.9991 0.0434
vn -0.0012 0.9987 0.0517
vn 0.0007 0.9965 0.0833
vn -0.0013 0.9987 0.0514
vn -0.0019 0.9992 0.0407
vn 0.0034 0.9993 0.0375
vn -0.8578 0.3083 0.4112
vn -0.8861 0.3882 0.2531
vn -0.8879 0.4453 0.1153
vn 0.0080 0.9994 0.0328
vn 0.0057 0.9980 0.0628
vn 0.0085 0.9996 0.0260
vn -0.9749 0.2032 -0.0915
vn -0.9752 0.2128 -0.0615
vn -0.9577 0.2644 0.1133
vn -0.9884 0.0226 0.1502
vn -0.9884 0.0227 0.1502
vn -0.9398 0.0960 0.3280
vn -0.9375 0.0984 0.3337
vn 0.8831 -0.3832 -0.2708
vn 0.9407 -0.0914 -0.3267
vn 0.9318 -0.1002 -0.3488
vn 0.8539 -0.3111 -0.4171
vn 0.9884 -0.0243 -0.1499
vn 0.9884 -0.0241 -0.1499
vn -0.3918 -0.9066 0.1564
vn -0.4894 -0.8700 0.0600
vn -0.1941 -0.9642 0.1807
vn -0.0776 -0.9948 0.0657
vn -0.0123 -0.9999 0.0036
vn -0.0118 -0.9999 0.0035
vn 0.3909 0.9074 -0.1541
vn 0.0747 0.9953 -0.0622
vn 0.1954 0.9645 -0.1778
vn 0.4922 0.8687 -0.0560
vn 0.0118 0.9999 -0.0046
vn 0.0123 0.9999 -0.0047
vn -0.0309 -0.9994 0.0155
vn -0.9974 0.0023 0.0726
vn -0.9976 0.0022 0.0697
vn -0.9946 0.0778 -0.0682
vn -0.9977 0.0634 -0.0259
vn 0.3820 0.9212 0.0738
vn 0.2134 0.9611 -0.1753
vn 0.2043 0.9605 -0.1889
vn 0.3804 0.9220 0.0714
vn 0.3249 0.9457 -0.0124
vn 0.2550 0.9605 -0.1110
vn 0.3188 0.9476 -0.0213
vn 0.0853 0.9877 -0.1309
vn 0.0796 0.9894 -0.1217
vn 0.9741 -0.2097 0.0845
vn 0.9950 -0.0736 0.0675
vn 0.9966 -0.0674 0.0483
vn 0.9740 -0.2082 0.0893
vn 0.9971 -0.0011 -0.0763
vn 0.9968 -0.0013 -0.0793
vn -0.3415 -0.9398 0.0119
vn -0.2436 -0.9580 0.1510
vn -0.2701 -0.9560 0.1148
vn -0.3415 -0.9398 0.0120
vn -0.3414 -0.9398 0.0121
vn -0.0739 -0.9905 0.1157
vn -0.0878 -0.9864 0.1390
vn 0.8234 -0.4962 0.2753
vn 0.0239 -0.1738 0.9845
vn 0.1225 -0.3804 0.9167
vn 0.8099 -0.5287 0.2542
vn 0.7922 -0.2967 -0.5333
vn 0.8688 -0.3577 -0.3425
vn 0.2413 0.1898 -0.9517
vn -0.0245 0.1619 -0.9865
vn -0.7816 0.5350 -0.3208
vn -0.8212 0.4540 -0.3456
vn -0.7489 0.1920 0.6342
vn -0.7941 0.3659 0.4853
vn -0.3427 -0.9394 -0.0000
vn 0.9255 0.0530 -0.3750
vn 0.9178 0.0250 -0.3961
vn 0.9632 -0.0084 0.2688
vn 0.9552 -0.0253 0.2950
vn -0.0718 0.0533 -0.9960
vn -0.0946 0.1155 -0.9888
vn -0.9531 0.0084 -0.3025
vn -0.9642 0.0222 -0.2641
vn -0.9214 -0.0539 0.3848
vn -0.9270 -0.0156 0.3746
vn 0.0787 -0.0347 0.9963
vn 0.0683 -0.1158 0.9909
vn -0.0000 -1.0000 -0.0000
vn 0.0575 0.0345 0.9977
vn -0.9130 0.0196 0.4074
vn -0.9646 0.0008 -0.2637
vn -0.9353 0.0193 0.3532
vn -0.9513 0.0010 -0.3081
vn -0.9416 0.0002 -0.3367
vn -0.9422 0.0187 0.3345
vn -0.0664 -0.0193 -0.9976
vn -0.0262 -0.0185 -0.9995
vn -0.0280 -0.0185 -0.9994
vn 0.9322 -0.0046 -0.3619
vn 0.9396 -0.0032 -0.3421
vn 0.9285 -0.0039 -0.3714
vn 0.9483 0.0132 0.3170
vn 0.9462 0.0152 0.3232
vn 0.9550 0.0144 0.2963
vn 0.0195 0.0367 0.9991
vn 0.0278 0.0367 0.9989
vn -0.8363 0.3354 0.4336
vn -0.8542 0.2987 0.4255
vn 0.1767 0.1138 0.9777
vn 0.1073 0.2730 0.9560
vn -0.9699 0.1810 -0.1628
vn -0.9367 0.1742 -0.3037
vn -0.3551 -0.2004 -0.9131
vn -0.2019 -0.0969 -0.9746
vn 0.8181 -0.3404 -0.4635
vn 0.8236 -0.2760 -0.4955
vn 0.9213 -0.1031 0.3751
vn 0.9430 -0.2187 0.2510
vn -0.8257 0.4180 0.3788
vn -0.0630 0.0443 0.9970
vn -0.8105 0.2265 0.5402
vn 0.2738 -0.0708 0.9592
vn -0.8722 0.4335 -0.2264
vn -0.9123 0.2484 -0.3257
vn -0.3033 0.1405 -0.9425
vn 0.0216 -0.0151 -0.9997
vn 0.7028 -0.3582 -0.6147
vn 0.8908 -0.2488 -0.3802
vn 0.8275 -0.4093 0.3843
vn 0.9416 -0.2588 0.2155
vn 0.4184 0.8986 0.1320
vn -0.5538 -0.8326 -0.0114
vn -0.5535 -0.8328 -0.0122
vn -0.5537 -0.8326 -0.0115
vn -0.3415 -0.9398 0.0118
vn 0.9999 0.0017 -0.0127
vn 0.5537 0.8326 0.0099
vn -0.5540 -0.8325 -0.0107
vn 0.8879 -0.4453 -0.1153
vn 0.9577 -0.2644 -0.1133
vn 0.0139 0.9999 -0.0049
vn 0.0142 0.9999 -0.0050
vn -0.0143 -0.9999 0.0039
vn -0.0139 -0.9999 0.0038
vn 0.9884 -0.0227 -0.1499
vn 0.9884 -0.0226 -0.1499
vn -0.9963 0.0122 0.0853
vn -0.9979 0.0078 0.0636
vn -0.9884 0.0243 0.1502
vn -0.9884 0.0242 0.1502
vn -1.0000 -0.0048 0.0003
vn -0.0047 1.0000 -0.0040
vn -1.0000 0.0004 -0.0002
vt 0.063555 0.313974
vt 0.063362 0.341375
vt 0.050183 0.341326
vt 0.050376 0.313925
vt 0.044284 0.322170
vt 0.044284 0.379083
vt 0.030966 0.379083
vt 0.030966 0.322170
vt 0.049509 0.312267
vt 0.049257 0.249935
vt 0.057687 0.251914
vt 0.065972 0.254169
vt 0.074589 0.252225
vt 0.074998 0.248231
vt 0.091472 0.254406
vt 0.083677 0.312247
vt 0.085267 0.257725
vt 0.076874 0.255083
vt 0.069074 0.252654
vt 0.060810 0.254426
vt 0.050569 0.256648
vt 0.034150 0.368398
vt 0.034283 0.320054
vt 0.060159 0.258564
vt 0.067943 0.260935
vt 0.076268 0.259164
vt 0.084532 0.314647
vt 0.044846 0.312657
vt 0.063634 0.302907
vt 0.050454 0.302858
vt 0.063284 0.352442
vt 0.050105 0.352393
vt 0.009531 0.311966
vt 0.009262 0.253061
vt 0.018784 0.251701
vt 0.027198 0.253458
vt 0.035112 0.251310
vt 0.043492 0.251466
vt 0.043768 0.312077
vt 0.085170 0.447529
vt 0.084106 0.472393
vt 0.010584 0.312708
vt 0.084818 0.431449
vt 0.084302 0.373913
vt 0.084201 0.373271
vt 0.084174 0.393154
vt 0.084225 0.393668
vt 0.043619 0.447942
vt 0.044595 0.392983
vt 0.050345 0.393282
vt 0.049422 0.447419
vt 0.044721 0.352820
vt 0.050361 0.353604
vt 0.084378 0.354158
vt 0.008904 0.447963
vt 0.009746 0.392903
vt 0.010165 0.352806
vt 0.028320 0.330376
vt 0.028222 0.358065
vt 0.066841 0.245883
vt 0.058091 0.247921
vt 0.083673 0.390916
vt 0.008572 0.472505
vt 0.008572 0.432021
vt 0.043329 0.432153
vt 0.043774 0.472384
vt 0.034139 0.450931
vt 0.034057 0.446967
vt 0.026078 0.444984
vt 0.018091 0.446990
vt 0.017956 0.451058
vt 0.009164 0.391300
vt 0.043953 0.391552
vt 0.049770 0.391296
vt 0.049139 0.431484
vt 0.049747 0.472264
vt 0.074977 0.450645
vt 0.074996 0.446614
vt 0.066884 0.444531
vt 0.058885 0.446587
vt 0.058867 0.450700
vt 0.032551 0.315423
vt 0.046525 0.315423
vt 0.046525 0.387135
vt 0.032551 0.387135
vt 0.025614 0.315423
vt 0.025614 0.387135
vt 0.011658 0.387135
vt 0.011658 0.315423
vt 0.067449 0.387135
vt 0.067449 0.315423
vt 0.081219 0.315423
vt 0.081219 0.387135
vt 0.060435 0.387135
vt 0.060435 0.315423
vt 0.048459 0.372677
vt 0.043662 0.359614
vt 0.048459 0.346551
vt 0.058054 0.346551
vt 0.062047 0.363119
vt 0.058054 0.372677
vt 0.046525 0.289362
vt 0.060435 0.289362
vt 0.067449 0.289362
vt 0.081219 0.289362
vt 0.025614 0.289362
vt 0.011658 0.289362
vt 0.032551 0.289362
vt 0.026075 0.452990
vt 0.059173 0.466459
vt 0.067182 0.468541
vt 0.075258 0.466550
vt 0.066976 0.452644
vt 0.043769 0.472281
vt 0.067235 0.460326
vt 0.059260 0.462345
vt 0.075214 0.462483
vt 0.009955 0.372855
vt 0.044658 0.372902
vt 0.050353 0.373443
vt 0.084281 0.313623
vt 0.084228 0.353388
vt 0.034751 0.247316
vt 0.026265 0.245565
vt 0.018253 0.247767
vt 0.085052 0.254646
vt 0.049939 0.375934
s 1
f 119/1/1 120/4/4 117/3/3 9/2/2
f 1/5/5 2/8/5 4/7/5 3/6/5
f 29/9/6 25/16/12 118/15/11 76/14/10 72/13/9 74/12/9 83/11/8 99/10/7
f 98/17/13 11/23/15 13/22/15 97/21/17 67/20/16 68/19/15 69/18/14
f 5/5/18 6/8/18 8/7/18 7/6/18
f 21/4/19 17/27/21 98/17/13 69/18/14 70/26/20 71/25/20 66/24/20 67/20/16 97/21/17
f 14/28/22 21/4/24 97/21/23 13/30/23 12/29/23
f 10/31/25 12/29/25 13/30/25 11/32/25
f 27/33/26 22/39/32 121/38/31 84/37/30 75/36/29 73/35/28 122/34/27
f 102/40/33 6/41/35 5/41/35 103/40/34
f 19/42/36 14/28/38 12/23/37 10/22/37
f 105/43/39 2/41/41 1/41/41 106/43/40
f 114/44/42 16/47/45 18/46/44 115/45/43
f 101/48/46 104/51/49 20/50/48 15/49/47
f 109/52/50 112/53/51 21/4/24 14/28/22
f 102/40/52 16/47/55 20/50/54 104/51/53
f 112/53/56 110/54/57 17/27/21 21/4/19
f 103/55/58 101/48/61 15/49/60 18/56/59
f 111/57/62 109/52/63 14/28/38 19/42/36
f 99/10/7 83/11/8 80/61/64 78/60/64 76/14/10 118/15/11 117/59/64 120/58/64
f 25/16/65 24/62/68 26/62/67 27/16/66
f 1/63/69 86/71/75 90/70/74 92/69/74 94/68/74 96/67/73 3/66/72 107/65/71 106/64/70
f 26/72/76 23/73/77 22/39/32 27/33/26
f 107/65/78 108/75/81 28/74/80 23/73/79
f 23/73/79 28/74/80 29/9/83 22/39/82
f 4/76/84 95/81/87 93/80/88 91/79/88 89/78/88 85/77/87 2/41/84 105/43/86 108/75/85
f 28/74/89 24/62/90 25/16/12 29/9/6
f 55/82/91 61/85/94 60/84/93 54/83/92
f 56/86/95 62/87/96 61/85/94 55/82/91
f 63/88/97 62/87/96 56/86/95 57/89/98
f 64/90/99 63/93/97 57/92/98 58/91/100
f 65/94/101 64/90/99 58/91/100 59/95/102
f 54/83/92 60/84/93 65/94/101 59/95/102
f 35/96/103 34/101/103 33/100/103 32/99/103 31/98/103 30/97/103
f 67/87/104 66/85/107 43/82/106 44/86/105
f 45/89/108 68/88/109 67/87/104 44/86/105
f 46/91/110 69/90/111 68/93/109 45/92/108
f 46/91/110 47/95/113 70/94/112 69/90/111
f 42/83/114 71/84/115 70/94/112 47/95/113
f 41/96/116 40/101/116 39/100/116 38/99/116 37/98/116 36/97/116
f 42/83/114 47/95/113 73/103/118 75/102/117
f 46/91/110 77/104/119 73/103/118 47/95/113
f 41/103/120 72/94/123 76/90/122 40/104/121
f 79/105/124 77/104/119 46/91/110 45/92/108
f 76/90/122 78/93/126 39/105/125 40/104/121
f 81/106/127 79/107/124 45/89/108 44/86/105
f 39/107/125 78/88/126 80/87/129 38/106/128
f 84/108/130 81/106/127 44/86/105 43/82/106
f 38/106/128 80/87/129 83/85/132 37/108/131
f 84/108/130 43/82/106 42/83/114 75/102/117
f 37/108/131 83/85/132 74/84/134 36/102/133
f 43/82/106 66/85/107 71/84/115 42/83/114
f 35/94/135 30/84/138 48/83/137 53/95/136
f 34/90/139 35/94/135 53/95/136 52/91/140
f 33/93/141 34/90/139 52/91/140 51/92/142
f 32/87/143 33/88/141 51/89/142 50/86/144
f 31/85/145 32/87/143 50/86/144 49/82/146
f 30/84/138 31/85/145 49/82/146 48/83/137
f 86/103/147 88/102/148 54/83/92 59/95/102
f 48/83/137 87/102/150 85/103/149 53/95/136
f 90/104/151 86/103/147 59/95/102 58/91/100
f 53/95/136 85/103/149 89/104/152 52/91/140
f 92/105/153 90/104/151 58/91/100 57/92/98
f 89/104/152 91/105/154 51/92/142 52/91/140
f 94/106/155 92/107/153 57/89/98 56/86/95
f 91/107/154 93/106/156 50/86/144 51/89/142
f 96/108/157 94/106/155 56/86/95 55/82/91
f 93/106/156 95/108/158 49/82/146 50/86/144
f 88/102/148 96/108/157 55/82/91 54/83/92
f 49/82/146 95/108/158 87/102/150 48/83/137
f 88/109/159 86/71/75 1/63/69 3/66/72 96/67/73
f 61/110/160 8/76/162 6/41/162 65/112/160 60/111/161
f 87/113/163 95/81/87 4/76/84 2/41/84 85/77/87
f 119/1/1 121/38/164 22/39/82 29/9/83 99/10/164 120/4/4
f 72/94/123 41/103/120 36/102/133 74/84/134
f 5/63/165 7/114/165 101/48/61 103/55/58
f 63/115/166 64/117/166 65/112/160 6/41/162 102/40/52 104/51/53 8/76/162 61/110/160 62/116/166
f 7/114/167 8/76/167 104/51/49 101/48/46
f 16/47/45 102/40/33 103/40/34 18/46/44
f 24/62/68 105/43/39 106/43/40 26/62/67
f 3/66/168 4/76/168 108/75/81 107/65/78
f 105/43/86 24/62/90 28/74/89 108/75/85
f 107/65/71 23/73/77 26/72/76 106/64/70
f 115/118/169 113/119/170 109/52/63 111/57/62
f 116/120/171 114/44/172 110/54/57 112/53/56
f 113/119/173 116/120/174 112/53/51 109/52/50
f 17/27/175 110/54/178 111/122/177 19/121/176
f 15/49/47 20/50/48 116/120/174 113/119/173
f 20/50/54 16/47/55 114/44/172 116/120/171
f 18/56/59 15/49/60 113/119/170 115/118/169
f 110/54/178 114/44/42 115/45/43 111/122/177
f 11/32/179 98/17/179 17/27/175 19/121/176 10/31/179
f 121/38/31 119/59/180 9/58/180 122/34/27 73/35/28 77/125/180 79/124/180 82/123/180 84/37/30
f 117/3/3 118/127/181 25/16/65 27/16/66 122/126/181 9/2/2
