# Blender 4.4.3
# www.blender.org
o Fence_Right
v -0.066752 0.013684 1.149494
v -0.066752 -0.042777 1.149517
v 0.066752 0.013684 1.149494
v 0.066752 -0.042777 1.149517
v -0.066752 0.617854 1.150240
v -0.066752 0.561393 1.150124
v 0.066752 0.617854 1.150240
v 0.066752 0.561393 1.150124
v -0.066752 0.028231 -1.074337
v -0.032476 0.028231 -1.148964
v -0.056713 0.028231 -1.127106
v -0.032476 -0.028231 -1.148964
v -0.066752 -0.028231 -1.074337
v -0.056713 -0.028231 -1.127106
v 0.032476 0.028231 -1.148964
v 0.066752 0.028231 -1.074337
v 0.056713 0.028231 -1.127106
v 0.066752 -0.028231 -1.074337
v 0.032476 -0.028231 -1.148964
v 0.056713 -0.028231 -1.127106
v -0.066089 0.601549 -1.081687
v -0.031813 0.576246 -1.152995
v -0.056050 0.583657 -1.132109
v -0.031813 0.522296 -1.138509
v -0.066089 0.547599 -1.067202
v -0.056050 0.529707 -1.117624
v 0.033139 0.576246 -1.152995
v 0.067415 0.601549 -1.081687
v 0.057376 0.583657 -1.132109
v 0.067415 0.547599 -1.067202
v 0.033139 0.522296 -1.138509
v 0.057376 0.529707 -1.117624
v -0.066089 0.569427 -1.005689
v -0.066089 0.622576 -1.022430
v 0.067415 0.567576 -1.010905
v 0.067415 0.621526 -1.025390
v -0.066752 -0.028231 -0.997429
v -0.066752 0.028231 -0.997429
v 0.066752 -0.028231 -0.997429
v 0.066752 0.028231 -0.997429
v 0.067194 0.561950 -0.300605
v 0.066973 0.564336 0.424179
v -0.066531 0.509329 0.430746
v -0.066310 0.508397 -0.287471
v -0.066531 0.564953 0.425918
v -0.066310 0.563184 -0.297128
v 0.066973 0.508712 0.429008
v 0.067194 0.507163 -0.290948
v 0.066752 -0.033732 -0.281965
v 0.066752 -0.033732 0.433500
v -0.066752 -0.090193 0.433500
v -0.066752 -0.090193 -0.281965
v -0.066752 -0.033732 0.433500
v -0.066752 -0.033732 -0.281965
v 0.066752 -0.090193 0.433500
v 0.066752 -0.090193 -0.281965
v 0.000000 -0.624922 1.093891
v 0.030642 -0.624922 1.076200
v 0.030642 -0.624922 1.040817
v 0.000000 -0.624922 1.023126
v -0.030642 -0.624922 1.040817
v -0.030642 -0.624922 1.076200
v -0.000078 -0.624922 -0.783705
v 0.036285 -0.624922 -0.804700
v 0.036285 -0.624922 -0.846688
v -0.000078 -0.624922 -0.867682
v -0.036441 -0.624922 -0.846688
v -0.036441 -0.624922 -0.804700
v 0.003979 0.175272 -0.812494
v 0.033816 0.188772 -0.831568
v 0.031487 0.210390 -0.866157
v -0.000679 0.218507 -0.881672
v -0.030516 0.205006 -0.862598
v -0.028187 0.183389 -0.828010
v 0.000000 -0.236709 0.976107
v 0.030642 -0.236709 0.958416
v 0.030642 -0.236709 0.923033
v 0.000000 -0.236709 0.905342
v -0.030642 -0.236709 0.923033
v -0.030642 -0.236709 0.958416
v 0.000000 0.167032 0.976107
v 0.030642 0.167032 0.958416
v 0.030642 0.167032 0.923033
v 0.000000 0.167032 0.905342
v -0.030642 0.167032 0.923033
v -0.030642 0.167032 0.958416
v 0.000003 0.562154 1.091684
v 0.030632 0.562368 1.073373
v 0.030275 0.562780 1.036921
v -0.000055 0.562998 1.019174
v -0.030411 0.562785 1.037546
v -0.030759 0.562366 1.073496
v 0.030388 0.549607 -0.789208
v 0.028010 0.552739 -0.826050
v -0.003705 0.554643 -0.842264
v -0.033770 0.553387 -0.821294
v -0.031608 0.550276 -0.784975
v 0.000354 0.548392 -0.768595
v -0.030831 -0.043379 -0.822509
v -0.029660 0.013117 -0.822914
v 0.002361 -0.044887 -0.805103
v 0.003064 0.011713 -0.806703
v -0.032370 -0.040303 -0.858029
v -0.031653 0.016186 -0.858347
v -0.000983 -0.038503 -0.878821
v -0.000388 0.017876 -0.877862
v 0.032710 -0.040067 -0.860755
v 0.032601 0.016471 -0.861637
v 0.032687 0.016480 -0.861747
v 0.034282 -0.043145 -0.825210
v 0.034016 0.013362 -0.825739
v -0.030630 -0.045104 0.957060
v -0.030936 0.011244 0.960503
v -0.000151 -0.044877 0.975255
v 0.000014 0.011458 0.977623
v -0.030540 -0.045548 0.921533
v -0.030422 0.010795 0.924568
v 0.000228 -0.045772 0.903582
v 0.000113 0.010574 0.906854
v 0.030592 -0.045550 0.921373
v 0.030595 0.010797 0.924697
v 0.030804 -0.045096 0.957684
v 0.030811 0.011235 0.959757
v 0.067352 0.550358 -0.805713
v -0.066153 0.551824 -0.798531
v 0.066752 -0.041616 -0.842877
v 0.032601 -0.040023 -0.861265
v 0.066826 0.620291 0.908780
v -0.066678 0.564307 0.906782
v -0.066678 0.620440 0.909375
v 0.066826 0.564159 0.906186
v -0.066752 -0.047201 0.789206
v -0.066752 0.009143 0.792363
v 0.066752 0.009143 0.792363
v 0.066752 -0.047201 0.789206
vn 0.3974 -0.0000 -0.9176
vn -0.3974 -0.0000 -0.9176
vn -0.0000 0.0004 1.0000
vn 0.0087 0.9992 0.0392
vn 0.0054 0.9916 -0.1291
vn 0.0053 0.9912 -0.1320
vn 0.0087 0.9992 0.0398
vn -0.0000 -0.9991 -0.0432
vn -0.0000 -0.9963 -0.0863
vn -0.9959 -0.0000 -0.0910
vn -1.0000 -0.0000 -0.0000
vn 1.0000 -0.0000 -0.0000
vn 0.4010 -0.2375 -0.8847
vn -0.4010 -0.2375 -0.8847
vn -0.0000 -0.0021 1.0000
vn -0.0102 -0.9991 -0.0417
vn -0.0146 -0.9964 -0.0841
vn -0.0155 -0.9964 -0.0839
vn -0.0134 -0.9964 -0.0843
vn -0.0154 -0.9964 -0.0839
vn -0.0145 -0.9964 -0.0841
vn -0.0101 -0.9991 -0.0410
vn -0.9959 -0.0233 -0.0869
vn -1.0000 -0.0000 -0.0001
vn -1.0000 -0.0000 -0.0002
vn -1.0000 -0.0001 -0.0003
vn -0.9087 -0.0000 -0.4174
vn 0.9959 -0.0000 -0.0910
vn 0.9087 -0.0000 -0.4174
vn -0.9104 -0.1073 -0.3996
vn 0.9959 -0.0233 -0.0869
vn 0.9104 -0.1073 -0.3996
vn -0.0000 0.9991 0.0432
vn -0.0000 0.9963 0.0863
vn -0.0000 0.9424 -0.3344
vn -1.0000 -0.0000 -0.0003
vn 1.0000 -0.0000 0.0002
vn 1.0000 -0.0000 0.0001
vn -0.0084 -0.9919 0.1271
vn -0.0082 -0.9912 0.1321
vn -0.0000 -0.9424 0.3344
vn -0.0000 -1.0000 -0.0000
vn -0.0000 1.0000 -0.0000
vn 1.0000 -0.0000 0.0003
vn 1.0000 0.0001 0.0003
vn -0.0013 -0.9987 0.0519
vn -0.0013 -0.9986 0.0521
vn -0.0044 -0.9983 0.0583
vn -0.0044 -0.9983 0.0588
vn 0.0012 0.9986 -0.0520
vn 0.0044 0.9982 -0.0590
vn 0.0044 0.9983 -0.0585
vn 0.0012 0.9986 -0.0522
vn -0.0000 0.9999 -0.0128
vn -0.0000 0.9978 -0.0658
vn -0.0000 0.9999 -0.0127
vn -0.0000 0.9999 -0.0126
vn -0.0000 0.9982 -0.0595
vn -0.0000 -0.9999 0.0122
vn -0.0000 -0.9978 0.0663
vn -0.0000 -0.9999 0.0123
vn -0.0000 -0.9999 0.0124
vn -0.0000 -0.9982 0.0602
vn 0.9548 -0.0388 0.2948
vn 0.0039 -0.1389 0.9903
vn 0.0013 -0.2801 0.9600
vn 0.9183 -0.1106 0.3802
vn 0.9310 0.0506 -0.3615
vn 0.9587 0.0791 -0.2733
vn -0.0050 0.2770 -0.9609
vn -0.0018 0.1304 -0.9915
vn -0.9592 0.0785 -0.2716
vn -0.9307 0.0503 -0.3623
vn -0.9181 -0.1110 0.3806
vn -0.9550 -0.0387 0.2941
vn 0.9255 0.0530 -0.3750
vn 0.9178 0.0250 -0.3961
vn 0.9632 -0.0084 0.2688
vn 0.9552 -0.0253 0.2950
vn -0.0718 0.0533 -0.9960
vn -0.0946 0.1155 -0.9888
vn -0.9531 0.0084 -0.3025
vn -0.9642 0.0222 -0.2641
vn -0.9214 -0.0539 0.3848
vn -0.9270 -0.0156 0.3746
vn 0.0787 -0.0347 0.9963
vn 0.0683 -0.1158 0.9909
vn 0.0575 0.0345 0.9977
vn -0.9130 0.0196 0.4074
vn -0.9646 0.0008 -0.2637
vn -0.9353 0.0193 0.3532
vn -0.9513 0.0010 -0.3081
vn -0.9416 0.0002 -0.3367
vn -0.9422 0.0187 0.3345
vn -0.0664 -0.0193 -0.9976
vn -0.0262 -0.0185 -0.9995
vn -0.0280 -0.0185 -0.9994
vn 0.9322 -0.0046 -0.3619
vn 0.9396 -0.0032 -0.3421
vn 0.9285 -0.0039 -0.3714
vn 0.9483 0.0132 0.3170
vn 0.9462 0.0152 0.3232
vn 0.9550 0.0144 0.2963
vn 0.0195 0.0367 0.9991
vn 0.0278 0.0367 0.9989
vn -0.9138 0.1179 0.3887
vn -0.9538 0.0437 0.2971
vn -0.0030 0.1523 0.9883
vn -0.0000 0.2903 0.9569
vn -0.9609 -0.0804 -0.2650
vn -0.9318 -0.0557 -0.3587
vn -0.0000 -0.2903 -0.9569
vn -0.0003 -0.1463 -0.9892
vn 0.9609 -0.0804 -0.2650
vn 0.9316 -0.0561 -0.3592
vn 0.9138 0.1179 0.3887
vn 0.9538 0.0433 0.2973
vn -0.9439 0.0042 0.3301
vn 0.0064 0.0108 0.9999
vn -0.9434 0.0021 0.3316
vn -0.0075 0.0048 1.0000
vn -0.9411 -0.0033 -0.3382
vn -0.9428 -0.0025 -0.3335
vn 0.0019 -0.0102 -0.9999
vn 0.0016 -0.0086 -1.0000
vn 0.9424 -0.0031 -0.3345
vn 0.9424 -0.0033 -0.3345
vn 0.9438 0.0034 0.3304
vn 0.9430 0.0011 0.3328
vn -0.0000 0.9999 -0.0129
vn -0.0163 -0.9964 -0.0838
vn -0.0004 -0.9999 -0.0120
vn -0.0000 -0.9999 -0.0128
vn -0.0000 -0.9999 0.0121
vn 0.0006 0.9999 0.0104
vn -0.0008 -0.9999 -0.0113
vt 0.060247 0.324391
vt 0.060077 0.350037
vt 0.048518 0.349992
vt 0.048688 0.324345
vt 0.043345 0.332062
vt 0.043345 0.385333
vt 0.031664 0.385333
vt 0.031664 0.332062
vt 0.013787 0.323206
vt 0.012545 0.247997
vt 0.042573 0.247870
vt 0.043838 0.323158
vt 0.047927 0.322793
vt 0.047706 0.264450
vt 0.055099 0.266303
vt 0.062366 0.268414
vt 0.069924 0.266594
vt 0.070283 0.262856
vt 0.079524 0.249909
vt 0.077895 0.322774
vt 0.059940 0.370755
vt 0.059863 0.382430
vt 0.048304 0.382384
vt 0.048381 0.370709
vt 0.042892 0.322615
vt 0.047681 0.248233
vt 0.048857 0.270733
vt 0.057838 0.268654
vt 0.057268 0.272527
vt 0.064095 0.274746
vt 0.071396 0.273089
vt 0.071928 0.269269
vt 0.079289 0.271742
vt 0.078644 0.325021
vt 0.078425 0.324062
vt 0.048450 0.360351
vt 0.060009 0.360396
vt 0.048825 0.303628
vt 0.060384 0.303673
vt 0.060315 0.314032
vt 0.048756 0.313986
vt 0.012864 0.322511
vt 0.020514 0.262421
vt 0.020980 0.266103
vt 0.028359 0.267748
vt 0.035300 0.265737
vt 0.061903 0.326782
vt 0.061149 0.379399
vt 0.047006 0.379337
vt 0.034456 0.375331
vt 0.029258 0.365660
vt 0.029343 0.339743
vt 0.034573 0.330082
vt 0.043611 0.326782
vt 0.079204 0.449397
vt 0.078271 0.472670
vt 0.048895 0.292943
vt 0.060454 0.292988
vt 0.078895 0.434347
vt 0.078331 0.398503
vt 0.078375 0.398984
vt 0.042762 0.449784
vt 0.043617 0.398343
vt 0.048661 0.398623
vt 0.047850 0.449294
vt 0.012314 0.449804
vt 0.013053 0.398268
vt 0.077891 0.396408
vt 0.012023 0.472775
vt 0.012023 0.434882
vt 0.042507 0.435006
vt 0.042898 0.472661
vt 0.034447 0.452581
vt 0.034375 0.448872
vt 0.027377 0.447015
vt 0.020372 0.448893
vt 0.020253 0.452701
vt 0.012542 0.396768
vt 0.043054 0.397003
vt 0.048156 0.396764
vt 0.047603 0.434379
vt 0.048136 0.472550
vt 0.070264 0.452315
vt 0.070280 0.448541
vt 0.063166 0.446592
vt 0.056151 0.448516
vt 0.056135 0.452365
vt 0.033054 0.325746
vt 0.045310 0.325746
vt 0.045310 0.392869
vt 0.033054 0.392869
vt 0.026970 0.325746
vt 0.026970 0.392869
vt 0.014729 0.392869
vt 0.014729 0.325746
vt 0.063662 0.392869
vt 0.063662 0.325746
vt 0.075738 0.325746
vt 0.075738 0.392869
vt 0.057510 0.392869
vt 0.057510 0.325746
vt 0.042799 0.367110
vt 0.047006 0.354883
vt 0.055421 0.354883
vt 0.058924 0.370390
vt 0.055421 0.379337
vt 0.045310 0.301354
vt 0.057510 0.301354
vt 0.063662 0.301354
vt 0.075738 0.301354
vt 0.026970 0.301354
vt 0.014729 0.301354
vt 0.033054 0.301354
vt 0.034983 0.261999
vt 0.027541 0.260360
vt 0.027374 0.454509
vt 0.065087 0.266996
vt 0.056403 0.467116
vt 0.063427 0.469065
vt 0.070510 0.467201
vt 0.063247 0.454185
vt 0.063129 0.260658
vt 0.055454 0.262566
vt 0.042893 0.472566
vt 0.063474 0.461375
vt 0.056479 0.463265
vt 0.070472 0.463395
s 1
f 15/1/1 19/4/1 12/3/2 10/2/2
f 1/5/3 2/8/3 4/7/3 3/6/3
f 46/9/4 41/12/7 36/11/6 34/10/5
f 56/13/8 52/20/8 37/19/8 103/18/9 99/17/9 101/16/9 110/15/9 126/14/9
f 9/21/10 13/24/10 37/23/11 38/22/11
f 49/25/12 56/13/12 126/14/12 39/26/12 40/11/12
f 27/1/13 31/4/13 24/3/14 22/2/14
f 5/5/15 6/8/15 8/7/15 7/6/15
f 48/4/16 44/34/22 125/33/21 96/32/20 97/31/19 98/30/19 93/29/19 94/28/18 124/27/17
f 21/21/23 25/24/23 33/23/25 34/22/24
f 34/19/24 33/19/25 125/33/26 44/34/26 46/35/26
f 9/21/10 11/37/27 14/36/27 13/24/10
f 11/37/27 10/2/2 12/3/2 14/36/27
f 18/38/28 20/41/29 17/40/29 16/39/28
f 20/41/29 19/4/1 15/1/1 17/40/29
f 21/21/23 23/37/30 26/36/30 25/24/23
f 23/37/30 22/2/14 24/3/14 26/36/30
f 30/38/31 32/41/32 29/40/32 28/39/31
f 32/41/32 31/4/13 27/1/13 29/40/32
f 54/42/33 49/25/33 40/11/33 111/46/34 102/45/34 100/44/34 104/43/34 38/10/33
f 36/47/6 28/54/35 29/53/35 27/52/35 22/51/35 23/50/35 21/49/35 34/48/5
f 129/55/36 6/56/36 5/56/36 130/55/36
f 35/57/37 30/38/31 28/39/31 36/58/38
f 33/47/39 25/54/41 26/53/41 24/52/41 31/51/41 32/50/41 30/49/41 35/48/40
f 132/59/11 2/56/11 1/56/11 133/59/11
f 37/48/8 13/49/42 14/50/42 12/51/42 19/52/42 20/53/42 18/54/42 39/47/8
f 39/57/12 18/38/28 16/39/28 40/58/12
f 40/48/33 16/49/43 17/50/43 15/51/43 10/52/43 11/53/43 9/54/43 38/47/33
f 44/34/26 43/61/36 45/60/36 46/35/26
f 128/62/44 131/65/44 47/64/44 42/63/44
f 42/63/44 47/64/44 48/4/45 41/12/45
f 129/55/46 43/61/49 47/64/48 131/65/47
f 47/64/48 43/61/49 44/34/22 48/4/16
f 130/66/50 128/62/53 42/63/52 45/67/51
f 45/67/51 42/63/52 41/12/7 46/9/4
f 37/19/11 52/20/11 54/20/11 38/19/11
f 52/20/11 51/68/11 53/68/11 54/20/11
f 1/69/54 113/77/56 117/76/57 119/75/57 121/74/57 123/73/56 3/72/54 134/71/55 133/70/55
f 53/78/58 50/79/58 49/25/33 54/42/33
f 134/71/12 135/81/12 55/80/12 50/79/12
f 50/79/12 55/80/12 56/13/12 49/25/12
f 4/82/59 122/87/61 120/86/62 118/85/62 116/84/62 112/83/61 2/56/59 132/59/60 135/81/60
f 55/80/63 51/68/63 52/20/8 56/13/8
f 82/88/64 88/91/67 87/90/66 81/89/65
f 83/92/68 89/93/69 88/91/67 82/88/64
f 90/94/70 89/93/69 83/92/68 84/95/71
f 91/96/72 90/99/70 84/98/71 85/97/73
f 92/100/74 91/96/72 85/97/73 86/101/75
f 81/89/65 87/90/66 92/100/74 86/101/75
f 62/49/42 61/106/42 60/105/42 59/104/42 58/103/42 57/102/42
f 94/93/76 93/91/79 70/88/78 71/92/77
f 72/95/80 95/94/81 94/93/76 71/92/77
f 73/97/82 96/96/83 95/99/81 72/98/80
f 73/97/82 74/101/85 97/100/84 96/96/83
f 69/89/86 98/90/87 97/100/84 74/101/85
f 68/49/42 67/106/42 66/105/42 65/104/42 64/103/42 63/102/42
f 69/89/86 74/101/85 100/108/89 102/107/88
f 73/97/82 104/109/90 100/108/89 74/101/85
f 68/108/91 99/100/94 103/96/93 67/109/92
f 106/110/95 104/109/90 73/97/82 72/98/80
f 103/96/93 105/99/97 66/110/96 67/109/92
f 108/111/98 106/112/95 72/95/80 71/92/77
f 66/112/96 105/94/97 107/93/100 65/111/99
f 111/113/101 108/111/98 71/92/77 70/88/78
f 65/111/99 107/93/100 110/91/103 64/113/102
f 111/113/101 70/88/78 69/89/86 102/107/88
f 64/113/102 110/91/103 101/90/105 63/107/104
f 70/88/78 93/91/79 98/90/87 69/89/86
f 62/100/106 57/90/109 75/89/108 80/101/107
f 61/96/110 62/100/106 80/101/107 79/97/111
f 60/99/112 61/96/110 79/97/111 78/98/113
f 59/93/114 60/94/112 78/95/113 77/92/115
f 58/91/116 59/93/114 77/92/115 76/88/117
f 57/90/109 58/91/116 76/88/117 75/89/108
f 113/108/118 115/107/119 81/89/65 86/101/75
f 75/89/108 114/107/121 112/108/120 80/101/107
f 117/109/122 113/108/118 86/101/75 85/97/73
f 80/101/107 112/108/120 116/109/123 79/97/111
f 119/110/124 117/109/122 85/97/73 84/98/71
f 116/109/123 118/110/125 78/98/113 79/97/111
f 121/111/126 119/112/124 84/95/71 83/92/68
f 118/112/125 120/111/127 77/92/115 78/95/113
f 123/113/128 121/111/126 83/92/68 82/88/64
f 120/111/127 122/113/129 76/88/117 77/92/115
f 115/107/119 123/113/128 82/88/64 81/89/65
f 76/88/117 122/113/129 114/107/121 75/89/108
f 40/11/33 38/10/33 104/43/34 106/115/34 109/114/34 111/46/34
f 115/116/130 113/77/56 1/69/54 3/72/54 123/73/56
f 125/33/21 33/19/39 35/26/40 124/27/17 94/28/18 95/117/131 96/32/20
f 41/12/45 48/4/45 124/27/45 35/26/37 36/11/38
f 88/118/132 8/82/132 6/56/132 92/120/132 87/119/133
f 114/121/134 122/87/61 4/82/59 2/56/59 112/83/61
f 37/19/8 39/26/8 126/14/9 110/15/9 107/123/9 105/122/9 103/18/9
f 99/100/94 68/108/91 63/107/104 101/90/105
f 5/69/135 7/124/135 128/62/53 130/66/50
f 90/125/136 91/127/136 92/120/132 6/56/132 129/55/46 131/65/47 8/82/132 88/118/132 89/126/136
f 7/124/44 8/82/44 131/65/44 128/62/44
f 43/61/36 129/55/36 130/55/36 45/60/36
f 51/68/11 132/59/11 133/59/11 53/68/11
f 3/72/12 4/82/12 135/81/12 134/71/12
f 132/59/60 51/68/63 55/80/63 135/81/60
f 134/71/55 50/79/58 53/78/58 133/70/55
