# Blender 4.4.3
# www.blender.org
o Fence_Left
v -0.066752 0.013684 -1.149494
v -0.066752 -0.042777 -1.149517
v 0.066752 0.013684 -1.149494
v 0.066752 -0.042777 -1.149517
v -0.066752 0.617854 -1.150240
v -0.066752 0.561393 -1.150124
v 0.066752 0.617854 -1.150240
v 0.066752 0.561393 -1.150124
v -0.066752 0.028231 1.074337
v -0.032476 0.028231 1.148964
v -0.056713 0.028231 1.127106
v -0.032476 -0.028231 1.148964
v -0.066752 -0.028231 1.074337
v -0.056713 -0.028231 1.127106
v 0.032476 0.028231 1.148964
v 0.066752 0.028231 1.074337
v 0.056713 0.028231 1.127106
v 0.066752 -0.028231 1.074337
v 0.032476 -0.028231 1.148964
v 0.056713 -0.028231 1.127106
v -0.066089 0.601549 1.081687
v -0.031813 0.576246 1.152995
v -0.056050 0.583657 1.132109
v -0.031813 0.522296 1.138509
v -0.066089 0.547599 1.067202
v -0.056050 0.529707 1.117624
v 0.033139 0.576246 1.152995
v 0.067415 0.601549 1.081687
v 0.057376 0.583657 1.132109
v 0.067415 0.547599 1.067202
v 0.033139 0.522296 1.138509
v 0.057376 0.529707 1.117624
v -0.066089 0.569427 1.005689
v -0.066089 0.622576 1.022430
v 0.067415 0.567576 1.010905
v 0.067415 0.621526 1.025390
v -0.066752 -0.028231 0.997429
v -0.066752 0.028231 0.997429
v 0.066752 -0.028231 0.997429
v 0.066752 0.028231 0.997429
v 0.067194 0.561950 0.300605
v 0.066973 0.564336 -0.424179
v -0.066531 0.509329 -0.430746
v -0.066310 0.508397 0.287471
v -0.066531 0.564953 -0.425918
v -0.066310 0.563184 0.297128
v 0.066973 0.508712 -0.429008
v 0.067194 0.507163 0.290948
v 0.066752 -0.033732 0.281965
v 0.066752 -0.033732 -0.433500
v -0.066752 -0.090193 -0.433500
v -0.066752 -0.090193 0.281965
v -0.066752 -0.033732 -0.433500
v -0.066752 -0.033732 0.281965
v 0.066752 -0.090193 -0.433500
v 0.066752 -0.090193 0.281965
v 0.000000 -0.624922 -1.093891
v 0.030642 -0.624922 -1.076200
v 0.030642 -0.624922 -1.040817
v 0.000000 -0.624922 -1.023126
v -0.030642 -0.624922 -1.040817
v -0.030642 -0.624922 -1.076200
v -0.000078 -0.624922 0.783705
v 0.036285 -0.624922 0.804700
v 0.036285 -0.624922 0.846688
v -0.000078 -0.624922 0.867682
v -0.036441 -0.624922 0.846688
v -0.036441 -0.624922 0.804700
v 0.003979 0.175272 0.812494
v 0.033816 0.188772 0.831568
v 0.031487 0.210390 0.866157
v -0.000679 0.218507 0.881672
v -0.030516 0.205006 0.862598
v -0.028187 0.183389 0.828010
v 0.000000 -0.236709 -0.976107
v 0.030642 -0.236709 -0.958416
v 0.030642 -0.236709 -0.923033
v 0.000000 -0.236709 -0.905342
v -0.030642 -0.236709 -0.923033
v -0.030642 -0.236709 -0.958416
v 0.000000 0.167032 -0.976107
v 0.030642 0.167032 -0.958416
v 0.030642 0.167032 -0.923033
v 0.000000 0.167032 -0.905342
v -0.030642 0.167032 -0.923033
v -0.030642 0.167032 -0.958416
v 0.000003 0.562154 -1.091684
v 0.030632 0.562368 -1.073373
v 0.030275 0.562780 -1.036921
v -0.000055 0.562998 -1.019174
v -0.030411 0.562785 -1.037546
v -0.030759 0.562366 -1.073496
v 0.030388 0.549607 0.789208
v 0.028010 0.552739 0.826050
v -0.003705 0.554643 0.842264
v -0.033770 0.553387 0.821294
v -0.031608 0.550276 0.784975
v 0.000354 0.548392 0.768595
v -0.030831 -0.043379 0.822509
v -0.029660 0.013117 0.822914
v 0.002361 -0.044887 0.805103
v 0.003064 0.011713 0.806703
v -0.032370 -0.040303 0.858029
v -0.031653 0.016186 0.858347
v -0.000983 -0.038503 0.878821
v -0.000388 0.017876 0.877862
v 0.032710 -0.040067 0.860755
v 0.032601 0.016471 0.861637
v 0.032687 0.016480 0.861747
v 0.034282 -0.043145 0.825210
v 0.034016 0.013362 0.825739
v -0.030630 -0.045104 -0.957060
v -0.030936 0.011244 -0.960503
v -0.000151 -0.044877 -0.975255
v 0.000014 0.011458 -0.977623
v -0.030540 -0.045548 -0.921533
v -0.030422 0.010795 -0.924568
v 0.000228 -0.045772 -0.903582
v 0.000113 0.010574 -0.906854
v 0.030592 -0.045550 -0.921373
v 0.030595 0.010797 -0.924697
v 0.030804 -0.045096 -0.957684
v 0.030811 0.011235 -0.959757
v 0.067352 0.550358 0.805713
v -0.066153 0.551824 0.798531
v 0.066752 -0.041616 0.842877
v 0.032601 -0.040023 0.861265
v 0.066826 0.620291 -0.908780
v -0.066678 0.564307 -0.906782
v -0.066678 0.620440 -0.909375
v 0.066826 0.564159 -0.906186
v -0.066752 -0.047201 -0.789206
v -0.066752 0.009143 -0.792363
v 0.066752 0.009143 -0.792363
v 0.066752 -0.047201 -0.789206
vn 0.3974 -0.0000 0.9176
vn -0.3974 -0.0000 0.9176
vn -0.0000 0.0004 -1.0000
vn 0.0087 0.9992 -0.0392
vn 0.0054 0.9916 0.1291
vn 0.0053 0.9912 0.1320
vn 0.0087 0.9992 -0.0398
vn -0.0000 -0.9991 0.0432
vn -0.0000 -0.9963 0.0863
vn -0.9959 -0.0000 0.0910
vn -1.0000 -0.0000 -0.0000
vn 1.0000 -0.0000 -0.0000
vn 0.4010 -0.2375 0.8847
vn -0.4010 -0.2375 0.8847
vn -0.0000 -0.0021 -1.0000
vn -0.0102 -0.9991 0.0417
vn -0.0146 -0.9964 0.0841
vn -0.0155 -0.9964 0.0839
vn -0.0134 -0.9964 0.0843
vn -0.0154 -0.9964 0.0839
vn -0.0145 -0.9964 0.0841
vn -0.0101 -0.9991 0.0410
vn -0.9959 -0.0233 0.0869
vn -1.0000 -0.0000 0.0001
vn -1.0000 -0.0000 0.0002
vn -1.0000 -0.0001 0.0003
vn -0.9087 -0.0000 0.4174
vn 0.9959 -0.0000 0.0910
vn 0.9087 -0.0000 0.4174
vn -0.9104 -0.1073 0.3996
vn 0.9959 -0.0233 0.0869
vn 0.9104 -0.1073 0.3996
vn -0.0000 0.9991 -0.0432
vn -0.0000 0.9963 -0.0863
vn -0.0000 0.9424 0.3344
vn -1.0000 -0.0000 0.0003
vn 1.0000 -0.0000 -0.0002
vn 1.0000 -0.0000 -0.0001
vn -0.0084 -0.9919 -0.1271
vn -0.0082 -0.9912 -0.1321
vn -0.0000 -0.9424 -0.3344
vn -0.0000 -1.0000 -0.0000
vn -0.0000 1.0000 -0.0000
vn 1.0000 -0.0000 -0.0003
vn 1.0000 0.0001 -0.0003
vn -0.0013 -0.9987 -0.0519
vn -0.0013 -0.9986 -0.0521
vn -0.0044 -0.9983 -0.0583
vn -0.0044 -0.9983 -0.0588
vn 0.0012 0.9986 0.0520
vn 0.0044 0.9982 0.0590
vn 0.0044 0.9983 0.0585
vn 0.0012 0.9986 0.0522
vn -0.0000 0.9999 0.0128
vn -0.0000 0.9978 0.0658
vn -0.0000 0.9999 0.0127
vn -0.0000 0.9999 0.0126
vn -0.0000 0.9982 0.0595
vn -0.0000 -0.9999 -0.0122
vn -0.0000 -0.9978 -0.0663
vn -0.0000 -0.9999 -0.0123
vn -0.0000 -0.9999 -0.0124
vn -0.0000 -0.9982 -0.0602
vn 0.9548 -0.0388 -0.2948
vn 0.0039 -0.1389 -0.9903
vn 0.0013 -0.2801 -0.9600
vn 0.9183 -0.1106 -0.3802
vn 0.9310 0.0506 0.3615
vn 0.9587 0.0791 0.2733
vn -0.0050 0.2770 0.9609
vn -0.0018 0.1304 0.9915
vn -0.9592 0.0785 0.2716
vn -0.9307 0.0503 0.3623
vn -0.9181 -0.1110 -0.3806
vn -0.9550 -0.0387 -0.2941
vn 0.9255 0.0530 0.3750
vn 0.9178 0.0250 0.3961
vn 0.9632 -0.0084 -0.2688
vn 0.9552 -0.0253 -0.2950
vn -0.0718 0.0533 0.9960
vn -0.0946 0.1155 0.9888
vn -0.9531 0.0084 0.3025
vn -0.9642 0.0222 0.2641
vn -0.9214 -0.0539 -0.3848
vn -0.9270 -0.0156 -0.3746
vn 0.0787 -0.0347 -0.9963
vn 0.0683 -0.1158 -0.9909
vn 0.0575 0.0345 -0.9977
vn -0.9130 0.0196 -0.4074
vn -0.9646 0.0008 0.2637
vn -0.9353 0.0193 -0.3532
vn -0.9513 0.0010 0.3081
vn -0.9416 0.0002 0.3367
vn -0.9422 0.0187 -0.3345
vn -0.0664 -0.0193 0.9976
vn -0.0262 -0.0185 0.9995
vn -0.0280 -0.0185 0.9994
vn 0.9322 -0.0046 0.3619
vn 0.9396 -0.0032 0.3421
vn 0.9285 -0.0039 0.3714
vn 0.9483 0.0132 -0.3170
vn 0.9462 0.0152 -0.3232
vn 0.9550 0.0144 -0.2963
vn 0.0195 0.0367 -0.9991
vn 0.0278 0.0367 -0.9989
vn -0.9138 0.1179 -0.3887
vn -0.9538 0.0437 -0.2971
vn -0.0030 0.1523 -0.9883
vn -0.0000 0.2903 -0.9569
vn -0.9609 -0.0804 0.2650
vn -0.9318 -0.0557 0.3587
vn -0.0000 -0.2903 0.9569
vn -0.0003 -0.1463 0.9892
vn 0.9609 -0.0804 0.2650
vn 0.9316 -0.0561 0.3592
vn 0.9138 0.1179 -0.3887
vn 0.9538 0.0433 -0.2973
vn -0.9439 0.0042 -0.3301
vn 0.0064 0.0108 -0.9999
vn -0.9434 0.0021 -0.3316
vn -0.0075 0.0048 -1.0000
vn -0.9411 -0.0033 0.3382
vn -0.9428 -0.0025 0.3335
vn 0.0019 -0.0102 0.9999
vn 0.0016 -0.0086 1.0000
vn 0.9424 -0.0031 0.3345
vn 0.9424 -0.0033 0.3345
vn 0.9438 0.0034 -0.3304
vn 0.9430 0.0011 -0.3328
vn -0.0000 0.9999 0.0129
vn -0.0163 -0.9964 0.0838
vn -0.0004 -0.9999 0.0120
vn -0.0000 -0.9999 0.0128
vn -0.0000 -0.9999 -0.0121
vn 0.0006 0.9999 -0.0104
vn -0.0008 -0.9999 0.0113
vt 0.062781 0.327003
vt 0.062602 0.352122
vt 0.050405 0.352078
vt 0.050584 0.326959
vt 0.044946 0.334517
vt 0.044946 0.386691
vt 0.032621 0.386691
vt 0.032621 0.334517
vt 0.013758 0.325843
vt 0.012448 0.252183
vt 0.044133 0.252058
vt 0.045466 0.325796
vt 0.049782 0.325439
vt 0.049549 0.268297
vt 0.057349 0.270112
vt 0.065017 0.272179
vt 0.072992 0.270397
vt 0.073370 0.266736
vt 0.083121 0.254056
vt 0.081402 0.325420
vt 0.062457 0.372413
vt 0.062376 0.383848
vt 0.050179 0.383803
vt 0.050261 0.372369
vt 0.044468 0.325265
vt 0.049522 0.252414
vt 0.050584 0.326959
vt 0.050763 0.274451
vt 0.060240 0.272415
vt 0.059637 0.276208
vt 0.066841 0.278381
vt 0.074545 0.276758
vt 0.075106 0.273017
vt 0.082874 0.275439
vt 0.082193 0.327621
vt 0.081961 0.326682
vt 0.050333 0.362223
vt 0.062530 0.362268
vt 0.050729 0.306668
vt 0.062925 0.306713
vt 0.062853 0.316858
vt 0.050656 0.316814
vt 0.012784 0.325163
vt 0.020856 0.266310
vt 0.021348 0.269916
vt 0.029134 0.271527
vt 0.036458 0.269558
vt 0.064528 0.329345
vt 0.063732 0.380879
vt 0.048810 0.380818
vt 0.035567 0.376895
vt 0.030082 0.367423
vt 0.030172 0.342039
vt 0.035691 0.332578
vt 0.045228 0.329345
vt 0.082784 0.449436
vt 0.081799 0.472230
vt 0.050803 0.296203
vt 0.063000 0.296248
vt 0.082458 0.434696
vt 0.081862 0.399589
vt 0.081909 0.400061
vt 0.044331 0.449815
vt 0.045234 0.399433
vt 0.050555 0.399707
vt 0.049701 0.449335
vt 0.012204 0.449834
vt 0.012983 0.399360
vt 0.081398 0.397538
vt 0.011897 0.472332
vt 0.011897 0.435220
vt 0.044062 0.435341
vt 0.044475 0.472221
vt 0.035557 0.452555
vt 0.035481 0.448922
vt 0.028097 0.447104
vt 0.020706 0.448942
vt 0.020581 0.452672
vt 0.012445 0.397890
vt 0.044639 0.398121
vt 0.050023 0.397886
vt 0.049439 0.434727
vt 0.050001 0.472112
vt 0.073350 0.452293
vt 0.073368 0.448598
vt 0.065861 0.446688
vt 0.058459 0.448573
vt 0.058442 0.452343
vt 0.034088 0.328332
vt 0.047020 0.328332
vt 0.047020 0.394072
vt 0.034088 0.394072
vt 0.027669 0.328332
vt 0.027669 0.394072
vt 0.014752 0.394072
vt 0.014752 0.328332
vt 0.066384 0.394072
vt 0.066384 0.328332
vt 0.079127 0.328332
vt 0.079127 0.394072
vt 0.059893 0.394072
vt 0.059893 0.328332
vt 0.044370 0.368843
vt 0.048810 0.356868
vt 0.057689 0.356868
vt 0.061385 0.372056
vt 0.057689 0.380818
vt 0.047020 0.304441
vt 0.059893 0.304441
vt 0.066384 0.304441
vt 0.079127 0.304441
vt 0.027669 0.304441
vt 0.014752 0.304441
vt 0.034088 0.304441
vt 0.036124 0.265897
vt 0.028270 0.264291
vt 0.028095 0.454442
vt 0.067888 0.270791
vt 0.058725 0.466790
vt 0.066136 0.468699
vt 0.073610 0.466873
vt 0.065946 0.454126
vt 0.065822 0.264583
vt 0.057724 0.266452
vt 0.044470 0.472128
vt 0.066186 0.461168
vt 0.058805 0.463019
vt 0.073570 0.463145
s 1
f 15/1/1 10/2/2 12/3/2 19/4/1
f 1/5/3 3/6/3 4/7/3 2/8/3
f 46/9/4 34/10/5 36/11/6 41/12/7
f 56/13/8 126/14/9 110/15/9 101/16/9 99/17/9 103/18/9 37/19/8 52/20/8
f 9/21/10 38/22/11 37/23/11 13/24/10
f 49/25/12 40/11/12 39/26/12 126/14/12 56/13/12
f 27/1/13 22/2/14 24/3/14 31/4/13
f 5/5/15 7/6/15 8/7/15 6/8/15
f 48/27/16 124/28/17 94/29/18 93/30/19 98/31/19 97/32/19 96/33/20 125/34/21 44/35/22
f 21/21/23 34/22/24 33/23/25 25/24/23
f 34/19/24 46/36/26 44/35/26 125/34/26 33/19/25
f 9/21/10 13/24/10 14/37/27 11/38/27
f 11/38/27 14/37/27 12/3/2 10/2/2
f 18/39/28 16/40/28 17/41/29 20/42/29
f 20/42/29 17/41/29 15/1/1 19/4/1
f 21/21/23 25/24/23 26/37/30 23/38/30
f 23/38/30 26/37/30 24/3/14 22/2/14
f 30/39/31 28/40/31 29/41/32 32/42/32
f 32/42/32 29/41/32 27/1/13 31/4/13
f 54/43/33 38/10/33 104/44/34 100/45/34 102/46/34 111/47/34 40/11/33 49/25/33
f 36/48/6 34/49/5 21/50/35 23/51/35 22/52/35 27/53/35 29/54/35 28/55/35
f 129/56/36 130/56/36 5/57/36 6/57/36
f 35/58/37 36/59/38 28/40/31 30/39/31
f 33/48/39 35/49/40 30/50/41 32/51/41 31/52/41 24/53/41 26/54/41 25/55/41
f 132/60/11 133/60/11 1/57/11 2/57/11
f 37/49/8 39/48/8 18/55/42 20/54/42 19/53/42 12/52/42 14/51/42 13/50/42
f 39/58/12 40/59/12 16/40/28 18/39/28
f 40/49/33 38/48/33 9/55/43 11/54/43 10/53/43 15/52/43 17/51/43 16/50/43
f 44/35/26 46/36/26 45/61/36 43/62/36
f 128/63/44 42/64/44 47/65/44 131/66/44
f 42/64/44 41/12/45 48/27/45 47/65/44
f 129/56/46 131/66/47 47/65/48 43/62/49
f 47/65/48 48/27/16 44/35/22 43/62/49
f 130/67/50 45/68/51 42/64/52 128/63/53
f 45/68/51 46/9/4 41/12/7 42/64/52
f 37/19/11 38/19/11 54/20/11 52/20/11
f 52/20/11 54/20/11 53/69/11 51/69/11
f 1/70/54 133/71/55 134/72/55 3/73/54 123/74/56 121/75/57 119/76/57 117/77/57 113/78/56
f 53/79/58 54/43/33 49/25/33 50/80/58
f 134/72/12 50/80/12 55/81/12 135/82/12
f 50/80/12 49/25/12 56/13/12 55/81/12
f 4/83/59 135/82/60 132/60/60 2/57/59 112/84/61 116/85/62 118/86/62 120/87/62 122/88/61
f 55/81/63 56/13/8 52/20/8 51/69/63
f 82/89/64 81/90/65 87/91/66 88/92/67
f 83/93/68 82/89/64 88/92/67 89/94/69
f 90/95/70 84/96/71 83/93/68 89/94/69
f 91/97/72 85/98/73 84/99/71 90/100/70
f 92/101/74 86/102/75 85/98/73 91/97/72
f 81/90/65 86/102/75 92/101/74 87/91/66
f 62/50/42 57/103/42 58/104/42 59/105/42 60/106/42 61/107/42
f 94/94/76 71/93/77 70/89/78 93/92/79
f 72/96/80 71/93/77 94/94/76 95/95/81
f 73/98/82 72/99/80 95/100/81 96/97/83
f 73/98/82 96/97/83 97/101/84 74/102/85
f 69/90/86 74/102/85 97/101/84 98/91/87
f 68/50/42 63/103/42 64/104/42 65/105/42 66/106/42 67/107/42
f 69/90/86 102/108/88 100/109/89 74/102/85
f 73/98/82 74/102/85 100/109/89 104/110/90
f 68/109/91 67/110/92 103/97/93 99/101/94
f 106/111/95 72/99/80 73/98/82 104/110/90
f 103/97/93 67/110/92 66/111/96 105/100/97
f 108/112/98 71/93/77 72/96/80 106/113/95
f 66/113/96 65/112/99 107/94/100 105/95/97
f 111/114/101 70/89/78 71/93/77 108/112/98
f 65/112/99 64/114/102 110/92/103 107/94/100
f 111/114/101 102/108/88 69/90/86 70/89/78
f 64/114/102 63/108/104 101/91/105 110/92/103
f 70/89/78 69/90/86 98/91/87 93/92/79
f 62/101/106 80/102/107 75/90/108 57/91/109
f 61/97/110 79/98/111 80/102/107 62/101/106
f 60/100/112 78/99/113 79/98/111 61/97/110
f 59/94/114 77/93/115 78/96/113 60/95/112
f 58/92/116 76/89/117 77/93/115 59/94/114
f 57/91/109 75/90/108 76/89/117 58/92/116
f 113/109/118 86/102/75 81/90/65 115/108/119
f 75/90/108 80/102/107 112/109/120 114/108/121
f 117/110/122 85/98/73 86/102/75 113/109/118
f 80/102/107 79/98/111 116/110/123 112/109/120
f 119/111/124 84/99/71 85/98/73 117/110/122
f 116/110/123 79/98/111 78/99/113 118/111/125
f 121/112/126 83/93/68 84/96/71 119/113/124
f 118/113/125 78/96/113 77/93/115 120/112/127
f 123/114/128 82/89/64 83/93/68 121/112/126
f 120/112/127 77/93/115 76/89/117 122/114/129
f 115/108/119 81/90/65 82/89/64 123/114/128
f 76/89/117 75/90/108 114/108/121 122/114/129
f 40/11/33 111/47/34 109/115/34 106/116/34 104/44/34 38/10/33
f 115/117/130 123/74/56 3/73/54 1/70/54 113/78/56
f 125/34/21 96/33/20 95/118/131 94/29/18 124/28/17 35/26/40 33/19/39
f 41/12/45 36/11/38 35/26/37 124/28/45 48/27/45
f 88/119/132 87/120/133 92/121/132 6/57/132 8/83/132
f 114/122/134 112/84/61 2/57/59 4/83/59 122/88/61
f 37/19/8 103/18/9 105/123/9 107/124/9 110/15/9 126/14/9 39/26/8
f 99/101/94 101/91/105 63/108/104 68/109/91
f 5/70/135 130/67/50 128/63/53 7/125/135
f 90/126/136 89/127/136 88/119/132 8/83/132 131/66/47 129/56/46 6/57/132 92/121/132 91/128/136
f 7/125/44 128/63/44 131/66/44 8/83/44
f 43/62/36 45/61/36 130/56/36 129/56/36
f 51/69/11 53/69/11 133/60/11 132/60/11
f 3/73/12 134/72/12 135/82/12 4/83/12
f 132/60/60 135/82/60 55/81/63 51/69/63
f 134/72/55 133/71/55 53/79/58 50/80/58
