# Blender 4.4.3
# www.blender.org
o Flower_Pot_1
v -0.234539 0.272311 0.864831
v -0.234539 0.272311 -0.864831
v 0.234539 0.272311 0.864831
v 0.234539 0.272311 -0.864831
v -0.234539 0.171477 0.864831
v -0.234539 0.171477 -0.864831
v 0.234539 0.171477 -0.864831
v 0.234539 0.171477 0.864831
v -0.257314 0.176825 0.946321
v -0.316029 0.176825 0.887606
v -0.274511 0.176825 0.904803
v -0.291826 0.176825 0.935108
v -0.304816 0.176825 0.922118
v -0.316029 0.272311 0.887606
v -0.257314 0.272311 0.946321
v -0.304816 0.272311 0.922118
v -0.291826 0.272311 0.935108
v -0.257314 0.272311 -0.946321
v -0.316029 0.272311 -0.887606
v -0.291826 0.272311 -0.935108
v -0.304816 0.272311 -0.922118
v 0.316029 0.272311 -0.887606
v 0.257314 0.272311 -0.946321
v 0.304816 0.272311 -0.922118
v 0.291826 0.272311 -0.935108
v 0.257314 0.272311 0.946321
v 0.316029 0.272311 0.887606
v 0.291826 0.272311 0.935108
v 0.304816 0.272311 0.922118
v -0.316029 0.176825 -0.887606
v -0.257314 0.176825 -0.946321
v -0.274511 0.176825 -0.904803
v -0.304816 0.176825 -0.922118
v -0.291826 0.176825 -0.935108
v 0.257314 0.176825 -0.946321
v 0.316029 0.176825 -0.887606
v 0.291826 0.176825 -0.935108
v 0.304816 0.176825 -0.922118
v 0.316029 0.176825 0.887606
v 0.257314 0.176825 0.946321
v 0.304816 0.176825 0.922118
v 0.291826 0.176825 0.935108
v -0.204233 -0.272311 0.902603
v -0.272311 -0.272311 0.834525
v -0.252372 -0.272311 0.882663
v -0.272311 -0.272311 -0.834525
v -0.204233 -0.272311 -0.902603
v -0.252372 -0.272311 -0.882663
v 0.272311 -0.272311 0.834525
v 0.204233 -0.272311 0.902603
v 0.252372 -0.272311 0.882663
v 0.204233 -0.272311 -0.902603
v 0.272311 -0.272311 -0.834525
v 0.252372 -0.272311 -0.882663
v -0.272311 0.176825 0.834525
v -0.204233 0.176825 0.902603
v -0.252372 0.176825 0.882663
v -0.204233 0.176825 -0.902603
v -0.272311 0.176825 -0.834525
v -0.252372 0.176825 -0.882663
v 0.272311 0.176825 -0.834525
v 0.204233 0.176825 -0.902603
v 0.274501 0.176825 -0.904793
v 0.252372 0.176825 -0.882663
v 0.204233 0.176825 0.902603
v 0.272311 0.176825 0.834525
v 0.274501 0.176825 0.904793
v 0.252372 0.176825 0.882663
v -0.196596 -0.052061 -0.868851
v -0.242934 -0.052061 -0.849657
v -0.262128 -0.052061 -0.803319
v 0.262128 -0.052061 -0.803319
v 0.242934 -0.052061 -0.849657
v 0.196596 -0.052061 -0.868851
v 0.196596 -0.052061 0.868851
v 0.242934 -0.052061 0.849657
v 0.262128 -0.052061 0.803319
v -0.196596 -0.052061 0.868851
v -0.242934 -0.052061 0.849657
v -0.262128 -0.052061 0.803319
v -0.202845 -0.232266 -0.896466
v 0.270460 -0.232266 -0.828851
v 0.202845 -0.232266 0.896466
v -0.250656 -0.232266 0.876662
v -0.270460 -0.232266 0.828851
v -0.250656 -0.232266 -0.876662
v -0.270460 -0.232266 -0.828851
v 0.250656 -0.232266 -0.876662
v 0.202845 -0.232266 -0.896466
v 0.250656 -0.232266 0.876662
v 0.270460 -0.232266 0.828851
v -0.202845 -0.232266 0.896466
v -0.211659 -0.225151 -0.940901
v -0.213093 -0.265196 -0.947029
v -0.283931 -0.266062 -0.915340
v -0.317014 -0.268880 -0.844153
v 0.315461 -0.229024 -0.837047
v 0.317014 -0.268880 -0.844153
v 0.283931 -0.266062 -0.915340
v 0.213093 -0.265196 -0.947029
v 0.211659 -0.225151 0.940901
v 0.213093 -0.265196 0.947029
v 0.283931 -0.266062 0.915340
v 0.317014 -0.268880 0.844153
v -0.283931 -0.266062 0.915340
v -0.213093 -0.265196 0.947029
v -0.283400 -0.226140 0.908176
v -0.317014 -0.268880 0.844153
v -0.315461 -0.229024 0.837047
v -0.283400 -0.226140 -0.908176
v -0.315461 -0.229024 -0.837047
v 0.283400 -0.226140 -0.908176
v 0.211659 -0.225151 -0.940901
v 0.283400 -0.226140 0.908176
v 0.315461 -0.229024 0.837047
v -0.211659 -0.225151 0.940901
vn -0.0000 1.0000 -0.0000
vn -0.1564 -0.0000 -0.9877
vn 0.1564 -0.0000 -0.9877
vn 0.1946 0.0030 0.9809
vn 0.1934 -0.1494 0.9697
vn -0.1934 -0.1494 0.9697
vn -0.1946 0.0030 0.9809
vn -1.0000 -0.0000 -0.0000
vn 0.9877 -0.0000 -0.1564
vn 0.9877 -0.0000 0.1564
vn 1.0000 -0.0000 -0.0000
vn -0.0000 -0.0000 -1.0000
vn -0.0000 -0.0000 1.0000
vn -0.1946 0.0030 -0.9809
vn -0.1934 -0.1494 -0.9697
vn 0.1934 -0.1494 -0.9697
vn 0.1946 0.0030 -0.9809
vn -0.0000 -1.0000 -0.0000
vn 0.9838 0.0013 -0.1795
vn 0.9752 -0.0719 -0.2094
vn 0.9752 -0.0719 0.2094
vn 0.9838 0.0013 0.1795
vn 0.1564 -0.0000 0.9877
vn -0.1564 -0.0000 0.9877
vn -0.9877 -0.0000 0.1564
vn -0.9877 -0.0000 -0.1564
vn -0.5225 -0.0000 0.8526
vn 0.8526 -0.0000 -0.5225
vn -0.8526 -0.0000 0.5225
vn -0.8526 -0.0000 -0.5225
vn -0.5225 -0.0000 -0.8526
vn 0.5225 -0.0000 -0.8526
vn 0.8526 -0.0000 0.5225
vn 0.5225 -0.0000 0.8526
vn -0.0274 -0.9882 0.1504
vn 0.0274 -0.9882 0.1504
vn 0.0271 -0.9882 0.1505
vn -0.0271 -0.9882 0.1505
vn -0.0272 0.9883 -0.1504
vn 0.0272 0.9883 -0.1504
vn 0.0268 0.9882 -0.1505
vn -0.0268 0.9882 -0.1505
vn -0.0274 -0.9882 -0.1504
vn -0.0730 -0.9920 -0.1030
vn -0.0726 -0.9920 -0.1037
vn -0.0271 -0.9882 -0.1505
vn -0.0711 0.9921 -0.1030
vn -0.0714 0.9922 -0.1021
vn 0.0836 -0.9960 0.0316
vn 0.0836 -0.9960 -0.0316
vn 0.0837 -0.9960 -0.0318
vn 0.0837 -0.9960 0.0318
vn 0.0730 -0.9920 -0.1030
vn 0.0274 -0.9882 -0.1504
vn 0.0271 -0.9882 -0.1505
vn 0.0726 -0.9920 -0.1037
vn -0.6891 -0.1312 0.7127
vn -0.7203 0.0026 0.6937
vn -0.9752 -0.0719 0.2094
vn -0.9838 0.0013 0.1795
vn -0.9752 -0.0719 -0.2094
vn -0.9838 0.0013 -0.1795
vn -0.9748 0.0748 0.2100
vn -0.9748 0.0748 -0.2100
vn -0.6882 0.1363 0.7126
vn -0.1932 0.1552 0.9688
vn 0.6891 -0.1312 0.7127
vn 0.7203 0.0026 0.6937
vn 0.6891 -0.1312 -0.7127
vn 0.7203 0.0026 -0.6937
vn -0.6891 -0.1312 -0.7127
vn -0.7203 0.0026 -0.6937
vn 0.9748 0.0748 -0.2100
vn 0.9748 0.0748 0.2100
vn -0.1932 0.1552 -0.9688
vn 0.1932 0.1552 -0.9688
vn 0.1932 0.1552 0.9688
vn -0.0730 -0.9920 0.1030
vn -0.0726 -0.9920 0.1037
vn -0.0800 0.9963 -0.0315
vn -0.0797 0.9963 -0.0305
vn 0.0800 0.9963 -0.0315
vn 0.0800 0.9963 0.0315
vn 0.0797 0.9963 0.0305
vn 0.0797 0.9963 -0.0305
vn 0.0730 -0.9920 0.1030
vn 0.0726 -0.9920 0.1037
vn 0.6882 0.1363 0.7126
vn 0.6882 0.1363 -0.7126
vn -0.6882 0.1363 -0.7126
vn -0.2076 0.1588 -0.9652
vn -0.2098 0.1589 -0.9647
vn -0.6870 0.1388 -0.7133
vn -0.7155 0.1352 -0.6854
vn -0.9706 0.0724 -0.2297
vn -0.9792 0.0670 -0.1917
vn 0.9792 0.0670 -0.1917
vn 0.9706 0.0724 -0.2297
vn 0.6870 0.1388 -0.7133
vn 0.7155 0.1352 -0.6854
vn 0.2098 0.1589 -0.9647
vn 0.2076 0.1588 -0.9652
vn 0.2076 0.1588 0.9652
vn 0.2098 0.1589 0.9647
vn 0.6870 0.1388 0.7133
vn 0.7155 0.1352 0.6854
vn 0.9706 0.0724 0.2297
vn 0.9792 0.0670 0.1917
vn -0.2076 0.1588 0.9652
vn -0.2098 0.1589 0.9647
vn -0.7155 0.1352 0.6854
vn -0.6870 0.1388 0.7133
vn -0.9792 0.0670 0.1917
vn -0.9706 0.0724 0.2297
vn -0.0272 0.9883 0.1504
vn -0.0711 0.9921 0.1030
vn -0.0714 0.9922 0.1021
vn -0.0269 0.9882 0.1505
vn 0.0272 0.9883 0.1504
vn 0.0268 0.9882 0.1505
vn -0.0800 0.9963 0.0315
vn -0.0797 0.9963 0.0305
vn -0.0836 -0.9960 -0.0316
vn -0.0837 -0.9960 -0.0318
vn -0.0836 -0.9960 0.0316
vn -0.0837 -0.9960 0.0318
vn 0.0711 0.9921 0.1030
vn 0.0714 0.9922 0.1021
vn 0.0711 0.9921 -0.1030
vn 0.0714 0.9922 -0.1021
vt 0.276140 0.247148
vt 0.187504 0.247148
vt 0.185366 0.244209
vt 0.277441 0.244209
vt 0.187504 0.270314
vt 0.276140 0.270314
vt 0.278278 0.273253
vt 0.186202 0.273253
vt 0.242387 0.275272
vt 0.242387 0.277035
vt 0.258075 0.277035
vt 0.258075 0.275272
vt 0.279999 0.286977
vt 0.279999 0.301207
vt 0.273327 0.301207
vt 0.273327 0.286977
vt 0.270097 0.250754
vt 0.193546 0.250754
vt 0.263593 0.275272
vt 0.263593 0.277035
vt 0.279414 0.277035
vt 0.279414 0.267030
vt 0.193546 0.266708
vt 0.270097 0.266708
vt 0.233499 0.286977
vt 0.233499 0.301207
vt 0.224593 0.301207
vt 0.224593 0.286977
vt 0.198349 0.270175
vt 0.189798 0.266835
vt 0.189156 0.266835
vt 0.187151 0.266835
vt 0.186490 0.267486
vt 0.186557 0.272485
vt 0.221822 0.286977
vt 0.221822 0.301207
vt 0.183120 0.301207
vt 0.183120 0.286977
vt 0.268206 0.250710
vt 0.270297 0.251319
vt 0.271162 0.252787
vt 0.271159 0.265240
vt 0.270294 0.266708
vt 0.268202 0.267317
vt 0.195638 0.267317
vt 0.192682 0.265240
vt 0.192685 0.252787
vt 0.193550 0.251319
vt 0.195641 0.250710
vt 0.182989 0.277035
vt 0.186557 0.277035
vt 0.280602 0.245959
vt 0.280602 0.270981
vt 0.278545 0.266835
vt 0.277561 0.266835
vt 0.260663 0.266835
vt 0.260006 0.274792
vt 0.257178 0.266835
vt 0.243396 0.266835
vt 0.241193 0.274774
vt 0.198349 0.275272
vt 0.198349 0.277035
vt 0.239284 0.277035
vt 0.239284 0.275272
vt 0.183042 0.271503
vt 0.183042 0.246481
vt 0.270570 0.241952
vt 0.202405 0.241952
vt 0.202405 0.003160
vt 0.270570 0.003160
vt 0.192520 0.272768
vt 0.188765 0.272566
vt 0.240511 0.275272
vt 0.184236 0.272512
vt 0.184753 0.272884
vt 0.188765 0.277035
vt 0.280068 0.272743
vt 0.280682 0.272262
vt 0.279408 0.244950
vt 0.278890 0.244578
vt 0.261331 0.275272
vt 0.261331 0.277035
vt 0.183576 0.244719
vt 0.182961 0.245200
vt 0.241129 0.275272
vt 0.259882 0.275272
vt 0.281408 0.266835
vt 0.186290 0.267113
vt 0.186580 0.266835
vt 0.192520 0.277035
vt 0.240511 0.277035
vt 0.241129 0.277035
vt 0.259882 0.277035
vt 0.281408 0.277035
vt 0.183045 0.269423
vt 0.183045 0.266835
vt 0.239541 0.266835
vt 0.198349 0.266835
vt 0.190547 0.266835
vt 0.241393 0.266835
vt 0.259243 0.266835
vt 0.188004 0.266835
vt 0.277534 0.266835
vt 0.190726 0.265515
vt 0.190728 0.252512
vt 0.279999 0.275061
vt 0.273327 0.275061
vt 0.273327 0.272811
vt 0.279999 0.272811
vt 0.271733 0.250348
vt 0.273118 0.252512
vt 0.280950 0.275061
vt 0.280950 0.272811
vt 0.268625 0.268686
vt 0.195215 0.268686
vt 0.273115 0.265515
vt 0.271730 0.267679
vt 0.272218 0.301207
vt 0.272218 0.286977
vt 0.271039 0.301207
vt 0.271039 0.286977
vt 0.236095 0.301207
vt 0.236095 0.286977
vt 0.271039 0.275061
vt 0.236095 0.275061
vt 0.272218 0.275061
vt 0.181639 0.301207
vt 0.181639 0.286977
vt 0.280950 0.286977
vt 0.280950 0.301207
vt 0.223226 0.301207
vt 0.223226 0.286977
vt 0.234761 0.301207
vt 0.234761 0.286977
vt 0.221822 0.275061
vt 0.183120 0.275062
vt 0.233499 0.275061
vt 0.224593 0.275061
vt 0.192114 0.250348
vt 0.181639 0.275062
vt 0.181639 0.272811
vt 0.183120 0.272811
vt 0.236095 0.272811
vt 0.271039 0.272811
vt 0.192111 0.267679
vt 0.223226 0.275061
vt 0.234761 0.275061
vt 0.233499 0.272811
vt 0.233499 0.270394
vt 0.234761 0.270394
vt 0.234761 0.272811
vt 0.236095 0.270394
vt 0.221822 0.272811
vt 0.221822 0.270394
vt 0.223226 0.270394
vt 0.223226 0.272811
vt 0.224593 0.270394
vt 0.224593 0.272811
vt 0.279999 0.270394
vt 0.280950 0.270394
vt 0.181639 0.270394
vt 0.183120 0.270394
vt 0.273327 0.270394
vt 0.272218 0.272811
vt 0.272218 0.270394
vt 0.271039 0.270394
vt 0.268628 0.249341
vt 0.195219 0.249341
s 1
f 4/1/1 3/2/1 27/3/1 22/4/1
f 1/5/1 2/6/1 19/7/1 14/8/1
f 31/9/2 18/10/2 23/11/3 35/12/3
f 75/13/4 65/14/5 56/15/6 78/16/7
f 3/2/8 4/1/8 7/17/8 8/18/8
f 36/19/9 22/20/9 27/21/10 39/22/10
f 2/6/11 1/5/11 5/23/11 6/24/11
f 1/5/12 3/2/12 8/18/12 5/23/12
f 4/1/13 2/6/13 6/24/13 7/17/13
f 69/25/14 58/26/15 62/27/16 74/28/17
f 11/29/18 56/30/18 65/31/18 67/32/18 40/33/18 9/34/18
f 72/35/19 61/36/20 66/37/21 77/38/22
f 46/39/18 48/40/18 47/41/18 52/42/18 54/43/18 53/44/18 49/45/18 51/23/18 50/46/18 43/47/18 45/48/18 44/49/18
f 40/33/23 26/50/23 15/51/24 9/34/24
f 4/1/1 23/52/1 18/53/1 2/6/1
f 67/54/18 66/55/18 61/56/18 63/57/18 36/19/18 39/22/18
f 63/57/18 62/58/18 58/59/18 32/60/18 31/9/18 35/12/18
f 10/61/25 14/62/25 19/63/26 30/64/26
f 1/5/1 15/65/1 26/66/1 3/2/1
f 7/67/1 6/68/1 5/69/1 8/70/1
f 13/71/18 10/61/18 11/29/18
f 12/72/18 13/71/18 11/29/18
f 30/64/18 33/73/18 32/60/18
f 17/74/1 15/65/1 1/5/1
f 16/75/1 17/74/1 1/5/1
f 17/76/27 12/72/27 9/34/24 15/51/24
f 21/77/1 19/7/1 2/6/1
f 20/78/1 21/77/1 2/6/1
f 14/8/1 16/75/1 1/5/1
f 25/79/1 23/52/1 4/1/1
f 24/80/1 25/79/1 4/1/1
f 38/81/28 24/82/28 22/20/9 36/19/9
f 29/83/1 27/3/1 3/2/1
f 28/84/1 29/83/1 3/2/1
f 22/4/1 24/80/1 4/1/1
f 34/85/18 31/9/18 32/60/18
f 33/73/18 34/85/18 32/60/18
f 35/12/18 37/86/18 63/57/18
f 38/81/18 36/19/18 63/57/18
f 37/86/18 38/81/18 63/57/18
f 39/22/18 41/87/18 67/54/18
f 42/88/18 40/33/18 67/32/18
f 41/89/18 42/88/18 67/32/18
f 14/62/25 10/61/25 13/71/29 16/90/29
f 12/72/27 17/76/27 16/90/29 13/71/29
f 9/34/18 12/72/18 11/29/18
f 30/64/26 19/63/26 21/91/30 33/73/30
f 20/92/31 34/85/31 33/73/30 21/91/30
f 18/53/1 20/78/1 2/6/1
f 35/12/3 23/11/3 25/93/32 37/86/32
f 24/82/28 38/81/28 37/86/32 25/93/32
f 34/85/31 20/92/31 18/10/2 31/9/2
f 39/22/10 27/21/10 29/94/33 41/87/33
f 28/95/34 42/88/34 41/89/33 29/96/33
f 32/60/18 59/97/18 55/98/18 11/29/18 10/61/18 30/64/18
f 42/88/34 28/95/34 26/50/23 40/33/23
f 26/66/1 28/84/1 3/2/1
f 55/98/18 57/99/18 11/29/18
f 57/99/18 56/30/18 11/29/18
f 58/59/18 60/100/18 32/60/18
f 60/100/18 59/97/18 32/60/18
f 61/56/18 64/101/18 63/57/18
f 64/101/18 62/58/18 63/57/18
f 65/31/18 68/102/18 67/32/18
f 68/103/18 66/55/18 67/54/18
f 43/47/35 50/46/36 102/104/37 106/105/38
f 83/106/39 92/107/40 116/108/41 101/109/42
f 47/41/43 48/40/44 95/110/45 94/111/46
f 90/112/47 83/106/39 101/109/42 114/113/48
f 49/45/49 53/44/50 98/114/51 104/115/52
f 54/43/53 52/42/54 100/116/55 99/117/56
f 78/16/7 56/15/6 57/118/57 79/119/58
f 79/119/58 57/118/57 55/120/59 80/121/60
f 80/121/60 55/120/59 59/122/61 71/123/62
f 85/124/63 80/121/60 71/123/62 87/125/64
f 84/126/65 79/119/58 80/121/60 85/124/63
f 92/107/66 78/16/7 79/119/58 84/126/65
f 68/127/67 76/128/68 77/38/22 66/37/21
f 65/14/5 75/13/4 76/129/68 68/130/67
f 64/131/69 73/132/70 74/28/17 62/27/16
f 61/36/20 72/35/19 73/132/70 64/131/69
f 60/133/71 70/134/72 71/123/62 59/122/61
f 58/26/15 69/25/14 70/134/72 60/133/71
f 82/135/73 72/35/19 77/38/22 91/136/74
f 81/137/75 69/25/14 74/28/17 89/138/76
f 83/106/77 75/13/4 78/16/7 92/107/66
f 45/48/78 43/47/35 106/105/38 105/139/79
f 91/136/80 90/140/47 114/141/48 115/142/81
f 52/42/54 47/41/43 94/111/46 100/116/55
f 85/124/82 87/125/83 111/143/84 109/144/85
f 53/44/50 54/43/53 99/117/56 98/114/51
f 51/23/86 49/45/49 104/115/52 103/145/87
f 76/128/68 90/140/88 91/136/74 77/38/22
f 75/13/4 83/106/77 90/112/88 76/129/68
f 73/132/70 88/146/89 89/138/76 74/28/17
f 72/35/19 82/135/73 88/146/89 73/132/70
f 70/134/72 86/147/90 87/125/64 71/123/62
f 69/25/14 81/137/75 86/147/90 70/134/72
f 93/148/91 94/149/92 95/150/93 110/151/94
f 110/151/94 95/150/93 96/152/95 111/143/96
f 97/153/97 98/154/98 99/155/99 112/156/100
f 112/156/100 99/155/99 100/157/101 113/158/102
f 101/109/103 102/159/104 103/160/105 114/113/106
f 114/141/106 103/161/105 104/162/107 115/142/108
f 102/159/104 101/109/103 116/108/109 106/163/110
f 94/149/92 93/148/91 113/158/102 100/157/101
f 98/154/98 97/153/97 115/142/108 104/162/107
f 106/163/110 116/108/109 107/164/111 105/165/112
f 105/165/112 107/164/111 109/144/113 108/166/114
f 108/166/114 109/144/113 111/143/96 96/152/95
f 89/138/115 88/146/116 112/156/117 113/158/118
f 81/137/119 89/138/115 113/158/118 93/148/120
f 88/146/116 82/135/121 97/153/122 112/156/117
f 48/40/44 46/39/123 96/167/124 95/110/45
f 44/49/125 45/48/78 105/139/79 108/168/126
f 82/135/121 91/136/80 115/142/81 97/153/122
f 50/46/36 51/23/86 103/145/87 102/104/37
f 87/125/83 86/147/127 110/151/128 111/143/84
f 92/107/40 84/126/129 107/164/130 116/108/41
f 86/147/127 81/137/119 93/148/120 110/151/128
f 46/39/123 44/49/125 108/168/126 96/167/124
f 84/126/129 85/124/82 109/144/85 107/164/130
