# Blender 4.4.3
# www.blender.org
o Flower_Pot_2
v -0.286726 -0.286726 -0.442077
v -0.286726 -0.286726 -0.315769
v -0.286726 -0.286726 0.315769
v -0.286726 -0.286726 0.442077
v 0.286726 -0.286726 0.442077
v 0.286726 -0.286726 0.315769
v 0.286726 -0.286726 -0.315769
v 0.286726 -0.286726 -0.442077
v -0.286726 -0.335664 -0.442077
v -0.286726 -0.335664 -0.315769
v -0.286726 -0.335664 0.315769
v -0.286726 -0.335664 0.442077
v -0.210719 -0.283283 0.635652
v -0.286509 -0.285353 0.554593
v -0.263889 -0.284025 0.612296
v -0.286509 -0.285353 -0.554593
v -0.210719 -0.283283 -0.635652
v -0.263889 -0.284025 -0.612296
v 0.286509 -0.285353 0.554593
v 0.210719 -0.283283 0.635652
v 0.263889 -0.284025 0.612296
v 0.210719 -0.283283 -0.635652
v 0.286509 -0.285353 -0.554593
v 0.263889 -0.284025 -0.612296
v -0.276498 -0.057163 0.573348
v -0.200957 -0.056475 0.644385
v -0.252734 -0.056718 0.624440
v -0.200957 -0.056475 -0.644385
v -0.276498 -0.057163 -0.573348
v -0.252734 -0.056718 -0.624440
v 0.276498 -0.057163 -0.573348
v 0.200957 -0.056475 -0.644385
v 0.252734 -0.056718 -0.624440
v 0.200957 -0.056475 0.644385
v 0.276498 -0.057163 0.573348
v 0.252734 -0.056718 0.624440
v -0.276609 0.024542 0.585900
v -0.200168 0.023941 0.658553
v -0.252505 0.024149 0.638101
v -0.200168 0.023941 -0.658553
v -0.276609 0.024542 -0.585900
v -0.252505 0.024149 -0.638101
v 0.200168 0.023941 -0.658553
v 0.276609 0.024542 -0.585900
v 0.252505 0.024149 -0.638101
v 0.276609 0.024542 0.585900
v 0.200168 0.023941 0.658553
v 0.252505 0.024149 0.638101
v -0.269298 0.027909 -0.568762
v -0.192669 0.027145 -0.639654
v -0.244746 0.027384 -0.619446
v -0.269277 -0.053964 -0.554449
v -0.192898 -0.053203 -0.625487
v -0.244806 -0.053441 -0.605222
v 0.269298 0.027909 -0.568762
v 0.192669 0.027145 -0.639654
v 0.244746 0.027384 -0.619446
v 0.269277 -0.053964 -0.554449
v 0.192898 -0.053203 -0.625487
v 0.244806 -0.053441 -0.605222
v 0.192669 0.027145 0.639654
v 0.269298 0.027909 0.568762
v 0.244746 0.027384 0.619446
v 0.192898 -0.053203 0.625487
v 0.269277 -0.053964 0.554449
v 0.244806 -0.053441 0.605222
v -0.192898 -0.053203 0.625487
v -0.269277 -0.053964 0.554449
v -0.244806 -0.053441 0.605222
v -0.192669 0.027145 0.639654
v -0.269298 0.027909 0.568762
v -0.244746 0.027384 0.619446
v -0.210142 0.279650 0.737540
v -0.286490 0.279807 0.651591
v -0.264070 0.279706 0.712400
v -0.286490 0.279807 -0.651591
v -0.210142 0.279650 -0.737540
v -0.264070 0.279706 -0.712400
v 0.210142 0.279650 -0.737540
v 0.286490 0.279807 -0.651591
v 0.264070 0.279706 -0.712400
v 0.286490 0.279807 0.651591
v 0.210142 0.279650 0.737540
v 0.264070 0.279706 0.712400
v -0.210740 0.192145 0.528995
v -0.128622 0.196067 0.614420
v -0.185516 0.192107 0.586517
v -0.128431 0.190689 -0.619100
v -0.210740 0.192145 -0.528995
v -0.185419 0.190517 -0.587847
v 0.210740 0.192145 -0.528995
v 0.128622 0.196067 -0.614420
v 0.185516 0.192107 -0.586517
v 0.128431 0.190689 0.619100
v 0.210740 0.192145 0.528995
v 0.185419 0.190517 0.587847
v -0.135784 0.292845 -0.665061
v -0.212353 0.292941 -0.578348
v -0.189808 0.292731 -0.639372
v 0.212353 0.292941 -0.578348
v 0.135784 0.292845 -0.665061
v 0.189808 0.292731 -0.639372
v 0.212353 0.292941 0.578348
v 0.135784 0.292845 0.665061
v 0.189808 0.292731 0.639372
v -0.135784 0.292845 0.665061
v -0.212353 0.292941 0.578348
v -0.189808 0.292731 0.639372
v 0.286726 -0.172036 0.325142
v 0.286726 -0.181408 0.315769
v 0.286726 -0.174781 0.318514
v 0.286479 -0.181263 0.441696
v 0.286551 -0.171938 0.432440
v 0.286461 -0.174631 0.438925
v 0.321331 -0.321331 0.432705
v 0.312740 -0.312740 0.442077
v 0.311961 -0.321552 0.442077
v 0.318814 -0.318814 0.439332
v 0.312740 -0.312740 0.315769
v 0.321331 -0.321331 0.325142
v 0.311961 -0.321552 0.315769
v 0.318814 -0.318814 0.318514
v 0.325349 -0.181408 0.315769
v 0.326292 -0.172036 0.325142
v 0.334769 -0.181365 0.325142
v 0.326006 -0.174790 0.318514
v 0.331314 -0.175988 0.319731
v 0.332667 -0.174760 0.325142
v 0.332000 -0.181387 0.318514
v 0.325316 -0.181391 0.442032
v 0.334769 -0.181365 0.432705
v 0.326284 -0.172032 0.432694
v 0.331996 -0.181385 0.439327
v 0.331304 -0.175983 0.438102
v 0.332667 -0.174760 0.432705
v 0.325968 -0.174771 0.439281
v 0.286536 -0.171930 -0.433352
v 0.286469 -0.180322 -0.441680
v 0.286453 -0.174353 -0.439187
v 0.286726 -0.180472 -0.315769
v 0.286726 -0.172036 -0.324205
v 0.286726 -0.174507 -0.318240
v 0.321331 -0.321331 -0.324205
v 0.313598 -0.313598 -0.315769
v 0.312897 -0.321529 -0.315769
v 0.319066 -0.319066 -0.318240
v 0.313598 -0.313598 -0.442077
v 0.321331 -0.321331 -0.433641
v 0.312897 -0.321529 -0.442077
v 0.319066 -0.319066 -0.439606
v 0.326346 -0.180455 -0.442032
v 0.327218 -0.172031 -0.433628
v 0.334858 -0.180433 -0.433641
v 0.326934 -0.174497 -0.439557
v 0.331737 -0.175588 -0.438496
v 0.332966 -0.174487 -0.433641
v 0.332361 -0.180450 -0.439600
v 0.326379 -0.180472 -0.315769
v 0.334858 -0.180433 -0.324205
v 0.327228 -0.172036 -0.324205
v 0.332366 -0.180453 -0.318240
v 0.331749 -0.175593 -0.319335
v 0.332966 -0.174488 -0.324205
v 0.326971 -0.174515 -0.318240
vn -0.0000 -0.9859 0.1671
vn -0.0000 -0.9859 -0.1671
vn 0.0012 1.0000 -0.0005
vn -0.0000 -0.0385 -0.9993
vn -0.4184 -0.9083 -0.0000
vn -0.0000 0.9838 0.1791
vn 1.0000 -0.0003 -0.0000
vn 0.4184 -0.9083 -0.0000
vn 0.4050 0.9143 -0.0000
vn -0.0000 0.9853 -0.1706
vn -0.0000 1.0000 -0.0000
vn -0.0000 -0.2951 -0.9555
vn -0.0000 -0.1736 -0.9848
vn -0.0000 -0.1736 0.9848
vn 0.9993 -0.0387 -0.0000
vn -0.0000 0.9853 0.1706
vn -0.9993 -0.0387 -0.0000
vn -0.0000 -0.0000 1.0000
vn -0.0000 -1.0000 -0.0000
vn -0.9990 0.0444 -0.0000
vn -0.0000 -0.0000 -1.0000
vn -1.0000 -0.0003 -0.0000
vn -0.0000 -0.2951 0.9555
vn -0.4050 0.9143 -0.0000
vn -1.0000 -0.0000 -0.0000
vn -0.0000 -0.9998 -0.0174
vn -0.0000 -0.0385 0.9993
vn 0.0236 -0.9997 -0.0000
vn 0.9954 -0.0956 -0.0000
vn -0.0044 0.0021 -1.0000
vn -0.0044 0.0020 1.0000
vn 0.0012 1.0000 0.0005
vn -0.1744 0.9847 -0.0000
vn -0.0000 0.9838 -0.1791
vn 0.9999 0.0160 -0.0000
vn 0.0124 0.4368 -0.8995
vn -0.9999 0.0160 -0.0000
vn -0.0124 0.4368 0.8995
vn 0.1744 0.9847 -0.0000
vn -0.3791 -0.2804 0.8819
vn -0.9156 -0.1416 0.3763
vn -0.0606 0.9877 -0.1443
vn -0.2010 0.9758 -0.0859
vn -0.0606 0.9877 0.1443
vn -0.2010 0.9758 0.0859
vn -0.0533 -0.9876 0.1477
vn -0.1917 -0.9764 0.0994
vn -0.0533 -0.9876 -0.1477
vn -0.1917 -0.9764 -0.0994
vn -0.3791 -0.2804 -0.8819
vn -0.9156 -0.1416 -0.3763
vn 0.9156 -0.1416 -0.3763
vn 0.3791 -0.2804 -0.8819
vn 0.3791 -0.2804 0.8819
vn 0.9156 -0.1416 0.3763
vn -0.3580 -0.1614 -0.9197
vn -0.8978 -0.0759 -0.4338
vn 0.8978 -0.0759 -0.4338
vn 0.3580 -0.1614 -0.9197
vn 0.3580 -0.1614 0.9197
vn 0.8978 -0.0759 0.4338
vn -0.3580 -0.1614 0.9197
vn -0.8978 -0.0759 0.4338
vn 0.0606 0.9877 -0.1443
vn 0.2010 0.9758 -0.0859
vn 0.0606 0.9877 0.1443
vn 0.2010 0.9758 0.0859
vn 0.1917 -0.9764 0.0994
vn 0.0533 -0.9876 0.1477
vn 0.1917 -0.9764 -0.0994
vn 0.0533 -0.9876 -0.1477
vn -0.1262 0.9908 0.0491
vn -0.0571 0.9911 0.1202
vn 0.1262 0.9908 0.0491
vn 0.0571 0.9911 0.1202
vn -0.3811 -0.0249 -0.9242
vn -0.9199 0.0162 -0.3919
vn 0.9199 0.0162 -0.3919
vn 0.3811 -0.0249 -0.9242
vn 0.3811 -0.0249 0.9242
vn 0.9199 0.0162 0.3919
vn -0.3811 -0.0249 0.9242
vn -0.9199 0.0162 0.3919
vn 0.3757 0.4473 -0.8116
vn 0.9067 0.2117 -0.3649
vn 0.4152 0.4110 0.8116
vn 0.9099 0.2059 0.3602
vn -0.9099 0.2059 -0.3602
vn -0.4152 0.4110 -0.8116
vn -0.9067 0.2117 0.3649
vn -0.3757 0.4473 0.8116
vn -0.0571 0.9911 -0.1202
vn -0.1262 0.9908 -0.0491
vn 0.1262 0.9908 -0.0491
vn 0.0571 0.9911 -0.1202
vn -0.0000 -0.9998 0.0174
vn 0.4826 -0.7422 0.4650
vn 0.3832 -0.0339 0.9230
vn 0.3832 -0.0339 -0.9230
vn 0.4826 -0.7422 -0.4650
vn 0.3264 0.2966 -0.8975
vn 0.3310 0.8815 -0.3367
vn 0.9091 0.2452 -0.3367
vn 0.3205 0.2984 0.8990
vn 0.9085 0.2459 0.3379
vn 0.3300 0.8815 0.3377
vn 0.9194 -0.0882 -0.3832
vn 0.3812 -0.0366 -0.9238
vn 0.3781 -0.0361 0.9251
vn 0.9193 -0.0882 0.3835
vn 0.3929 0.9196 -0.0000
vn 0.9529 0.3032 -0.0000
vn -0.0002 0.9235 0.3837
vn -0.0068 0.3848 0.9230
vn -0.0000 0.3829 -0.9238
vn 0.0001 0.9237 -0.3832
vn 0.4827 -0.7422 -0.4650
vn 0.3203 0.2984 -0.8991
vn 0.3299 0.8815 -0.3378
vn 0.9083 0.2460 -0.3383
vn 0.3264 0.2966 0.8975
vn 0.9091 0.2452 0.3367
vn 0.3310 0.8815 0.3367
vn 0.9192 -0.0882 -0.3837
vn 0.3779 -0.0360 -0.9251
vn 0.3812 -0.0366 0.9238
vn 0.9194 -0.0882 0.3832
vn -0.0003 0.9234 -0.3837
vn -0.0070 0.3848 -0.9230
vn 0.0001 0.9237 0.3832
vn -0.0000 0.3829 0.9238
vn 0.9988 0.0499 -0.0000
vt 0.233250 0.293762
vt 0.233250 0.303477
vt 0.183011 0.303477
vt 0.183011 0.293762
vt 0.233250 0.256925
vt 0.233250 0.261450
vt 0.183011 0.261450
vt 0.183011 0.256925
vt 0.234081 0.995502
vt 0.197877 0.995502
vt 0.205740 0.989274
vt 0.226305 0.989491
vt 0.279665 0.289376
vt 0.228001 0.289376
vt 0.228001 0.281353
vt 0.279665 0.281353
vt 0.233250 0.305980
vt 0.233250 0.323587
vt 0.183011 0.323587
vt 0.183011 0.305980
vt 0.268558 0.333680
vt 0.268558 0.347020
vt 0.259662 0.347020
vt 0.259662 0.333680
vt 0.343913 0.481819
vt 0.396637 0.481819
vt 0.396637 0.485601
vt 0.343913 0.485601
vt 0.233250 0.263576
vt 0.233250 0.290756
vt 0.183011 0.290756
vt 0.183011 0.263576
vt 0.228001 0.257645
vt 0.228001 0.279020
vt 0.184540 0.279020
vt 0.184540 0.257645
vt 0.184540 0.289376
vt 0.184540 0.281353
vt 0.195756 0.238346
vt 0.184894 0.238346
vt 0.184894 0.228887
vt 0.184894 0.014362
vt 0.184894 0.000676
vt 0.197840 0.000676
vt 0.270684 0.000676
vt 0.289993 0.000676
vt 0.289993 0.007991
vt 0.289993 0.227513
vt 0.289993 0.238346
vt 0.262258 0.238346
vt 0.280582 0.293762
vt 0.280582 0.303477
vt 0.320051 0.485601
vt 0.320051 0.481819
vt 0.338589 0.481819
vt 0.338589 0.485601
vt 0.237960 0.485601
vt 0.237960 0.481819
vt 0.255708 0.481819
vt 0.255708 0.485601
vt 0.280582 0.305980
vt 0.280582 0.323587
vt 0.228001 0.317170
vt 0.228001 0.322752
vt 0.184540 0.322752
vt 0.184540 0.317170
vt 0.280582 0.263576
vt 0.280582 0.290756
vt 0.196543 0.993342
vt 0.196543 0.968709
vt 0.203120 0.968709
vt 0.203436 0.988054
vt 0.198138 0.248761
vt 0.242050 0.248595
vt 0.242050 0.325752
vt 0.198138 0.325918
vt 0.228001 0.315185
vt 0.228001 0.291670
vt 0.279665 0.291670
vt 0.279665 0.294628
vt 0.279665 0.297379
vt 0.279665 0.311659
vt 0.279665 0.314297
vt 0.279665 0.315185
vt 0.235830 0.883366
vt 0.235830 0.968192
vt 0.227600 0.968192
vt 0.226666 0.966849
vt 0.226666 0.892594
vt 0.261006 0.481819
vt 0.314668 0.481819
vt 0.314668 0.485601
vt 0.261006 0.485601
vt 0.280582 0.256925
vt 0.280582 0.261450
vt 0.184540 0.315185
vt 0.184540 0.291670
vt 0.196543 0.883409
vt 0.235722 0.883409
vt 0.226529 0.892715
vt 0.204894 0.892715
vt 0.269165 0.258890
vt 0.266065 0.251740
vt 0.258406 0.248699
vt 0.243475 0.248670
vt 0.243475 0.325776
vt 0.258406 0.325748
vt 0.266065 0.322706
vt 0.269165 0.315557
vt 0.279665 0.322752
vt 0.279665 0.317170
vt 0.204894 0.967629
vt 0.196543 0.968192
vt 0.196543 0.883366
vt 0.206027 0.892594
vt 0.206027 0.966882
vt 0.204513 0.968192
vt 0.224818 0.968192
vt 0.207319 0.968192
vt 0.226529 0.967490
vt 0.224891 0.968709
vt 0.206512 0.968709
vt 0.224818 0.987441
vt 0.207319 0.987223
vt 0.235722 0.968709
vt 0.228592 0.968709
vt 0.224891 0.987826
vt 0.205946 0.987826
vt 0.235722 0.994520
vt 0.228592 0.988122
vt 0.196543 0.993629
vt 0.204513 0.987530
vt 0.233868 0.995502
vt 0.197496 0.995502
vt 0.205447 0.989652
vt 0.226022 0.989652
vt 0.254406 0.333680
vt 0.254406 0.347020
vt 0.196828 0.347020
vt 0.196828 0.333680
vt 0.280582 0.262338
vt 0.233250 0.262338
vt 0.228001 0.290507
vt 0.184540 0.290507
vt 0.184540 0.316240
vt 0.228001 0.316240
vt 0.233250 0.304789
vt 0.183011 0.304789
vt 0.183011 0.256576
vt 0.233250 0.256576
vt 0.233250 0.324190
vt 0.183011 0.324190
vt 0.233250 0.292273
vt 0.280582 0.292273
vt 0.280582 0.304789
vt 0.280582 0.256576
vt 0.280582 0.324190
vt 0.317365 0.485601
vt 0.317365 0.481819
vt 0.341258 0.485601
vt 0.341258 0.481819
vt 0.235446 0.485601
vt 0.235446 0.481819
vt 0.399271 0.481819
vt 0.399271 0.485601
vt 0.258320 0.481819
vt 0.258320 0.485601
vt 0.184540 0.280165
vt 0.228001 0.280165
vt 0.228001 0.323440
vt 0.184540 0.323440
vt 0.184540 0.256766
vt 0.228001 0.256766
vt 0.183011 0.292273
vt 0.183011 0.262338
vt 0.257608 0.333680
vt 0.257608 0.347020
vt 0.194318 0.347020
vt 0.194318 0.333680
vt 0.271562 0.333680
vt 0.271562 0.347020
vt 0.279665 0.290507
vt 0.279665 0.279020
vt 0.279665 0.280165
vt 0.279665 0.323440
vt 0.279665 0.256766
vt 0.279665 0.257645
vt 0.279665 0.316240
vt 0.188720 0.248790
vt 0.183890 0.251833
vt 0.181934 0.258987
vt 0.181934 0.315691
vt 0.183890 0.322845
vt 0.188720 0.325889
vt 0.206027 0.968192
vt 0.226666 0.968192
vt 0.227600 0.987726
vt 0.227649 0.988771
vt 0.226865 0.988230
vt 0.226666 0.987460
vt 0.225858 0.988423
vt 0.206027 0.987244
vt 0.205146 0.988020
vt 0.204368 0.988586
vt 0.206159 0.988199
vt 0.196543 0.995502
vt 0.235830 0.993002
vt 0.235830 0.995502
vt 0.204894 0.968709
vt 0.226529 0.968709
vt 0.227258 0.989055
vt 0.226572 0.988543
vt 0.226529 0.987851
vt 0.225664 0.988698
vt 0.204894 0.987835
vt 0.204972 0.988520
vt 0.204268 0.988991
vt 0.205863 0.988698
vt 0.235722 0.995502
vt 0.279665 0.258706
vt 0.232524 0.258706
vt 0.232524 0.259641
vt 0.232524 0.259794
vt 0.232524 0.261774
vt 0.232524 0.261865
vt 0.232524 0.262078
vt 0.279665 0.262078
vt 0.279665 0.273307
vt 0.232894 0.273307
vt 0.232894 0.274138
vt 0.232894 0.274286
vt 0.232894 0.276442
vt 0.232894 0.276528
vt 0.232894 0.276598
vt 0.279665 0.276598
s 0
f 40/1/1 43/2/1 56/3/1 50/4/1
f 47/5/2 38/6/2 70/7/2 61/8/2
f 109/9/3 113/10/3 132/11/3 124/12/3
f 17/13/4 28/14/4 32/15/4 22/16/4
f 44/17/5 46/18/5 62/19/5 55/20/5
f 83/21/6 104/22/6 106/23/6 73/24/6
f 55/25/7 62/26/7 65/27/7 58/28/7
f 37/29/8 41/30/8 49/31/8 71/32/8
f 35/33/9 31/34/9 58/35/9 65/36/9
f 32/15/10 28/14/10 53/37/10 59/38/10
f 88/39/11 90/40/11 89/41/11 85/42/11 87/43/11 86/44/11 94/45/11 96/46/11 95/47/11 91/48/11 93/49/11 92/50/11
f 40/1/12 77/51/12 79/52/12 43/2/12
f 53/53/13 50/54/13 56/55/13 59/56/13
f 64/57/14 61/58/14 70/59/14 67/60/14
f 80/61/15 82/62/15 46/18/15 44/17/15
f 26/63/16 34/64/16 64/65/16 67/66/16
f 74/67/17 76/68/17 41/30/17 37/29/17
f 140/69/18 7/70/18 144/71/18 158/72/18
f 6/73/19 3/74/19 2/75/19 7/76/19
f 25/77/20 29/78/20 16/79/20 1/80/20 2/81/20 3/82/20 4/83/20 14/84/20
f 3/85/21 6/86/21 119/87/21 121/88/21 11/89/21
f 71/90/22 49/91/22 52/92/22 68/93/22
f 47/5/23 83/94/23 73/95/23 38/6/23
f 29/78/24 25/77/24 68/96/24 52/97/24
f 2/98/25 1/99/25 9/100/25 10/101/25
f 22/102/26 24/103/26 23/104/26 8/105/26 1/106/26 16/107/26 18/108/26 17/109/26
f 20/110/27 34/64/27 26/63/27 13/111/27
f 7/70/18 2/98/18 10/101/18 145/112/18 144/71/18
f 5/113/18 4/114/18 12/115/18 117/116/18 116/117/18
f 11/89/28 121/88/28 120/118/28 115/119/28 117/116/28 12/115/28
f 9/100/28 149/120/28 148/121/28 143/122/28 145/112/28 10/101/28
f 120/118/29 125/123/29 131/124/29 115/119/29
f 1/99/21 8/125/21 147/126/21 149/120/21 9/100/21
f 148/121/29 153/127/29 159/128/29 143/122/29
f 8/125/30 138/129/30 151/130/30 147/126/30
f 4/114/25 3/85/25 11/89/25 12/115/25
f 112/131/31 5/113/31 116/117/31 130/132/31
f 137/133/32 141/134/32 160/135/32 152/136/32
f 74/137/33 107/138/33 98/139/33 76/140/33
f 77/21/34 97/22/34 101/23/34 79/24/34
f 98/140/35 107/137/35 85/138/35 89/139/35
f 106/24/36 104/21/36 94/22/36 86/23/36
f 103/140/37 100/137/37 91/138/37 95/139/37
f 101/24/38 97/21/38 88/22/38 92/23/38
f 80/137/39 100/138/39 103/139/39 82/140/39
f 38/6/40 73/95/40 75/141/40 39/142/40
f 39/142/41 75/141/41 74/67/41 37/29/41
f 53/37/42 28/14/42 30/143/42 54/144/42
f 54/144/43 30/143/43 29/78/43 52/97/43
f 26/63/44 67/66/44 69/145/44 27/146/44
f 27/146/45 69/145/45 68/96/45 25/77/45
f 56/3/46 43/2/46 45/147/46 57/148/46
f 57/148/47 45/147/47 44/17/47 55/20/47
f 47/5/48 61/8/48 63/149/48 48/150/48
f 48/151/49 63/152/49 62/19/49 46/18/49
f 77/51/50 40/1/50 42/153/50 78/154/50
f 78/154/51 42/153/51 41/30/51 76/68/51
f 80/61/52 44/17/52 45/147/52 81/155/52
f 81/155/53 45/147/53 43/2/53 79/52/53
f 83/94/54 47/5/54 48/150/54 84/156/54
f 84/157/55 48/151/55 46/18/55 82/62/55
f 50/54/56 53/53/56 54/158/56 51/159/56
f 51/159/57 54/158/57 52/92/57 49/91/57
f 55/25/58 58/28/58 60/160/58 57/161/58
f 57/161/59 60/160/59 59/56/59 56/55/59
f 61/58/60 64/57/60 66/162/60 63/163/60
f 63/164/61 66/165/61 65/27/61 62/26/61
f 67/60/62 70/59/62 72/166/62 69/167/62
f 69/167/63 72/166/63 71/90/63 68/93/63
f 32/15/64 59/38/64 60/168/64 33/169/64
f 33/169/65 60/168/65 58/35/65 31/34/65
f 64/65/66 34/64/66 36/170/66 66/171/66
f 66/172/67 36/173/67 35/33/67 65/36/67
f 49/31/68 41/30/68 42/153/68 51/174/68
f 51/174/69 42/153/69 40/1/69 50/4/69
f 37/29/70 71/32/70 72/175/70 39/142/70
f 39/142/71 72/175/71 70/7/71 38/6/71
f 107/138/72 74/137/72 75/176/72 108/177/72
f 108/177/73 75/176/73 73/24/73 106/23/73
f 82/140/74 103/139/74 105/178/74 84/179/74
f 84/180/75 105/181/75 104/22/75 83/21/75
f 28/14/76 17/13/76 18/182/76 30/143/76
f 30/143/77 18/182/77 16/79/77 29/78/77
f 31/34/78 23/183/78 24/184/78 33/169/78
f 33/169/79 24/184/79 22/16/79 32/15/79
f 34/64/80 20/110/80 21/185/80 36/170/80
f 36/173/81 21/186/81 19/187/81 35/33/81
f 13/111/82 26/63/82 27/146/82 15/188/82
f 15/188/83 27/146/83 25/77/83 14/84/83
f 106/24/84 86/23/84 87/177/84 108/176/84
f 108/176/85 87/177/85 85/138/85 107/137/85
f 88/22/86 97/21/86 99/180/86 90/181/86
f 90/178/87 99/179/87 98/140/87 89/139/87
f 103/140/88 95/139/88 96/178/88 105/179/88
f 105/180/89 96/181/89 94/22/89 104/21/89
f 91/138/90 100/137/90 102/176/90 93/177/90
f 93/177/91 102/176/91 101/24/91 92/23/91
f 97/22/92 77/21/92 78/180/92 99/181/92
f 99/178/93 78/179/93 76/140/93 98/139/93
f 100/138/94 80/137/94 81/176/94 102/177/94
f 102/177/95 81/176/95 79/24/95 101/23/95
f 4/76/96 5/73/96 19/189/96 21/190/96 20/191/96 13/192/96 15/193/96 14/194/96
f 115/119/97 118/195/97 117/116/97
f 118/195/98 116/117/98 117/116/98
f 119/87/99 122/196/99 121/88/99
f 122/196/100 120/118/100 121/88/100
f 123/197/101 126/198/101 127/199/101 129/200/101
f 124/12/102 128/201/102 127/199/102 126/198/102
f 125/123/103 129/200/103 127/199/103 128/201/103
f 130/132/104 133/202/104 134/203/104 136/204/104
f 131/124/105 135/205/105 134/203/105 133/202/105
f 132/11/106 136/204/106 134/203/106 135/205/106
f 125/123/107 120/118/107 122/196/107 129/200/107
f 129/200/108 122/196/108 119/87/108 123/197/108
f 130/132/109 116/117/109 118/195/109 133/202/109
f 133/202/110 118/195/110 115/119/110 131/124/110
f 124/12/111 132/11/111 135/205/111 128/201/111
f 128/201/112 135/205/112 131/124/112 125/123/112
f 132/11/113 113/10/113 114/206/113 136/204/113
f 136/204/114 114/206/114 112/131/114 130/132/114
f 123/197/115 110/207/115 111/208/115 126/198/115
f 126/198/116 111/208/116 109/9/116 124/12/116
f 6/86/21 110/207/21 123/197/21 119/87/21
f 143/122/97 146/209/97 145/112/97
f 146/209/98 144/71/98 145/112/98
f 147/126/99 150/210/99 149/120/99
f 150/210/117 148/121/117 149/120/117
f 151/130/118 154/211/118 155/212/118 157/213/118
f 152/136/119 156/214/119 155/212/119 154/211/119
f 153/127/120 157/213/120 155/212/120 156/214/120
f 158/72/121 161/215/121 162/216/121 164/217/121
f 159/128/122 163/218/122 162/216/122 161/215/122
f 160/135/123 164/217/123 162/216/123 163/218/123
f 153/127/124 148/121/124 150/210/124 157/213/124
f 157/213/125 150/210/125 147/126/125 151/130/125
f 158/72/126 144/71/126 146/209/126 161/215/126
f 161/215/127 146/209/127 143/122/127 159/128/127
f 152/136/111 160/135/111 163/218/111 156/214/111
f 156/214/112 163/218/112 159/128/112 153/127/112
f 137/133/128 152/136/128 154/211/128 139/219/128
f 139/219/129 154/211/129 151/130/129 138/129/129
f 160/135/130 141/134/130 142/206/130 164/217/130
f 164/217/131 142/206/131 140/69/131 158/72/131
f 31/34/132 35/33/132 19/187/132 5/220/132 112/221/132 114/222/132 113/223/132 109/224/132 111/225/132 110/226/132 6/227/132 7/228/132 140/229/132 142/230/132 141/231/132 137/232/132 139/233/132 138/234/132 8/235/132 23/183/132
