# Blender 4.4.3
# www.blender.org
o Trash_Can_2_Helmet
v 0.010222 -0.079421 -0.447425
v 0.237584 -0.050157 -0.386001
v 0.404024 -0.028734 -0.218188
v 0.464945 -0.020893 0.011049
v 0.404024 -0.028734 0.240286
v 0.237584 -0.050157 0.408099
v 0.010222 -0.079421 0.469523
v -0.217139 -0.108685 0.408099
v -0.383579 -0.130107 0.240286
v -0.444501 -0.137949 0.011049
v -0.383579 -0.130107 -0.218188
v -0.217139 -0.108685 -0.386001
v -0.001926 0.014967 0.438447
v 0.421974 0.069528 0.011049
v -0.425827 -0.039594 0.011049
v -0.100593 0.085587 0.011140
v 0.064760 0.110950 0.011049
v 0.064760 0.110950 -0.050641
v -0.100167 0.085043 -0.050546
v -0.170452 0.029818 0.011150
v -0.170026 0.029274 -0.050536
v -0.091211 0.051869 0.011502
v -0.090786 0.051325 -0.050184
v 0.069228 0.076236 -0.050641
v 0.150807 0.086736 -0.050641
v 0.150807 0.086736 0.011049
v 0.069228 0.076236 0.011049
v -0.165450 0.067539 0.010851
v -0.175342 0.047391 0.010961
v -0.172040 0.063375 0.010843
v -0.175661 0.056000 0.010883
v 0.148479 0.104828 0.011049
v 0.131531 0.119545 0.011049
v 0.145425 0.112884 0.011049
v 0.139222 0.118271 0.011049
v 0.131531 0.119545 -0.050641
v 0.148479 0.104828 -0.050641
v 0.139222 0.118271 -0.050641
v 0.145425 0.112884 -0.050641
v -0.174916 0.046846 -0.050725
v -0.165024 0.066995 -0.050834
v -0.175235 0.055455 -0.050803
v -0.171614 0.062830 -0.050843
v -0.159357 -0.016341 -0.046450
v -0.094094 -0.007941 -0.046450
v -0.159357 -0.016341 0.006858
v -0.094094 -0.007941 0.006858
v 0.150625 0.023718 -0.046933
v 0.085362 0.015318 0.007341
v 0.085362 0.015318 -0.046933
v 0.150625 0.023718 0.007341
v 0.161964 0.036957 -0.414821
v 0.249163 0.012904 -0.419836
v 0.227556 0.034434 -0.417370
v 0.002427 -0.018854 -0.486495
v -0.001851 0.011250 -0.428356
v -0.000651 0.005061 -0.478843
v 0.421974 0.069528 -0.176786
v 0.429787 0.036152 -0.237723
v 0.424263 0.059752 -0.219041
v 0.471286 0.075874 0.011049
v 0.495899 0.044662 0.011049
v 0.485233 0.067600 0.011049
v 0.421974 0.069528 0.198884
v 0.429787 0.036152 0.259821
v 0.424263 0.059752 0.241139
v 0.184372 0.038946 0.438447
v 0.249163 0.012904 0.441934
v 0.227556 0.034434 0.439468
v -0.001926 0.014967 0.488165
v 0.002427 -0.018854 0.508592
v -0.000651 0.005061 0.500941
v -0.188225 -0.009012 0.438447
v -0.244310 -0.050611 0.441934
v -0.228859 -0.024312 0.439468
v -0.425827 -0.039594 0.198884
v -0.424933 -0.073859 0.259821
v -0.425565 -0.049630 0.241139
v -0.475139 -0.045940 0.011049
v -0.491046 -0.082369 0.011049
v -0.486536 -0.057477 0.011049
v -0.425827 -0.039594 -0.176786
v -0.424933 -0.073859 -0.237723
v -0.425565 -0.049630 -0.219041
v -0.163481 0.008072 -0.392630
v -0.244310 -0.050611 -0.419836
v -0.232745 -0.006364 -0.398073
v 0.258090 -0.034277 -0.424739
v 0.254480 -0.047982 -0.415507
v 0.258045 -0.043646 -0.422591
v 0.010222 -0.079421 -0.481496
v 0.008546 -0.066396 -0.492155
v 0.009731 -0.075606 -0.489676
v 0.440768 -0.010765 -0.240553
v 0.433289 -0.024968 -0.235224
v 0.439824 -0.020249 -0.239313
v 0.507633 -0.002158 0.011049
v 0.498737 -0.016544 0.011049
v 0.506359 -0.011685 0.011049
v 0.440768 -0.010765 0.262651
v 0.433289 -0.024968 0.257321
v 0.439824 -0.020249 0.261411
v 0.258090 -0.034277 0.446837
v 0.254480 -0.047982 0.437605
v 0.258045 -0.043646 0.444689
v 0.008546 -0.066396 0.514253
v 0.010222 -0.079421 0.503594
v 0.009731 -0.075606 0.511773
v -0.240998 -0.098515 0.446837
v -0.234035 -0.110860 0.437605
v -0.238583 -0.107567 0.444689
v -0.423676 -0.122028 0.262651
v -0.412844 -0.133874 0.257321
v -0.420361 -0.130964 0.261411
v -0.490541 -0.130634 0.011049
v -0.478293 -0.142298 0.011049
v -0.486897 -0.139528 0.011049
v -0.423676 -0.122028 -0.240553
v -0.412844 -0.133874 -0.235224
v -0.420361 -0.130964 -0.239313
v -0.240998 -0.098515 -0.424739
v -0.234035 -0.110860 -0.415507
v -0.238583 -0.107567 -0.422591
v -0.000759 0.022515 -0.403725
vn -0.8483 -0.1767 0.4992
vn -0.4858 -0.1308 0.8643
vn -0.5422 0.2186 0.8113
vn -0.8418 0.1814 0.5084
vn -0.9811 -0.1936 -0.0000
vn -0.9969 0.0793 -0.0000
vn -0.8483 -0.1767 -0.4992
vn -0.8414 0.1855 -0.5076
vn 0.8658 0.0405 -0.4988
vn 0.5037 -0.0054 -0.8639
vn 0.4665 0.3475 -0.8134
vn 0.7697 0.3854 -0.5090
vn -0.4858 -0.1308 -0.8643
vn -0.5170 0.2410 -0.8214
vn 0.9984 0.0573 -0.0000
vn 0.9447 0.3279 -0.0000
vn 0.0090 -0.0681 -0.9976
vn -0.0310 0.2420 -0.9698
vn 0.8658 0.0405 0.4988
vn 0.7697 0.3854 0.5090
vn 0.5037 -0.0054 0.8639
vn 0.4665 0.3475 0.8134
vn 0.0090 -0.0681 0.9976
vn -0.0268 0.2035 0.9787
vn -0.1277 0.9918 -0.0000
vn -0.1254 0.9921 0.0065
vn -0.1264 0.9920 0.0036
vn 0.1277 -0.9918 -0.0000
vn 0.2504 -0.9427 -0.2205
vn 0.3428 -0.9307 -0.1273
vn -0.0020 -0.9755 0.2201
vn -0.0940 -0.9874 0.1269
vn 0.1241 -0.9591 0.2544
vn -0.0020 -0.9755 -0.2201
vn 0.1241 -0.9591 -0.2544
vn -0.1277 -0.9918 -0.0000
vn 0.3767 -0.9263 -0.0000
vn 0.3428 -0.9307 0.1273
vn 0.2504 -0.9427 0.2205
vn -0.0940 -0.9874 -0.1269
vn 0.0070 -0.0256 -0.9996
vn 0.0122 -0.0402 -0.9991
vn 0.0069 -0.0088 -0.9999
vn 0.0033 -0.0073 -1.0000
vn 0.0026 -0.0161 0.9999
vn 0.0037 -0.0285 0.9996
vn -0.0000 -0.0000 1.0000
vn 0.0004 0.0028 1.0000
vn 0.9980 0.0639 -0.0000
vn 0.9703 0.2419 -0.0000
vn -0.9682 -0.2500 -0.0034
vn -0.9682 -0.2501 -0.0034
vn -0.9882 -0.1533 -0.0055
vn -0.9882 -0.1530 -0.0055
vn -0.4070 0.9134 -0.0109
vn -0.2113 0.9774 -0.0076
vn -0.2111 0.9774 -0.0076
vn -0.4069 0.9134 -0.0109
vn -0.1405 0.9901 -0.0024
vn 0.0182 0.9998 -0.0000
vn 0.0037 -0.0285 -0.9996
vn 0.0020 -0.0199 -0.9998
vn -0.0004 -0.0028 -1.0000
vn -0.0000 -0.0000 -1.0000
vn 0.9986 -0.0519 0.0039
vn 0.7596 -0.6504 0.0057
vn 0.7570 -0.6534 0.0057
vn 0.0178 -0.0731 -0.9972
vn 0.0150 -0.0829 0.9964
vn 0.0022 -0.0183 0.9998
vn 0.0038 -0.0359 0.9993
vn -0.9730 -0.2307 -0.0025
vn -0.9667 -0.2560 -0.0000
vn -0.5703 -0.8215 0.0032
vn -0.5716 -0.8205 0.0032
vn 1.0000 -0.0029 -0.0000
vn 0.0076 -0.0588 0.9982
vn 0.0076 -0.0588 -0.9982
vn 0.8240 0.5666 -0.0000
vn 0.4312 0.9023 -0.0000
vn -0.7495 0.6619 -0.0110
vn -0.7498 0.6616 -0.0110
vn -0.9787 0.2054 -0.0086
vn -0.9788 0.2048 -0.0086
vn -0.0033 0.0073 1.0000
vn -0.0069 0.0088 0.9999
vn -0.0813 0.6921 -0.7172
vn 0.2264 0.7376 -0.6361
vn 0.5532 0.7657 -0.3282
vn -0.0553 0.9671 -0.2484
vn 0.4126 0.8944 -0.1728
vn 0.7709 0.6370 -0.0000
vn 0.5187 0.8549 -0.0000
vn 0.5639 0.7536 0.3378
vn 0.4250 0.8873 0.1793
vn 0.2472 0.7113 0.6580
vn 0.0723 0.8412 0.5359
vn -0.0703 0.5297 0.8452
vn -0.1019 0.7751 0.6236
vn -0.4216 0.6272 0.6549
vn -0.2831 0.7957 0.5356
vn -0.7377 0.5855 0.3361
vn -0.6378 0.7491 0.1789
vn -0.9058 0.4237 -0.0000
vn -0.7183 0.6957 -0.0000
vn -0.7323 0.6121 -0.2985
vn -0.6191 0.7706 -0.1509
vn -0.4206 0.7433 -0.5202
vn -0.1408 0.9692 -0.2022
vn -0.0947 0.9645 -0.2464
vn 0.1149 -0.8976 -0.4255
vn 0.3260 -0.8705 -0.3689
vn 0.5156 -0.1938 -0.8346
vn 0.0377 -0.2553 -0.9661
vn 0.4808 -0.8505 -0.2131
vn 0.8640 -0.1489 -0.4810
vn 0.5376 -0.8432 -0.0000
vn 0.9912 -0.1326 -0.0000
vn 0.4808 -0.8505 0.2131
vn 0.8640 -0.1489 0.4810
vn 0.3260 -0.8705 0.3689
vn 0.5156 -0.1938 0.8346
vn 0.1149 -0.8976 0.4255
vn 0.0377 -0.2553 0.9661
vn -0.0959 -0.9248 0.3683
vn -0.4426 -0.3171 0.8388
vn -0.2501 -0.9446 0.2126
vn -0.7957 -0.3625 0.4852
vn -0.3065 -0.9519 -0.0000
vn -0.9253 -0.3792 -0.0000
vn -0.2501 -0.9446 -0.2126
vn -0.7957 -0.3625 -0.4852
vn -0.0959 -0.9248 -0.3683
vn -0.4426 -0.3171 -0.8388
vn -0.5736 -0.0657 -0.8165
vn -0.0298 0.1933 -0.9807
vn -0.0206 0.1945 -0.9807
vn -0.4265 0.0504 -0.9031
vn -0.9070 -0.0138 -0.4208
vn -0.8138 -0.0941 -0.5734
vn -0.9976 0.0688 -0.0000
vn -0.7956 -0.1501 0.5869
vn -0.9021 -0.0424 0.4295
vn -0.3308 -0.1025 0.9381
vn -0.5355 -0.1965 0.8214
vn -0.1247 0.9920 -0.0184
vn -0.1194 0.9709 -0.2077
vn -0.1083 0.9059 -0.4095
vn 0.4028 -0.1282 0.9063
vn 0.8846 0.1587 0.4385
vn 0.7991 -0.0034 0.6012
vn 0.5480 -0.1456 0.8237
vn 0.9477 0.3192 -0.0000
vn 0.8090 0.1125 -0.5770
vn 0.8817 0.2175 -0.4188
vn 0.5666 0.0841 -0.8197
vn 0.4064 0.1541 -0.9006
vn -0.1247 0.9920 -0.0202
vn 0.0291 -0.0731 0.9969
vn 0.0448 -0.0757 0.9961
vt 0.172405 0.946666
vt 0.172405 0.957945
vt 0.168448 0.957945
vt 0.168448 0.946666
vt 0.172405 0.936658
vt 0.168448 0.936658
vt 0.172405 0.926644
vt 0.168448 0.926644
vt 0.172405 0.895809
vt 0.172405 0.901345
vt 0.168448 0.901345
vt 0.168448 0.895809
vt 0.172405 0.915888
vt 0.168448 0.915888
vt 0.172405 0.894566
vt 0.168448 0.894566
vt 0.172405 0.907933
vt 0.168448 0.907933
vt 0.172405 0.978960
vt 0.172405 0.980782
vt 0.168448 0.980782
vt 0.168448 0.978960
vt 0.172405 0.973145
vt 0.168448 0.973145
vt 0.172405 0.966216
vt 0.168448 0.966216
vt 0.160442 0.607865
vt 0.149996 0.589872
vt 0.164206 0.604111
vt 0.160444 0.535676
vt 0.164205 0.539443
vt 0.149996 0.553629
vt 0.178412 0.525256
vt 0.232627 0.535783
vt 0.243082 0.553766
vt 0.228867 0.539539
vt 0.153098 0.606875
vt 0.151578 0.608191
vt 0.150045 0.606421
vt 0.151564 0.605105
vt 0.214654 0.525310
vt 0.180332 0.980782
vt 0.180332 0.978800
vt 0.182143 0.978800
vt 0.182143 0.980782
vt 0.178408 0.616502
vt 0.180332 0.938817
vt 0.180332 0.927381
vt 0.182143 0.927381
vt 0.182143 0.938817
vt 0.180332 0.920391
vt 0.182143 0.920391
vt 0.180332 0.974940
vt 0.180332 0.968405
vt 0.182143 0.968405
vt 0.182143 0.974940
vt 0.180332 0.947854
vt 0.182143 0.947829
vt 0.180332 0.979693
vt 0.182143 0.979693
vt 0.180332 0.915385
vt 0.180332 0.912328
vt 0.182143 0.912328
vt 0.182143 0.915385
vt 0.180332 0.912539
vt 0.182143 0.912539
vt 0.180332 0.956979
vt 0.182143 0.956979
vt 0.156588 0.608229
vt 0.154872 0.606248
vt 0.155491 0.605711
vt 0.155693 0.605537
vt 0.155788 0.605455
vt 0.156060 0.605769
vt 0.157504 0.607436
vt 0.159661 0.614450
vt 0.158107 0.615794
vt 0.157726 0.615355
vt 0.159281 0.614011
vt 0.149248 0.605569
vt 0.150794 0.604216
vt 0.151177 0.604658
vt 0.149631 0.606011
vt 0.151708 0.605271
vt 0.153268 0.607071
vt 0.151722 0.608424
vt 0.150162 0.606624
vt 0.157165 0.611569
vt 0.158734 0.613380
vt 0.157180 0.614724
vt 0.155610 0.612912
vt 0.162288 0.614823
vt 0.160577 0.612833
vt 0.161492 0.612039
vt 0.162717 0.613454
vt 0.163211 0.614023
vt 0.163117 0.614104
vt 0.162915 0.614279
vt 0.154338 0.608306
vt 0.152819 0.609623
vt 0.155252 0.609361
vt 0.153548 0.607400
vt 0.160972 0.615963
vt 0.159252 0.613981
vt 0.148266 0.604435
vt 0.149801 0.603070
vt 0.159436 0.614190
vt 0.157916 0.615507
vt 0.156595 0.613981
vt 0.158114 0.612665
vt 0.159417 0.617307
vt 0.153547 0.607396
vt 0.157544 0.615144
vt 0.159099 0.613801
vt 0.157361 0.614933
vt 0.158915 0.613590
vt 0.149985 0.606420
vt 0.151531 0.605067
vt 0.149810 0.606218
vt 0.151356 0.604865
vt 0.162918 0.614277
vt 0.166507 0.907933
vt 0.166507 0.901345
vt 0.166507 0.895809
vt 0.165371 0.901345
vt 0.165371 0.895809
vt 0.166507 0.894566
vt 0.165371 0.894566
vt 0.166507 0.980782
vt 0.166507 0.978960
vt 0.165371 0.980782
vt 0.165371 0.978960
vt 0.166507 0.973145
vt 0.165371 0.973145
vt 0.166507 0.966216
vt 0.165371 0.966216
vt 0.166507 0.957945
vt 0.165371 0.957945
vt 0.166507 0.946666
vt 0.165371 0.946666
vt 0.166507 0.936658
vt 0.165371 0.936658
vt 0.166507 0.926644
vt 0.165371 0.926644
vt 0.166507 0.915888
vt 0.165371 0.915888
vt 0.165371 0.907933
vt 0.182667 0.974940
vt 0.182667 0.978800
vt 0.173286 0.901345
vt 0.173286 0.907933
vt 0.182667 0.980782
vt 0.173286 0.895809
vt 0.182667 0.979693
vt 0.173286 0.894566
vt 0.182667 0.912539
vt 0.182667 0.912328
vt 0.173286 0.978960
vt 0.173286 0.980782
vt 0.182667 0.915385
vt 0.173286 0.973145
vt 0.182667 0.920391
vt 0.173286 0.966216
vt 0.182667 0.927381
vt 0.173286 0.957945
vt 0.182667 0.938817
vt 0.173286 0.946666
vt 0.182667 0.947822
vt 0.173286 0.936658
vt 0.182667 0.956979
vt 0.173286 0.926644
vt 0.182667 0.968405
vt 0.173286 0.915888
vt 0.159448 0.617275
vt 0.173286 0.920391
vt 0.173286 0.915385
vt 0.173286 0.912328
vt 0.173286 0.912539
vt 0.173286 0.979693
vt 0.173286 0.978800
vt 0.214882 0.616502
vt 0.228082 0.603118
vt 0.229940 0.605280
vt 0.173286 0.968405
vt 0.173286 0.956979
vt 0.173286 0.947923
vt 0.173286 0.938817
vt 0.173286 0.927381
vt 0.241291 0.591601
vt 0.173286 0.974940
s 1
f 112/1/1 109/2/2 74/3/3 77/4/4
f 115/5/5 112/1/1 77/4/4 80/6/6
f 118/7/7 115/5/5 80/6/6 83/8/8
f 94/9/9 88/10/10 53/11/11 59/12/12
f 121/13/13 118/7/7 83/8/8 86/14/14
f 97/15/15 94/9/9 59/12/12 62/16/16
f 88/10/10 92/17/17 55/18/18 53/11/11
f 92/17/17 121/13/13 86/14/14 55/18/18
f 100/19/19 97/20/15 62/21/16 65/22/20
f 103/23/21 100/19/19 65/22/20 68/24/22
f 106/25/23 103/23/21 68/24/22 71/26/24
f 109/2/2 106/25/23 71/26/24 74/3/3
f 79/27/25 76/28/26 15/29/27
f 70/30/25 13/31/27 73/32/26
f 13/31/27 70/30/25 67/33/26
f 61/34/25 58/35/26 14/36/27
f 45/37/28 47/38/28 46/39/28 44/40/28
f 64/41/26 61/34/25 14/36/27
f 3/42/28 2/43/28 89/44/29 95/45/30
f 82/46/26 79/27/25 15/29/27
f 9/47/28 8/48/28 110/49/31 113/50/32
f 8/48/28 7/51/28 107/52/33 110/49/31
f 1/53/28 12/54/28 122/55/34 91/56/35
f 10/57/28 9/47/28 113/50/32 116/58/36
f 4/59/28 3/42/28 95/45/30 98/60/37
f 6/61/28 5/62/28 101/63/38 104/64/39
f 5/62/28 4/65/28 98/66/37 101/63/38
f 12/54/28 11/67/28 119/68/40 122/55/34
f 11/67/28 10/57/28 116/58/36 119/68/40
f 23/69/41 21/70/42 40/71/43 42/72/43 43/73/43 41/74/43 19/75/44
f 27/69/45 26/70/46 32/71/47 34/72/47 35/73/47 33/74/47 17/75/48
f 7/51/28 6/61/28 104/64/39 107/52/33
f 26/76/49 25/77/49 37/78/50 32/79/50
f 21/80/51 20/81/52 29/82/53 40/83/54
f 28/84/55 16/85/56 19/86/57 41/87/58
f 17/88/59 33/89/60 36/90/60 18/91/59
f 25/92/61 24/93/62 18/94/63 36/95/64 38/96/64 39/97/64 37/98/64
f 47/38/65 45/37/65 23/99/66 22/100/67
f 45/101/68 44/102/68 21/70/42 23/69/41
f 46/103/69 47/104/69 22/93/70 20/92/71
f 44/105/72 46/106/72 20/81/52 21/80/51
f 50/107/73 49/108/73 27/109/74 24/110/75
f 51/103/76 48/111/76 25/77/49 26/76/49
f 49/101/77 51/112/77 26/70/46 27/69/45
f 48/103/78 50/104/78 24/93/62 25/92/61
f 32/79/50 37/78/50 39/113/79 34/114/79
f 34/114/79 39/113/79 38/115/80 35/116/80
f 35/116/80 38/115/80 36/90/60 33/89/60
f 28/84/55 41/87/58 43/117/81 30/118/82
f 30/118/82 43/117/81 42/119/83 31/120/84
f 31/120/84 42/119/83 40/83/54 29/82/53
f 20/92/71 22/93/70 16/94/85 28/96/86 30/121/86 31/97/86 29/121/86
f 53/11/11 55/18/18 57/122/87 54/123/88
f 59/12/12 53/11/11 54/123/88 60/124/89
f 60/124/89 54/123/88 52/125/90 58/126/91
f 62/16/16 59/12/12 60/124/89 63/127/92
f 63/127/92 60/124/89 58/126/91 61/128/93
f 65/22/20 62/21/16 63/129/92 66/130/94
f 66/130/94 63/129/92 61/131/93 64/132/95
f 68/24/22 65/22/20 66/130/94 69/133/96
f 69/133/96 66/130/94 64/132/95 67/134/97
f 71/26/24 68/24/22 69/133/96 72/135/98
f 72/135/98 69/133/96 67/134/97 70/136/99
f 74/3/3 71/26/24 72/135/98 75/137/100
f 75/137/100 72/135/98 70/136/99 73/138/101
f 77/4/4 74/3/3 75/137/100 78/139/102
f 78/139/102 75/137/100 73/138/101 76/140/103
f 80/6/6 77/4/4 78/139/102 81/141/104
f 81/141/104 78/139/102 76/140/103 79/142/105
f 83/8/8 80/6/6 81/141/104 84/143/106
f 84/143/106 81/141/104 79/142/105 82/144/107
f 86/14/14 83/8/8 84/143/106 87/145/108
f 85/146/109 56/147/110 57/122/87 87/145/108
f 55/18/18 86/14/14 87/145/108 57/122/87
f 89/44/29 91/56/35 93/148/111 90/149/112
f 90/150/113 93/151/114 92/17/17 88/10/10
f 95/45/30 89/44/29 90/149/112 96/152/115
f 96/153/116 90/150/113 88/10/10 94/9/9
f 98/60/37 95/45/30 96/152/115 99/154/117
f 99/155/118 96/153/116 94/9/9 97/15/15
f 101/63/38 98/66/37 99/156/117 102/157/119
f 102/158/120 99/159/118 97/20/15 100/19/19
f 104/64/39 101/63/38 102/157/119 105/160/121
f 105/161/122 102/158/120 100/19/19 103/23/21
f 107/52/33 104/64/39 105/160/121 108/162/123
f 108/163/124 105/161/122 103/23/21 106/25/23
f 110/49/31 107/52/33 108/162/123 111/164/125
f 111/165/126 108/163/124 106/25/23 109/2/2
f 113/50/32 110/49/31 111/164/125 114/166/127
f 114/167/128 111/165/126 109/2/2 112/1/1
f 116/58/36 113/50/32 114/166/127 117/168/129
f 117/169/130 114/167/128 112/1/1 115/5/5
f 119/68/40 116/58/36 117/168/129 120/170/131
f 120/171/132 117/169/130 115/5/5 118/7/7
f 122/55/34 119/68/40 120/170/131 123/172/133
f 123/173/134 120/171/132 118/7/7 121/13/13
f 91/56/35 122/55/34 123/172/133 93/148/111
f 93/151/114 123/173/134 121/13/13 92/17/17
f 2/43/28 1/53/28 91/56/35 89/44/29
f 23/99/66 24/110/75 27/109/74 22/100/67
f 22/93/70 27/69/45 17/75/48 16/94/85
f 18/91/59 19/86/57 16/85/56 17/88/59
f 24/93/62 23/69/41 19/75/44 18/94/63
f 48/103/28 51/174/28 49/108/28 50/107/28
f 6/61/135 7/51/136 70/175/137 67/176/138
f 67/176/138 64/177/139 5/62/140 6/61/135
f 4/65/141 5/62/140 64/177/139 61/178/141
f 3/42/142 4/59/141 61/179/141 58/159/143
f 58/159/143 52/180/144 2/43/145 3/42/142
f 85/181/146 124/182/147 56/183/148
f 85/184/149 82/185/150 11/67/151 12/54/152
f 10/57/153 11/67/151 82/185/150 79/186/153
f 9/47/154 10/57/153 79/186/153 76/187/155
f 7/51/136 8/48/156 73/188/157 70/175/137
f 76/187/155 73/188/157 8/48/156 9/47/154
f 15/29/27 76/28/26 73/32/26 13/31/27 67/33/26 64/41/26 14/36/27 58/35/26 52/189/158 124/182/147 85/181/146 82/46/26
f 87/145/108 84/143/106 82/144/107 85/146/109
f 12/54/152 1/53/159 56/190/160 85/184/149
f 57/122/87 56/147/110 52/125/90 54/123/88
f 56/183/148 124/182/147 52/189/158
f 56/190/160 1/53/159 2/43/145 52/180/144
