# Blender 4.4.3
# www.blender.org
o Traffic_Con
v 0.045987 -0.332825 -0.199215
v 0.001940 0.643813 -0.054330
v 0.130961 -0.332825 -0.164018
v 0.005526 0.643813 -0.052844
v 0.195997 -0.332825 -0.100622
v 0.008270 0.643813 -0.050113
v 0.231195 -0.332825 -0.019998
v 0.009755 0.643813 -0.046563
v 0.231195 -0.332825 0.066270
v 0.009755 0.643813 -0.042736
v 0.195997 -0.332825 0.145603
v 0.008270 0.643813 -0.039213
v 0.130961 -0.332825 0.206046
v 0.005526 0.643813 -0.036530
v 0.045987 -0.332825 0.238097
v 0.001940 0.643813 -0.035097
v -0.045987 -0.332825 0.238097
v -0.001940 0.643813 -0.035097
v -0.130961 -0.332825 0.206046
v -0.005526 0.643813 -0.036530
v -0.195997 -0.332825 0.145603
v -0.008270 0.643813 -0.039213
v -0.231195 -0.332825 0.066270
v -0.009755 0.643813 -0.042736
v -0.231195 -0.332825 -0.019998
v -0.009755 0.643813 -0.046563
v -0.195997 -0.332825 -0.100622
v -0.008270 0.643813 -0.050113
v -0.130961 -0.332825 -0.164018
v -0.005526 0.643813 -0.052844
v -0.045987 -0.332825 -0.199215
v -0.001940 0.643813 -0.054330
v 0.044082 -0.334895 -0.189639
v 0.001277 0.643093 -0.051001
v 0.125535 -0.334895 -0.155900
v 0.003637 0.643093 -0.050023
v 0.187876 -0.334895 -0.095133
v 0.005443 0.643093 -0.048225
v 0.221615 -0.334895 -0.017864
v 0.006421 0.643093 -0.045889
v 0.221615 -0.334895 0.064779
v 0.006421 0.643093 -0.043370
v 0.187876 -0.334895 0.140732
v 0.005443 0.643093 -0.041051
v 0.125535 -0.334895 0.198548
v 0.003637 0.643093 -0.039286
v 0.044082 -0.334895 0.229146
v 0.001277 0.643093 -0.038343
v -0.044082 -0.334895 0.229146
v -0.001277 0.643093 -0.038343
v -0.125535 -0.334895 0.198548
v -0.003637 0.643093 -0.039286
v -0.187876 -0.334895 0.140732
v -0.005443 0.643093 -0.041051
v -0.221615 -0.334895 0.064779
v -0.006421 0.643093 -0.043370
v -0.221615 -0.334895 -0.017864
v -0.006421 0.643093 -0.045889
v -0.187876 -0.334895 -0.095133
v -0.005443 0.643093 -0.048225
v -0.125535 -0.334895 -0.155900
v -0.003637 0.643093 -0.050023
v -0.044082 -0.334895 -0.189639
v -0.001277 0.643093 -0.051001
v -0.282901 -0.334895 0.332969
v -0.332825 -0.334895 0.283600
v -0.312246 -0.334895 0.323402
v -0.323290 -0.334895 0.312435
v 0.332825 -0.334895 0.283600
v 0.282901 -0.334895 0.332969
v 0.323290 -0.334895 0.312435
v 0.312246 -0.334895 0.323402
v -0.282901 -0.334895 -0.314909
v -0.332825 -0.334895 -0.265851
v -0.312246 -0.334895 -0.306795
v -0.323290 -0.334895 -0.295934
v 0.282901 -0.334895 -0.314909
v 0.332825 -0.334895 -0.265851
v 0.312246 -0.334895 -0.306795
v 0.323290 -0.334895 -0.295934
v 0.044082 -0.344880 -0.190922
v 0.125535 -0.344880 -0.157183
v 0.187876 -0.344880 -0.096370
v 0.221615 -0.344880 -0.018983
v 0.221615 -0.344880 0.063819
v 0.187876 -0.344880 0.139937
v 0.125535 -0.344880 0.197902
v 0.044082 -0.344880 0.228615
v -0.044082 -0.344880 0.228615
v -0.125535 -0.344880 0.197902
v -0.187876 -0.344880 0.139937
v -0.221615 -0.344880 0.063819
v -0.221615 -0.344880 -0.018983
v -0.187876 -0.344880 -0.096370
v -0.125535 -0.344880 -0.157183
v -0.044082 -0.344880 -0.190922
v -0.282901 -0.344880 0.332908
v -0.332825 -0.344880 0.283454
v -0.312246 -0.344880 0.323350
v -0.323290 -0.344880 0.312363
v 0.332825 -0.344880 0.283454
v 0.282901 -0.344880 0.332908
v 0.323290 -0.344880 0.312363
v 0.312246 -0.344880 0.323350
v -0.282901 -0.344880 -0.315787
v -0.332825 -0.344880 -0.266702
v -0.312246 -0.344880 -0.307630
v -0.323290 -0.344880 -0.296764
v 0.282901 -0.344880 -0.315787
v 0.332825 -0.344880 -0.266702
v 0.312246 -0.344880 -0.307630
v 0.323290 -0.344880 -0.296764
v 0.024074 0.155763 -0.069859
v 0.068557 0.155763 -0.051397
v 0.102602 0.155763 -0.018273
v 0.121028 0.155763 0.023682
v 0.121028 0.155763 0.068328
v 0.102602 0.155763 0.109001
v 0.068557 0.155763 0.139512
v 0.024074 0.155763 0.155125
v -0.024074 0.155763 0.155125
v -0.068557 0.155763 0.139512
v -0.102602 0.155763 0.109001
v -0.121028 0.155763 0.068328
v -0.121028 0.155763 0.023682
v -0.102602 0.155763 -0.018273
v -0.068557 0.155763 -0.051397
v -0.024074 0.155763 -0.069859
v 0.022295 0.153830 -0.057130
v 0.063490 0.153830 -0.040034
v 0.095019 0.153830 -0.013164
v 0.112082 0.153830 0.025681
v 0.112082 0.153830 0.066999
v 0.095019 0.153830 0.104619
v 0.063490 0.153830 0.132820
v 0.022295 0.153830 0.147224
v -0.022295 0.153830 0.147224
v -0.063490 0.153830 0.132820
v -0.095019 0.153830 0.104619
v -0.112082 0.153830 0.066999
v -0.112082 0.153830 0.025681
v -0.095019 0.153830 -0.013164
v -0.063490 0.153830 -0.040034
v -0.022295 0.153830 -0.057130
v 0.035031 -0.088531 -0.123814
v 0.099759 -0.088531 -0.097002
v 0.149300 -0.088531 -0.049501
v 0.176111 -0.088531 0.010068
v 0.176111 -0.088531 0.073417
v 0.149300 -0.088531 0.131312
v 0.099759 -0.088531 0.174946
v 0.035031 -0.088531 0.197368
v -0.035031 -0.088531 0.197368
v -0.099759 -0.088531 0.174946
v -0.149300 -0.088531 0.131312
v -0.176111 -0.088531 0.073417
v -0.176111 -0.088531 0.010068
v -0.149300 -0.088531 -0.049501
v -0.099759 -0.088531 -0.097002
v -0.035031 -0.088531 -0.123814
v 0.033188 -0.090533 -0.121482
v 0.094512 -0.090533 -0.096064
v 0.141447 -0.090533 -0.054149
v 0.166848 -0.090533 0.003908
v 0.166848 -0.090533 0.065889
v 0.141447 -0.090533 0.122676
v 0.094512 -0.090533 0.165684
v 0.033188 -0.090533 0.188185
v -0.033188 -0.090533 0.188185
v -0.094512 -0.090533 0.165684
v -0.141447 -0.090533 0.122676
v -0.166848 -0.090533 0.065889
v -0.166848 -0.090533 0.003908
v -0.141447 -0.090533 -0.054149
v -0.094512 -0.090533 -0.096064
v -0.033188 -0.090533 -0.121482
vn 0.1895 0.2601 -0.9468
vn 0.5328 0.2546 -0.8071
vn 0.5219 0.2864 -0.8035
vn 0.1846 0.2974 -0.9367
vn 0.7968 0.2457 -0.5521
vn 0.7866 0.2667 -0.5569
vn 0.9524 0.2326 -0.1973
vn 0.9479 0.2404 -0.2092
vn 0.9538 0.2143 0.2106
vn 0.9574 0.2113 0.1968
vn 0.7895 0.1947 0.5820
vn 0.7990 0.1869 0.5716
vn 0.5026 0.1794 0.8457
vn 0.5133 0.1726 0.8407
vn 0.1676 0.1714 0.9708
vn 0.1727 0.1674 0.9707
vn -0.1676 0.1714 0.9708
vn -0.1727 0.1674 0.9707
vn -0.5026 0.1794 0.8457
vn -0.5133 0.1726 0.8407
vn -0.7895 0.1947 0.5820
vn -0.7990 0.1869 0.5716
vn -0.9538 0.2143 0.2106
vn -0.9574 0.2113 0.1968
vn -0.9524 0.2326 -0.1973
vn -0.9479 0.2404 -0.2092
vn -0.7968 0.2457 -0.5521
vn -0.7866 0.2667 -0.5569
vn -0.5328 0.2546 -0.8071
vn -0.5219 0.2864 -0.8035
vn -0.1895 0.2601 -0.9468
vn -0.1846 0.2974 -0.9367
vn 0.1962 -0.1425 0.9701
vn -0.1962 -0.1425 0.9701
vn -0.1905 -0.0205 0.9815
vn 0.1905 -0.0205 0.9815
vn -0.5254 -0.1525 0.8371
vn -0.5140 -0.0456 0.8566
vn -0.7998 -0.1789 0.5729
vn -0.7861 -0.1000 0.6100
vn -0.9602 -0.2075 0.1871
vn -0.9586 -0.1740 0.2254
vn -0.9479 -0.2328 -0.2176
vn -0.9521 -0.2464 -0.1811
vn -0.7762 -0.2500 -0.5788
vn -0.7790 -0.3056 -0.5475
vn -0.4900 -0.2589 -0.8324
vn -0.4883 -0.3421 -0.8028
vn -0.1626 -0.2615 -0.9514
vn -0.1603 -0.3561 -0.9206
vn 0.1626 -0.2615 -0.9514
vn 0.1603 -0.3561 -0.9206
vn 0.4900 -0.2589 -0.8324
vn 0.4883 -0.3421 -0.8028
vn 0.7762 -0.2500 -0.5788
vn 0.7790 -0.3056 -0.5475
vn 0.9479 -0.2328 -0.2176
vn 0.9521 -0.2464 -0.1811
vn 0.9602 -0.2075 0.1871
vn 0.9586 -0.1740 0.2254
vn 0.7998 -0.1789 0.5729
vn 0.7861 -0.1000 0.6100
vn 0.5254 -0.1525 0.8371
vn 0.5140 -0.0456 0.8566
vn -0.0405 -0.9783 -0.2034
vn 0.0405 -0.9783 -0.2034
vn -0.0405 0.9782 0.2037
vn 0.0405 0.9782 0.2037
vn 0.1142 -0.9783 -0.1731
vn 0.1140 -0.9783 -0.1733
vn -0.1152 0.9782 0.1727
vn -0.1151 0.9782 0.1728
vn 0.1701 -0.9784 -0.1173
vn 0.1698 -0.9784 -0.1178
vn -0.1721 0.9783 0.1157
vn -0.1720 0.9783 0.1158
vn 0.2020 -0.9785 -0.0425
vn 0.2021 -0.9785 -0.0418
vn -0.2032 0.9783 0.0408
vn -0.2032 0.9783 0.0407
vn 0.2046 -0.9779 0.0421
vn 0.2041 -0.9779 0.0451
vn -0.2036 0.9782 -0.0409
vn -0.2035 0.9782 -0.0415
vn 0.1751 -0.9769 0.1227
vn 0.1728 -0.9768 0.1264
vn -0.1730 0.9779 -0.1173
vn -0.1724 0.9779 -0.1182
vn 0.1166 -0.9758 0.1849
vn 0.1133 -0.9758 0.1871
vn -0.1155 0.9775 -0.1764
vn -0.1145 0.9775 -0.1771
vn 0.0404 -0.9752 0.2177
vn 0.0389 -0.9752 0.2180
vn -0.0404 0.9772 -0.2087
vn -0.0398 0.9772 -0.2088
vn -0.0404 -0.9752 0.2177
vn -0.0389 -0.9752 0.2180
vn 0.0404 0.9772 -0.2087
vn 0.0398 0.9772 -0.2088
vn -0.1166 -0.9758 0.1849
vn -0.1133 -0.9758 0.1871
vn 0.1155 0.9775 -0.1764
vn 0.1145 0.9775 -0.1771
vn -0.1751 -0.9769 0.1227
vn -0.1728 -0.9768 0.1264
vn 0.1730 0.9779 -0.1173
vn 0.1724 0.9779 -0.1182
vn -0.2046 -0.9779 0.0421
vn -0.2041 -0.9779 0.0451
vn 0.2036 0.9782 -0.0409
vn 0.2035 0.9782 -0.0415
vn -0.2020 -0.9785 -0.0425
vn -0.2021 -0.9785 -0.0418
vn 0.2032 0.9783 0.0408
vn 0.2032 0.9783 0.0407
vn -0.1701 -0.9784 -0.1173
vn -0.1698 -0.9784 -0.1178
vn 0.1721 0.9783 0.1157
vn 0.1720 0.9783 0.1158
vn -0.1142 -0.9783 -0.1731
vn -0.1140 -0.9783 -0.1733
vn 0.1152 0.9782 0.1727
vn 0.1151 0.9782 0.1728
vn -0.0000 1.0000 -0.0000
vn -0.0000 -1.0000 -0.0000
vn -0.5544 -0.1052 0.8256
vn -0.1966 -0.1250 0.9725
vn -0.1906 -0.1251 0.9737
vn -0.5403 -0.1065 0.8347
vn -0.8278 -0.0685 0.5568
vn -0.8136 -0.0713 0.5770
vn -0.9815 -0.0224 0.1902
vn -0.9756 -0.0257 0.2180
vn -0.9755 0.0193 -0.2193
vn -0.9806 0.0171 -0.1951
vn -0.5219 0.0550 -0.8512
vn -0.8082 0.0455 -0.5871
vn -0.8178 0.0448 -0.5737
vn -0.5290 0.0549 -0.8469
vn 0.1966 -0.1250 0.9725
vn 0.1906 -0.1251 0.9737
vn 0.1777 0.0549 -0.9826
vn -0.1777 0.0549 -0.9826
vn -0.1798 0.0550 -0.9822
vn 0.1798 0.0550 -0.9822
vn 0.5219 0.0550 -0.8512
vn 0.5290 0.0549 -0.8469
vn 0.8082 0.0455 -0.5871
vn 0.8178 0.0448 -0.5737
vn 0.9755 0.0193 -0.2193
vn 0.9806 0.0171 -0.1951
vn 0.9815 -0.0224 0.1902
vn 0.9756 -0.0257 0.2180
vn 0.8278 -0.0685 0.5568
vn 0.8136 -0.0713 0.5771
vn 0.5544 -0.1052 0.8256
vn 0.5403 -0.1065 0.8347
vn -0.9871 -0.0017 0.1602
vn -0.9894 0.0122 -0.1448
vn -0.9869 0.0135 -0.1610
vn -0.9875 -0.0017 0.1574
vn 0.9871 -0.0017 0.1602
vn 0.8501 -0.0040 0.5266
vn 0.8510 -0.0040 0.5251
vn 0.9875 -0.0017 0.1574
vn -0.5212 -0.0050 0.8534
vn -0.8501 -0.0040 0.5266
vn -0.8510 -0.0040 0.5251
vn -0.5219 -0.0050 0.8530
vn 0.1568 -0.0058 0.9876
vn -0.1568 -0.0058 0.9876
vn -0.1570 -0.0058 0.9876
vn 0.1570 -0.0058 0.9876
vn 0.5212 -0.0050 0.8534
vn 0.5219 -0.0050 0.8530
vn 0.9894 0.0122 -0.1448
vn 0.9869 0.0135 -0.1610
vn -0.5047 0.0729 -0.8602
vn -0.1353 0.0857 -0.9871
vn -0.1333 0.0858 -0.9874
vn -0.4932 0.0735 -0.8668
vn 0.5047 0.0729 -0.8602
vn 0.8572 0.0429 -0.5132
vn 0.8459 0.0444 -0.5316
vn 0.4932 0.0735 -0.8668
vn 0.1353 0.0857 -0.9871
vn 0.1333 0.0858 -0.9874
vn -0.8572 0.0429 -0.5132
vn -0.8459 0.0444 -0.5316
vn -0.1958 0.1321 -0.9717
vn -0.1906 0.0398 -0.9809
vn 0.1906 0.0398 -0.9809
vn 0.1958 0.1321 -0.9717
vn -0.5382 0.0671 -0.8401
vn -0.5484 0.1472 -0.8232
vn -0.8052 0.1177 -0.5812
vn -0.8130 0.1754 -0.5552
vn -0.9566 0.1857 -0.2247
vn -0.9589 0.2104 -0.1906
vn -0.9494 0.2574 0.1802
vn -0.9459 0.2409 0.2171
vn -0.7770 0.3156 0.5447
vn -0.7722 0.2598 0.5798
vn -0.4880 0.3513 0.7991
vn -0.4851 0.2677 0.8325
vn -0.1606 0.3649 0.9171
vn -0.1602 0.2688 0.9498
vn 0.1606 0.3649 0.9171
vn 0.1602 0.2688 0.9498
vn 0.4880 0.3513 0.7991
vn 0.4851 0.2677 0.8325
vn 0.7770 0.3156 0.5447
vn 0.7722 0.2598 0.5798
vn 0.9494 0.2574 0.1802
vn 0.9459 0.2409 0.2171
vn 0.9566 0.1857 -0.2247
vn 0.9589 0.2104 -0.1906
vn 0.8052 0.1177 -0.5812
vn 0.8130 0.1754 -0.5552
vn 0.5382 0.0671 -0.8401
vn 0.5484 0.1472 -0.8232
vn 0.5182 -0.2570 0.8157
vn 0.1885 -0.2650 0.9456
vn 0.7873 -0.2465 0.5651
vn 0.9524 -0.2312 0.1989
vn 0.9553 -0.2134 -0.2045
vn 0.7952 -0.1938 -0.5745
vn 0.5108 -0.1781 -0.8410
vn 0.1719 -0.1696 -0.9704
vn -0.1719 -0.1696 -0.9704
vn -0.5108 -0.1781 -0.8410
vn -0.7952 -0.1938 -0.5745
vn -0.9553 -0.2134 -0.2045
vn -0.9524 -0.2312 0.1989
vn -0.7873 -0.2465 0.5651
vn -0.5182 -0.2570 0.8157
vn -0.1885 -0.2650 0.9456
vn 0.1866 -0.2717 0.9441
vn -0.1866 -0.2717 0.9441
vn -0.5213 -0.2619 0.8122
vn -0.7899 -0.2474 0.5611
vn -0.9513 -0.2314 0.2038
vn -0.9568 -0.2137 -0.1972
vn -0.8005 -0.1942 -0.5670
vn -0.5185 -0.1784 -0.8363
vn -0.1760 -0.1698 -0.9696
vn 0.1760 -0.1698 -0.9696
vn 0.5185 -0.1784 -0.8363
vn 0.8005 -0.1942 -0.5670
vn 0.9568 -0.2137 -0.1972
vn 0.9513 -0.2314 0.2038
vn 0.7899 -0.2474 0.5611
vn 0.5213 -0.2619 0.8122
vt 0.126749 0.488172
vt 0.132284 0.488172
vt 0.132284 0.502241
vt 0.126749 0.502241
vt 0.137818 0.488172
vt 0.137818 0.502241
vt 0.143353 0.488172
vt 0.143353 0.502241
vt 0.148887 0.488172
vt 0.148887 0.502241
vt 0.154422 0.488172
vt 0.154422 0.502241
vt 0.159957 0.488172
vt 0.159957 0.502241
vt 0.165491 0.488172
vt 0.165491 0.502241
vt 0.171026 0.488172
vt 0.171026 0.502241
vt 0.176560 0.488172
vt 0.176560 0.502241
vt 0.182095 0.488172
vt 0.182095 0.502241
vt 0.187629 0.488172
vt 0.187629 0.502241
vt 0.193164 0.488172
vt 0.193164 0.502241
vt 0.198698 0.488172
vt 0.198698 0.502241
vt 0.204233 0.488172
vt 0.204233 0.502241
vt 0.209767 0.488172
vt 0.209767 0.502241
vt 0.209767 0.474103
vt 0.126749 0.474103
vt 0.126749 0.445964
vt 0.209767 0.445964
vt 0.132284 0.474103
vt 0.132284 0.445964
vt 0.137818 0.474103
vt 0.137818 0.445964
vt 0.143353 0.474103
vt 0.143353 0.445964
vt 0.148887 0.474103
vt 0.148887 0.445964
vt 0.154422 0.474103
vt 0.154422 0.445964
vt 0.159957 0.474103
vt 0.159957 0.445964
vt 0.165491 0.474103
vt 0.165491 0.445964
vt 0.171026 0.474103
vt 0.171026 0.445964
vt 0.176560 0.474103
vt 0.176560 0.445964
vt 0.182095 0.474103
vt 0.182095 0.445964
vt 0.187629 0.474103
vt 0.187629 0.445964
vt 0.193164 0.474103
vt 0.193164 0.445964
vt 0.198698 0.474103
vt 0.198698 0.445964
vt 0.204233 0.474103
vt 0.204233 0.445964
vt 0.209228 0.498537
vt 0.208055 0.501268
vt 0.206695 0.502296
vt 0.203083 0.503183
vt 0.133434 0.503183
vt 0.129822 0.502296
vt 0.128462 0.501268
vt 0.127289 0.498537
vt 0.140978 0.476311
vt 0.145131 0.483892
vt 0.152805 0.489694
vt 0.162832 0.492834
vt 0.173685 0.492834
vt 0.183711 0.489694
vt 0.191385 0.483892
vt 0.196073 0.472209
vt 0.209228 0.445880
vt 0.195539 0.468106
vt 0.191385 0.460526
vt 0.183711 0.454724
vt 0.173685 0.451584
vt 0.162832 0.451584
vt 0.152805 0.454724
vt 0.145131 0.460526
vt 0.140978 0.468106
vt 0.140444 0.472209
vt 0.127289 0.445880
vt 0.128462 0.443149
vt 0.129822 0.442122
vt 0.133434 0.441234
vt 0.203083 0.441234
vt 0.206695 0.442122
vt 0.208055 0.443149
vt 0.195539 0.476311
s 1
f 145/1/1 146/2/2 3/3/3 1/4/4
f 146/2/2 147/5/5 5/6/6 3/3/3
f 147/5/5 148/7/7 7/8/8 5/6/6
f 148/7/7 149/9/9 9/10/10 7/8/8
f 149/9/9 150/11/11 11/12/12 9/10/10
f 150/11/11 151/13/13 13/14/14 11/12/12
f 151/13/13 152/15/15 15/16/16 13/14/14
f 152/15/15 153/17/17 17/18/18 15/16/16
f 153/17/17 154/19/19 19/20/20 17/18/18
f 154/19/19 155/21/21 21/22/22 19/20/20
f 155/21/21 156/23/23 23/24/24 21/22/22
f 156/23/23 157/25/25 25/26/26 23/24/24
f 157/25/25 158/27/27 27/28/28 25/26/26
f 158/27/27 159/29/29 29/30/30 27/28/28
f 159/29/29 160/31/31 31/32/32 29/30/30
f 144/33/33 129/34/34 34/35/35 64/36/36
f 129/34/34 130/37/37 36/38/38 34/35/35
f 130/37/37 131/39/39 38/40/40 36/38/38
f 131/39/39 132/41/41 40/42/42 38/40/40
f 132/41/41 133/43/43 42/44/44 40/42/42
f 133/43/43 134/45/45 44/46/46 42/44/44
f 134/45/45 135/47/47 46/48/48 44/46/46
f 135/47/47 136/49/49 48/50/50 46/48/48
f 136/49/49 137/51/51 50/52/52 48/50/50
f 137/51/51 138/53/53 52/54/54 50/52/52
f 138/53/53 139/55/55 54/56/56 52/54/54
f 139/55/55 140/57/57 56/58/58 54/56/56
f 140/57/57 141/59/59 58/60/60 56/58/58
f 141/59/59 142/61/61 60/62/62 58/60/60
f 142/61/61 143/63/63 62/64/64 60/62/62
f 143/63/63 144/33/33 64/36/36 62/64/64
f 31/32/65 1/4/66 33/4/66 63/32/65
f 2/35/67 32/36/68 64/36/68 34/35/67
f 1/4/66 3/3/69 35/3/70 33/4/66
f 4/38/71 2/35/67 34/35/67 36/38/72
f 3/3/69 5/6/73 37/6/74 35/3/70
f 6/40/75 4/38/71 36/38/72 38/40/76
f 5/6/73 7/8/77 39/8/78 37/6/74
f 8/42/79 6/40/75 38/40/76 40/42/80
f 7/8/77 9/10/81 41/10/82 39/8/78
f 10/44/83 8/42/79 40/42/80 42/44/84
f 9/10/81 11/12/85 43/12/86 41/10/82
f 12/46/87 10/44/83 42/44/84 44/46/88
f 11/12/85 13/14/89 45/14/90 43/12/86
f 14/48/91 12/46/87 44/46/88 46/48/92
f 13/14/89 15/16/93 47/16/94 45/14/90
f 16/50/95 14/48/91 46/48/92 48/50/96
f 15/16/93 17/18/97 49/18/98 47/16/94
f 18/52/99 16/50/95 48/50/96 50/52/100
f 17/18/97 19/20/101 51/20/102 49/18/98
f 20/54/103 18/52/99 50/52/100 52/54/104
f 19/20/101 21/22/105 53/22/106 51/20/102
f 22/56/107 20/54/103 52/54/104 54/56/108
f 21/22/105 23/24/109 55/24/110 53/22/106
f 24/58/111 22/56/107 54/56/108 56/58/112
f 23/24/109 25/26/113 57/26/114 55/24/110
f 26/60/115 24/58/111 56/58/112 58/60/116
f 25/26/113 27/28/117 59/28/118 57/26/114
f 28/62/119 26/60/115 58/60/116 60/62/120
f 27/28/117 29/30/121 61/30/122 59/28/118
f 30/64/123 28/62/119 60/62/120 62/64/124
f 29/30/121 31/32/65 63/32/65 61/30/122
f 32/36/68 30/64/123 62/64/124 64/36/68
f 66/65/125 68/66/125 67/67/125 65/68/125 70/69/125 72/70/125 71/71/125 69/72/125 41/73/125 43/74/125 45/75/125 47/76/125 49/77/125 51/78/125 53/79/125 55/80/125 74/81/125
f 74/81/125 55/80/125 57/82/125 59/83/125 61/84/125 63/85/125 33/86/125 35/87/125 37/88/125 39/89/125 41/90/125 69/72/125 78/91/125 80/92/125 79/93/125 77/94/125 73/95/125 75/96/125 76/97/125
f 98/65/126 106/81/126 92/98/126 91/79/126 90/78/126 89/77/126 88/76/126 87/75/126 86/74/126 85/90/126 101/72/126 103/71/126 104/70/126 102/69/126 97/68/126 99/67/126 100/66/126
f 106/81/126 108/97/126 107/96/126 105/95/126 109/94/126 111/93/126 112/92/126 110/91/126 101/72/126 85/90/126 84/89/126 83/88/126 82/87/126 81/86/126 96/85/126 95/84/126 94/83/126 93/82/126 92/80/126
f 35/87/127 33/86/128 81/86/129 82/87/130
f 37/88/131 35/87/127 82/87/130 83/88/132
f 39/89/133 37/88/131 83/88/132 84/89/134
f 41/90/135 39/89/133 84/89/134 85/73/136
f 45/75/137 43/74/138 86/74/139 87/75/140
f 33/86/128 63/85/141 96/85/142 81/86/129
f 49/77/143 47/76/144 88/76/145 89/77/146
f 51/78/147 49/77/143 89/77/146 90/78/148
f 53/79/149 51/78/147 90/78/148 91/79/150
f 55/98/151 53/79/149 91/79/150 92/98/152
f 57/82/153 55/98/151 92/80/152 93/82/154
f 59/83/155 57/82/153 93/82/154 94/83/156
f 63/85/141 61/84/157 95/84/158 96/85/142
f 61/84/157 59/83/155 94/83/156 95/84/158
f 66/65/159 74/81/160 106/81/161 98/65/162
f 69/72/163 71/71/164 103/71/165 101/72/166
f 67/67/167 68/66/168 100/66/169 99/67/170
f 68/66/168 66/65/159 98/65/162 100/66/169
f 70/69/171 65/68/172 97/68/173 102/69/174
f 71/71/164 72/70/175 104/70/176 103/71/165
f 72/70/175 70/69/171 102/69/174 104/70/176
f 78/91/177 69/72/163 101/72/166 110/91/178
f 75/96/179 73/95/180 105/95/181 107/96/182
f 79/93/183 80/92/184 112/92/185 111/93/186
f 80/92/184 78/91/177 110/91/178 112/92/185
f 73/95/180 77/94/187 109/94/188 105/95/181
f 74/81/160 76/97/189 108/97/190 106/81/161
f 76/97/189 75/96/179 107/96/182 108/97/190
f 65/68/172 67/67/167 99/67/170 97/68/173
f 47/76/144 45/75/137 87/75/140 88/76/145
f 128/33/191 32/36/192 2/35/193 113/34/194
f 43/74/138 41/73/135 85/73/136 86/74/139
f 77/94/187 79/93/183 111/93/186 109/94/188
f 160/31/31 128/33/191 113/34/194 145/1/1
f 30/64/195 32/36/192 128/33/191 127/63/196
f 28/62/197 30/64/195 127/63/196 126/61/198
f 26/60/199 28/62/197 126/61/198 125/59/200
f 24/58/201 26/60/199 125/59/200 124/57/202
f 22/56/203 24/58/201 124/57/202 123/55/204
f 20/54/205 22/56/203 123/55/204 122/53/206
f 18/52/207 20/54/205 122/53/206 121/51/208
f 16/50/209 18/52/207 121/51/208 120/49/210
f 14/48/211 16/50/209 120/49/210 119/47/212
f 12/46/213 14/48/211 119/47/212 118/45/214
f 10/44/215 12/46/213 118/45/214 117/43/216
f 8/42/217 10/44/215 117/43/216 116/41/218
f 6/40/219 8/42/217 116/41/218 115/39/220
f 4/38/221 6/40/219 115/39/220 114/37/222
f 2/35/193 4/38/221 114/37/222 113/34/194
f 175/29/223 176/31/224 144/33/33 143/63/63
f 174/27/225 175/29/223 143/63/63 142/61/61
f 173/25/226 174/27/225 142/61/61 141/59/59
f 172/23/227 173/25/226 141/59/59 140/57/57
f 171/21/228 172/23/227 140/57/57 139/55/55
f 170/19/229 171/21/228 139/55/55 138/53/53
f 169/17/230 170/19/229 138/53/53 137/51/51
f 168/15/231 169/17/230 137/51/51 136/49/49
f 167/13/232 168/15/231 136/49/49 135/47/47
f 166/11/233 167/13/232 135/47/47 134/45/45
f 165/9/234 166/11/233 134/45/45 133/43/43
f 164/7/235 165/9/234 133/43/43 132/41/41
f 163/5/236 164/7/235 132/41/41 131/39/39
f 162/2/237 163/5/236 131/39/39 130/37/37
f 161/1/238 162/2/237 130/37/37 129/34/34
f 176/31/224 161/1/238 129/34/34 144/33/33
f 31/32/32 160/31/31 145/1/1 1/4/4
f 127/63/196 128/33/191 160/31/31 159/29/29
f 126/61/198 127/63/196 159/29/29 158/27/27
f 125/59/200 126/61/198 158/27/27 157/25/25
f 124/57/202 125/59/200 157/25/25 156/23/23
f 123/55/204 124/57/202 156/23/23 155/21/21
f 122/53/206 123/55/204 155/21/21 154/19/19
f 121/51/208 122/53/206 154/19/19 153/17/17
f 120/49/210 121/51/208 153/17/17 152/15/15
f 119/47/212 120/49/210 152/15/15 151/13/13
f 118/45/214 119/47/212 151/13/13 150/11/11
f 117/43/216 118/45/214 150/11/11 149/9/9
f 116/41/218 117/43/216 149/9/9 148/7/7
f 115/39/220 116/41/218 148/7/7 147/5/5
f 114/37/222 115/39/220 147/5/5 146/2/2
f 113/34/194 114/37/222 146/2/2 145/1/1
f 63/32/239 33/4/240 161/1/238 176/31/224
f 33/4/240 35/3/241 162/2/237 161/1/238
f 35/3/241 37/6/242 163/5/236 162/2/237
f 37/6/242 39/8/243 164/7/235 163/5/236
f 39/8/243 41/10/244 165/9/234 164/7/235
f 41/10/244 43/12/245 166/11/233 165/9/234
f 43/12/245 45/14/246 167/13/232 166/11/233
f 45/14/246 47/16/247 168/15/231 167/13/232
f 47/16/247 49/18/248 169/17/230 168/15/231
f 49/18/248 51/20/249 170/19/229 169/17/230
f 51/20/249 53/22/250 171/21/228 170/19/229
f 53/22/250 55/24/251 172/23/227 171/21/228
f 55/24/251 57/26/252 173/25/226 172/23/227
f 57/26/252 59/28/253 174/27/225 173/25/226
f 59/28/253 61/30/254 175/29/223 174/27/225
f 61/30/254 63/32/239 176/31/224 175/29/223
