# Blender 4.4.3
# www.blender.org
o BO_POM_Gate_Basic_6x4
v 0.000000 0.000000 0.000000
v 6.000000 0.000000 0.000000
v 0.000000 4.000000 0.000000
v 6.000000 4.000000 0.000000
v 1.000000 0.000000 0.000000
v 5.000000 0.000000 0.000000
v 5.000000 3.500000 0.000000
v 1.000000 3.500000 0.000000
v 3.000000 3.500000 0.000000
v 3.000000 4.000000 0.000000
vn -0.0000 -0.0000 1.0000
vt 1.000000 0.000000
vt 1.000000 1.000000
vt 0.666667 0.875000
vt 0.666667 0.000000
vt 1.000000 1.000000
vt 0.000000 1.000000
vt 0.333333 0.875000
vt 1.000000 0.875000
vt 0.000000 0.000000
vt 0.333333 0.000000
vt 0.000000 0.875000
s 0
f 2/1/1 4/2/1 7/3/1 6/4/1
f 10/5/1 3/6/1 8/7/1 9/8/1
f 3/6/1 1/9/1 5/10/1 8/7/1
f 4/2/1 10/6/1 9/11/1 7/3/1
