# Blender 4.4.3
# www.blender.org
o BO_Window_Basic_3x4
v 0.000000 0.000000 0.000000
v 3.000000 0.000000 0.000000
v 0.000000 4.000000 0.000000
v 3.000000 4.000000 0.000000
v 0.700000 1.000000 0.000000
v 2.300000 1.000000 0.000000
v 2.300000 2.800000 0.000000
v 0.700000 2.800000 0.000000
vn -0.0000 -0.0000 1.0000
vt 0.000865 0.000864
vt 0.749568 0.000865
vt 0.574870 0.250432
vt 0.175562 0.250432
vt 0.749568 0.999135
vt 0.574870 0.699654
vt 0.000865 0.999135
vt 0.175562 0.699654
s 0
f 1/1/1 2/2/1 6/3/1 5/4/1
f 2/2/1 4/5/1 7/6/1 6/3/1
f 4/5/1 3/7/1 8/8/1 7/6/1
f 3/7/1 1/1/1 5/4/1 8/8/1
