# Blender 4.4.1
# www.blender.org
o M_BO_Stairs_Side_POM_Brick_5x4x6
v 0.000000 0.000000 0.000000
v 0.000000 0.000000 -8.000000
v 0.000000 4.000000 -8.000000
v 0.000000 0.000000 -2.000000
v 0.000000 0.000000 -5.000000
v 0.000000 0.999983 -1.999966
v 0.000000 2.499974 -4.999949
v 0.000000 3.000000 -8.000000
v 0.000000 2.999979 -5.999959
v 5.000000 0.000000 0.000000
v 5.000000 0.000000 -8.000000
v 5.000000 4.000000 -8.000000
v 5.000000 0.000000 -2.000000
v 5.000000 0.000000 -5.000000
v 5.000000 0.999983 -1.999966
v 5.000000 2.499974 -4.999949
v 5.000000 3.000000 -8.000000
v 5.000000 2.999979 -5.999959
vn -1.0000 -0.0000 -0.0000
vn 1.0000 -0.0000 -0.0000
vt 1.000021 0.833325
vt 0.666687 0.999983
vt 0.000021 0.999987
vt 0.000021 0.000005
vt 1.000003 0.000005
vt 0.666676 0.000005
vt 0.000000 0.335433
vt 0.000021 0.000005
vt 1.000016 0.000025
vt 1.000000 0.335433
vt 0.000020 0.833325
vt 0.000021 0.000005
vt 0.000021 0.000005
vt 0.666676 0.000005
vt 0.000000 0.833321
vt 0.000017 -0.000000
vt 1.000000 0.000000
vt 1.000000 0.999983
vt 0.333333 0.999978
vt 0.333345 -0.000000
vt 1.000021 0.335428
vt 0.000005 0.000020
vt 1.000000 -0.000000
vt 1.000000 0.833321
vt 0.000021 0.335428
vt 0.333345 -0.000000
s 0
f 7/1/1 9/2/1 8/3/1 2/4/1 5/5/1
f 1/6/1 6/7/1 4/8/1
f 4/9/1 6/10/1 7/11/1 5/12/1
f 8/13/1 9/14/1 3/7/1
f 16/15/2 14/16/2 11/17/2 17/18/2 18/19/2
f 10/20/2 13/17/2 15/21/2
f 13/22/2 14/23/2 16/24/2 15/25/2
f 17/17/2 12/21/2 18/26/2
