# Blender 4.4.1
# www.blender.org
o M_BS_White_Embellishment_Framing_Columne_Round
v 0.000000 0.000000 1.110000
v 0.000000 0.400000 1.000000
v 0.424779 0.000000 1.025506
v 0.382683 0.400000 0.923880
v 0.784889 0.000000 0.784889
v 0.707107 0.400000 0.707107
v 1.025506 0.000000 0.424779
v 0.923880 0.400000 0.382683
v 1.110000 0.000000 -0.000000
v 1.000000 0.400000 -0.000000
v 1.025506 0.000000 -0.424779
v 0.923880 0.400000 -0.382684
v 0.784889 0.000000 -0.784889
v 0.707107 0.400000 -0.707107
v 0.424778 0.000000 -1.025506
v 0.382683 0.400000 -0.923880
v -0.000000 0.000000 -1.110000
v -0.000000 0.400000 -1.000000
v -0.424779 0.000000 -1.025506
v -0.382683 0.400000 -0.923880
v -0.784889 0.000000 -0.784888
v -0.707107 0.400000 -0.707107
v -1.025506 0.000000 -0.424778
v -0.923880 0.400000 -0.382683
v -1.110000 0.000000 0.000000
v -1.000000 0.400000 0.000000
v -1.025506 0.000000 0.424779
v -0.923879 0.400000 0.382684
v -0.784888 0.000000 0.784889
v -0.707107 0.400000 0.707107
v -0.424779 0.000000 1.025506
v -0.382683 0.400000 0.923880
v 0.000000 0.181135 1.096384
v 0.000000 0.135000 1.110000
v 0.000000 0.400000 1.034510
v 0.000000 0.375000 1.060000
v 0.000000 0.262610 1.060000
v 0.000000 0.216476 1.073616
v 0.424779 0.135000 1.025506
v 0.419568 0.181135 1.012927
v 0.405644 0.375000 0.979312
v 0.395890 0.400000 0.955763
v 0.410855 0.216476 0.991892
v 0.405644 0.262610 0.979312
v 0.784889 0.135000 0.784889
v 0.775261 0.181134 0.775261
v 0.749533 0.375000 0.749533
v 0.731509 0.400000 0.731509
v 0.759161 0.216476 0.759161
v 0.749533 0.262610 0.749533
v 1.025506 0.135000 0.424779
v 1.012927 0.181135 0.419568
v 0.979312 0.375000 0.405644
v 0.955763 0.400000 0.395890
v 0.991892 0.216476 0.410855
v 0.979312 0.262610 0.405644
v 1.110000 0.135000 -0.000000
v 1.096384 0.181134 -0.000000
v 1.060000 0.375000 -0.000000
v 1.034510 0.400000 -0.000000
v 1.073616 0.216476 -0.000000
v 1.060000 0.262610 -0.000000
v 1.025506 0.135000 -0.424779
v 1.012927 0.181135 -0.419568
v 0.979312 0.375000 -0.405645
v 0.955763 0.400000 -0.395890
v 0.991892 0.216476 -0.410855
v 0.979312 0.262610 -0.405645
v 0.784889 0.135000 -0.784889
v 0.775261 0.181134 -0.775261
v 0.749533 0.375000 -0.749533
v 0.731509 0.400000 -0.731509
v 0.759161 0.216476 -0.759161
v 0.749533 0.262610 -0.749533
v 0.424778 0.135000 -1.025506
v 0.419568 0.181135 -1.012927
v 0.405644 0.375000 -0.979312
v 0.395890 0.400000 -0.955763
v 0.410855 0.216476 -0.991892
v 0.405644 0.262610 -0.979312
v -0.000000 0.135000 -1.110000
v -0.000000 0.181134 -1.096384
v -0.000000 0.375000 -1.060000
v -0.000000 0.400000 -1.034510
v -0.000000 0.216476 -1.073616
v -0.000000 0.262610 -1.060000
v -0.424779 0.135000 -1.025506
v -0.419568 0.181135 -1.012927
v -0.405644 0.375000 -0.979312
v -0.395890 0.400000 -0.955763
v -0.410855 0.216476 -0.991892
v -0.405644 0.262610 -0.979312
v -0.784889 0.135000 -0.784888
v -0.775261 0.181134 -0.775261
v -0.749533 0.375000 -0.749533
v -0.731509 0.400000 -0.731509
v -0.759161 0.216476 -0.759161
v -0.749533 0.262610 -0.749533
v -1.025506 0.135000 -0.424778
v -1.012927 0.181134 -0.419568
v -0.979312 0.375000 -0.405644
v -0.955763 0.400000 -0.395890
v -0.991892 0.216476 -0.410855
v -0.979312 0.262610 -0.405644
v -1.110000 0.135000 0.000000
v -1.096384 0.181134 0.000000
v -1.060000 0.375000 0.000000
v -1.034510 0.400000 0.000000
v -1.073616 0.216476 0.000000
v -1.060000 0.262610 0.000000
v -1.025506 0.135000 0.424779
v -1.012927 0.181135 0.419568
v -0.979312 0.375000 0.405645
v -0.955763 0.400000 0.395890
v -0.991892 0.216476 0.410855
v -0.979312 0.262610 0.405645
v -0.784888 0.135000 0.784889
v -0.775260 0.181134 0.775261
v -0.749533 0.375000 0.749533
v -0.731509 0.400000 0.731509
v -0.759161 0.216476 0.759161
v -0.749533 0.262610 0.749533
v -0.424779 0.135000 1.025506
v -0.419568 0.181134 1.012927
v -0.405644 0.375000 0.979312
v -0.395890 0.400000 0.955763
v -0.410855 0.216476 0.991892
v -0.405644 0.262610 0.979312
vn -0.3217 0.5416 0.7767
vn -0.0000 0.5416 0.8406
vn -0.0000 1.0000 -0.0000
vn -0.0000 -0.0000 1.0000
vn 0.3827 -0.0000 0.9239
vn 0.5944 0.5416 0.5944
vn 0.7767 0.5416 0.3217
vn 0.8406 0.5416 -0.0000
vn 0.7767 0.5416 -0.3217
vn 0.5944 0.5416 -0.5944
vn 0.3217 0.5416 -0.7767
vn -0.0000 0.5416 -0.8406
vn -0.3217 0.5416 -0.7767
vn -0.5944 0.5416 -0.5944
vn -0.7767 0.5416 -0.3217
vn -0.8406 0.5416 -0.0000
vn -0.7767 0.5416 0.3217
vn -0.5944 0.5416 0.5944
vn -0.3827 -0.0000 0.9239
vn 0.7071 -0.0000 0.7071
vn 0.9239 -0.0000 0.3827
vn 1.0000 -0.0000 -0.0000
vn 0.9239 -0.0000 -0.3827
vn 0.7071 -0.0000 -0.7071
vn 0.3827 -0.0000 -0.9239
vn -0.0000 -0.0000 -1.0000
vn -0.3827 -0.0000 -0.9239
vn -0.7071 -0.0000 -0.7071
vn -0.9239 -0.0000 -0.3827
vn -1.0000 -0.0000 -0.0000
vn -0.9239 -0.0000 0.3827
vn -0.7071 -0.0000 0.7071
vn 0.3217 0.5416 0.7767
vn 0.3124 0.5776 0.7542
vn -0.0000 0.5776 0.8163
vn -0.0000 -0.0592 0.9982
vn 0.3820 -0.0592 0.9223
vn -0.0000 1.0000 -0.0001
vn -0.0000 -0.0187 0.9998
vn 0.3826 -0.0187 0.9237
vn 0.5772 0.5776 0.5772
vn 0.7059 -0.0592 0.7059
vn 0.7070 -0.0187 0.7070
vn 0.7542 0.5776 0.3124
vn 0.9223 -0.0592 0.3820
vn 0.9237 -0.0187 0.3826
vn 0.8163 0.5776 -0.0000
vn 0.9982 -0.0592 -0.0000
vn -0.0001 1.0000 -0.0000
vn 0.9998 -0.0187 -0.0000
vn 0.7542 0.5776 -0.3124
vn 0.9223 -0.0592 -0.3820
vn 0.9237 -0.0187 -0.3826
vn 0.5772 0.5776 -0.5772
vn 0.7059 -0.0592 -0.7059
vn 0.7070 -0.0187 -0.7070
vn 0.3124 0.5776 -0.7542
vn 0.3820 -0.0592 -0.9223
vn 0.3826 -0.0187 -0.9237
vn -0.0000 0.5776 -0.8163
vn -0.0000 -0.0592 -0.9982
vn -0.0000 1.0000 0.0001
vn -0.0000 -0.0187 -0.9998
vn -0.3124 0.5776 -0.7542
vn -0.3820 -0.0592 -0.9223
vn -0.3826 -0.0187 -0.9237
vn -0.5772 0.5776 -0.5772
vn -0.7059 -0.0592 -0.7059
vn -0.7070 -0.0187 -0.7070
vn -0.7059 -0.0591 -0.7059
vn -0.7542 0.5776 -0.3124
vn -0.9223 -0.0592 -0.3820
vn -0.9237 -0.0187 -0.3826
vn -0.8163 0.5776 -0.0000
vn -0.9982 -0.0592 -0.0000
vn 0.0001 1.0000 -0.0000
vn -0.9998 -0.0187 -0.0000
vn -0.7542 0.5776 0.3124
vn -0.9223 -0.0592 0.3820
vn -0.9237 -0.0187 0.3826
vn -0.5772 0.5776 0.5772
vn -0.7059 -0.0591 0.7059
vn -0.7070 -0.0187 0.7070
vn -0.7059 -0.0592 0.7059
vn -0.3124 0.5776 0.7542
vn -0.3820 -0.0592 0.9223
vn -0.3826 -0.0187 0.9237
vt 0.937500 0.216476
vt 0.937500 0.181134
vt 1.000000 0.181134
vt 1.000000 0.216476
vt 0.062500 0.400000
vt 0.125000 0.400000
vt 0.125000 0.400000
vt 0.187500 0.400000
vt 0.250000 0.400000
vt 0.250000 0.400000
vt 0.312500 0.400000
vt 0.375000 0.400000
vt 0.375000 0.400000
vt 0.437500 0.400000
vt 0.437500 0.400000
vt 0.500000 0.400000
vt 0.500000 0.400000
vt 0.562500 0.400000
vt 0.625000 0.400000
vt 0.625000 0.400000
vt 0.687500 0.400000
vt 0.687500 0.400000
vt 0.750000 0.400000
vt 0.750000 0.400000
vt 0.812500 0.400000
vt 0.875000 0.400000
vt 0.937500 0.400000
vt 0.000000 0.135000
vt 0.000000 0.000000
vt 0.062500 0.000000
vt 0.062500 0.135000
vt 1.000000 0.400000
vt 1.000000 0.400000
vt 0.125000 0.216476
vt 0.125000 0.181135
vt 0.187500 0.181135
vt 0.187500 0.216476
vt 0.187500 0.216476
vt 0.187500 0.181134
vt 0.250000 0.181134
vt 0.250000 0.216476
vt 0.312500 0.181134
vt 0.312500 0.216476
vt 0.312500 0.216476
vt 0.312500 0.181134
vt 0.375000 0.181134
vt 0.375000 0.216476
vt 0.437500 0.181134
vt 0.437500 0.216476
vt 0.500000 0.181134
vt 0.500000 0.216476
vt 0.500000 0.216476
vt 0.562500 0.181134
vt 0.562500 0.216476
vt 0.562500 0.216476
vt 0.562500 0.181134
vt 0.625000 0.181135
vt 0.625000 0.216476
vt 0.625000 0.216476
vt 0.625000 0.181135
vt 0.687500 0.181135
vt 0.687500 0.216476
vt 0.687500 0.181134
vt 0.750000 0.181134
vt 0.750000 0.216476
vt 0.750000 0.216476
vt 0.750000 0.181134
vt 0.812500 0.181134
vt 0.812500 0.216476
vt 0.875000 0.181134
vt 0.875000 0.216476
vt 0.875000 0.216476
vt 0.937500 0.181134
vt 0.937500 0.216476
vt 0.000000 0.375000
vt 0.000000 0.262610
vt 0.062500 0.262610
vt 0.062500 0.375000
vt 0.937500 0.375000
vt 0.937500 0.262610
vt 1.000000 0.262610
vt 1.000000 0.375000
vt 0.125000 0.000000
vt 0.125000 0.135000
vt 0.187500 0.000000
vt 0.187500 0.135000
vt 0.250000 0.000000
vt 0.250000 0.135000
vt 0.312500 0.000000
vt 0.312500 0.135000
vt 0.375000 0.000000
vt 0.375000 0.135000
vt 0.437500 0.000000
vt 0.437500 0.135000
vt 0.500000 0.000000
vt 0.500000 0.135000
vt 0.562500 0.000000
vt 0.562500 0.135000
vt 0.625000 0.000000
vt 0.625000 0.135000
vt 0.687500 0.000000
vt 0.687500 0.135000
vt 0.750000 0.000000
vt 0.750000 0.135000
vt 0.812500 0.000000
vt 0.812500 0.135000
vt 0.875000 0.000000
vt 0.875000 0.135000
vt 0.937500 0.000000
vt 0.937500 0.135000
vt 0.000000 0.216476
vt 0.000000 0.181134
vt 0.062500 0.181134
vt 0.062500 0.216476
vt 0.062500 0.216476
vt 0.062500 0.181134
vt 0.125000 0.216476
vt 0.062500 0.262610
vt 0.125000 0.262610
vt 0.125000 0.375000
vt 0.187500 0.262610
vt 0.187500 0.375000
vt 0.187500 0.375000
vt 0.187500 0.262610
vt 0.250000 0.262610
vt 0.250000 0.375000
vt 0.250000 0.262610
vt 0.312500 0.262610
vt 0.312500 0.375000
vt 0.375000 0.262610
vt 0.375000 0.375000
vt 0.375000 0.262610
vt 0.437500 0.262610
vt 0.437500 0.375000
vt 0.437500 0.262610
vt 0.500000 0.262610
vt 0.500000 0.375000
vt 0.562500 0.262610
vt 0.562500 0.375000
vt 0.562500 0.262610
vt 0.625000 0.262610
vt 0.625000 0.375000
vt 0.625000 0.262610
vt 0.687500 0.262610
vt 0.687500 0.375000
vt 0.687500 0.262610
vt 0.750000 0.262610
vt 0.750000 0.375000
vt 0.750000 0.262610
vt 0.812500 0.262610
vt 0.812500 0.375000
vt 0.812500 0.262610
vt 0.875000 0.262610
vt 0.875000 0.375000
vt 0.875000 0.262610
vt 0.937500 0.262610
vt 0.000000 0.400000
vt 1.000000 0.135000
vt 1.000000 0.000000
s 1
f 127/1/1 124/2/1 33/3/2 38/4/2
f 4/5/3 42/5/3 48/6/3 6/7/3
f 6/7/3 48/7/3 54/8/3 8/8/3
f 8/8/3 54/8/3 60/9/3 10/10/3
f 10/10/3 60/10/3 66/11/3 12/11/3
f 12/11/3 66/11/3 72/12/3 14/13/3
f 14/13/3 72/13/3 78/14/3 16/15/3
f 16/15/3 78/15/3 84/16/3 18/17/3
f 18/17/3 84/17/3 90/18/3 20/18/3
f 20/18/3 90/18/3 96/19/3 22/20/3
f 22/20/3 96/20/3 102/21/3 24/22/3
f 24/22/3 102/22/3 108/23/3 26/24/3
f 26/24/3 108/24/3 114/25/3 28/25/3
f 28/25/3 114/25/3 120/26/3 30/26/3
f 30/26/3 120/26/3 126/27/3 32/27/3
f 34/28/4 1/29/4 3/30/5 39/31/5
f 32/27/3 126/27/3 35/32/3 2/33/3
f 49/34/6 46/35/6 52/36/7 55/37/7
f 55/38/7 52/39/7 58/40/8 61/41/8
f 61/41/8 58/40/8 64/42/9 67/43/9
f 67/44/9 64/45/9 70/46/10 73/47/10
f 73/47/10 70/46/10 76/48/11 79/49/11
f 79/49/11 76/48/11 82/50/12 85/51/12
f 85/52/12 82/50/12 88/53/13 91/54/13
f 91/55/13 88/56/13 94/57/14 97/58/14
f 97/59/14 94/60/14 100/61/15 103/62/15
f 103/62/15 100/63/15 106/64/16 109/65/16
f 109/66/16 106/67/16 112/68/17 115/69/17
f 115/69/17 112/68/17 118/70/18 121/71/18
f 121/72/18 118/70/18 124/73/1 127/74/1
f 36/75/4 37/76/4 44/77/5 41/78/5
f 125/79/19 128/80/19 37/81/4 36/82/4
f 39/31/5 3/30/5 5/83/20 45/84/20
f 45/84/20 5/83/20 7/85/21 51/86/21
f 51/86/21 7/85/21 9/87/22 57/88/22
f 57/88/22 9/87/22 11/89/23 63/90/23
f 63/90/23 11/89/23 13/91/24 69/92/24
f 69/92/24 13/91/24 15/93/25 75/94/25
f 75/94/25 15/93/25 17/95/26 81/96/26
f 81/96/26 17/95/26 19/97/27 87/98/27
f 87/98/27 19/97/27 21/99/28 93/100/28
f 93/100/28 21/99/28 23/101/29 99/102/29
f 99/102/29 23/101/29 25/103/30 105/104/30
f 105/104/30 25/103/30 27/105/31 111/106/31
f 111/106/31 27/105/31 29/107/32 117/108/32
f 117/108/32 29/107/32 31/109/19 123/110/19
f 38/111/2 33/112/2 40/113/33 43/114/33
f 43/115/33 40/116/33 46/35/6 49/117/6
f 41/78/5 44/118/5 50/119/20 47/120/20
f 47/120/20 50/119/20 56/121/21 53/122/21
f 53/123/21 56/124/21 62/125/22 59/126/22
f 59/126/22 62/127/22 68/128/23 65/129/23
f 65/129/23 68/128/23 74/130/24 71/131/24
f 71/131/24 74/132/24 80/133/25 77/134/25
f 77/134/25 80/135/25 86/136/26 83/137/26
f 83/137/26 86/136/26 92/138/27 89/139/27
f 89/139/27 92/140/27 98/141/28 95/142/28
f 95/142/28 98/143/28 104/144/29 101/145/29
f 101/145/29 104/146/29 110/147/30 107/148/30
f 107/148/30 110/149/30 116/150/31 113/151/31
f 113/151/31 116/152/31 122/153/32 119/154/32
f 119/154/32 122/155/32 128/156/19 125/79/19
f 2/157/3 35/157/3 42/5/3 4/5/3
f 40/113/34 33/112/35 34/28/36 39/31/37
f 42/5/38 35/157/38 36/75/39 41/78/40
f 44/77/37 37/76/36 38/111/35 43/114/34
f 46/35/41 40/116/34 39/31/37 45/84/42
f 48/6/38 42/5/38 41/78/40 47/120/43
f 50/119/42 44/118/37 43/115/34 49/117/41
f 52/36/44 46/35/41 45/84/42 51/86/45
f 54/8/38 48/7/38 47/120/43 53/122/46
f 56/121/45 50/119/42 49/34/41 55/37/44
f 58/40/47 52/39/44 51/86/45 57/88/48
f 60/9/49 54/8/38 53/123/46 59/126/50
f 62/125/48 56/124/45 55/38/44 61/41/47
f 64/42/51 58/40/47 57/88/48 63/90/52
f 66/11/49 60/10/49 59/126/50 65/129/53
f 68/128/52 62/127/48 61/41/47 67/43/51
f 70/46/54 64/45/51 63/90/52 69/92/55
f 72/12/49 66/11/49 65/129/53 71/131/56
f 74/130/55 68/128/52 67/44/51 73/47/54
f 76/48/57 70/46/54 69/92/55 75/94/58
f 78/14/49 72/13/49 71/131/56 77/134/59
f 80/133/58 74/132/55 73/47/54 79/49/57
f 82/50/60 76/48/57 75/94/58 81/96/61
f 84/16/62 78/15/49 77/134/59 83/137/63
f 86/136/61 80/135/58 79/49/57 85/51/60
f 88/53/64 82/50/60 81/96/61 87/98/65
f 90/18/62 84/17/62 83/137/63 89/139/66
f 92/138/65 86/136/61 85/52/60 91/54/64
f 94/57/67 88/56/64 87/98/65 93/100/68
f 96/19/62 90/18/62 89/139/66 95/142/69
f 98/141/70 92/140/65 91/55/64 97/58/67
f 100/61/71 94/60/67 93/100/68 99/102/72
f 102/21/62 96/20/62 95/142/69 101/145/73
f 104/144/72 98/143/70 97/59/67 103/62/71
f 106/64/74 100/63/71 99/102/72 105/104/75
f 108/23/76 102/22/62 101/145/73 107/148/77
f 110/147/75 104/146/72 103/62/71 109/65/74
f 112/68/78 106/67/74 105/104/75 111/106/79
f 114/25/76 108/24/76 107/148/77 113/151/80
f 116/150/79 110/149/75 109/66/74 115/69/78
f 118/70/81 112/68/78 111/106/79 117/108/82
f 120/26/76 114/25/76 113/151/80 119/154/83
f 122/153/84 116/152/79 115/69/78 121/71/81
f 124/73/85 118/70/81 117/108/82 123/110/86
f 126/27/76 120/26/76 119/154/83 125/79/87
f 128/156/86 122/155/84 121/72/81 127/74/85
f 33/3/35 124/2/85 123/110/86 34/158/36
f 35/32/38 126/27/76 125/79/87 36/82/39
f 37/81/36 128/80/86 127/1/85 38/4/35
f 123/110/19 31/109/19 1/159/4 34/158/4
