# Blender 4.4.1
# www.blender.org
o M_BS_White_Embellishment_Window_Wide_1
v 0.601065 2.529397 -0.033119
v 2.430368 2.499326 -0.033119
v 0.830776 2.322225 -0.033119
v 2.176203 2.291192 -0.033119
v 0.846366 0.939624 -0.033119
v 0.669860 0.939624 -0.033119
v 2.080116 0.968975 -0.033119
v 2.288250 0.968975 -0.033119
v 0.849906 0.959686 0.081043
v 0.820155 2.334026 0.081043
v 0.752079 0.939624 0.143318
v 0.683284 2.447177 0.143318
v 1.457290 1.039325 0.041987
v 1.457290 1.622988 0.041987
v 1.457290 1.708408 0.041987
v 0.960950 1.663970 0.041987
v 0.960950 1.578550 0.041987
v 0.944768 1.025045 0.041987
v 1.457290 2.220930 0.041987
v 0.916196 2.236805 0.041987
v 1.501180 0.970426 0.081043
v 1.500000 2.306350 0.081043
v 1.500000 2.220930 0.081043
v 1.500000 1.039325 0.081043
v 2.091461 0.989282 0.081043
v 2.185644 2.298272 0.081043
v 2.206031 0.968975 0.143318
v 2.348149 2.417106 0.143318
v 1.542710 1.039325 0.041987
v 1.542710 1.622988 0.041987
v 1.542710 1.708408 0.041987
v 2.051475 1.726874 0.041987
v 1.506883 0.692478 -0.033119
v 1.512469 0.789051 0.187733
v 1.495841 0.980846 -0.033119
v 2.051475 1.641454 0.041987
v 1.994696 1.054395 0.041987
v 1.542710 2.220930 0.041987
v 2.090782 2.205771 0.041987
v 0.863729 1.623621 0.081043
v 1.500000 1.665698 0.081043
v 1.457290 1.039325 0.041987
v 1.457290 1.622988 0.041987
v 1.457290 1.708408 0.041987
v 0.960950 1.663970 0.041987
v 0.960950 1.578550 0.041987
v 0.944768 1.025045 0.041987
v 1.457290 2.220930 0.041987
v 0.916196 2.236805 0.041987
v 2.146336 1.682984 0.081043
v 1.542710 1.039325 0.041987
v 1.542710 1.622988 0.041987
v 1.542710 1.708408 0.041987
v 2.051475 1.726874 0.041987
v 2.051475 1.641454 0.041987
v 1.994696 1.054395 0.041987
v 1.542710 2.220930 0.041987
v 2.090782 2.205771 0.041987
v 2.271817 1.673095 0.143318
v 2.352252 1.673175 -0.033119
v 2.136895 1.684164 -0.033119
v 0.875530 1.620950 -0.033119
v 0.669656 1.620426 -0.033119
v 0.750168 1.620350 0.143318
v 1.695768 2.290914 -0.033119
v 1.304336 2.299944 -0.033119
v 1.304373 2.477504 -0.033119
v 1.695767 2.470801 -0.033119
v 1.304352 2.396430 0.143318
v 1.695768 2.389033 0.143318
v 0.628308 2.502153 0.170118
v 0.601065 2.529397 0.145118
v 2.430368 2.499326 0.145118
v 2.403813 2.472770 0.170118
v 0.830776 2.322225 0.118318
v 0.803220 2.345570 0.143318
v 2.205603 2.312721 0.143318
v 2.176203 2.291192 0.118318
v 0.857513 0.939624 0.118385
v 0.833438 0.939624 0.143318
v 0.695613 0.939624 0.170118
v 0.669860 0.939624 0.145118
v 2.107740 0.968975 0.143318
v 2.080116 0.968975 0.118318
v 2.288250 0.968975 0.145118
v 2.264057 0.968975 0.170118
v 0.631308 0.613637 -0.033119
v 0.606414 0.636393 -0.033119
v 0.607640 0.945741 -0.005840
v 0.631710 0.971015 -0.033119
v 0.606672 0.945731 -0.033119
v 2.375659 0.780707 -0.033119
v 2.353505 0.754050 -0.033119
v 2.324927 1.006994 -0.033119
v 2.354120 0.983110 -0.006449
v 2.352757 0.982942 -0.033119
v 0.639658 0.613722 0.202179
v 0.640649 0.638833 0.227161
v 0.614926 0.636473 0.206725
v 0.647007 0.837106 0.363548
v 0.620895 0.828319 0.339707
v 0.645997 0.799477 0.341969
v 0.647098 0.946179 0.363542
v 0.646147 0.971168 0.338560
v 0.621154 0.945867 0.339700
v 0.640726 0.732868 0.227156
v 0.615026 0.750885 0.206862
v 0.683284 2.447177 0.145118
v 0.655829 2.474632 0.170118
v 0.752079 0.939624 0.145118
v 0.726224 0.939624 0.170118
v 1.467981 1.697717 0.081043
v 1.457290 1.708408 0.056043
v 2.359952 0.780042 0.148340
v 2.361498 0.755016 0.123372
v 2.383738 0.781706 0.125096
v 1.474041 1.639739 0.081043
v 1.457290 1.622988 0.056043
v 0.960950 1.663970 0.056043
v 0.935018 1.653208 0.081043
v 0.930368 1.592728 0.081043
v 0.960950 1.578550 0.056043
v 2.350176 0.921125 0.284753
v 2.353051 0.886662 0.261650
v 2.374691 0.916521 0.258603
v 1.470293 2.246937 0.081043
v 1.457290 2.220930 0.056043
v 0.916196 2.236805 0.056043
v 0.888374 2.264968 0.081043
v 2.343064 0.983932 0.284766
v 2.366884 0.984689 0.258607
v 2.339113 1.008709 0.259792
v 2.374731 0.861303 0.125211
v 2.353222 0.839480 0.148349
v 1.457290 1.039325 0.056043
v 1.471853 1.016464 0.081043
v 0.912150 1.002572 0.081043
v 0.944768 1.025045 0.056043
v 2.374839 2.443797 0.170118
v 2.348149 2.417106 0.145118
v 2.230147 0.968975 0.170118
v 2.206031 0.968975 0.145118
v 1.542710 1.708408 0.056043
v 1.527259 1.692957 0.081043
v 1.528039 1.637658 0.081043
v 1.542710 1.622988 0.056043
v 2.079346 1.713979 0.081043
v 2.051475 1.726874 0.056043
v 2.051475 1.641454 0.056043
v 2.087857 1.657382 0.081043
v 1.542710 2.220930 0.056043
v 1.527085 2.252181 0.081043
v 2.090782 2.205771 0.056043
v 2.121646 2.235867 0.081043
v 1.542710 1.039325 0.056043
v 1.528242 1.015322 0.081043
v 2.027371 1.032408 0.081043
v 1.994696 1.054395 0.056043
v 1.515102 0.692878 0.162755
v 1.515192 0.717935 0.187733
v 1.512232 0.956610 0.324129
v 1.510196 0.981544 0.299152
v 1.515574 0.842573 0.301514
v 1.515234 0.878194 0.324129
v 2.164442 1.681904 0.143318
v 2.136895 1.684164 0.118318
v 2.295895 1.673119 0.170118
v 2.271817 1.673095 0.145118
v 2.352252 1.673175 0.145118
v 2.328092 1.673151 0.170118
v 0.694864 1.640329 0.170118
v 0.669142 1.646054 0.145119
v 0.875530 1.620950 0.118318
v 0.849582 1.620826 0.143318
v 0.750168 1.620350 0.145118
v 0.724252 1.629713 0.170118
v 1.304343 2.322051 0.143318
v 1.304339 2.299944 0.118318
v 1.695768 2.290914 0.118318
v 1.695769 2.312847 0.143318
v 1.304368 2.477505 0.145118
v 1.304365 2.452199 0.170118
v 1.695768 2.445402 0.170118
v 1.695768 2.470801 0.145118
v 1.695768 2.389033 0.145118
v 1.695768 2.414437 0.170118
v 1.304363 2.421727 0.170118
v 1.304353 2.396430 0.145118
vn 0.9922 0.1151 -0.0481
vn -0.0000 -0.0000 1.0000
vn -0.0117 0.9999 -0.0007
vn 0.9987 -0.0346 -0.0367
vn 0.0006 -1.0000 -0.0000
vn 1.0000 -0.0000 -0.0000
vn -0.9957 0.0930 -0.0000
vn -0.9979 0.0646 -0.0000
vn 1.0000 0.0028 -0.0000
vn 0.9967 0.0806 -0.0000
vn 0.0716 -0.8840 0.4619
vn -0.0388 0.9992 -0.0000
vn 0.9923 0.1124 -0.0514
vn 0.0898 -0.9960 -0.0023
vn 0.0450 0.0007 0.9990
vn -0.0814 -0.9967 -0.0000
vn -0.9966 0.0818 -0.0000
vn 0.9980 0.0637 -0.0000
vn -0.0470 -0.9989 -0.0000
vn 0.9996 -0.0292 -0.0000
vn 0.0704 -0.9122 0.4036
vn -1.0000 -0.0000 -0.0000
vn 0.0465 0.0033 0.9989
vn 0.9970 0.0779 -0.0000
vn -0.0293 -0.9996 -0.0000
vn 0.0729 -0.9973 0.0005
vn 0.0471 0.0033 0.9989
vn 0.0430 -0.9991 -0.0000
vn -0.0333 0.9994 -0.0000
vn -0.9948 0.1021 -0.0000
vn -0.0892 0.9960 -0.0000
vn -0.0363 0.9993 -0.0000
vn 0.9956 -0.0941 -0.0000
vn 0.0363 -0.9993 -0.0000
vn -0.0322 0.9995 -0.0024
vn -0.9971 -0.0760 0.0040
vn -0.9992 0.0043 0.0398
vn -0.9954 0.0963 -0.0000
vn -0.0276 -0.9996 -0.0000
vn 0.0454 0.0007 0.9990
vn -0.0279 0.9996 -0.0000
vn 0.0892 -0.9960 -0.0000
vn -0.9994 0.0008 0.0355
vn 0.9959 -0.0905 -0.0000
vn -0.9969 0.0791 -0.0000
vn -1.0000 -0.0007 -0.0014
vn -0.0189 -0.9998 -0.0000
vn -0.0231 -0.9997 -0.0000
vn 0.0171 0.9999 -0.0000
vn -0.7103 0.7034 0.0249
vn -0.0323 0.9995 -0.0024
vn 0.9923 0.1123 -0.0513
vn 0.9923 0.1123 -0.0514
vn 0.0899 -0.9960 -0.0023
vn 0.0451 0.0008 0.9990
vn 0.0455 0.0007 0.9990
vn -0.9992 0.0043 0.0397
vn 0.0717 -0.8840 0.4620
vn 0.0454 0.0008 0.9990
vn -0.0117 0.9999 -0.0008
vn 0.0464 0.0033 0.9989
vn 0.0470 0.0033 0.9989
vn 0.0703 -0.9122 0.4036
vn 0.0471 0.0032 0.9989
vn -1.0000 -0.0005 -0.0014
vn -0.0000 -0.0001 1.0000
vn -0.9994 0.0009 0.0354
vn -0.0333 0.9994 -0.0001
vn 0.0455 0.0008 0.9990
vn -0.0001 -0.0000 1.0000
vn 0.9987 -0.0346 -0.0368
vn -0.9994 0.0008 0.0354
vn -0.9992 0.0042 0.0398
vn 0.0716 -0.8840 0.4620
vn -0.9992 0.0044 0.0398
vn 1.0000 0.0028 -0.0001
vn -0.0000 0.0001 1.0000
vn 0.0001 -0.0000 1.0000
vn 0.0891 -0.9960 -0.0000
vn -0.0294 -0.9996 -0.0000
vn -0.0279 0.9996 -0.0001
vn 0.0898 -0.9960 -0.0024
vn -0.0277 -0.9996 -0.0000
vn -0.9954 0.0962 -0.0000
vn -0.9969 0.0792 -0.0000
vn -0.9969 0.0791 -0.0001
vn 0.9922 0.1150 -0.0481
vn -0.9957 0.0930 -0.0001
vn 0.0728 -0.9973 0.0005
vn 0.9923 0.1124 -0.0513
vn 0.9959 -0.0905 -0.0001
vn 0.9922 0.1152 -0.0481
vn 0.9922 0.1152 -0.0480
vn -0.9967 0.0818 -0.0000
vn -0.9966 0.0819 -0.0000
vn -0.0322 0.9995 -0.0025
vn 0.0465 0.0034 0.9989
vn 0.0705 -0.9122 0.4036
vn -0.9979 0.0646 -0.0001
vn -0.9948 0.1020 -0.0000
vn 0.9956 -0.0942 -0.0000
vn 0.9967 0.0807 -0.0000
vn 0.0171 0.9999 -0.0001
vn -0.0230 -0.9997 -0.0000
vn -0.0470 -0.9989 -0.0001
vn 0.0006 -1.0000 -0.0001
vn 0.0736 0.9973 -0.0001
vn -0.0815 -0.9967 -0.0000
vn 0.0430 -0.9991 -0.0001
vn 0.0736 0.9973 -0.0000
vt 0.489414 0.287721
vt 0.489773 0.279517
vt 0.489776 0.272873
vt 0.488821 0.287531
vt 0.083001 0.840269
vt 0.083001 0.738880
vt 0.084917 0.743858
vt 0.084905 0.845975
vt 0.083001 0.855867
vt 0.449726 0.287342
vt 0.449061 0.287258
vt 0.409030 0.286075
vt 0.409699 0.286093
vt 0.418375 0.282298
vt 0.419123 0.364272
vt 0.414517 0.364214
vt 0.414606 0.282298
vt 0.420325 0.364287
vt 0.419490 0.282298
vt 0.418974 0.282298
vt 0.480579 0.444942
vt 0.458323 0.444908
vt 0.458323 0.444908
vt 0.086003 0.624501
vt 0.086003 0.731081
vt 0.086003 0.731081
vt 0.481961 0.285830
vt 0.485009 0.370561
vt 0.458323 0.463499
vt 0.458323 0.459773
vt 0.489781 0.463306
vt 0.491124 0.466792
vt 0.478758 0.371894
vt 0.484649 0.285830
vt 0.487616 0.370568
vt 0.486124 0.370564
vt 0.483078 0.285830
vt 0.440191 0.464317
vt 0.408872 0.470328
vt 0.410147 0.467016
vt 0.440191 0.460650
vt 0.414517 0.364214
vt 0.411955 0.366619
vt 0.413317 0.365341
vt 0.410147 0.467016
vt 0.411419 0.463712
vt 0.409691 0.265446
vt 0.409447 0.257417
vt 0.449831 0.264178
vt 0.449975 0.270619
vt 0.440190 0.457605
vt 0.440190 0.448655
vt 0.458323 0.447547
vt 0.458323 0.456716
vt 0.492354 0.469988
vt 0.458323 0.466555
vt 0.458323 0.466555
vt 0.083084 0.611920
vt 0.124579 0.615362
vt 0.120073 0.623237
vt 0.084986 0.620118
vt 0.489819 0.263174
vt 0.488758 0.287510
vt 0.488821 0.287531
vt 0.490194 0.263294
vt 0.409011 0.243069
vt 0.449573 0.252557
vt 0.449953 0.252605
vt 0.409398 0.243079
vt 0.409447 0.257417
vt 0.409444 0.246101
vt 0.449958 0.255620
vt 0.440190 0.457606
vt 0.126701 0.842996
vt 0.131200 0.854392
vt 0.124531 0.837500
vt 0.124531 0.837500
vt 0.121768 0.750051
vt 0.418252 0.448676
vt 0.418252 0.448676
vt 0.440190 0.445995
vt 0.440190 0.445995
vt 0.418252 0.448676
vt 0.487616 0.370568
vt 0.486124 0.370564
vt 0.481941 0.447532
vt 0.488545 0.460094
vt 0.045107 0.722966
vt 0.043970 0.621893
vt 0.045107 0.722966
vt 0.080913 0.845018
vt 0.080750 0.744727
vt 0.488772 0.275917
vt 0.488780 0.270247
vt 0.081022 0.620326
vt 0.083001 0.624501
vt 0.081176 0.734140
vt 0.079999 0.746679
vt 0.079999 0.840268
vt 0.079999 0.840269
vt 0.489092 0.263094
vt 0.488780 0.270247
vt 0.041961 0.843167
vt 0.045107 0.738564
vt 0.079999 0.840269
vt 0.040006 0.848310
vt 0.035210 0.860920
vt 0.038273 0.731196
vt 0.043285 0.736599
vt 0.488793 0.259966
vt 0.489163 0.260083
vt 0.449953 0.252605
vt 0.488639 0.280072
vt 0.488309 0.287630
vt 0.449820 0.284342
vt 0.449960 0.274905
vt 0.128436 0.742036
vt 0.084972 0.733760
vt 0.124325 0.737361
vt 0.117777 0.627252
vt 0.042958 0.725555
vt 0.037301 0.609958
vt 0.041677 0.617789
vt 0.079999 0.624501
vt 0.079999 0.731081
vt 0.086003 0.746679
vt 0.488735 0.370571
vt 0.488735 0.370571
vt 0.121768 0.734453
vt 0.084972 0.733760
vt 0.449726 0.287342
vt 0.488126 0.290612
vt 0.487469 0.290405
vt 0.126701 0.842996
vt 0.123727 0.747696
vt 0.124325 0.737361
vt 0.410764 0.367307
vt 0.407610 0.473606
vt 0.410788 0.364224
vt 0.407915 0.283034
vt 0.408257 0.259585
vt 0.408532 0.268904
vt 0.408540 0.283049
vt 0.117777 0.627252
vt 0.086003 0.840269
vt 0.086003 0.840269
vt 0.124531 0.837500
vt 0.409738 0.269961
vt 0.449960 0.274905
vt 0.409743 0.283087
vt 0.043970 0.621893
vt 0.079999 0.731081
vt 0.480787 0.568686
vt 0.477725 0.610996
vt 0.352563 0.610996
vt 0.362091 0.570022
vt 0.343774 0.570022
vt 0.334245 0.610996
vt 0.224338 0.610996
vt 0.220934 0.566328
vt 0.330285 0.660048
vt 0.227589 0.663293
vt 0.224338 0.618048
vt 0.334245 0.618048
vt 0.474493 0.655361
vt 0.348603 0.660048
vt 0.352563 0.618048
vt 0.477725 0.618048
vt 0.123727 0.747696
vt 0.407870 0.283033
vt 0.407858 0.245808
vt 0.408252 0.245817
vt 0.408257 0.259585
vt 0.485770 0.285830
vt 0.480035 0.371622
vt 0.481941 0.447532
vt 0.476128 0.285830
vt 0.411990 0.282298
vt 0.413408 0.282298
vt 0.413317 0.365341
vt 0.080750 0.744727
vt 0.043285 0.736599
vt 0.477408 0.285830
vt 0.480035 0.371622
vt 0.410797 0.282298
vt 0.416975 0.451485
vt 0.440190 0.448655
vt 0.440191 0.464317
vt 0.458323 0.459773
vt 0.440190 0.457605
vt 0.458323 0.444908
vt 0.440190 0.445995
vt 0.440191 0.467362
vt 0.440191 0.467362
vt 0.407915 0.283034
vt 0.407871 0.286005
vt 0.488628 0.290500
s 0
f 131/1/1 125/2/1 133/3/1 95/4/1
f 23/5/2 41/6/2 144/7/2 152/8/2 22/9/2
f 162/10/3 35/11/3 90/12/3 104/13/3
f 80/14/2 174/15/2 64/16/2 11/17/2
f 173/18/4 79/19/4 5/20/4 62/18/4
f 4/21/5 78/21/5 179/22/5 65/23/5
f 155/24/6 29/24/6 30/25/6 146/26/6
f 27/27/7 142/27/7 168/28/7 59/28/7
f 183/29/2 186/30/2 139/31/2 74/32/2
f 78/21/8 4/21/8 61/33/8 166/33/8
f 86/34/2 170/35/2 167/36/2 141/37/2
f 182/38/2 71/39/2 109/40/2 187/41/2
f 11/17/9 64/16/9 175/42/9 110/17/9
f 171/43/2 176/44/2 109/45/2 71/39/2
f 64/16/10 12/46/10 108/46/10 175/16/10
f 102/47/11 106/48/11 34/49/11 163/50/11
f 69/51/2 177/52/2 180/53/2 70/54/2
f 73/55/12 2/55/12 68/56/12 184/57/12
f 21/58/2 25/59/2 157/60/2 156/61/2
f 92/62/13 96/63/13 95/64/13 133/3/13 116/65/13
f 87/66/14 33/67/14 159/68/14 97/69/14
f 34/49/15 106/70/15 98/71/15 160/72/15
f 12/46/16 69/51/16 188/73/16 108/46/16
f 22/9/2 152/8/2 154/74/2 26/75/2
f 153/76/17 39/77/17 32/78/17 148/78/17
f 75/79/18 173/18/18 62/18/18 3/80/18
f 3/80/19 66/81/19 178/82/19 75/83/19
f 170/84/2 74/32/2 139/31/2 167/85/2
f 77/86/2 28/87/2 70/54/2 180/53/2
f 122/88/20 138/89/20 18/89/20 17/90/20
f 23/5/2 22/9/2 126/91/2 112/92/2 41/6/2
f 124/93/21 163/50/21 34/49/21 134/94/21
f 136/95/2 21/58/2 24/96/2 41/6/2 117/97/2
f 113/98/22 127/99/22 19/100/22 15/98/22
f 34/49/23 160/72/23 114/101/23 134/102/23
f 128/103/24 119/104/24 16/104/24 20/103/24
f 127/105/25 128/103/25 20/103/25 19/100/25
f 129/106/2 10/107/2 40/108/2 120/109/2
f 93/110/26 115/111/26 159/112/26 33/67/26
f 123/113/27 130/114/27 161/115/27 164/116/27
f 50/117/2 41/6/2 145/118/2 150/119/2
f 28/87/28 140/87/28 185/54/28 70/54/28
f 158/120/29 37/120/29 29/24/29 155/24/29
f 59/28/30 168/28/30 140/87/30 28/87/30
f 40/108/2 121/121/2 117/97/2 41/6/2
f 9/122/2 137/123/2 121/121/2 40/108/2
f 119/104/31 113/98/31 15/98/31 16/104/31
f 21/58/2 136/95/2 137/123/2 9/122/2
f 135/124/22 118/125/22 14/125/22 13/124/22
f 148/78/32 32/78/32 31/126/32 143/126/32
f 169/127/33 60/128/33 2/55/33 73/55/33
f 146/25/34 30/25/34 36/129/34 149/129/34
f 156/61/2 145/130/2 41/6/2 24/96/2 21/58/2
f 162/131/35 132/132/35 94/133/35 35/11/35
f 154/134/2 147/135/2 50/117/2 26/75/2
f 25/59/2 50/117/2 150/136/2 157/60/2
f 172/137/36 72/138/36 1/138/36 63/139/36
f 89/140/37 107/141/37 101/142/37 105/143/37
f 22/9/2 10/107/2 129/106/2 126/91/2
f 149/129/38 36/129/38 37/120/38 158/144/38
f 143/126/6 31/126/6 38/145/6 151/146/6
f 151/146/39 38/145/39 39/77/39 153/147/39
f 100/148/40 164/149/40 161/115/40 103/150/40
f 138/151/41 135/124/41 13/124/41 18/89/41
f 118/152/42 122/90/42 17/90/42 14/125/42
f 47/153/2 42/154/2 43/155/2 46/156/2
f 45/157/2 44/158/2 48/159/2 49/160/2
f 54/161/2 58/162/2 57/163/2 53/164/2
f 56/165/2 55/166/2 52/167/2 51/168/2
f 41/6/2 50/117/2 147/169/2 144/7/2
f 89/140/43 91/170/43 88/171/43 99/172/43 107/173/43
f 85/174/44 8/174/44 60/128/44 169/128/44
f 165/175/2 59/28/2 28/87/2 77/176/2
f 166/33/45 61/33/45 7/177/45 84/177/45
f 81/178/2 111/179/2 176/180/2 171/43/2
f 41/6/2 112/181/2 120/182/2 40/108/2
f 83/183/2 27/27/2 59/28/2 165/184/2
f 82/185/46 172/137/46 63/139/46 6/185/46
f 76/186/2 177/187/2 69/51/2 12/46/2
f 182/188/2 187/41/2 186/189/2 183/29/2
f 188/190/47 69/51/47 70/54/47 185/54/47
f 65/23/48 179/191/48 178/192/48 66/81/48
f 67/193/49 181/194/49 184/56/49 68/56/49
f 174/15/2 76/186/2 12/46/2 64/16/2
f 89/195/43 90/196/50 91/170/43
f 94/197/51 95/64/52 96/63/53
f 97/69/54 98/71/55 99/172/43
f 100/148/56 101/142/57 102/47/58
f 103/150/59 104/13/60 105/143/37
f 114/101/61 115/111/26 116/65/53
f 123/113/62 124/93/63 125/2/1
f 130/114/64 131/1/1 132/132/35
f 172/137/46 82/185/65 81/178/2 171/43/66
f 99/172/67 88/171/67 87/66/54 97/69/54
f 156/61/2 157/60/2 158/120/29 155/24/68
f 100/148/69 103/150/56 105/143/37 101/142/57
f 144/7/2 147/169/2 148/78/32 143/126/32
f 174/15/2 80/14/70 79/19/71 173/18/71
f 98/71/55 106/70/55 107/173/72 99/172/72
f 116/65/13 133/3/13 134/102/61 114/101/61
f 104/13/60 90/12/60 89/140/73 105/143/37
f 146/25/34 149/129/34 150/119/70 145/118/2
f 143/126/6 151/146/6 152/8/2 144/7/2
f 106/48/74 102/47/11 101/142/75 107/141/57
f 176/180/70 111/179/2 110/17/76 175/42/9
f 136/95/77 117/97/66 118/125/22 135/124/22
f 113/98/31 119/104/31 120/182/77 112/181/78
f 117/97/78 121/121/2 122/90/79 118/152/42
f 138/89/20 122/88/20 121/121/70 137/123/2
f 112/92/2 126/91/2 127/99/22 113/98/22
f 119/104/24 128/103/24 129/106/70 120/109/66
f 126/91/2 129/106/2 128/103/25 127/105/80
f 135/124/81 138/151/41 137/123/66 136/95/78
f 162/10/60 104/13/60 103/150/40 161/115/40
f 97/69/82 159/68/82 160/72/55 98/71/55
f 102/47/11 163/50/11 164/149/40 100/148/40
f 151/146/83 153/147/39 154/74/2 152/8/77
f 157/60/2 150/136/78 149/129/84 158/144/38
f 166/33/85 84/177/86 83/183/2 165/184/2
f 125/2/87 131/1/1 130/114/62 123/113/62
f 168/28/7 142/27/88 141/37/2 167/36/2
f 115/111/89 93/110/89 92/62/90 116/65/90
f 170/35/2 86/34/2 85/174/91 169/128/91
f 131/1/1 95/4/1 94/133/51 132/132/35
f 133/3/92 125/2/93 124/93/21 134/94/21
f 155/24/6 146/26/6 145/130/2 156/61/2
f 147/135/78 154/134/2 153/76/94 148/78/95
f 161/115/64 130/114/27 132/132/96 162/131/35
f 114/101/61 160/72/97 159/112/26 115/111/26
f 123/113/27 164/116/62 163/50/98 124/93/21
f 78/21/8 166/33/99 165/175/2 77/176/78
f 140/87/100 168/28/30 167/85/2 139/31/2
f 74/32/2 170/84/70 169/127/33 73/55/101
f 72/138/36 172/137/36 171/43/78 71/39/78
f 76/186/2 174/15/2 173/18/18 75/79/18
f 109/45/2 176/44/70 175/16/10 108/46/102
f 186/189/77 187/41/2 188/190/47 185/54/47
f 182/188/66 183/29/2 184/56/103 181/194/49
f 178/192/104 179/191/48 180/53/77 177/52/77
f 177/187/77 76/186/77 75/83/105 178/82/105
f 77/86/2 180/53/78 179/22/5 78/21/106
f 181/194/107 72/138/107 71/39/2 182/38/2
f 108/46/108 188/73/16 187/41/77 109/40/2
f 73/55/12 184/57/12 183/29/2 74/32/2
f 185/54/28 140/87/109 139/31/77 186/30/2
f 72/138/110 181/194/110 67/193/110 1/138/110
