# Blender 4.4.1
# www.blender.org
o M_BS_White_Embellishment_Corner_1_8x1
v -0.100000 8.000000 0.074867
v -0.075063 8.000000 0.100000
v -0.026180 4.000000 -0.805355
v -0.051214 4.000000 -0.780325
v -0.074989 8.000000 -0.700000
v -0.100000 8.000000 -0.674983
v 0.750097 4.000000 0.072896
v 0.775093 4.000000 0.047880
v 0.675066 8.000000 0.100000
v 0.700000 8.000000 0.074970
v 0.700000 8.000000 -0.674982
v 0.674910 8.000000 -0.700000
v -0.126306 5.116474 0.115224
v -0.102615 5.114738 0.139924
v -0.143703 6.240241 0.179382
v -0.167709 6.242147 0.154186
v -0.171111 6.941734 0.121245
v -0.146479 6.943357 0.146464
v -0.128019 7.000490 -0.745999
v -0.153548 6.998801 -0.721351
v -0.098822 6.156867 -0.776811
v -0.125048 6.160444 -0.752329
v -0.075820 5.116474 -0.777226
v -0.049342 5.114666 -0.802968
v 0.658427 7.001647 -0.712010
v 0.635202 7.000490 -0.737281
v 0.642595 6.117770 -0.734640
v 0.618751 6.119090 -0.760216
v 0.679849 5.062027 -0.799866
v 0.655286 5.063838 -0.824132
v 0.568968 7.038061 0.146702
v 0.596121 7.040256 0.121804
v 0.572152 6.121953 0.184541
v 0.598693 6.117770 0.159730
v 0.660186 5.062027 0.107711
v 0.634462 5.063768 0.132964
v -0.074922 0.000000 0.100000
v -0.100000 -0.000000 0.074995
v -0.026228 4.000000 0.072896
v -0.051214 4.000000 0.047912
v -0.100000 0.000000 -0.674976
v -0.074999 -0.000000 -0.700000
v 0.700000 0.000000 0.074987
v 0.674927 0.000000 0.100000
v 0.674948 0.000000 -0.700000
v 0.700000 0.000000 -0.674972
v 0.750126 4.000000 -0.805355
v 0.775093 4.000000 -0.780328
v -0.012027 1.039885 0.046841
v -0.038850 1.041465 0.021411
v 0.007563 2.034553 0.003609
v -0.019722 2.035648 -0.022640
v -0.033282 3.000000 -0.005503
v -0.008066 3.000000 0.020512
v -0.040716 3.000000 -0.738439
v -0.015938 3.000000 -0.763470
v -0.056185 2.034631 -0.680512
v -0.078847 2.035648 -0.655595
v -0.087289 1.041465 -0.633274
v -0.064149 1.039982 -0.658230
v 0.787914 3.000000 -0.738441
v 0.762944 3.000000 -0.763470
v 0.795412 2.000000 -0.655483
v 0.770434 2.001016 -0.680512
v 0.735096 0.992527 -0.658230
v 0.760058 0.991045 -0.633202
v 0.787914 3.000000 0.028202
v 0.762942 3.000000 0.052190
v 0.770452 2.001095 0.045266
v 0.795412 2.000000 0.021615
v 0.760058 0.991045 0.037278
v 0.735085 0.992625 0.061792
vn -0.9995 -0.0295 -0.0129
vn -0.9983 -0.0419 -0.0399
vn -0.9983 -0.0420 -0.0395
vn -0.9995 -0.0291 -0.0125
vn 0.9984 0.0564 0.0058
vn 0.9971 0.0719 0.0231
vn 0.9972 0.0706 0.0237
vn 0.9984 0.0566 0.0058
vn -0.9987 -0.0300 -0.0415
vn -0.9986 -0.0313 -0.0426
vn -0.9996 0.0169 -0.0224
vn -0.9981 0.0604 -0.0088
vn -0.9996 0.0205 -0.0213
vn 0.9979 -0.0387 0.0518
vn 0.9964 -0.0738 0.0410
vn 0.9979 -0.0403 0.0513
vn 0.0092 0.0367 -0.9993
vn 0.0119 0.0363 -0.9993
vn 0.0117 0.0364 -0.9993
vn 0.0083 0.0373 -0.9993
vn -0.0343 -0.0247 0.9991
vn -0.0094 -0.0470 0.9989
vn -0.0086 -0.0477 0.9988
vn -0.0341 -0.0249 0.9991
vn -0.9988 0.0356 0.0344
vn -0.9980 0.0264 0.0582
vn -0.9979 0.0262 0.0587
vn 0.9987 0.0197 0.0480
vn 0.9986 0.0189 0.0484
vn 0.0058 0.0414 -0.9991
vn -0.0071 0.0190 -0.9998
vn -0.0081 0.0151 -0.9999
vn -0.0009 -0.0632 -0.9980
vn -0.0074 -0.0249 -0.9997
vn -0.0070 -0.0256 -0.9996
vn -0.0009 -0.0631 -0.9980
vn -0.0002 -0.0507 0.9987
vn -0.0034 -0.0043 1.0000
vn -0.0033 0.0060 1.0000
vn -0.0007 -0.0493 0.9988
vn -0.0031 0.0452 0.9990
vn -0.0031 0.0449 0.9990
vn -0.9997 -0.0002 0.0262
vn -0.9997 -0.0005 0.0258
vn 0.9999 0.0103 -0.0000
vn 0.9999 0.0102 -0.0000
vn 0.0013 0.0410 -0.9992
vn -0.0000 0.0084 -1.0000
vn 0.0001 0.0096 -1.0000
vn -0.9977 0.0155 0.0661
vn -0.9977 0.0155 0.0654
vn -0.0014 -0.0535 -0.9986
vn -0.0014 -0.0527 -0.9986
vn 0.9989 -0.0478 -0.0000
vn 0.9999 -0.0131 -0.0000
vn 0.9999 -0.0138 -0.0000
vn 0.9988 -0.0480 -0.0000
vn 0.9982 -0.0605 -0.0000
vn -0.0085 0.0454 0.9989
vn -0.0220 0.0382 0.9990
vn -0.0224 0.0380 0.9990
vn -0.0418 0.0095 0.9991
vn -0.0421 0.0085 0.9991
vn -0.0030 0.0450 0.9990
vn -0.0031 0.0464 0.9989
vn -0.9981 0.0604 -0.0089
vn -0.9995 0.0203 -0.0223
vn -0.0072 0.0171 -0.9998
vn -0.0071 -0.0250 -0.9997
vn -0.9995 -0.0292 -0.0121
vn -0.9983 -0.0419 -0.0395
vn -0.0006 -0.0500 0.9988
vn -0.0090 -0.0475 0.9988
vn 0.9984 0.0558 0.0047
vn 0.9972 0.0712 0.0228
vn -0.0004 -0.0499 0.9988
vn -0.0024 0.0009 1.0000
vn -0.9987 -0.0304 -0.0420
vn -0.9983 -0.0420 -0.0396
vn 0.0119 0.0364 -0.9993
vn -0.9996 0.0194 -0.0206
vn 0.0087 0.0371 -0.9993
vn -0.9987 -0.0305 -0.0419
vn 0.9964 -0.0738 0.0411
vn 0.9978 -0.0407 0.0519
vn 0.0118 0.0363 -0.9993
vn 0.0057 0.0414 -0.9991
vn 0.9986 0.0192 0.0487
vn 0.0086 0.0370 -0.9993
vn 0.9971 0.0718 0.0237
vn -0.0079 0.0175 -0.9998
vn -0.0032 0.0464 0.9989
vn -0.0031 0.0450 0.9990
vn 0.9979 -0.0400 0.0507
vn 0.9964 -0.0738 0.0409
vn -0.0044 0.0009 1.0000
vn 0.9987 0.0186 0.0480
vn -0.0341 -0.0246 0.9991
vn -0.0088 -0.0473 0.9988
vn -0.9995 -0.0287 -0.0124
vn -0.9996 0.0004 0.0266
vn 0.0006 0.0094 -1.0000
vn -0.9988 0.0356 0.0345
vn -0.9979 0.0264 0.0589
vn 0.9989 -0.0478 0.0001
vn 0.9982 -0.0605 0.0001
vn 0.0012 0.0411 -0.9992
vn -0.0004 0.0094 -1.0000
vn -0.0222 0.0382 0.9990
vn -0.0086 0.0454 0.9989
vn 0.9989 -0.0477 -0.0001
vn -0.0085 0.0455 0.9989
vn -0.0221 0.0380 0.9990
vn -0.9979 0.0259 0.0588
vn -0.0416 0.0089 0.9991
vn -0.9977 0.0154 0.0659
vn -0.0006 -0.0630 -0.9980
vn -0.0010 -0.0533 -0.9986
vn -0.9977 0.0156 0.0660
vn -0.9996 -0.0002 0.0268
vn 0.9984 0.0553 0.0066
vn 0.9999 0.0101 -0.0000
vn -0.0011 -0.0629 -0.9980
vn -0.0074 -0.0252 -0.9997
vn 0.9999 -0.0138 0.0003
vn -0.0019 -0.0532 -0.9986
vn -0.0343 -0.0249 0.9991
vn -0.0422 0.0092 0.9991
vn 0.9999 -0.0137 -0.0003
vn 0.9999 0.0102 -0.0001
vt 0.501347 0.477230
vt 0.635700 0.480709
vt 0.635700 0.478370
vt 0.501347 0.438951
vt 0.629148 0.443363
vt 0.629148 0.444274
vt 0.635700 0.480709
vt 0.771160 0.482627
vt 0.761328 0.480651
vt 0.855346 0.482785
vt 0.982695 0.479490
vt 0.982695 0.479490
vt 0.862214 0.481971
vt 0.862556 0.444356
vt 0.982695 0.442430
vt 0.867202 0.447242
vt 0.761328 0.480651
vt 0.760898 0.479436
vt 0.862417 0.480788
vt 0.862417 0.445432
vt 0.756352 0.446194
vt 0.381009 0.439514
vt 0.501347 0.440109
vt 0.501347 0.476073
vt 0.381009 0.475231
vt 0.019998 0.479490
vt 0.145325 0.476657
vt 0.145325 0.478901
vt 0.756193 0.445089
vt 0.756193 0.447123
vt 0.862417 0.480788
vt 0.982695 0.478332
vt 0.982695 0.443592
vt 0.862417 0.445432
vt 0.862556 0.444356
vt 0.756193 0.447123
vt 0.635482 0.477143
vt 0.760898 0.479436
vt 0.756352 0.446194
vt 0.629366 0.444501
vt 0.381009 0.475596
vt 0.501347 0.476071
vt 0.501347 0.440108
vt 0.381009 0.439514
vt 0.629357 0.445466
vt 0.756696 0.448352
vt 0.770931 0.481515
vt 0.635491 0.479611
vt 0.866938 0.448500
vt 0.855542 0.481643
vt 0.770931 0.481515
vt 0.381009 0.476400
vt 0.501347 0.477230
vt 0.381009 0.476744
vt 0.635491 0.479611
vt 0.381009 0.438357
vt 0.019998 0.478332
vt 0.145146 0.477829
vt 0.139436 0.440804
vt 0.019998 0.443590
vt 0.264962 0.475771
vt 0.264962 0.478510
vt 0.264840 0.477460
vt 0.381009 0.475596
vt 0.381009 0.439514
vt 0.260794 0.439167
vt 0.145325 0.476657
vt 0.264962 0.475771
vt 0.139258 0.439647
vt 0.260672 0.438010
vt 0.260672 0.438010
vt 0.019998 0.442430
vt 0.139258 0.439647
vt 0.381009 0.438357
vt 0.145146 0.477829
vt 0.264840 0.477460
vt 0.260794 0.439167
vt 0.019998 0.443591
vt 0.139448 0.440804
vt 0.145135 0.475415
vt 0.019998 0.478328
vt 0.139448 0.440804
vt 0.260804 0.439166
vt 0.264830 0.474507
vt 0.145135 0.475415
vt 0.264830 0.474507
vt 0.855542 0.481643
vt 0.982695 0.478335
vt 0.982695 0.443585
s 1
f 40/1/1 13/2/2 23/3/3 4/1/4
f 48/4/5 29/5/6 35/6/7 8/4/8
f 13/7/2 16/8/9 22/9/10 23/3/3
f 17/10/11 1/11/12 6/12/12 20/13/13
f 25/14/14 11/15/15 10/15/15 32/16/16
f 16/8/9 17/10/11 20/13/13 22/17/10
f 21/18/17 19/19/18 26/20/19 28/21/20
f 68/22/21 7/23/22 39/24/23 54/25/24
f 38/26/25 50/27/26 59/28/27 41/26/25
f 29/5/6 27/29/28 34/30/29 35/6/7
f 19/31/18 5/32/30 12/33/30 26/34/19
f 27/29/28 25/35/14 32/16/16 34/36/29
f 24/37/31 21/38/17 28/39/20 30/40/32
f 56/41/33 3/42/34 47/43/35 62/44/36
f 36/45/37 33/46/38 15/47/39 14/48/40
f 33/46/38 31/49/41 18/50/42 15/51/39
f 3/42/34 24/37/31 30/40/32 47/43/35
f 53/52/43 40/53/1 4/1/4 55/54/44
f 7/23/22 36/45/37 14/55/40 39/24/23
f 61/56/45 48/4/5 8/4/8 67/56/46
f 42/57/47 60/58/48 65/59/49 45/60/47
f 52/61/50 53/52/43 55/54/44 58/62/51
f 57/63/52 56/64/33 62/65/36 64/66/53
f 50/67/26 52/68/50 58/62/51 59/28/27
f 66/69/54 63/70/55 70/71/56 71/69/57
f 46/72/58 66/69/54 71/73/57 43/72/58
f 63/71/55 61/74/45 67/56/46 70/71/56
f 60/75/48 57/76/52 64/77/53 65/59/49
f 44/78/59 72/79/60 49/80/61 37/81/59
f 72/82/60 69/83/62 51/84/63 49/85/61
f 69/83/62 68/22/21 54/25/24 51/86/63
f 18/87/64 2/88/65 1/11/66 17/10/67
f 24/37/68 3/42/69 4/1/70 23/3/71
f 36/45/72 7/23/73 8/4/74 35/6/75
f 14/48/76 15/47/77 16/8/78 13/7/79
f 15/51/77 18/50/64 17/10/67 16/8/78
f 5/32/30 19/31/80 20/13/81 6/12/12
f 19/19/80 21/18/82 22/17/83 20/13/81
f 21/38/82 24/37/68 23/3/71 22/9/83
f 11/15/84 25/14/85 26/34/86 12/33/87
f 25/35/85 27/29/88 28/21/89 26/20/86
f 27/29/88 29/5/90 30/40/91 28/39/89
f 9/89/92 31/49/93 32/16/94 10/15/95
f 31/49/93 33/46/96 34/36/97 32/16/94
f 33/46/96 36/45/72 35/6/75 34/30/97
f 54/25/98 39/24/99 40/53/100 53/52/101
f 60/58/102 42/57/47 41/26/103 59/28/104
f 66/69/105 46/72/106 45/60/107 65/59/108
f 72/79/109 44/78/110 43/72/58 71/73/111
f 37/81/112 49/80/113 50/27/114 38/26/25
f 49/85/113 51/84/115 52/68/116 50/67/114
f 51/86/115 54/25/98 53/52/101 52/61/116
f 56/64/117 57/63/118 58/62/119 55/54/120
f 57/76/118 60/75/102 59/28/104 58/62/119
f 48/4/121 61/56/122 62/44/123 47/43/124
f 61/74/122 63/71/125 64/66/126 62/65/123
f 63/70/125 66/69/105 65/59/108 64/77/126
f 68/22/127 69/83/128 70/71/129 67/56/130
f 69/83/128 72/82/109 71/69/111 70/71/129
f 29/5/90 48/4/121 47/43/124 30/40/91
f 39/24/99 14/55/76 13/2/79 40/1/100
f 3/42/69 56/41/117 55/54/120 4/1/70
f 7/23/73 68/22/127 67/56/130 8/4/74
f 31/49/41 9/89/92 2/88/92 18/87/42
