# Blender 4.4.1
# www.blender.org
o M_BS_White_Embellishment_Framing_Inner_Corner
v -1.000000 -0.215368 -1.000000
v -1.000000 0.215368 -1.000000
v 1.000000 -0.215368 1.000000
v 1.000000 0.215368 1.000000
v 1.000000 0.215368 -1.000000
v 1.000000 -0.215368 -1.000000
v 1.000000 -0.215368 -0.400000
v 1.000000 0.215368 -0.400000
v 0.400000 0.215368 -1.000000
v 0.400000 -0.215368 -1.000000
v -1.000000 -0.215368 0.175000
v -1.000000 -0.190368 0.200000
v -1.000000 0.190368 0.300000
v -1.000000 0.215368 0.275000
v -1.000000 -0.025000 0.200000
v -1.000000 0.018319 0.217012
v -1.000000 0.089365 0.282988
v -1.000000 0.132684 0.300000
v -0.200000 -0.190368 1.000000
v -0.175000 -0.215368 1.000000
v -0.275000 0.215368 1.000000
v -0.300000 0.190368 1.000000
v -0.217012 0.018319 1.000000
v -0.200000 -0.025000 1.000000
v -0.300000 0.132684 1.000000
v -0.282988 0.089365 1.000000
v -0.817012 0.018319 0.786773
v -0.800000 -0.025000 0.775000
v -0.775000 -0.025000 0.800000
v -0.786773 0.018319 0.817012
v -0.852749 0.089365 0.882988
v -0.875000 0.132684 0.900000
v -0.900000 0.132684 0.875000
v -0.882988 0.089365 0.852749
v -0.775000 -0.190368 0.800000
v -0.800000 -0.190368 0.775000
v -0.775000 -0.215368 0.775000
v -0.875000 0.190368 0.900000
v -0.875000 0.215368 0.875000
v -0.900000 0.190368 0.875000
v -0.325000 0.190368 0.900000
v -0.300000 0.190368 0.925000
v -0.275000 0.215368 0.875000
v -0.225000 -0.190368 0.800000
v -0.175000 -0.215368 0.775000
v -0.200000 -0.190368 0.825000
v -0.282988 0.089365 0.913227
v -0.300000 0.132684 0.925000
v -0.325000 0.132684 0.900000
v -0.313227 0.089365 0.882988
v -0.247251 0.018319 0.817012
v -0.225000 -0.025000 0.800000
v -0.200000 -0.025000 0.825000
v -0.217012 0.018319 0.847251
v -0.900000 0.132684 0.325000
v -0.925000 0.132684 0.300000
v -0.913227 0.089365 0.282988
v -0.882988 0.089365 0.313227
v -0.825000 -0.025000 0.200000
v -0.800000 -0.025000 0.225000
v -0.817012 0.018319 0.247251
v -0.847251 0.018319 0.217012
v -0.875000 0.215368 0.275000
v -0.925000 0.190368 0.300000
v -0.900000 0.190368 0.325000
v -0.800000 -0.190368 0.225000
v -0.825000 -0.190368 0.200000
v -0.775000 -0.215368 0.175000
vn -0.0000 -0.0000 1.0000
vn -0.7328 -0.6805 -0.0000
vn -0.0000 1.0000 -0.0000
vn -1.0000 -0.0000 -0.0000
vn -0.0000 -1.0000 -0.0000
vn -0.0000 -0.6805 0.7328
vn 0.0001 -0.0000 1.0000
vn -0.0001 -0.0000 1.0000
vn -1.0000 -0.0000 0.0001
vn -1.0000 -0.0000 -0.0001
vn -0.0000 -0.6805 0.7327
vn -0.7328 -0.6804 -0.0000
vn -0.0000 -0.6804 0.7328
vn -1.0000 -0.0003 -0.0000
vn -1.0000 0.0002 -0.0000
vn -0.0000 -0.0001 1.0000
vt 0.570260 0.347249
vt 0.576344 0.278625
vt 0.585470 0.279019
vt 0.576922 0.347835
vt 0.584177 0.203987
vt 0.594648 0.201718
vt 0.607951 0.272357
vt 0.593163 0.272275
vt 0.463773 0.388724
vt 0.380335 0.274938
vt 0.570132 0.275330
vt 0.565112 0.350856
vt 0.599439 0.352346
vt 0.615349 0.279655
vt 0.639654 0.279984
vt 0.623724 0.356482
vt 0.600907 0.199942
vt 0.625275 0.196279
vt 0.639721 0.273093
vt 0.615414 0.272955
vt 0.464964 0.162001
vt 0.566074 0.200808
vt 0.570132 0.275330
vt 0.628735 0.361652
vt 0.646693 0.276607
vt 0.834182 0.278420
vt 0.725732 0.412952
vt 0.571284 0.204460
vt 0.578200 0.204007
vt 0.585523 0.272775
vt 0.576391 0.272407
vt 0.630386 0.191207
vt 0.728366 0.141798
vt 0.646693 0.276607
vt 0.596236 0.367029
vt 0.598406 0.357115
vt 0.622690 0.361400
vt 0.620517 0.371831
vt 0.468165 0.394712
vt 0.564287 0.363195
vt 0.580216 0.364178
vt 0.581625 0.354641
vt 0.592000 0.356254
vt 0.590034 0.365867
vt 0.568844 0.362848
vt 0.569672 0.353490
vt 0.576180 0.354088
vt 0.575012 0.363472
vt 0.582795 0.347980
vt 0.593090 0.279908
vt 0.607876 0.280109
vt 0.593217 0.350450
vt 0.626185 0.373546
vt 0.628735 0.361652
vt 0.720024 0.420032
vt 0.597988 0.185195
vt 0.622366 0.180867
vt 0.624336 0.191340
vt 0.599966 0.195152
vt 0.469418 0.156057
vt 0.565406 0.188636
vt 0.581910 0.187734
vt 0.591762 0.186236
vt 0.593543 0.195889
vt 0.583135 0.197301
vt 0.570093 0.189007
vt 0.576565 0.188389
vt 0.577566 0.197767
vt 0.570787 0.198272
vt 0.628067 0.179262
vt 0.722797 0.134607
s 0
f 41/1/1 38/2/1 32/3/1 49/4/1
f 58/5/2 61/6/2 27/7/2 34/8/2
f 8/9/3 5/10/3 39/11/3 43/12/3
f 52/13/1 29/14/1 35/15/1 44/16/1
f 60/17/4 66/18/4 36/19/4 28/20/4
f 9/21/3 63/22/3 39/23/3 5/10/3
f 45/24/5 37/25/5 6/26/5 7/27/5
f 65/28/4 55/29/4 33/30/4 40/31/4
f 68/32/5 10/33/5 6/26/5 37/34/5
f 24/35/4 53/36/4 46/37/4 19/38/4
f 4/39/3 8/9/3 43/12/3 21/40/3
f 26/41/2 47/42/2 54/43/2 23/44/2
f 22/45/4 42/46/4 48/47/4 25/48/4
f 50/49/6 31/50/6 30/51/6 51/52/6
f 20/53/5 45/54/5 7/27/5 3/55/5
f 15/56/1 12/57/1 67/58/1 59/59/1
f 2/60/3 14/61/3 63/22/3 9/21/3
f 17/62/6 16/63/6 62/64/6 57/65/6
f 13/66/1 18/67/1 56/68/1 64/69/1
f 27/7/2 28/20/4 29/14/7 30/51/6
f 31/50/6 32/3/1 33/30/4 34/8/2
f 35/15/1 36/19/4 37/25/5
f 38/2/1 39/23/3 40/31/4
f 41/1/8 42/46/4 43/12/3
f 44/16/1 45/54/5 46/37/9
f 47/42/2 48/47/10 49/4/1 50/49/11
f 51/52/6 52/13/1 53/36/4 54/43/2
f 55/29/10 56/68/1 57/65/11 58/5/2
f 59/59/1 60/17/4 61/6/2 62/64/6
f 63/22/3 64/69/8 65/28/4
f 66/18/9 67/58/1 68/32/5
f 30/51/6 31/50/6 34/8/2 27/7/2
f 58/5/12 34/8/12 33/30/4 55/29/4
f 62/64/13 16/63/13 15/56/1 59/59/1
f 43/12/3 39/11/3 38/2/1 41/1/1
f 44/16/1 35/15/1 37/25/5 45/24/5
f 35/15/1 29/14/1 28/20/4 36/19/14
f 32/3/1 38/2/1 40/31/4 33/30/15
f 65/28/4 40/31/4 39/23/3 63/22/3
f 68/32/5 37/34/5 36/19/4 66/18/4
f 47/42/12 26/41/12 25/48/4 48/47/4
f 51/52/13 30/51/13 29/14/1 52/13/1
f 21/40/3 43/12/3 42/46/4 22/45/4
f 19/38/4 46/37/4 45/54/5 20/53/5
f 31/50/13 50/49/13 49/4/16 32/3/16
f 23/44/12 54/43/12 53/36/4 24/35/4
f 52/13/1 44/16/1 46/37/4 53/36/4
f 41/1/1 49/4/1 48/47/4 42/46/4
f 50/49/6 51/52/6 54/43/2 47/42/2
f 17/62/13 57/65/13 56/68/1 18/67/1
f 27/7/12 61/6/12 60/17/4 28/20/4
f 13/66/1 64/69/1 63/22/3 14/61/3
f 11/70/5 68/32/5 67/58/1 12/57/1
f 61/6/2 58/5/2 57/65/6 62/64/6
f 66/18/4 60/17/4 59/59/1 67/58/1
f 55/29/4 65/28/4 64/69/1 56/68/1
f 11/70/5 1/71/5 10/33/5 68/32/5
