# Blender 4.4.1
# www.blender.org
o M_BS_White_Embellishment_Bottom_Framing_1
v -0.000000 0.000000 0.110000
v 0.000000 0.400000 0.000000
v 3.000000 0.000000 0.110000
v 3.000000 0.400000 0.000000
v 2.400000 0.000000 0.105609
v 1.799999 0.000000 0.090931
v 1.200000 0.000000 0.090931
v 0.600000 0.000000 0.105609
v 0.600000 0.383161 0.000000
v 1.200000 0.414877 0.000000
v 1.800000 0.429753 0.000000
v 2.400000 0.385124 0.000000
v 0.000000 0.000000 0.000000
v -0.000000 0.134976 0.110000
v -0.000000 0.181036 0.096448
v -0.000000 0.374976 0.060000
v -0.000000 0.400000 0.034997
v -0.000000 0.216574 0.073552
v -0.000000 0.262635 0.060000
v 3.000000 0.181038 0.096447
v 3.000000 0.134974 0.110000
v 3.000000 0.400000 0.034997
v 3.000000 0.374974 0.060000
v 3.000000 0.262636 0.060000
v 3.000000 0.216573 0.073554
v 2.400000 0.166162 0.092055
v 2.400000 0.120097 0.105609
v 1.799999 0.210791 0.077377
v 1.799999 0.164726 0.090931
v 1.200000 0.195914 0.077377
v 1.200000 0.149851 0.090931
v 0.600000 0.118136 0.105609
v 0.600000 0.164197 0.092056
v 0.600000 0.199734 0.069162
v 0.600000 0.245796 0.055609
v 1.200000 0.231449 0.054484
v 1.200000 0.277512 0.040931
v 1.800000 0.246325 0.054484
v 1.800000 0.292390 0.040931
v 2.400000 0.247761 0.055609
v 2.400000 0.201696 0.069163
v 2.400000 0.385124 0.030606
v 2.400000 0.360097 0.055609
v 1.800000 0.429753 0.015927
v 1.799999 0.404726 0.040931
v 1.200000 0.414877 0.015927
v 1.200000 0.389851 0.040931
v 0.600000 0.358136 0.055609
v 0.600000 0.383161 0.030606
vn -0.0157 -0.0000 0.9999
vn -0.0073 -0.0000 1.0000
vn -0.0160 -0.0000 0.9999
vn -0.0003 0.5416 0.8406
vn -0.0196 0.5415 0.8405
vn 0.0004 0.5416 0.8406
vn 0.0034 0.5416 0.8406
vn 0.0028 0.5416 0.8406
vn 0.0242 0.9997 -0.0000
vn -0.0248 0.9997 -0.0000
vn 0.0247 0.9997 -0.0000
vn 0.0281 0.9996 -0.0000
vn -0.0120 0.9999 -0.0000
vn -0.0124 0.9999 -0.0000
vn 0.0125 -0.0000 0.9999
vn -0.0124 -0.0000 0.9999
vn -0.0120 -0.0000 0.9999
vn 0.0119 -0.0000 0.9999
vn 0.0251 0.9997 -0.0000
vn -0.0159 -0.0000 0.9999
vn -0.0389 0.9992 -0.0000
vn -0.0388 0.9992 -0.0000
vn 0.0213 0.5415 0.8405
vn 0.0068 0.5416 0.8406
vn 0.0065 0.5416 0.8406
vn 0.0158 -0.0000 0.9999
vn 0.0160 -0.0000 0.9999
vn -0.0107 0.5416 0.8406
vn -0.0108 0.5416 0.8406
vn 0.0073 -0.0000 1.0000
vn 0.0159 -0.0000 0.9999
vn 0.0122 -0.0000 0.9999
vn -0.0122 -0.0000 0.9999
vn 0.0067 0.5418 0.8405
vn 0.0213 0.5414 0.8405
vn 0.0159 -0.0001 0.9999
vn 0.0001 0.5421 0.8403
vn -0.0159 -0.0001 0.9999
vn -0.0124 0.9999 -0.0009
vn 0.0074 -0.0000 1.0000
vn -0.0000 0.5421 0.8403
vn 0.0031 0.5419 0.8404
vn -0.0122 -0.0002 0.9999
vn -0.0108 0.5415 0.8406
vn 0.0122 -0.0002 0.9999
vn 0.0066 0.5418 0.8405
vn -0.0107 0.5415 0.8406
vn 0.0247 0.9997 -0.0012
vn -0.0158 -0.0001 0.9999
vn -0.0073 -0.0001 1.0000
vn 0.0247 0.9997 -0.0013
vn -0.0122 -0.0001 0.9999
vn -0.0388 0.9992 -0.0001
vn 0.0122 -0.0001 0.9999
vt 0.413612 0.299407
vt 0.441407 0.301197
vt 0.441407 0.314715
vt 0.413612 0.312925
vt 0.413612 0.289587
vt 0.441407 0.291378
vt 0.441407 0.295654
vt 0.413612 0.293864
vt 0.385816 0.294958
vt 0.413612 0.289587
vt 0.385816 0.299234
vt 0.413612 0.315937
vt 0.441407 0.317727
vt 0.441407 0.317727
vt 0.302430 0.317727
vt 0.330225 0.315700
vt 0.330225 0.315701
vt 0.358021 0.302987
vt 0.385816 0.304777
vt 0.385816 0.318296
vt 0.358021 0.316506
vt 0.385816 0.321307
vt 0.413612 0.315937
vt 0.413612 0.269592
vt 0.441407 0.269592
vt 0.441407 0.285834
vt 0.413612 0.284044
vt 0.358021 0.319517
vt 0.358021 0.319517
vt 0.302430 0.291377
vt 0.330225 0.289351
vt 0.330225 0.293627
vt 0.302430 0.295654
vt 0.330225 0.299170
vt 0.330225 0.312689
vt 0.358021 0.293168
vt 0.358021 0.297444
vt 0.330225 0.293627
vt 0.358021 0.297444
vt 0.302430 0.301197
vt 0.302430 0.314716
vt 0.330225 0.269592
vt 0.358021 0.269592
vt 0.358021 0.287625
vt 0.330225 0.283808
vt 0.385816 0.269592
vt 0.385816 0.289415
vt 0.413612 0.284044
vt 0.385816 0.289415
vt 0.302430 0.285835
vt 0.330225 0.283808
vt 0.302430 0.269592
s 1
f 40/1/1 24/2/2 23/3/2 43/4/3
f 26/5/4 20/6/5 25/7/5 41/8/6
f 28/9/7 26/10/4 41/8/6 38/11/8
f 42/12/9 22/13/10 4/14/10 12/12/11
f 17/15/12 49/16/13 9/17/14 2/15/12
f 37/18/15 39/19/16 45/20/17 47/21/18
f 39/19/16 40/1/1 43/4/3 45/20/17
f 44/22/19 42/23/9 12/12/11 11/22/11
f 5/24/20 3/25/2 21/26/2 27/27/3
f 49/17/13 46/28/21 10/28/22 9/17/14
f 46/29/21 44/22/19 11/22/11 10/28/22
f 15/30/23 33/31/24 34/32/25 18/33/23
f 35/34/26 37/18/15 47/21/18 48/35/27
f 33/31/24 30/36/28 36/37/29 34/38/25
f 30/36/28 28/9/7 38/11/8 36/39/29
f 19/40/30 35/34/26 48/35/27 16/41/30
f 8/42/31 7/43/32 31/44/18 32/45/27
f 7/43/32 6/46/33 29/47/17 31/44/18
f 6/46/33 5/24/20 27/48/3 29/49/17
f 33/31/34 15/30/35 14/50/30 32/51/36
f 41/8/37 25/7/5 24/2/2 40/1/38
f 49/16/39 17/15/12 16/41/40 48/35/36
f 20/6/5 26/5/41 27/27/38 21/26/2
f 26/10/41 28/9/42 29/49/43 27/48/38
f 28/9/42 30/36/44 31/44/45 29/47/43
f 30/36/44 33/31/34 32/45/36 31/44/45
f 18/33/35 34/32/46 35/34/36 19/40/30
f 34/38/46 36/37/47 37/18/45 35/34/36
f 36/39/47 38/11/42 39/19/43 37/18/45
f 38/11/42 41/8/37 40/1/38 39/19/43
f 22/13/10 42/12/48 43/4/49 23/3/50
f 42/23/48 44/22/51 45/20/52 43/4/49
f 44/22/51 46/29/53 47/21/54 45/20/52
f 46/28/53 49/17/39 48/35/36 47/21/54
f 1/52/30 8/42/31 32/51/27 14/50/30
l 1 13
