# Blender 4.4.1
# www.blender.org
o M_BS_White_Embellishment_Framing_1_3
v 0.000000 -0.215368 -1.000000
v 0.000000 0.215368 -1.000000
v 3.000000 -0.215368 -1.000000
v 3.000000 0.215368 -1.000000
v 1.000000 0.248701 -1.000000
v 2.104304 0.224518 -1.000000
v 2.000000 -0.235843 -1.000000
v 0.999587 -0.240211 -1.000000
v 0.000000 -0.215368 0.174968
v 0.000000 -0.190309 0.200000
v 0.000000 0.190361 0.300000
v -0.000000 0.215368 0.274971
v 0.000000 -0.025045 0.200000
v 0.000000 0.018341 0.217032
v 0.000000 0.089343 0.282968
v 0.000000 0.132692 0.300000
v 3.000000 -0.190478 0.200000
v 3.000000 -0.215368 0.174970
v 3.000000 0.215368 0.274973
v 3.000000 0.190362 0.300000
v 3.000000 0.018339 0.217030
v 3.000000 -0.024926 0.200000
v 3.000000 0.132691 0.300000
v 3.000000 0.089345 0.282970
v 2.104304 0.224518 0.254893
v 2.104304 0.199512 0.279921
v 1.000000 0.223694 0.348891
v 1.000000 0.248701 0.323862
v 2.104304 0.141841 0.279921
v 2.104304 0.098495 0.262890
v 1.000000 0.122677 0.331859
v 1.000000 0.166024 0.348891
v 2.010687 -0.210740 0.179921
v 2.000000 -0.235843 0.154890
v 0.999587 -0.240211 0.223859
v 0.999625 -0.215150 0.248891
v 0.999962 0.008285 0.248891
v 1.000000 0.051674 0.265923
v 2.104304 0.027490 0.196952
v 2.093740 -0.015664 0.179921
vn 0.0195 -0.0000 0.9998
vn -0.0224 -0.0000 0.9997
vn 0.0204 -0.0000 0.9998
vn 0.0033 -0.6805 0.7328
vn -0.0234 -0.6803 0.7326
vn 0.0042 -0.6805 0.7328
vn 0.0161 0.9999 -0.0000
vn 0.0102 0.9999 -0.0000
vn 0.0335 -0.0064 0.9994
vn -0.0212 0.0049 0.9998
vn 0.0115 -0.0019 0.9999
vn -0.0058 1.0000 -0.0000
vn -0.0057 1.0000 -0.0000
vn 0.0124 -0.9999 -0.0000
vn 0.0205 -0.9998 -0.0000
vn 0.0123 -0.9999 -0.0000
vn 0.0085 -0.0065 0.9999
vn -0.0488 -0.0000 0.9988
vn -0.0333 0.9994 -0.0000
vn -0.0102 -0.9999 -0.0000
vn -0.0103 -0.9999 -0.0000
vn -0.0131 -0.6804 0.7327
vn 0.0089 -0.6805 0.7327
vn 0.0088 -0.6805 0.7327
vn 0.0066 -0.0000 1.0000
vn 0.0070 -0.0000 1.0000
vn -0.0057 1.0000 -0.0004
vn -0.0488 -0.0001 0.9988
vn 0.0068 -0.0016 1.0000
vn 0.0068 0.0039 1.0000
vn 0.0089 -0.6809 0.7323
vn 0.0086 -0.0048 1.0000
vn -0.0489 0.0001 0.9988
vn -0.0248 -0.9997 -0.0001
vn -0.0102 -0.9999 -0.0002
vn 0.0230 -0.0017 0.9997
vn -0.0227 0.0048 0.9997
vn 0.0037 -0.6811 0.7321
vn 0.0160 0.9999 -0.0000
vn 0.0200 -0.0009 0.9998
vn 0.0199 0.0023 0.9998
vn 0.0038 -0.6811 0.7321
vn 0.0224 -0.0031 0.9997
vn 0.0125 -0.9999 -0.0001
vn 0.0092 -0.0024 1.0000
vn 0.0088 -0.6809 0.7323
vn -0.0248 -0.9997 -0.0000
vt 0.909495 0.406998
vt 0.950989 0.405897
vt 0.950989 0.412837
vt 0.909495 0.413938
vt 0.909495 0.393237
vt 0.950989 0.392136
vt 0.950989 0.400681
vt 0.909495 0.401782
vt 0.909495 0.416947
vt 0.950989 0.415846
vt 0.905158 0.364569
vt 0.950989 0.367008
vt 0.950989 0.386930
vt 0.909006 0.388044
vt 0.858338 0.419857
vt 0.909495 0.416947
vt 0.904663 0.361548
vt 0.950989 0.364013
vt 0.858320 0.364039
vt 0.905158 0.364569
vt 0.858336 0.390926
vt 0.812012 0.367028
vt 0.858320 0.364039
vt 0.812012 0.386915
vt 0.812012 0.415846
vt 0.858319 0.361023
vt 0.812012 0.392136
vt 0.858338 0.396147
vt 0.858338 0.404692
vt 0.812012 0.400681
vt 0.909495 0.401782
vt 0.812012 0.405897
vt 0.858338 0.409908
vt 0.858338 0.416848
vt 0.812012 0.412837
vt 0.858338 0.409908
vt 0.909495 0.406998
vt 0.909495 0.413938
vt 0.858338 0.416848
vt 0.812012 0.364013
s 1
f 29/1/1 23/2/2 20/3/2 26/4/3
f 39/5/4 21/6/5 24/7/5 30/8/6
f 25/9/7 19/10/8 4/10/8 6/9/7
f 33/11/9 17/12/10 22/13/10 40/14/11
f 28/15/12 25/16/7 6/9/7 5/15/13
f 7/17/14 3/18/15 18/18/15 34/17/16
f 36/19/17 33/20/9 40/14/11 37/21/17
f 10/22/18 36/23/17 37/21/17 13/24/18
f 12/25/19 28/15/12 5/15/13 2/25/19
f 8/26/20 7/17/14 34/17/16 35/26/21
f 14/27/22 38/28/23 31/29/24 15/30/22
f 38/28/23 39/5/4 30/31/6 31/29/24
f 16/32/18 32/33/25 27/34/26 11/35/18
f 32/36/25 29/37/1 26/38/3 27/39/26
f 28/15/27 12/25/19 11/35/28 27/34/29
f 32/33/30 16/32/18 15/30/22 31/29/31
f 36/23/32 10/22/33 9/40/34 35/26/35
f 40/14/36 22/13/37 21/6/5 39/5/38
f 19/10/8 25/9/39 26/4/40 20/3/2
f 25/16/39 28/15/27 27/39/29 26/38/40
f 23/2/2 29/1/41 30/8/42 24/7/5
f 29/37/41 32/36/30 31/29/31 30/31/42
f 17/12/10 33/11/43 34/17/44 18/18/15
f 33/20/43 36/19/32 35/26/35 34/17/44
f 13/24/18 37/21/45 38/28/46 14/27/22
f 37/21/45 40/14/36 39/5/38 38/28/46
f 1/40/47 8/26/20 35/26/21 9/40/47
