# Blender 4.4.1
# www.blender.org
o M_BS_White_Embellishment_Bottom_Inner_Corner_Framing
v -0.583078 0.430993 0.586607
v -0.757408 0.430993 0.775764
v -0.228598 0.400075 0.593598
v -0.300000 0.400075 0.740000
v -1.000001 0.000000 0.110000
v -1.000001 0.400000 0.000000
v -0.110000 0.000000 1.000000
v -0.000000 0.400000 1.000000
v -0.735981 0.400000 0.000000
v -0.000000 0.400000 0.740000
v -0.300000 0.000000 0.850000
v -0.593598 0.444018 0.000000
v -0.861887 0.000000 0.437500
v -0.000000 0.400000 0.593598
v -0.751887 0.419515 0.437403
v -0.589791 0.419515 0.348150
v -0.842458 0.165196 0.884192
v -0.825330 0.211243 0.870365
v -0.853821 0.209510 0.844962
v -0.867080 0.164286 0.860766
v -0.842458 0.000000 0.884192
v -0.867100 0.000000 0.860766
v -0.817048 0.405224 0.810767
v -0.792468 0.404479 0.834040
v -0.791301 0.430993 0.809657
v -0.817048 0.291821 0.810767
v -0.830234 0.246073 0.821399
v -0.802544 0.246536 0.847401
v -0.792468 0.292797 0.834040
v -0.300000 0.230298 0.813548
v -0.300000 0.276354 0.800000
v -0.300000 0.375052 0.800000
v -0.300000 0.400075 0.774970
v -1.000001 0.135000 0.110000
v -1.000001 0.181016 0.096460
v -1.000001 0.375000 0.060000
v -1.000001 0.400000 0.035000
v -1.000001 0.216594 0.073540
v -1.000001 0.262610 0.060000
v -0.096460 0.181016 1.000000
v -0.110000 0.135000 1.000000
v -0.035000 0.400000 1.000000
v -0.060000 0.375000 1.000000
v -0.060000 0.262610 1.000000
v -0.073540 0.216594 1.000000
v -0.870981 0.135000 0.110000
v -0.847101 0.134840 0.134975
v -0.833615 0.181220 0.125116
v -0.860873 0.181016 0.096460
v -0.110000 0.000000 0.875000
v -0.135000 0.000000 0.850000
v -0.135000 0.136766 0.850000
v -0.110000 0.135000 0.875000
v -0.096460 0.181016 0.864892
v -0.124381 0.182349 0.836881
v -0.085000 0.374986 0.800000
v -0.060000 0.375000 0.825000
v -0.035000 0.400000 0.825000
v -0.084992 0.400016 0.775000
v -0.085000 0.264067 0.800000
v -0.100897 0.218700 0.813203
v -0.073540 0.216594 0.841971
v -0.060000 0.262610 0.825000
v -0.300000 0.194753 0.836448
v -0.300000 0.148678 0.850000
v -0.847194 0.000000 0.134971
v -0.870981 -0.000000 0.110000
v -0.796994 0.376221 0.084979
v -0.772496 0.402496 0.084666
v -0.820981 0.400000 0.034480
v -0.820981 0.375000 0.060000
v -0.796994 0.262842 0.084979
v -0.820981 0.262610 0.060000
v -0.837952 0.216594 0.073540
v -0.810742 0.216728 0.102240
v -0.848707 0.181496 0.461608
v -0.861887 0.135100 0.460596
v -0.786704 0.419515 0.446107
v -0.811887 0.394494 0.452403
v -0.811887 0.265770 0.452403
v -0.825060 0.219543 0.455696
vn 0.0778 0.9953 0.0570
vn 0.0217 0.9997 0.0079
vn 0.0239 0.9997 0.0026
vn 0.0735 0.9962 0.0471
vn -0.8526 0.5202 -0.0496
vn -0.8519 0.5218 -0.0437
vn -0.8520 0.5216 -0.0445
vn 0.0219 0.9998 -0.0011
vn 0.0675 0.9972 0.0332
vn 0.0629 -0.0000 0.9980
vn -0.9999 -0.0000 -0.0144
vn -0.9996 -0.0000 -0.0271
vn -0.9996 -0.0000 -0.0278
vn -0.1202 0.9927 -0.0055
vn -0.0261 0.9986 -0.0467
vn -0.0228 0.9990 -0.0386
vn -0.0462 0.9984 -0.0332
vn -0.9989 0.0044 -0.0469
vn -0.9995 0.0029 -0.0316
vn -0.9996 0.0025 -0.0276
vn 0.0690 -0.0000 0.9976
vn -0.0000 -0.0000 1.0000
vn -1.0000 -0.0000 -0.0000
vn -0.0040 0.9999 -0.0100
vn -0.8406 0.5416 -0.0000
vn -0.8513 0.5233 -0.0386
vn -0.0000 1.0000 -0.0000
vn 0.0002 1.0000 0.0001
vn -0.9992 -0.0000 -0.0405
vn -0.0000 0.5416 0.8406
vn 0.0341 0.5355 0.8438
vn 0.0003 1.0000 0.0001
vn 0.0726 0.5255 0.8477
vn -0.1042 0.9945 -0.0111
vn -0.1419 0.9899 0.0041
vn -0.9999 0.0010 -0.0127
vn 0.0690 -0.0001 0.9976
vn 0.0098 0.9999 -0.0123
vn 0.0727 0.5221 0.8498
vn -0.9989 0.0043 -0.0469
vn -0.8513 0.5233 -0.0387
vn -1.0000 -0.0001 -0.0000
vn -0.8407 0.5416 -0.0001
vn 0.0342 0.5355 0.8438
vn -0.8406 0.5416 -0.0001
vn -0.9992 -0.0000 -0.0406
vn -0.0149 0.9995 -0.0285
vn 0.0001 0.5416 0.8407
vn -0.9999 0.0011 -0.0127
vn 0.0630 -0.0000 0.9980
vn 0.0717 0.5255 0.8478
vn -0.9996 0.0022 -0.0299
vn -0.8520 0.5217 -0.0441
vn -0.9996 -0.0001 -0.0274
vn -0.0232 0.9989 -0.0398
vn -0.9996 -0.0003 -0.0275
vn -0.0000 0.0001 1.0000
vn -0.0000 0.5415 0.8407
vn -1.0000 -0.0003 -0.0000
vn -0.8407 0.5416 -0.0000
vn -0.8407 0.5415 -0.0000
vn -1.0000 0.0001 -0.0000
vn 0.0341 0.5355 0.8439
vn -0.0000 0.0048 1.0000
vn -0.0000 0.5416 0.8407
vn -0.0038 0.5357 0.8444
vn 0.0001 -0.0000 1.0000
vn -0.0000 0.0002 1.0000
vn -0.9989 0.0035 -0.0469
vn -0.0041 0.9999 -0.0100
vn -0.0000 -0.0001 1.0000
vn 0.0003 1.0000 -0.0000
vn 0.0004 1.0000 0.0001
vn -0.0001 -0.0000 1.0000
vt 0.636820 0.323982
vt 0.552878 0.285276
vt 0.549841 0.229928
vt 0.636809 0.281675
vt 0.546596 0.173930
vt 0.545899 0.183974
vt 0.464341 0.214982
vt 0.461657 0.203961
vt 0.549086 0.222567
vt 0.641150 0.274539
vt 0.561335 0.121525
vt 0.683863 0.179791
vt 0.671018 0.213771
vt 0.558672 0.162381
vt 0.546042 0.194183
vt 0.544489 0.214986
vt 0.483072 0.253621
vt 0.468643 0.226412
vt 0.366606 0.354036
vt 0.380412 0.328100
vt 0.487778 0.265077
vt 0.490407 0.273602
vt 0.362267 0.215366
vt 0.358754 0.170859
vt 0.437262 0.149435
vt 0.456562 0.190215
vt 0.556209 0.194402
vt 0.657789 0.243797
vt 0.646994 0.264246
vt 0.553788 0.214820
vt 0.298600 0.252489
vt 0.352482 0.266882
vt 0.355612 0.311388
vt 0.290919 0.287633
vt 0.305681 0.171737
vt 0.344711 0.172483
vt 0.347064 0.216613
vt 0.304901 0.212577
vt 0.757403 0.226649
vt 0.725324 0.227982
vt 0.731180 0.193420
vt 0.758892 0.196141
vt 0.286483 0.301691
vt 0.348921 0.329136
vt 0.379584 0.320667
vt 0.282664 0.310428
vt 0.767004 0.281914
vt 0.716734 0.302790
vt 0.719588 0.266854
vt 0.760856 0.257780
vt 0.758849 0.246965
vt 0.721850 0.252271
vt 0.723739 0.240790
vt 0.757767 0.237745
vt 0.366235 0.247257
vt 0.364762 0.232133
vt 0.461657 0.203961
vt 0.774751 0.300038
vt 0.706948 0.338827
vt 0.721734 0.317021
vt 0.771030 0.292598
vt 0.695830 0.314776
vt 0.721051 0.312905
vt 0.371824 0.310968
vt 0.367267 0.266085
vt 0.468643 0.226412
vt 0.483072 0.253621
vt 0.303552 0.226783
vt 0.347914 0.233105
vt 0.349920 0.248123
vt 0.301513 0.238028
vt 0.708868 0.250986
vt 0.662783 0.233432
vt 0.666597 0.224676
vt 0.710232 0.239078
vt 0.712790 0.226348
vt 0.720141 0.191154
vt 0.487778 0.265077
vt 0.703341 0.301406
vt 0.707587 0.265691
vt 0.558535 0.174648
vt 0.666597 0.224676
vt 0.557927 0.184311
vt 0.496051 0.327207
vt 0.415213 0.384431
vt 0.547620 0.161745
vt 0.716352 0.310452
vt 0.372679 0.321110
vt 0.549095 0.120551
vt 0.456562 0.190215
s 1
f 3/1/1 1/2/2 2/3/3 4/4/4
f 19/5/5 27/6/5 81/7/6 76/8/7
f 25/9/8 33/10/9 4/4/4 2/3/3
f 21/11/10 11/12/10 65/13/10 17/14/10
f 26/15/11 23/16/11 79/17/12 80/18/13
f 9/19/14 69/20/15 78/21/16 15/22/17
f 47/23/18 66/24/18 13/25/19 77/26/20
f 29/27/21 31/28/21 32/29/21 24/30/21
s 0
f 39/31/22 73/32/22 71/33/22 36/34/22
f 5/35/22 67/36/22 46/37/22 34/38/22
f 41/39/23 53/40/23 50/41/23 7/42/23
f 37/43/24 70/44/24 69/45/24 9/19/24 6/46/24
f 43/47/23 57/48/23 63/49/23 44/50/23
f 45/51/25 62/52/25 54/53/25 40/54/25
s 1
f 75/55/26 48/56/26 76/57/7 81/7/6
s 0
f 8/58/27 10/59/27 58/60/27 42/61/27
f 10/59/28 4/4/28 33/10/28 59/62/28 58/63/28
s 1
f 68/64/29 72/65/29 80/66/13 79/67/12
s 0
f 35/68/30 49/69/30 74/70/30 38/71/30
f 61/72/31 30/73/31 64/74/31 55/75/31
f 4/4/32 10/59/32 14/59/32 3/4/32
f 52/76/22 65/13/22 11/12/22 51/77/22
s 1
f 25/9/8 2/3/3 15/22/17 78/78/16
s 0
f 56/79/22 32/29/22 31/28/22 60/80/22
s 1
f 18/81/33 64/82/33 30/73/33 28/83/33
f 16/84/34 15/22/17 2/3/3 1/2/2
f 12/85/35 9/19/14 15/22/17 16/84/34
f 17/14/10 18/81/33 19/5/5 20/86/36
f 23/16/11 24/30/37 25/9/38
f 26/15/11 27/6/5 28/83/39 29/27/21
s 0
f 46/37/22 47/23/40 48/56/41 49/69/30
f 52/76/22 53/40/42 54/53/43 55/75/31
f 56/79/22 57/48/23 58/87/32 59/62/32
f 60/80/22 61/72/44 62/52/45 63/49/23
s 1
f 68/64/46 69/88/47 70/44/24 71/33/22
f 72/65/29 73/32/22 74/70/48 75/55/26
f 20/86/36 22/89/49 21/11/50 17/14/10
f 23/16/11 26/15/11 29/27/21 24/30/37
f 31/28/21 29/27/21 28/83/39 30/73/51
f 33/10/9 25/9/38 24/30/37 32/29/37
f 27/6/5 19/5/5 18/81/33 28/83/39
f 77/90/52 20/86/36 19/5/5 76/8/53
f 79/17/54 23/16/11 25/9/38 78/78/55
f 81/7/53 27/6/5 26/15/11 80/18/56
s 0
f 34/38/57 46/37/57 49/69/58 35/68/58
f 50/41/23 53/40/23 52/76/22 51/77/22
f 63/49/23 57/48/59 56/79/22 60/80/22
f 54/53/25 62/52/60 61/72/31 55/75/31
f 62/52/61 45/51/61 44/50/62 63/49/62
f 40/54/61 54/53/61 53/40/62 41/39/62
f 42/61/27 58/60/27 57/48/23 43/47/23
f 55/75/31 64/74/63 65/13/57 52/76/57
f 71/33/22 73/32/64 72/65/29 68/64/29
s 1
f 64/82/33 18/81/33 17/14/10 65/13/10
s 0
f 74/70/65 49/69/66 48/56/41 75/55/41
f 46/37/67 67/36/68 66/24/18 47/23/69
f 38/71/58 74/70/58 73/32/57 39/31/57
f 70/44/70 37/43/24 36/34/71 71/33/67
f 59/62/72 33/10/73 32/29/71 56/79/74
f 30/73/63 61/72/31 60/80/57 31/28/57
s 1
f 47/23/18 77/26/52 76/57/53 48/56/26
f 68/64/46 79/67/54 78/21/55 69/20/47
f 75/55/26 81/7/53 80/66/56 72/65/29
f 22/89/36 20/86/36 77/90/20 13/25/19
