# Blender 4.4.1
# www.blender.org
o M_BS_White_Embellishment_Bottom_Framing_2
v 3.000000 0.000000 0.110000
v 0.000000 0.000000 0.110000
v 3.000000 0.400000 0.000000
v 0.000000 0.400000 0.000000
v 0.750000 0.000000 0.105609
v 1.500000 0.000000 0.127156
v 2.533144 0.000000 0.105609
v 2.539612 0.413129 0.000000
v 1.473226 0.362713 0.000000
v 0.715228 0.398840 0.000000
v 2.016572 0.000000 0.144603
v 2.045942 0.380067 0.000000
v 3.000000 0.181055 0.096435
v 3.000000 0.135019 0.110000
v 3.000000 0.400000 0.034979
v 3.000000 0.374978 0.060000
v 3.000000 0.262632 0.060000
v 3.000000 0.216562 0.073561
v 0.000000 0.134864 0.110000
v 0.000000 0.181046 0.096442
v 0.000000 0.374981 0.060000
v -0.000000 0.400000 0.034983
v 0.000000 0.216570 0.073555
v 0.000000 0.262629 0.060000
v 2.539612 0.194185 0.092043
v 2.538680 0.148176 0.105609
v 1.473226 0.143762 0.113595
v 1.478714 0.097558 0.127156
v 0.720734 0.133690 0.105609
v 0.715228 0.179887 0.092050
v 2.539612 0.413129 0.030587
v 2.539612 0.388106 0.055609
v 1.473226 0.362713 0.052137
v 1.473226 0.337692 0.077156
v 0.715228 0.373820 0.055609
v 0.715228 0.398840 0.030591
v 2.539612 0.275762 0.055609
v 2.539612 0.229690 0.069170
v 1.473226 0.225344 0.077156
v 1.473226 0.179280 0.090713
v 0.715228 0.215409 0.069165
v 0.715228 0.261470 0.055609
v 2.040282 0.106124 0.144603
v 2.045942 0.153122 0.132040
v 2.045942 0.355045 0.094603
v 2.045942 0.380067 0.069581
v 2.045942 0.196021 0.107162
v 2.045942 0.242700 0.094603
vn 0.0180 0.5306 0.8475
vn 0.0074 0.5416 0.8406
vn 0.0175 0.5311 0.8471
vn -0.0202 0.9998 -0.0000
vn 0.0285 0.9996 -0.0000
vn -0.0192 0.9998 -0.0000
vn 0.0352 -0.0000 0.9994
vn -0.0095 -0.0000 1.0000
vn 0.0341 -0.0000 0.9994
vn 0.0060 0.0007 1.0000
vn -0.0138 -0.0033 0.9999
vn -0.0087 -0.0023 1.0000
vn -0.0061 0.5202 0.8540
vn -0.0038 0.5202 0.8541
vn -0.0294 -0.0000 0.9996
vn 0.0225 -0.0000 0.9997
vn 0.0258 -0.0000 0.9997
vn 0.0061 -0.0000 1.0000
vn -0.0114 -0.0000 0.9999
vn -0.0109 -0.0000 0.9999
vn -0.0308 -0.0025 0.9995
vn 0.0147 -0.0036 0.9999
vn 0.0315 -0.0050 0.9995
vn -0.0303 -0.0034 0.9995
vn 0.0348 -0.0044 0.9994
vn 0.0319 -0.0041 0.9995
vn 0.0016 1.0000 -0.0000
vn 0.0248 0.9997 -0.0000
vn 0.0246 0.9997 -0.0000
vn 0.0079 1.0000 -0.0000
vn 0.0087 1.0000 -0.0000
vn -0.0483 0.9988 -0.0000
vn -0.0486 0.9988 -0.0000
vn 0.0060 0.5416 0.8406
vn 0.0039 0.5416 0.8406
vn 0.0040 0.5416 0.8406
vn -0.0183 0.5306 0.8474
vn -0.0177 0.5310 0.8472
vn 0.0039 0.5416 0.8407
vn 0.0060 0.5415 0.8407
vn -0.0112 -0.0033 0.9999
vn 0.0246 0.9997 -0.0003
vn -0.0111 -0.0002 0.9999
vn -0.0111 -0.0005 0.9999
vn 0.0061 0.0001 1.0000
vn 0.0040 0.5415 0.8407
vn 0.0074 0.5415 0.8406
vn 0.0182 0.5309 0.8472
vn 0.0331 -0.0075 0.9994
vn -0.0094 0.0002 1.0000
vn -0.0047 0.5218 0.8531
vn -0.0189 0.5313 0.8469
vn -0.0306 -0.0029 0.9995
vn 0.0212 -0.0094 0.9997
vn 0.0285 0.9996 -0.0001
vn -0.0192 0.9998 -0.0012
vn 0.0346 -0.0010 0.9994
vn -0.0096 -0.0000 1.0000
vn -0.0485 0.9988 -0.0002
vn 0.0086 1.0000 -0.0008
vn -0.0294 -0.0001 0.9996
vn 0.0242 -0.0015 0.9997
vn 0.0345 -0.0033 0.9994
vn 0.0240 -0.0052 0.9997
vn -0.0295 0.0001 0.9996
vn -0.0188 0.5314 0.8469
vn -0.0048 0.5218 0.8531
vn -0.0095 0.0002 1.0000
vt 0.787324 0.401962
vt 0.808651 0.400381
vt 0.808651 0.404654
vt 0.787324 0.406234
vt 0.787324 0.428309
vt 0.808651 0.426729
vt 0.787324 0.411778
vt 0.808651 0.410198
vt 0.808651 0.423717
vt 0.787324 0.425297
vt 0.669674 0.378594
vt 0.704419 0.378594
vt 0.703063 0.394682
vt 0.669674 0.394823
vt 0.764454 0.397020
vt 0.787324 0.406234
vt 0.764454 0.402182
vt 0.737923 0.405711
vt 0.764454 0.407799
vt 0.764454 0.421319
vt 0.737923 0.419231
vt 0.669674 0.410198
vt 0.702808 0.410058
vt 0.702808 0.423578
vt 0.669674 0.423718
vt 0.739163 0.378594
vt 0.763093 0.378594
vt 0.764192 0.391364
vt 0.738177 0.390334
vt 0.787024 0.378594
vt 0.787280 0.396425
vt 0.764192 0.391364
vt 0.669674 0.426729
vt 0.702808 0.426589
vt 0.737923 0.422242
vt 0.737923 0.422242
vt 0.764454 0.424330
vt 0.669674 0.400380
vt 0.702808 0.400241
vt 0.702808 0.404515
vt 0.669675 0.404655
vt 0.737923 0.395894
vt 0.737923 0.400168
vt 0.702808 0.404515
vt 0.764454 0.402182
vt 0.764454 0.424330
vt 0.738177 0.390334
vt 0.703063 0.394682
vt 0.702808 0.410058
vt 0.702808 0.423578
vt 0.787280 0.396425
vt 0.808651 0.394841
vt 0.808651 0.378594
s 1
f 25/1/1 13/2/2 18/3/2 38/4/3
f 31/5/4 15/6/5 3/6/5 8/5/6
f 37/7/7 17/8/8 16/9/8 32/10/9
f 2/11/10 5/12/11 29/13/12 19/14/10
f 44/15/13 25/1/1 38/16/3 47/17/14
f 39/18/15 48/19/16 45/20/17 34/21/15
f 48/19/16 37/7/7 32/10/9 45/20/17
f 24/22/18 42/23/19 35/24/20 21/25/18
f 6/26/21 11/27/22 43/28/23 28/29/24
f 11/27/22 7/30/25 26/31/26 43/32/23
f 22/33/27 36/34/28 10/34/29 4/33/27
f 36/34/28 33/35/30 9/35/31 10/34/29
f 33/36/30 46/37/32 12/37/33 9/35/31
f 20/38/34 30/39/35 41/40/36 23/41/34
f 30/39/35 27/42/37 40/43/38 41/44/36
f 27/42/37 44/15/13 47/45/14 40/43/38
f 46/46/32 31/5/4 8/5/6 12/37/33
f 5/12/11 6/26/21 28/47/24 29/48/12
f 42/49/19 39/18/15 34/21/15 35/50/20
f 30/39/39 20/38/40 19/14/10 29/13/41
f 36/34/42 22/33/27 21/25/18 35/24/43
f 42/23/44 24/22/45 23/41/40 41/40/46
f 13/2/47 25/1/48 26/51/49 14/52/50
f 44/15/51 27/42/52 28/29/53 43/28/54
f 27/42/52 30/39/39 29/48/41 28/47/53
f 15/6/55 31/5/56 32/10/57 16/9/58
f 46/37/59 33/36/60 34/21/61 45/20/62
f 33/35/60 36/34/42 35/50/43 34/21/61
f 17/8/8 37/7/63 38/4/48 18/3/47
f 48/19/64 39/18/65 40/43/66 47/45/67
f 39/18/65 42/49/44 41/44/46 40/43/66
f 25/1/48 44/15/51 43/32/54 26/31/49
f 31/5/56 46/46/59 45/20/62 32/10/57
f 37/7/63 48/19/64 47/17/67 38/16/48
f 7/30/25 1/53/68 14/52/68 26/51/26
