# Blender 4.4.1
# www.blender.org
o M_BS_White_Embellishment_Window_Wide_2
v 0.632609 2.505339 -0.033119
v 2.369493 2.434891 -0.033119
v 0.858776 2.308407 -0.033119
v 2.135628 2.274229 -0.033119
v 0.858776 0.940462 -0.033119
v 0.680104 0.940462 -0.033119
v 2.141224 0.940462 -0.033119
v 2.315322 0.940462 -0.033119
v 2.101416 1.898646 -0.033119
v 2.300225 1.911934 -0.033119
v 2.218176 1.916430 0.133403
v 0.850994 0.965267 0.071074
v 0.850994 2.317391 0.071074
v 0.762397 0.940462 0.133403
v 0.714902 2.423047 0.133404
v 1.457251 1.025959 0.031983
v 1.429009 1.577872 0.031983
v 1.429009 1.663369 0.031983
v 0.927950 1.693314 0.031983
v 0.927950 1.607818 0.031983
v 0.944272 1.025959 0.031983
v 1.457251 2.222910 0.031983
v 0.943731 2.200876 0.031983
v 1.492218 0.965267 0.071074
v 1.492218 2.317391 0.071074
v 1.500000 2.222910 0.071074
v 1.500000 1.025959 0.071074
v 2.142891 0.981803 0.071074
v 2.147379 2.283213 0.068883
v 2.233029 0.940462 0.133403
v 2.263385 2.342933 0.133404
v 1.542748 1.025959 0.031983
v 1.514506 1.577872 0.031983
v 1.514506 1.663369 0.031983
v 2.022993 1.667421 0.031983
v 2.022993 1.581924 0.031983
v 2.055727 1.025959 0.031983
v 1.542748 2.222910 0.031983
v 2.050131 2.188732 0.031983
v 0.834671 1.650566 0.071074
v 1.471758 1.620620 0.071074
v 1.457251 1.025959 0.031983
v 1.429009 1.577872 0.031983
v 1.429009 1.663369 0.031983
v 0.927950 1.693314 0.031983
v 0.927950 1.607818 0.031983
v 0.944272 1.025959 0.031983
v 1.457251 2.222910 0.031983
v 0.943731 2.200876 0.031983
v 2.100412 1.624672 0.071074
v 1.542748 1.025959 0.031983
v 1.514506 1.577872 0.031983
v 1.514506 1.663369 0.031983
v 2.022993 1.667421 0.031983
v 2.022993 1.581924 0.031983
v 2.055727 1.025959 0.031983
v 1.542748 2.222910 0.031983
v 2.050131 2.188732 0.031983
v 2.203730 1.502587 0.133403
v 2.286023 1.502587 -0.033119
v 2.092249 1.502587 -0.033119
v 0.842453 1.650566 -0.033119
v 0.663781 1.650566 -0.033119
v 0.746074 1.650566 0.133403
v 1.694521 0.695639 -0.033119
v 1.305769 0.682165 -0.033119
v 1.305728 0.781474 0.151815
v 1.694523 0.791968 0.151815
v 1.305551 0.980099 -0.033119
v 1.694521 0.984627 -0.033119
v 1.651421 2.305794 -0.033119
v 1.347962 2.313936 -0.033119
v 1.391400 2.512543 -0.033119
v 1.695321 2.499628 -0.033119
v 1.360512 2.413921 0.133404
v 1.663256 2.398011 0.133404
v 0.657970 2.479979 0.160228
v 0.632609 2.505339 0.135228
v 2.369493 2.434891 0.135228
v 2.341974 2.411042 0.160228
v 0.858776 2.308407 0.108404
v 0.834056 2.328104 0.133404
v 2.166148 2.290642 0.133404
v 2.135628 2.274229 0.108404
v 0.858776 0.940462 0.108403
v 0.833596 0.940462 0.133403
v 0.704620 0.940462 0.160228
v 0.680104 0.940462 0.135228
v 2.275914 1.913266 0.160228
v 2.300225 1.911934 0.135228
v 2.169381 0.940462 0.133403
v 2.141224 0.940462 0.108403
v 2.315322 0.940462 0.135228
v 2.290870 0.940462 0.160228
v 0.627191 0.622915 -0.033119
v 0.602286 0.645740 -0.033119
v 0.602286 0.953269 -0.013722
v 0.627286 0.978334 -0.033119
v 0.602286 0.953269 -0.033119
v 2.390115 0.693284 -0.033119
v 2.363642 0.669312 -0.033119
v 2.382509 0.984324 -0.033119
v 2.406018 0.959357 -0.011211
v 2.406018 0.959357 -0.033119
v 2.218176 1.916430 0.135228
v 2.242738 1.915084 0.160228
v 0.627191 0.622915 0.126815
v 0.627270 0.647968 0.151815
v 0.602286 0.645740 0.133445
v 0.627286 0.845111 0.288472
v 0.602286 0.838241 0.263472
v 0.627286 0.807566 0.266838
v 2.101416 1.898646 0.108404
v 2.130176 1.903027 0.133404
v 0.627286 0.953334 0.288472
v 0.627286 0.978334 0.263472
v 0.602286 0.953269 0.263472
v 0.627270 0.741393 0.151815
v 0.602286 0.763250 0.133711
v 0.714902 2.423047 0.135228
v 0.689189 2.448759 0.160228
v 0.762397 0.940462 0.135228
v 0.737675 0.940462 0.160228
v 1.441119 1.651259 0.071074
v 1.429009 1.663369 0.046074
v 2.365136 0.694293 0.151815
v 2.363642 0.669312 0.126815
v 2.390115 0.693284 0.132086
v 1.441782 1.590644 0.071074
v 1.429009 1.577872 0.046074
v 0.927950 1.693314 0.046074
v 0.903059 1.681907 0.071074
v 0.893148 1.623767 0.071074
v 0.927950 1.607818 0.046074
v 2.375576 0.869054 0.288472
v 2.373414 0.832678 0.266223
v 2.400252 0.862897 0.263472
v 1.469284 2.255422 0.071074
v 1.457251 2.222910 0.046074
v 0.943731 2.200876 0.046074
v 0.919619 2.231170 0.071074
v 2.380971 0.959324 0.288472
v 2.406017 0.959357 0.263472
v 2.382509 0.984324 0.263472
v 2.396247 0.795889 0.132297
v 2.369918 0.774310 0.151815
v 1.457251 1.025959 0.046074
v 1.470599 1.002792 0.071074
v 0.910211 1.003796 0.071074
v 0.944272 1.025959 0.046074
v 2.290502 2.366434 0.160228
v 2.263385 2.342933 0.135228
v 2.257696 0.940462 0.160228
v 2.233029 0.940462 0.135228
v 1.514506 1.663369 0.046074
v 1.497221 1.646084 0.071074
v 1.496043 1.596335 0.071074
v 1.514506 1.577872 0.046074
v 2.050415 1.652279 0.071074
v 2.022993 1.667421 0.046074
v 2.022993 1.581924 0.046074
v 2.056967 1.600683 0.071074
v 1.542748 2.222910 0.046074
v 1.526657 2.252998 0.071074
v 2.050131 2.188732 0.046074
v 2.078721 2.216509 0.070429
v 1.542748 1.025959 0.046074
v 1.526663 1.006639 0.071074
v 2.092090 1.007538 0.071074
v 2.055727 1.025959 0.046074
v 2.120528 1.502587 0.133403
v 2.092249 1.502587 0.108403
v 2.228383 1.502587 0.160228
v 2.203730 1.502587 0.135228
v 2.286023 1.502587 0.135228
v 2.261595 1.502587 0.160228
v 0.688278 1.650566 0.160228
v 0.663781 1.650566 0.135228
v 0.842453 1.650566 0.108403
v 0.817266 1.650566 0.133403
v 0.746074 1.650566 0.135228
v 0.721364 1.650566 0.160228
v 1.305746 0.707207 0.151815
v 1.305754 0.682163 0.126815
v 1.694522 0.695639 0.126815
v 1.694522 0.720680 0.151815
v 1.305554 0.980099 0.263472
v 1.305556 0.955099 0.288472
v 1.694522 0.959627 0.288472
v 1.694522 0.984627 0.263472
v 1.694523 0.845363 0.265831
v 1.694523 0.880976 0.288472
v 1.305563 0.872457 0.288472
v 1.305592 0.836577 0.265957
v 1.350414 2.333776 0.133404
v 1.347921 2.313936 0.108404
v 1.651449 2.305792 0.108404
v 1.653920 2.325059 0.133404
v 1.391324 2.512543 0.135228
v 1.383272 2.486921 0.160228
v 1.687290 2.474000 0.160228
v 1.695345 2.499625 0.135228
v 1.663265 2.398010 0.135228
v 1.671316 2.423203 0.160228
v 1.368274 2.439128 0.160228
v 1.360502 2.413922 0.135228
vn -0.0000 -0.0000 1.0000
vn 0.9982 -0.0597 -0.0000
vn -0.9997 0.0231 -0.0000
vn 0.9987 0.0511 -0.0000
vn -0.9986 -0.0521 -0.0000
vn 0.9997 0.0230 -0.0000
vn 0.9913 -0.1313 -0.0000
vn -0.0026 1.0000 -0.0000
vn -0.0651 -0.9979 -0.0000
vn 0.0453 -0.8829 0.4673
vn 0.9994 -0.0347 -0.0000
vn -0.0141 -0.9999 -0.0000
vn 0.0030 0.0110 0.9999
vn -0.9986 0.0520 -0.0000
vn 0.9997 -0.0248 -0.0000
vn 0.0956 0.9954 -0.0000
vn -0.9959 0.0907 -0.0000
vn 0.9996 0.0280 -0.0000
vn -0.9944 0.1054 -0.0000
vn -1.0000 -0.0000 -0.0000
vn -0.9987 0.0504 -0.0000
vn 0.9995 -0.0311 -0.0000
vn 0.0429 -0.9991 -0.0000
vn -0.0393 -0.9992 -0.0000
vn -0.9994 0.0349 -0.0000
vn -0.0000 1.0000 -0.0000
vn -0.0914 -0.9958 -0.0000
vn 0.0597 0.9982 -0.0000
vn -0.9987 -0.0511 -0.0000
vn -0.0080 1.0000 -0.0000
vn 0.0113 -0.9999 -0.0000
vn 0.0080 -1.0000 -0.0000
vn 0.0004 1.0000 -0.0000
vn 0.0125 0.0015 0.9999
vn -0.9993 -0.0364 -0.0000
vn -0.0202 -0.8979 0.4396
vn -0.9983 -0.0588 -0.0000
vn 0.9987 -0.0504 -0.0000
vn -0.0672 -0.9977 -0.0000
vn -0.0597 -0.9982 -0.0000
vn 0.0870 -0.9962 -0.0000
vn 0.9986 0.0521 -0.0000
vn 0.9992 0.0403 -0.0000
vn -0.9962 -0.0868 -0.0000
vn -0.9997 -0.0230 -0.0000
vn 0.0225 -0.9029 0.4294
vn 0.0346 -0.9994 -0.0000
vn -0.0116 0.9999 -0.0000
vn -0.0525 -0.9986 -0.0001
vn -0.0268 -0.9996 -0.0000
vn 0.0425 0.9991 -0.0000
vn -0.7080 0.7062 -0.0000
vn 0.9982 -0.0597 0.0001
vn -0.0000 0.0001 1.0000
vn -1.0000 -0.0001 -0.0000
vn 0.0453 -0.8830 0.4673
vn 0.0001 -0.0000 1.0000
vn -0.0001 -0.0000 1.0000
vn -0.0203 -0.8980 0.4396
vn -0.9997 -0.0230 -0.0001
vn -1.0000 0.0001 -0.0000
vn 0.9997 0.0229 -0.0001
vn 0.9982 -0.0596 -0.0000
vn 0.0453 -0.8830 0.4672
vn -0.0001 -0.0001 1.0000
vn 0.9913 -0.1313 -0.0001
vn -0.9944 0.1054 -0.0001
vn -0.0000 -0.0001 1.0000
vn 0.0596 0.9982 -0.0000
vn -0.0596 -0.9982 -0.0000
vn 0.9996 0.0281 -0.0000
vn 0.9995 -0.0310 -0.0000
vn 0.0428 -0.9991 -0.0000
vn -0.0000 1.0000 -0.0001
vn -0.0672 -0.9977 -0.0001
vn 0.0030 0.0111 0.9999
vn -0.9962 -0.0868 -0.0001
vn -0.9986 -0.0521 -0.0001
vn -0.0394 -0.9992 -0.0000
vn 0.9986 0.0520 -0.0001
vn 0.0004 1.0000 -0.0001
vn -0.0203 -0.8979 0.4396
vn -0.0203 -0.8979 0.4397
vn 0.0126 0.0015 0.9999
vn 0.0126 0.0016 0.9999
vn -0.9986 0.0521 -0.0000
vn -0.9997 0.0232 -0.0000
vn -0.9997 0.0232 -0.0001
vn -0.9994 0.0348 -0.0000
vn 0.9994 -0.0346 -0.0001
vn 0.9994 -0.0347 -0.0001
vn -0.9993 -0.0365 -0.0000
vn 0.9992 0.0403 -0.0001
vn 0.0224 -0.9029 0.4293
vn -0.0117 0.9999 -0.0000
vn 0.0347 -0.9994 -0.0001
vn 0.0347 -0.9994 -0.0000
vn 0.0870 -0.9962 -0.0001
vn -0.0026 1.0000 -0.0001
vn 0.0005 1.0000 -0.0001
vn -0.0525 -0.9986 -0.0002
vn 0.0424 0.9991 -0.0000
vn -0.0268 -0.9996 -0.0001
vn 0.0113 -0.9999 -0.0001
vn -0.0650 -0.9979 -0.0000
vn -0.0095 1.0000 -0.0001
vn -0.0094 1.0000 -0.0000
vn -0.0142 -0.9999 -0.0000
vn 0.0956 0.9954 -0.0001
vn 0.0957 0.9954 -0.0001
vn -0.0913 -0.9958 -0.0000
vn -0.0095 1.0000 -0.0000
vt 0.547802 0.270924
vt 0.579223 0.274215
vt 0.579223 0.284160
vt 0.547802 0.283947
vt 0.108478 0.840630
vt 0.106493 0.730649
vt 0.108283 0.735298
vt 0.110352 0.846124
vt 0.107931 0.857883
vt 0.630202 0.284672
vt 0.629935 0.273065
vt 0.629750 0.265001
vt 0.630203 0.284672
vt 0.616092 0.397704
vt 0.615667 0.350043
vt 0.557359 0.282398
vt 0.556603 0.367850
vt 0.553305 0.367850
vt 0.554061 0.282398
vt 0.617424 0.398231
vt 0.621501 0.399844
vt 0.623595 0.451168
vt 0.619090 0.444875
vt 0.595794 0.457796
vt 0.595361 0.449017
vt 0.111483 0.622060
vt 0.109498 0.722842
vt 0.622189 0.282398
vt 0.620831 0.350043
vt 0.596907 0.466940
vt 0.596167 0.460827
vt 0.624851 0.453996
vt 0.627236 0.459364
vt 0.557769 0.367850
vt 0.558526 0.282398
vt 0.624868 0.282398
vt 0.623512 0.350043
vt 0.621974 0.350043
vt 0.623331 0.282398
vt 0.582823 0.468495
vt 0.549223 0.467660
vt 0.550669 0.463903
vt 0.582128 0.462744
vt 0.619240 0.282398
vt 0.616977 0.350043
vt 0.550627 0.367850
vt 0.552160 0.367850
vt 0.550669 0.463903
vt 0.062855 0.857883
vt 0.067679 0.842138
vt 0.106319 0.846567
vt 0.579231 0.263266
vt 0.547801 0.258443
vt 0.547801 0.247201
vt 0.579232 0.254329
vt 0.617424 0.398231
vt 0.597242 0.255951
vt 0.597242 0.264529
vt 0.625302 0.399303
vt 0.628510 0.462234
vt 0.107931 0.610977
vt 0.153671 0.613997
vt 0.150100 0.618696
vt 0.110353 0.618532
vt 0.629466 0.252654
vt 0.630203 0.284672
vt 0.629466 0.252654
vt 0.579223 0.287168
vt 0.579223 0.287168
vt 0.547802 0.286956
vt 0.617677 0.442900
vt 0.595247 0.446698
vt 0.595245 0.446698
vt 0.547801 0.266420
vt 0.547801 0.258443
vt 0.579225 0.269897
vt 0.624644 0.350043
vt 0.624644 0.350043
vt 0.551860 0.460809
vt 0.581769 0.459710
vt 0.581768 0.459711
vt 0.110352 0.846124
vt 0.149161 0.839461
vt 0.153987 0.851641
vt 0.147151 0.834389
vt 0.145243 0.739194
vt 0.558526 0.447013
vt 0.597279 0.470024
vt 0.597280 0.470024
vt 0.624175 0.399463
vt 0.622639 0.399682
vt 0.068265 0.728311
vt 0.069412 0.622060
vt 0.104339 0.736243
vt 0.546644 0.283940
vt 0.546644 0.261073
vt 0.546644 0.270098
vt 0.546643 0.283940
vt 0.103488 0.738455
vt 0.105473 0.840630
vt 0.628309 0.252775
vt 0.628530 0.262404
vt 0.069374 0.836607
vt 0.068265 0.743923
vt 0.069374 0.836606
vt 0.067679 0.842138
vt 0.061708 0.736117
vt 0.066515 0.741840
vt 0.628239 0.249769
vt 0.628239 0.249769
vt 0.597242 0.252937
vt 0.597242 0.252937
vt 0.628792 0.273805
vt 0.629042 0.284668
vt 0.597242 0.284705
vt 0.597242 0.275240
vt 0.150685 0.731388
vt 0.108200 0.726214
vt 0.147631 0.727008
vt 0.147544 0.622060
vt 0.595794 0.457796
vt 0.065818 0.731223
vt 0.104386 0.725175
vt 0.062855 0.610977
vt 0.067018 0.618013
vt 0.106411 0.617829
vt 0.105473 0.622060
vt 0.103488 0.722842
vt 0.109498 0.738455
vt 0.581187 0.447678
vt 0.581186 0.447678
vt 0.145243 0.723582
vt 0.108478 0.622060
vt 0.597242 0.287713
vt 0.629113 0.287677
vt 0.629113 0.287677
vt 0.149161 0.839461
vt 0.147171 0.736429
vt 0.147631 0.727008
vt 0.150100 0.618696
vt 0.549492 0.367850
vt 0.548048 0.470711
vt 0.548048 0.470711
vt 0.628692 0.269434
vt 0.597242 0.270954
vt 0.628530 0.262404
vt 0.111483 0.840630
vt 0.147151 0.834389
vt 0.106411 0.617829
vt 0.104386 0.725175
vt 0.480591 0.816304
vt 0.480591 0.858652
vt 0.362237 0.856320
vt 0.355816 0.814957
vt 0.337481 0.814957
vt 0.343903 0.856320
vt 0.223914 0.858652
vt 0.228639 0.816259
vt 0.343035 0.905356
vt 0.231243 0.907596
vt 0.223914 0.865710
vt 0.343903 0.863378
vt 0.480591 0.908058
vt 0.361368 0.905356
vt 0.362237 0.863378
vt 0.480591 0.865710
vt 0.547797 0.244186
vt 0.579233 0.251316
vt 0.579232 0.251316
vt 0.547797 0.244186
vt 0.626001 0.282398
vt 0.617936 0.282398
vt 0.551384 0.282398
vt 0.552916 0.282398
vt 0.104339 0.736243
vt 0.622638 0.399682
vt 0.550249 0.282398
vt 0.557380 0.449383
vt 0.581301 0.450066
vt 0.595361 0.449017
vt 0.597242 0.270954
vt 0.579223 0.287168
vt 0.597242 0.287713
vt 0.546644 0.283940
vt 0.546644 0.246933
vt 0.546644 0.246933
vt 0.582823 0.468495
vt 0.596167 0.460827
vt 0.581768 0.459710
vt 0.595794 0.457796
vt 0.595247 0.446698
vt 0.583200 0.471578
vt 0.583196 0.471578
vt 0.597280 0.470024
vt 0.546644 0.286948
vt 0.630268 0.287498
s 0
f 110/1/1 193/2/1 188/3/1 115/4/1
f 26/5/1 41/6/1 156/7/1 164/8/1 25/9/1
f 143/10/2 137/11/2 145/12/2 103/13/2
f 113/14/3 9/14/3 61/15/3 172/15/3
f 86/16/1 180/17/1 64/18/1 14/19/1
f 114/20/1 11/21/1 31/22/1 83/23/1
f 83/23/1 31/22/1 76/24/1 198/25/1
f 167/26/4 32/26/4 33/27/4 158/27/4
f 30/28/5 154/28/5 174/29/5 59/29/5
f 201/30/1 204/31/1 151/32/1 80/33/1
f 179/34/6 85/35/6 5/35/6 62/34/6
f 94/36/1 176/37/1 173/38/1 153/39/1
f 200/40/1 77/41/1 121/42/1 205/43/1
f 14/19/6 64/18/6 181/18/6 122/19/6
f 91/44/1 30/28/1 59/29/1 171/45/1
f 177/46/1 182/47/1 121/48/1 77/41/1
f 25/9/1 13/49/1 141/50/1 138/51/1
f 67/52/1 118/53/1 108/54/1 183/55/1
f 171/45/1 59/29/1 11/21/1 114/56/1
f 67/52/1 183/55/1 186/57/1 68/58/1
f 90/59/7 10/59/7 2/60/7 79/60/7
f 24/61/1 28/62/1 169/63/1 168/64/1
f 100/65/2 104/13/2 103/66/2 145/12/2 128/67/2
f 187/68/8 69/69/8 98/70/8 116/70/8
f 4/71/9 84/71/9 197/72/9 71/73/9
f 112/74/10 118/75/10 67/52/10 194/76/10
f 175/77/11 60/78/11 10/59/11 90/59/11
f 15/79/12 75/80/12 206/81/12 120/79/12
f 25/9/13 164/82/13 166/83/13 29/84/13
f 165/85/14 39/85/14 35/86/14 160/86/14
f 81/87/15 179/34/15 62/34/15 3/87/15
f 79/60/16 2/60/16 74/88/16 202/89/16
f 89/90/1 80/33/1 151/32/1 106/91/1
f 84/71/17 4/71/17 9/14/17 113/14/17
f 134/92/18 150/93/18 21/93/18 20/92/18
f 26/5/1 25/9/1 138/51/1 124/94/1 41/6/1
f 11/21/19 105/21/19 152/22/19 31/22/19
f 97/95/20 119/96/20 111/97/20 117/98/20
f 125/99/21 139/100/21 22/100/21 18/99/21
f 68/58/1 186/57/1 126/101/1 146/102/1
f 140/103/22 131/104/22 19/104/22 23/105/22
f 139/100/23 140/103/23 23/105/23 22/100/23
f 141/106/1 13/49/1 40/107/1 132/108/1
f 101/109/24 127/110/24 185/111/24 65/112/24
f 135/113/1 142/114/1 189/115/1 192/116/1
f 50/117/1 41/6/1 157/118/1 162/119/1
f 59/29/25 174/29/25 105/21/25 11/21/25
f 170/120/26 37/120/26 32/26/26 167/26/26
f 31/22/27 152/22/27 203/121/27 76/24/27
f 40/107/1 133/122/1 129/123/1 41/6/1
f 12/124/1 149/125/1 133/122/1 40/107/1
f 131/104/28 125/99/28 18/99/28 19/104/28
f 24/61/1 148/126/1 149/125/1 12/124/1
f 147/127/29 130/128/29 17/128/29 16/127/29
f 160/86/30 35/86/30 34/129/30 155/129/30
f 3/87/31 72/130/31 196/131/31 81/87/31
f 158/27/32 33/27/32 36/132/32 161/132/32
f 168/64/1 157/118/1 41/6/1 27/133/1 24/61/1
f 190/134/33 144/135/33 102/136/33 70/134/33
f 166/137/34 159/138/34 50/117/34 29/84/34
f 28/62/1 50/117/1 162/139/1 169/140/1
f 178/141/35 78/142/35 1/143/35 63/141/35
f 136/144/36 191/145/36 68/58/36 146/146/36
f 161/132/37 36/132/37 37/120/37 170/120/37
f 155/129/38 34/129/38 38/147/38 163/147/38
f 163/147/39 38/147/39 39/85/39 165/148/39
f 148/149/1 24/61/1 27/133/1 41/6/1 129/150/1
f 150/93/26 147/127/26 16/127/26 21/93/26
f 130/128/40 134/92/40 20/92/40 17/128/40
f 47/151/1 42/152/1 43/153/1 46/154/1
f 45/155/1 44/156/1 48/157/1 49/158/1
f 54/159/1 58/160/1 57/161/1 53/162/1
f 56/163/1 55/164/1 52/165/1 51/166/1
f 41/6/1 50/117/1 159/138/1 156/7/1
f 95/167/41 66/168/41 184/169/41 107/170/41
f 93/171/42 8/171/42 60/78/42 175/78/42
f 64/18/43 15/79/43 120/79/43 181/18/43
f 172/15/44 61/15/44 7/172/44 92/172/44
f 87/173/1 123/174/1 182/47/1 177/46/1
f 41/6/1 124/175/1 132/108/1 40/107/1
f 176/37/1 89/90/1 106/176/1 173/38/1
f 88/177/45 178/141/45 63/141/45 6/177/45
f 82/178/1 195/179/1 75/80/1 15/79/1
f 75/80/1 195/179/1 198/180/1 76/24/1
f 192/116/1 189/115/1 188/3/1 193/2/1
f 194/76/46 67/52/46 68/58/46 191/181/46
f 65/112/47 185/111/47 184/169/47 66/168/47
f 69/69/48 187/182/48 190/183/48 70/134/48
f 97/184/20 99/184/20 96/185/20 109/186/20 119/96/20
f 200/187/1 205/43/1 204/188/1 201/30/1
f 206/189/49 75/80/49 76/24/49 203/190/49
f 71/73/50 197/191/50 196/131/50 72/130/50
f 73/192/51 199/193/51 202/194/51 74/88/51
f 180/17/1 82/178/1 15/79/1 64/18/1
f 97/184/20 98/195/52 99/184/20
f 102/196/33 103/66/53 104/13/2
f 107/170/41 108/54/54 109/186/55
f 110/1/1 111/97/20 112/74/56
f 115/4/57 116/70/8 117/98/55
f 126/101/1 127/110/24 128/67/2
f 135/113/58 136/144/59 137/11/2
f 142/114/58 143/10/2 144/135/33
f 178/141/45 88/177/60 87/173/1 177/46/1
f 109/186/61 96/185/61 95/167/41 107/170/41
f 168/64/1 169/63/1 170/120/26 167/26/26
f 110/1/1 115/4/54 117/98/20 111/97/20
f 156/7/57 159/138/1 160/86/30 155/129/30
f 180/17/1 86/16/58 85/35/6 179/34/62
f 108/54/57 118/53/1 119/96/20 109/186/55
f 128/67/63 145/12/2 146/102/1 126/101/1
f 116/70/8 98/70/8 97/95/20 117/98/20
f 158/27/32 161/132/32 162/119/57 157/118/1
f 155/129/38 163/147/38 164/8/1 156/7/1
f 118/75/10 112/74/64 111/97/61 119/96/20
f 80/33/1 89/90/65 90/59/7 79/60/66
f 152/22/67 105/21/67 106/91/1 151/32/68
f 84/71/17 113/14/17 114/20/1 83/23/1
f 182/47/58 123/174/1 122/19/6 181/18/6
f 148/149/54 129/150/54 130/128/29 147/127/29
f 125/99/69 131/104/69 132/108/57 124/175/1
f 129/123/1 133/122/1 134/92/40 130/128/70
f 150/93/71 134/92/18 133/122/1 149/125/1
f 124/94/1 138/51/1 139/100/21 125/99/21
f 131/104/22 140/103/72 141/106/54 132/108/58
f 138/51/1 141/50/54 140/103/73 139/100/73
f 147/127/26 150/93/74 149/125/68 148/126/68
f 163/147/39 165/148/75 166/83/13 164/82/76
f 169/140/1 162/139/54 161/132/37 170/120/37
f 172/15/77 92/172/77 91/44/1 171/45/1
f 137/11/2 143/10/2 142/114/1 135/113/1
f 174/29/5 154/28/78 153/39/1 173/38/1
f 127/110/79 101/109/79 100/65/63 128/67/63
f 176/37/58 94/36/54 93/171/80 175/78/42
f 143/10/2 103/13/2 102/136/81 144/135/33
f 145/12/63 137/11/63 136/144/82 146/146/83
f 167/26/4 158/27/4 157/118/1 168/64/1
f 159/138/84 166/137/85 165/85/14 160/86/86
f 113/14/87 172/15/88 171/45/1 114/56/1
f 105/21/89 174/29/89 173/38/57 106/176/1
f 89/90/1 176/37/68 175/77/90 90/59/91
f 78/142/92 178/141/92 177/46/1 77/41/57
f 82/178/58 180/17/1 179/34/15 81/87/15
f 121/48/1 182/47/58 181/18/43 120/79/93
f 192/116/1 193/2/1 194/76/94 191/181/46
f 188/3/1 189/115/57 190/183/95 187/182/48
f 184/169/96 185/111/97 186/57/54 183/55/1
f 183/55/1 108/54/57 107/170/98 184/169/98
f 126/101/1 186/57/1 185/111/24 127/110/24
f 115/4/1 188/3/57 187/68/99 116/70/99
f 191/145/59 136/144/83 135/113/1 192/116/1
f 144/135/81 190/134/100 189/115/1 142/114/1
f 112/74/10 194/76/10 193/2/1 110/1/1
f 204/188/1 205/43/1 206/189/101 203/190/101
f 200/187/1 201/30/68 202/194/102 199/193/51
f 196/131/50 197/191/103 198/180/1 195/179/1
f 195/179/1 82/178/57 81/87/31 196/131/104
f 83/23/1 198/25/1 197/72/9 84/71/105
f 199/193/106 78/143/107 77/41/68 200/40/58
f 120/79/12 206/81/108 205/43/1 121/42/57
f 79/60/109 202/89/110 201/30/1 80/33/68
f 203/121/27 152/22/111 151/32/54 204/31/57
f 78/143/112 199/193/112 73/192/112 1/143/112
