# Blender 4.4.1
# www.blender.org
o M_BS_White_Embellishment_Framing_Columne_Square
v 0.558131 0.000000 1.105609
v 0.558131 0.383161 1.000000
v -0.613385 0.000000 1.105609
v -0.613385 0.383161 1.000000
v 0.632904 0.000000 -1.105609
v 0.632904 0.383161 -1.000000
v 1.000000 0.400000 0.500000
v 1.000000 0.400000 0.000000
v 1.000000 0.400000 -0.500000
v -0.606357 0.000000 -1.105609
v 1.110000 0.000000 -0.555000
v 1.110000 0.000000 0.000000
v 1.110000 0.000000 0.555000
v -0.606357 0.383161 -1.000000
v -1.000000 0.400000 0.500000
v -1.000000 0.400000 0.000000
v -1.000000 0.400000 -0.500000
v -1.110000 0.000000 -0.555000
v -1.110000 0.000000 0.000000
v -1.110000 0.000000 0.555000
v 0.000000 0.000000 1.095824
v 0.000000 0.404305 1.000000
v 0.000000 0.000000 -1.095824
v 0.000000 0.404305 -1.000000
v -1.085001 0.000000 1.109779
v -1.110000 0.000000 1.085000
v -1.110000 0.135000 1.085000
v -1.085001 0.134138 1.109779
v -1.068568 0.179807 1.096378
v -1.096460 0.181016 1.068030
v -1.060000 0.375000 1.035000
v -1.035001 0.374041 1.059754
v -0.999113 0.398656 1.034418
v -1.035000 0.400000 0.999645
v -1.060000 0.262610 1.035000
v -1.073539 0.216594 1.045109
v -1.045339 0.215825 1.073079
v -1.035001 0.261684 1.059754
v -1.000000 0.400000 0.964645
v -0.964711 0.398463 1.000000
v 1.110000 0.000000 1.085000
v 1.085001 0.000000 1.109801
v 1.110000 0.135000 1.085000
v 1.096460 0.181016 1.068030
v 1.068513 0.179928 1.096386
v 1.085001 0.134223 1.109801
v 1.035001 0.374145 1.059781
v 1.060000 0.375000 1.035000
v 1.035000 0.400000 0.999645
v 0.999165 0.398805 1.034480
v 1.073539 0.216594 1.045109
v 1.060000 0.262610 1.035000
v 1.035001 0.261788 1.059781
v 1.045313 0.215907 1.073130
v 0.964696 0.398655 1.000000
v 1.000000 0.400000 0.964645
v 0.558131 0.164188 1.092062
v 0.558131 0.118146 1.105609
v 0.558131 0.245787 1.055609
v 0.558131 0.199743 1.069156
v -0.613385 0.118146 1.105609
v -0.613385 0.164188 1.092062
v -0.613385 0.199743 1.069156
v -0.613385 0.245787 1.055609
v 0.558131 0.383161 1.030607
v 0.558131 0.358145 1.055609
v 1.085001 0.000000 -1.109770
v 1.110000 0.000000 -1.085000
v 1.068591 0.179757 -1.096376
v 1.096460 0.181016 -1.068030
v 1.110000 0.135000 -1.085000
v 1.085001 0.134103 -1.109770
v 1.060000 0.375000 -1.035000
v 1.035001 0.373998 -1.059743
v 0.999093 0.398594 -1.034392
v 1.035000 0.400000 -0.999645
v 1.060000 0.262610 -1.035000
v 1.073539 0.216594 -1.045109
v 1.045349 0.215791 -1.073058
v 1.035001 0.261641 -1.059743
v 1.000000 0.400000 -0.964645
v 0.964719 0.398382 -1.000000
v 0.632904 0.118146 -1.105609
v 0.632904 0.164187 -1.092063
v -0.613385 0.358144 1.055609
v -0.613385 0.383161 1.030607
v 0.632904 0.199744 -1.069156
v 0.632904 0.245788 -1.055609
v 0.632904 0.358144 -1.055609
v 0.632904 0.383161 -1.030607
v -1.110000 0.000000 -1.085000
v -1.085001 0.000000 -1.109782
v -1.110000 0.135000 -1.085000
v -1.096460 0.181016 -1.068030
v -1.068561 0.179823 -1.096380
v -1.085001 0.134150 -1.109782
v -1.060000 0.375000 -1.035000
v -1.035000 0.400000 -0.999645
v -0.999121 0.398677 -1.034426
v -1.035001 0.374056 -1.059758
v -1.060000 0.262610 -1.035000
v -1.035001 0.261699 -1.059758
v -1.045335 0.215837 -1.073086
v -1.073539 0.216594 -1.045109
v -0.964709 0.398490 -1.000000
v -1.000000 0.400000 -0.964645
v 1.035000 0.400000 -0.517500
v 1.060000 0.375000 -0.530000
v 1.060000 0.375000 0.000000
v 1.035000 0.400000 0.000000
v 1.060000 0.375000 0.530000
v 1.035000 0.400000 0.517500
v -0.606357 0.164187 -1.092063
v -0.606357 0.118146 -1.105609
v -0.606357 0.245787 -1.055609
v -0.606357 0.199744 -1.069156
v 1.073539 0.216594 -0.536770
v 1.060000 0.262610 -0.530000
v 1.060000 0.262610 0.000000
v 1.073539 0.216594 0.000000
v 1.073539 0.216594 0.536770
v 1.060000 0.262610 0.530000
v 1.110000 0.135000 -0.555000
v 1.096460 0.181016 -0.548230
v 1.096460 0.181016 0.000000
v 1.110000 0.135000 0.000000
v 1.110000 0.135000 0.555000
v 1.096460 0.181016 0.548230
v -0.606357 0.383161 -1.030607
v -0.606357 0.358144 -1.055609
v -1.060000 0.375000 -0.530000
v -1.035000 0.400000 -0.517500
v -1.060000 0.375000 0.000000
v -1.035000 0.400000 0.000000
v -1.035000 0.400000 0.517500
v -1.060000 0.375000 0.530000
v -1.073539 0.216594 -0.536770
v -1.060000 0.262610 -0.530000
v -1.073539 0.216594 0.000000
v -1.060000 0.262610 0.000000
v -1.060000 0.262610 0.530000
v -1.073539 0.216594 0.536770
v -1.110000 0.135000 -0.555000
v -1.096460 0.181016 -0.548230
v -1.110000 0.135000 0.000000
v -1.096460 0.181016 0.000000
v -1.096460 0.181016 0.548230
v -1.110000 0.135000 0.555000
v 0.000000 0.139290 1.095824
v 0.000000 0.185332 1.082277
v 0.000000 0.220887 1.059371
v 0.000000 0.266931 1.045823
v 0.000000 0.379288 1.045823
v 0.000000 0.404305 1.020821
v 0.000000 0.185331 -1.082277
v 0.000000 0.139290 -1.095824
v 0.000000 0.266931 -1.045823
v 0.000000 0.220888 -1.059370
v 0.000000 0.404305 -1.020821
v 0.000000 0.379288 -1.045823
vn -0.0087 -0.0000 1.0000
vn -0.0131 -0.0000 0.9999
vn -0.0440 0.9988 -0.0200
vn -0.0056 0.9999 -0.0101
vn -0.0053 0.9999 -0.0100
vn -0.0127 -0.0000 0.9999
vn -0.0128 -0.0000 0.9999
vn -0.0008 -0.0000 1.0000
vn -0.0000 1.0000 -0.0000
vn -0.0242 0.5365 0.8435
vn -0.0091 0.5391 0.8422
vn -0.0093 0.5391 0.8422
vn 0.8406 0.5416 -0.0000
vn -0.0368 0.9992 0.0172
vn 0.0005 1.0000 0.0086
vn 0.0002 1.0000 0.0087
vn -0.0080 -0.0000 1.0000
vn -0.8406 0.5416 -0.0000
vn 1.0000 -0.0000 -0.0000
vn -1.0000 -0.0000 -0.0000
vn -0.0123 -0.0000 -0.9999
vn 0.0003 -0.0000 -1.0000
vn 0.0107 0.5389 -0.8423
vn 0.0106 0.5389 -0.8423
vn -0.0001 0.5416 -0.8406
vn -0.0116 0.5387 -0.8424
vn -0.0115 0.5388 -0.8424
vn 0.0097 -0.0000 -1.0000
vn 0.0129 -0.0000 -0.9999
vn -0.0007 1.0000 -0.0000
vn 0.0040 0.9999 0.0097
vn 0.0017 1.0000 -0.0000
vn 0.0037 0.9999 0.0096
vn -0.0103 -0.0000 -0.9999
vn -0.0129 -0.0000 -0.9999
vn -0.0281 0.5358 -0.8439
vn 0.0035 0.9999 -0.0095
vn 0.0031 1.0000 -0.0095
vn 0.0418 0.9989 0.0192
vn 0.0098 -0.0000 1.0000
vn 0.0129 -0.0000 0.9999
vn 0.0270 0.5360 0.8438
vn 0.0109 0.5388 0.8423
vn 0.0108 0.5389 0.8423
vn 0.0088 -0.0000 1.0000
vn 0.0124 -0.0000 0.9999
vn 0.0087 -0.0000 -1.0000
vn 0.0124 -0.0000 -0.9999
vn 0.0266 0.5360 -0.8438
vn 0.0411 0.9990 -0.0189
vn -0.0092 -0.0000 -1.0000
vn 0.0003 0.5416 0.8406
vn 0.0089 -0.0000 1.0000
vn 0.0269 0.5360 0.8438
vn -0.8407 0.5416 -0.0000
vn -0.0242 0.5365 0.8436
vn -0.0088 -0.0000 1.0000
vn 1.0000 -0.0000 -0.0001
vn 0.8407 0.5416 -0.0000
vn -0.0241 0.5365 0.8435
vn 0.8406 0.5416 -0.0001
vn -0.0439 0.9988 -0.0200
vn -0.0281 0.5357 -0.8439
vn -0.0103 -0.0001 -0.9999
vn -1.0000 -0.0000 -0.0001
vn 0.0110 0.5392 0.8421
vn 0.0040 1.0000 0.0088
vn -0.0094 0.5394 0.8420
vn 0.0002 0.5416 0.8407
vn -0.0008 -0.0004 1.0000
vn 0.0110 0.5391 0.8421
vn -0.0117 0.5391 -0.8422
vn -0.0056 0.9999 -0.0092
vn -0.0129 0.0001 -0.9999
vn 0.0017 1.0000 -0.0007
vn -0.0008 -0.0001 1.0000
vn -0.0132 -0.0000 0.9999
vn -0.0093 0.5394 0.8420
vn 1.0000 0.0001 -0.0000
vn 0.8407 0.5415 -0.0000
vn 0.0108 0.5392 -0.8421
vn 0.0035 1.0000 -0.0087
vn 0.0003 -0.0004 -1.0000
vn 0.0003 -0.0001 -1.0000
vn -0.0007 1.0000 0.0006
vn -0.8407 0.5415 -0.0000
vn -1.0000 0.0001 -0.0000
vn -0.0131 -0.0001 0.9999
vn 0.0002 1.0000 0.0078
vn 0.0003 0.5416 0.8407
vt 0.303815 0.301095
vt 0.303815 0.314616
vt 0.330225 0.312690
vt 0.330225 0.299169
vt 0.304810 0.317553
vt 0.330225 0.315701
vt 0.305101 0.317532
vt 0.330225 0.269592
vt 0.330225 0.283809
vt 0.348756 0.286354
vt 0.348756 0.269592
vt 0.302430 0.317727
vt 0.303872 0.291243
vt 0.303908 0.295576
vt 0.330225 0.293628
vt 0.330225 0.289350
vt 0.302430 0.295656
vt 0.302430 0.295656
vt 0.302430 0.291375
vt 0.302430 0.291375
vt 0.304445 0.317580
vt 0.304651 0.317565
vt 0.303689 0.269592
vt 0.303689 0.285744
vt 0.302430 0.285838
vt 0.302430 0.269592
vt 0.302430 0.295656
vt 0.302430 0.317727
vt 0.302430 0.314718
vt 0.302430 0.301194
vt 0.302430 0.301194
vt 0.302430 0.269592
vt 0.302430 0.314718
vt 0.330225 0.289350
vt 0.330225 0.293629
vt 0.348756 0.296173
vt 0.348756 0.291894
vt 0.302430 0.317727
vt 0.348756 0.291894
vt 0.348756 0.296173
vt 0.330225 0.293629
vt 0.303962 0.301084
vt 0.303962 0.314605
vt 0.330225 0.312690
vt 0.330225 0.299169
vt 0.348756 0.318245
vt 0.302430 0.295656
vt 0.304057 0.301077
vt 0.330225 0.299169
vt 0.330225 0.312690
vt 0.304057 0.314598
vt 0.304100 0.291222
vt 0.304149 0.295563
vt 0.304702 0.317561
vt 0.304967 0.317542
vt 0.303986 0.301082
vt 0.303986 0.314603
vt 0.304034 0.291229
vt 0.304079 0.295567
vt 0.303829 0.269592
vt 0.303829 0.285734
vt 0.303810 0.269592
vt 0.303810 0.285735
vt 0.330225 0.283809
vt 0.304011 0.291230
vt 0.304055 0.295568
vt 0.304666 0.317564
vt 0.304922 0.317545
vt 0.348756 0.315234
vt 0.348756 0.301714
vt 0.330225 0.299169
vt 0.348756 0.301714
vt 0.348756 0.315235
vt 0.330225 0.283809
vt 0.303887 0.269592
vt 0.303887 0.285730
vt 0.348756 0.291894
vt 0.348756 0.296173
vt 0.330225 0.293628
vt 0.348756 0.296173
vt 0.348756 0.291894
vt 0.330225 0.299169
vt 0.348756 0.315235
vt 0.348756 0.301714
s 1
f 53/1/1 47/2/1 66/3/2 59/4/2
f 75/5/3 90/6/4 6/6/5 82/7/3
f 1/8/6 58/9/7 149/10/8 21/11/8
f 15/12/9 135/12/9 34/12/9 39/12/9
f 45/13/10 54/14/10 60/15/11 57/16/12
f 121/17/13 51/18/13 44/19/13 128/20/13
f 50/21/14 55/22/14 2/6/15 65/6/16
f 42/23/17 46/24/17 58/9/7 1/8/6
f 142/17/18 147/19/18 30/20/18 36/18/18
f 71/25/19 123/25/19 11/26/19 68/26/19
f 78/27/13 117/17/13 124/19/13 70/20/13
f 81/12/9 9/12/9 107/12/9 76/28/9
f 136/29/20 141/30/20 35/30/20 31/29/20
f 111/29/19 48/29/19 52/31/19 122/31/19
f 7/12/9 56/12/9 49/12/9 112/12/9
f 127/25/19 43/25/19 41/32/19 13/26/19
f 73/33/19 108/29/19 118/30/19 77/31/19
f 120/17/13 121/17/13 128/19/13 125/20/13
f 5/8/21 23/11/22 156/10/22 83/9/21
f 113/34/23 116/35/24 158/36/25 155/37/25
f 106/12/9 98/38/9 132/12/9 17/12/9
f 108/29/19 109/29/19 119/30/19 118/31/19
f 109/29/19 111/29/19 122/30/19 119/31/19
f 84/34/26 155/39/25 158/40/25 87/41/27
f 102/42/28 100/43/28 130/44/29 115/45/29
f 93/25/20 91/32/20 18/26/20 143/25/20
f 90/6/4 159/46/30 24/46/30 6/6/5
f 86/6/31 154/46/32 22/46/32 4/6/33
f 104/47/18 94/20/18 144/20/18 137/17/18
f 80/48/34 88/49/35 89/50/35 74/51/34
f 8/12/9 7/12/9 112/12/9 110/12/9
f 123/25/19 126/25/19 12/26/19 11/26/19
f 97/29/20 101/30/20 138/31/20 131/29/20
f 69/52/36 84/34/26 87/35/27 79/53/36
f 126/25/19 127/25/19 13/26/19 12/26/19
f 129/6/37 14/6/38 24/46/30 159/46/30
f 33/54/39 86/6/31 4/6/33 40/55/39
f 38/56/40 64/4/41 85/3/41 32/57/40
f 29/58/42 62/16/43 63/15/44 37/59/42
f 25/60/45 3/8/46 61/9/46 28/61/45
f 92/62/47 96/63/47 114/64/48 10/8/48
f 145/25/20 19/26/20 20/26/20 148/25/20
f 95/65/49 103/66/49 116/35/24 113/34/23
f 139/17/18 146/20/18 147/20/18 142/17/18
f 143/25/20 18/26/20 19/26/20 145/25/20
f 99/67/50 105/68/50 14/6/38 129/6/37
f 16/12/9 134/12/9 135/12/9 15/12/9
f 137/17/18 144/19/18 146/20/18 139/17/18
f 9/12/9 8/12/9 110/12/9 107/12/9
f 131/29/20 138/30/20 140/31/20 133/29/20
f 133/29/20 140/30/20 141/31/20 136/29/20
f 17/12/9 132/12/9 134/12/9 16/12/9
f 117/17/13 120/17/13 125/20/13 124/20/13
f 115/45/29 130/44/29 160/69/22 157/70/22
f 10/8/48 114/9/48 156/10/22 23/11/22
f 88/71/35 157/70/22 160/69/22 89/44/35
f 65/6/16 2/6/15 22/46/32 154/46/32
f 64/4/41 152/72/8 153/73/8 85/3/41
f 3/8/46 21/11/8 149/10/8 61/74/46
f 67/75/51 5/8/21 83/9/21 72/76/51
f 62/16/43 150/77/52 151/78/52 63/79/44
f 57/16/12 60/79/11 151/80/52 150/81/52
f 59/82/2 66/3/2 153/83/8 152/84/8
f 27/25/20 28/61/53 29/58/54 30/20/55
f 31/29/20 32/57/40 33/54/39 34/12/9
f 35/30/20 36/18/18 37/59/42 38/56/40
f 43/25/19 44/19/13 45/13/56 46/24/17
f 47/2/57 48/29/58 49/12/9 50/21/14
f 51/18/59 52/31/19 53/1/57 54/14/60
f 69/52/36 70/20/61 71/25/19 72/76/51
f 73/33/19 74/51/34 75/5/62 76/28/9
f 77/31/19 78/27/13 79/53/63 80/48/64
f 93/25/20 94/20/18 95/65/49 96/63/47
f 97/29/20 98/38/9 99/67/50 100/43/28
f 101/30/20 102/42/28 103/66/49 104/47/18
f 27/25/20 26/26/65 25/60/53 28/61/53
f 31/29/20 35/30/20 38/56/40 32/57/40
f 36/18/18 30/20/55 29/58/54 37/59/42
f 39/12/9 34/12/9 33/54/39 40/55/39
f 46/24/17 42/23/17 41/32/19 43/25/19
f 54/14/60 45/13/56 44/19/13 51/18/59
f 47/2/57 53/1/57 52/31/19 48/29/58
f 55/22/14 50/21/14 49/12/9 56/12/9
f 62/16/66 29/58/54 28/61/53 61/9/46
f 86/6/67 33/54/39 32/57/40 85/3/41
f 112/12/9 49/12/9 48/29/58 111/29/19
f 58/9/6 46/24/17 45/13/56 57/16/68
f 150/77/69 62/16/66 61/74/46 149/10/70
f 37/59/42 63/15/71 64/4/41 38/56/40
f 73/33/19 77/31/19 80/48/64 74/51/34
f 84/34/72 69/52/36 72/76/51 83/9/21
f 90/6/73 75/5/62 74/51/34 89/50/35
f 79/53/63 87/35/72 88/49/74 80/48/64
f 154/46/75 86/6/67 85/3/41 153/73/76
f 81/12/9 76/28/9 75/5/62 82/7/3
f 71/25/19 68/26/19 67/75/51 72/76/51
f 53/1/57 59/4/77 60/15/78 54/14/60
f 96/63/47 92/62/47 91/32/20 93/25/20
f 100/43/28 102/42/28 101/30/20 97/29/20
f 103/66/49 95/65/49 94/20/18 104/47/18
f 105/68/50 99/67/50 98/38/9 106/12/9
f 122/31/79 52/31/19 51/18/59 121/17/80
f 128/20/80 44/19/13 43/25/19 127/25/79
f 114/64/48 96/63/47 95/65/49 113/34/81
f 124/20/80 125/20/80 126/25/79 123/25/79
f 130/44/29 100/43/28 99/67/50 129/6/82
f 76/28/9 107/12/9 108/29/19 73/33/19
f 156/10/83 114/9/48 113/34/81 155/37/25
f 102/42/28 115/45/29 116/35/81 103/66/49
f 110/12/9 112/12/9 111/29/19 109/29/19
f 118/31/79 119/30/79 120/17/80 117/17/80
f 70/20/61 124/19/80 123/25/79 71/25/19
f 160/69/84 130/44/29 129/6/82 159/46/85
f 125/20/80 128/19/80 127/25/79 126/25/79
f 107/12/9 110/12/9 109/29/19 108/29/19
f 77/31/19 118/30/79 117/17/80 78/27/13
f 119/31/79 122/30/79 121/17/80 120/17/80
f 136/29/20 31/29/20 34/12/9 135/12/9
f 142/17/86 36/18/18 35/30/20 141/30/87
f 148/25/87 27/25/20 30/20/55 147/19/86
f 97/29/20 131/29/20 132/12/9 98/38/9
f 131/29/20 133/29/20 134/12/9 132/12/9
f 133/29/20 136/29/20 135/12/9 134/12/9
f 104/47/18 137/17/86 138/31/87 101/30/20
f 137/17/86 139/17/86 140/31/87 138/30/87
f 139/17/86 142/17/86 141/31/87 140/30/87
f 93/25/20 143/25/87 144/20/86 94/20/18
f 143/25/87 145/25/87 146/20/86 144/19/86
f 145/25/87 148/25/87 147/20/86 146/20/86
f 66/3/88 47/2/57 50/21/14 65/6/89
f 63/79/71 151/78/90 152/72/70 64/4/41
f 78/27/13 70/20/61 69/52/36 79/53/63
f 115/45/29 157/70/83 158/36/25 116/35/81
f 149/10/70 58/9/6 57/16/68 150/81/69
f 159/46/85 90/6/73 89/44/35 160/69/84
f 155/39/25 84/34/72 83/9/21 156/10/83
f 153/83/76 66/3/88 65/6/89 154/46/75
f 59/82/77 152/84/70 151/80/90 60/79/78
f 87/41/72 158/40/25 157/70/83 88/71/74
f 148/25/20 20/26/20 26/26/20 27/25/20
