# Blender 4.4.3
# www.blender.org
o M_Brick_Columne_round
v 0.000000 0.000000 -1.000000
v -0.382683 0.000000 -0.923880
v -0.707107 0.000000 -0.707107
v -0.923880 0.000000 -0.382683
v -1.000000 0.000000 -0.000000
v -0.923880 0.000000 0.382683
v -0.707107 0.000000 0.707107
v -0.382683 0.000000 0.923880
v 0.000000 0.000000 1.000000
v 0.382683 0.000000 0.923880
v 0.707107 0.000000 0.707107
v 0.923880 0.000000 0.382683
v 1.000000 0.000000 -0.000000
v 0.923880 0.000000 -0.382683
v 0.707107 0.000000 -0.707107
v 0.382683 0.000000 -0.923880
v 0.000000 4.000000 -1.000000
v -0.382683 4.000000 -0.923880
v -0.707107 4.000000 -0.707107
v -0.923880 4.000000 -0.382683
v -1.000000 4.000000 -0.000000
v -0.923880 4.000000 0.382683
v -0.707107 4.000000 0.707107
v -0.382683 4.000000 0.923880
v 0.000000 4.000000 1.000000
v 0.382683 4.000000 0.923880
v 0.707107 4.000000 0.707107
v 0.923880 4.000000 0.382683
v 1.000000 4.000000 -0.000000
v 0.923880 4.000000 -0.382683
v 0.707107 4.000000 -0.707107
v 0.382683 4.000000 -0.923880
vn -0.0000 -0.0000 -1.0000
vn -0.3827 -0.0000 -0.9239
vn -0.7071 -0.0000 -0.7071
vn -0.9239 -0.0000 -0.3827
vn -1.0000 -0.0000 -0.0000
vn -0.9239 -0.0000 0.3827
vn -0.7071 -0.0000 0.7071
vn -0.3827 -0.0000 0.9239
vn -0.0000 -0.0000 1.0000
vn 0.3827 -0.0000 0.9239
vn 0.7071 -0.0000 0.7071
vn 0.9239 -0.0000 0.3827
vn 1.0000 -0.0000 -0.0000
vn 0.9239 -0.0000 -0.3827
vn 0.7071 -0.0000 -0.7071
vn 0.3827 -0.0000 -0.9239
vt 0.376928 0.999571
vt 0.376928 0.000428
vt 0.501714 0.000428
vt 0.501714 0.999571
vt 0.376928 0.999571
vt 0.376928 0.000428
vt 0.501714 0.000428
vt 0.252142 0.999571
vt 0.252142 0.000428
vt 0.252142 0.999571
vt 0.252142 0.000428
vt 0.127356 0.999571
vt 0.127356 0.000428
vt 0.127356 0.999571
vt 0.127356 0.000428
vt 0.002570 0.999571
vt 0.002570 0.000428
vt 0.876071 0.999571
vt 0.876071 0.000428
vt 1.000857 0.000428
vt 1.000857 0.999571
vt 0.002570 0.999571
vt 0.002570 0.000428
vt 0.876071 0.999571
vt 0.876071 0.000428
vt 1.000857 0.000428
vt 0.751285 0.999571
vt 0.751285 0.000428
vt 0.751285 0.999571
vt 0.751285 0.000428
vt 0.626499 0.999571
vt 0.626499 0.000428
vt 0.626499 0.999571
vt 0.626499 0.000428
s 1
f 6/1/6 22/2/6 21/3/5 5/4/5
f 14/5/14 30/6/14 29/7/13 13/4/13
f 7/8/7 23/9/7 22/2/6 6/1/6
f 15/10/15 31/11/15 30/6/14 14/5/14
f 8/12/8 24/13/8 23/9/7 7/8/7
f 16/14/16 32/15/16 31/11/15 15/10/15
f 9/16/9 25/17/9 24/13/8 8/12/8
f 2/18/2 18/19/2 17/20/1 1/21/1
f 1/22/1 17/23/1 32/15/16 16/14/16
f 10/24/10 26/25/10 25/26/9 9/21/9
f 3/27/3 19/28/3 18/19/2 2/18/2
f 11/29/11 27/30/11 26/25/10 10/24/10
f 4/31/4 20/32/4 19/28/3 3/27/3
f 12/33/12 28/34/12 27/30/11 11/29/11
f 5/4/5 21/3/5 20/32/4 4/31/4
f 13/4/13 29/7/13 28/34/12 12/33/12
