# Blender 4.4.3
# www.blender.org
o M_BS_Brick_Wall_Stairs_Side_5x4x6
v 0.000000 0.000000 0.000000
v 0.000000 0.000000 -8.000000
v 0.000000 4.000000 -8.000000
v 0.000000 0.000000 -2.000000
v 0.000000 0.000000 -5.000000
v 0.000000 0.999983 -1.999966
v 0.000000 2.499974 -4.999949
vn -1.0000 -0.0000 -0.0000
vt 0.333333 0.000000
vt 0.999996 0.249996
vt 1.000000 0.000000
vt 0.000000 0.000000
vt -0.000004 0.249996
vt 0.999994 0.624994
vt 1.000000 1.000000
vt 0.000003 0.000000
vt -0.000003 0.624994
s 0
f 1/1/1 6/2/1 4/3/1
f 4/4/1 6/5/1 7/6/1 5/3/1
f 3/7/1 2/3/1 5/8/1 7/9/1
