# Blender 4.4.3
# www.blender.org
o M_BS_0.5_Brick_Wall_Stone_Top_corner
v -0.449676 0.466625 -0.469576
v -0.724786 0.441831 -0.200000
v -0.173140 0.436818 -0.703949
v -0.750000 0.428091 0.400000
v 0.400000 0.446854 -0.733150
v -0.787571 -0.129965 -0.150000
v -0.121856 -0.111631 -0.694686
v -0.450001 -0.123067 -0.425644
v -0.772189 -0.130917 0.425000
v 0.424999 -0.093760 -0.722501
v 0.243729 0.309530 0.264822
v 0.273306 0.306609 0.238396
v 0.244688 0.333333 0.238500
v -1.143048 0.374011 -1.197615
v -1.169490 0.371407 -1.172171
v -1.142166 0.399917 -1.175779
v -1.173227 -0.081405 -1.154837
v -1.174791 -0.108097 -1.126899
v -1.198347 -0.082614 -1.128571
v 0.987309 0.272496 -1.189712
v 0.962149 0.271324 -1.213963
v 0.961527 0.302626 -1.192887
v 0.956302 0.325407 -0.257450
v 0.981290 0.325145 -0.281815
v 0.956328 0.350392 -0.278928
v 0.999249 -0.126645 -1.148917
v 0.975075 -0.149253 -1.147176
v 0.974163 -0.126940 -1.174013
v 0.957336 -0.107576 -0.324884
v 0.982333 -0.082576 -0.322601
v 0.956417 -0.082614 -0.294972
v 0.301004 -0.113884 0.273032
v 0.273236 -0.114186 0.297936
v 0.275561 -0.138054 0.276356
v -1.125741 0.325501 -0.599999
v -1.100000 0.350621 -0.599999
v -1.174850 -0.108941 -0.572557
v -1.200000 -0.082559 -0.599999
v -0.366951 -0.125494 0.324952
v -0.397349 -0.151148 0.275770
v -0.343086 -0.126693 0.300000
v -0.324643 0.381992 0.198110
v -0.352698 0.384023 0.224803
v -0.326966 0.358162 0.222605
v 0.249174 0.324537 -0.283316
v 0.276207 0.297592 -0.285412
v 0.278372 0.325218 -0.312056
v 0.332474 -0.141739 -0.234778
v 0.380686 -0.115260 -0.215163
v 0.353403 -0.118083 -0.185663
v -0.575885 -0.081542 -1.154288
v -0.600001 -0.054928 -1.179869
v -0.600000 0.401066 -1.100000
v -0.600000 0.376043 -1.124227
v -0.324999 0.305920 1.000000
v -0.299999 0.310951 0.975000
v -0.324057 0.336015 0.975144
v -1.199999 0.306741 0.975000
v -1.174999 0.305920 1.000000
v -1.174468 0.331829 0.975045
v -0.324999 -0.082576 1.000000
v -0.323845 -0.108295 0.975010
v -0.303144 -0.083221 0.975198
v -1.174903 -0.108719 0.975026
v -1.174999 -0.082576 1.000000
v -1.199999 -0.083702 0.975000
v -1.200000 0.300409 -0.599999
v -1.174383 0.325501 -0.599999
v -1.068064 0.421330 -1.075056
v -1.041387 0.423660 -1.100000
v -1.090439 0.399917 -1.124051
v 0.964770 0.347141 -1.116516
v 0.987206 0.297325 -1.096756
v 0.961479 0.315970 -1.140029
v 0.982377 0.325102 -0.377023
v 0.956303 0.375650 -0.354828
v 0.956319 0.350574 -0.330849
v -0.600000 0.376043 -1.175638
v -0.600000 0.351034 -1.198832
v 0.171582 0.356529 0.136265
v 0.142108 0.359560 0.162737
v 0.189567 0.333333 0.183379
v -0.271992 0.358162 0.277579
v -0.259121 0.334735 0.324728
v -0.230286 0.332209 0.298077
v 0.331428 0.297592 -0.230191
v 0.349318 0.274384 -0.183459
v 0.378375 0.275461 -0.212888
v -0.421837 0.305823 1.000000
v -0.375928 0.335683 0.975110
v -0.399999 0.360757 0.975000
v -1.078161 0.305823 1.000000
v -1.099999 0.356935 0.975000
v -1.125637 0.331829 0.975045
v 0.171582 0.406389 0.136265
v 0.144075 0.434573 0.137377
v 0.142108 0.409503 0.162737
v -1.068064 0.471079 -1.075056
v -1.041949 0.498598 -1.075018
v -1.041387 0.473614 -1.100000
v 0.974992 0.425972 -1.091530
v 0.996623 0.399196 -1.096218
v 0.971578 0.397408 -1.116525
v 0.957463 0.451971 -0.378119
v 0.956303 0.425496 -0.354828
v 0.982380 0.428011 -0.377099
v -0.371668 0.457200 0.176444
v -0.352698 0.433903 0.224803
v -0.324643 0.431935 0.198110
v -1.100000 0.400381 -0.599999
v -1.075864 0.426551 -0.574269
v -0.573123 0.473573 -1.075062
v -0.600000 0.451020 -1.100000
v 0.249174 0.374396 -0.283316
v 0.278372 0.375056 -0.312056
v 0.230491 0.399727 -0.329451
v -0.421959 0.408333 1.000000
v -0.399999 0.410629 0.975000
v -0.423761 0.435683 0.975110
v -1.075807 0.431829 0.975045
v -1.099999 0.406717 0.975000
v -1.078040 0.408333 1.000000
v -1.200000 -0.119167 0.200000
v -1.174900 -0.143406 0.213201
v -0.302268 0.346117 0.650000
v -0.323986 0.371089 0.638007
v -1.200000 0.260008 0.200000
v -1.174448 0.285094 0.200000
v -0.342111 -0.092671 0.650000
v -0.366338 -0.118330 0.638451
v -0.375993 0.371089 0.612003
v -0.400000 0.396151 0.600000
v -1.125662 0.285094 0.200000
v -1.099999 0.310206 0.200000
v -0.400000 0.446027 0.600000
v -0.423353 0.468220 0.586655
v -1.099999 0.359983 0.200000
v -1.075933 0.388051 0.213753
v 0.649999 -0.082488 -0.266301
v 0.637133 -0.106786 -0.292389
v 0.200000 0.335366 -1.198790
v 0.200000 0.360375 -1.175570
v 0.649999 0.308227 -0.266301
v 0.637810 0.333333 -0.290679
v 0.199999 -0.054927 -1.179910
v 0.212092 -0.080687 -1.154182
v 0.200000 0.360375 -1.124309
v 0.200000 0.385398 -1.100000
v 0.612160 0.333333 -0.341980
v 0.600000 0.358412 -0.366301
v 0.200000 0.435353 -1.100000
v 0.213620 0.459454 -1.075016
v 0.600000 0.408254 -0.366301
v 0.587096 0.434206 -0.389969
v 1.000000 0.450338 -0.750000
v 0.974998 0.474303 -0.749298
v -0.749999 0.408333 1.000000
v -0.749999 0.433115 0.975001
v 0.974970 -0.106974 -0.748803
v 0.999561 -0.082468 -0.749330
v -0.750963 -0.108590 0.975020
v -0.749999 -0.082576 1.000000
vn -0.0342 0.9953 0.0911
vn -0.0095 0.9986 0.0523
vn -0.0126 0.9983 0.0565
vn -0.0329 0.9954 0.0895
vn 0.9888 0.0443 0.1424
vn 0.0193 -0.9980 -0.0599
vn 0.0118 -0.9986 -0.0524
vn -0.0001 -0.9994 -0.0354
vn 0.0028 -0.9993 -0.0385
vn -0.9995 -0.0000 -0.0314
vn -1.0000 -0.0000 -0.0000
vn -0.9994 -0.0000 -0.0356
vn -0.0160 0.9999 0.0043
vn 0.0541 0.9971 -0.0541
vn 0.0549 0.9970 -0.0549
vn -0.0163 0.9999 0.0046
vn 0.0329 0.9994 -0.0116
vn -0.0163 -0.9999 -0.0011
vn -0.0027 -0.9998 -0.0199
vn -0.0064 -0.9996 -0.0291
vn -0.0110 0.0007 -0.9999
vn -0.0000 -0.0000 -1.0000
vn -0.0105 0.0007 -0.9999
vn -0.0082 -0.9993 0.0360
vn -0.0090 -0.9996 0.0280
vn 0.0756 -0.0000 0.9971
vn 0.0081 -1.0000 -0.0021
vn -0.0100 -0.9998 -0.0183
vn -0.0133 -0.9997 -0.0197
vn -0.0035 -0.9997 -0.0246
vn 0.0113 -0.9990 -0.0427
vn 0.0161 -0.9985 -0.0529
vn 0.1150 -0.0239 0.9931
vn 0.1078 -0.0259 0.9938
vn 0.1900 -0.0023 0.9818
vn 0.9994 0.0046 0.0351
vn 0.9999 0.0059 0.0116
vn 0.9992 0.0019 0.0411
vn 0.0327 0.0366 0.9988
vn 0.9833 -0.0000 0.1818
vn -0.0121 -0.0593 -0.9982
vn -0.0120 -0.0593 -0.9982
vn -0.0232 -0.0707 -0.9972
vn -0.9998 0.0163 -0.0133
vn -0.9997 0.0174 -0.0143
vn -0.9991 0.0330 -0.0271
vn -0.0000 -0.0000 1.0000
vn 0.0325 0.9989 0.0330
vn 0.0420 0.9988 0.0265
vn 0.0250 0.9995 0.0172
vn 0.0568 0.9983 -0.0127
vn -0.0213 0.9998 0.0017
vn 0.0032 0.9986 -0.0530
vn 0.0040 0.9997 0.0246
vn -0.0187 0.9991 0.0373
vn -0.0912 0.9958 0.0113
vn -0.0748 0.9972 -0.0022
vn -0.0701 0.9968 0.0394
vn -0.0869 0.9931 0.0788
vn -0.0439 0.9962 0.0750
vn 0.0416 0.9971 -0.0631
vn 0.0419 0.9971 -0.0640
vn 0.0338 0.9987 -0.0377
vn 0.0046 0.9998 0.0171
vn -0.0085 0.9987 0.0502
vn 0.0343 0.9987 -0.0380
vn 0.9981 -0.0000 0.0615
vn 0.9921 -0.0000 0.1251
vn 0.9980 -0.0000 0.0640
vn -0.0381 0.9993 0.0054
vn -0.0000 1.0000 -0.0049
vn -0.0529 0.9979 -0.0364
vn -0.0631 0.9980 -0.0040
vn 0.1663 -0.0000 0.9861
vn 0.0721 -0.0000 0.9974
vn 0.0626 -0.0000 0.9980
vn 0.0062 -0.9993 0.0360
vn 0.0052 -0.9992 0.0396
vn -0.0283 0.9946 0.1001
vn -0.0214 0.0014 -0.9998
vn -0.0807 0.9954 0.0522
vn -0.0696 0.9969 0.0375
vn 0.9994 -0.0155 -0.0300
vn 0.9999 -0.0079 0.0096
vn 0.9998 0.0050 -0.0182
vn -0.0474 0.9971 0.0601
vn 0.0336 -0.0469 0.9983
vn -0.0613 -0.9968 0.0508
vn -0.0402 -0.9990 0.0208
vn 0.0636 0.9899 -0.1268
vn -0.0753 0.9970 0.0170
vn -0.0733 0.9969 0.0284
vn 0.0562 0.9983 0.0131
vn -0.0056 0.9989 0.0465
vn -0.0169 -0.9998 -0.0121
vn 0.0041 -0.9991 0.0434
vn -0.0063 -0.0606 -0.9981
vn -0.0067 -0.0614 -0.9981
vn 0.9940 -0.1086 -0.0118
vn 0.9939 -0.1095 -0.0109
vn 0.9860 -0.1620 0.0388
vn 0.9996 0.0289 -0.0045
vn -0.9977 -0.0000 -0.0671
vn 1.0000 -0.0000 -0.0000
vn 0.9965 -0.0514 -0.0652
vn -0.0000 0.9982 -0.0602
vn -0.0322 -0.0000 0.9995
vn -0.0522 0.9985 0.0147
vn 0.9989 -0.0006 0.0470
vn -0.0126 -0.0746 -0.9971
vn 0.0327 0.0365 0.9988
vn 0.0510 0.9974 -0.0511
vn 0.0125 0.9995 0.0297
vn -0.0232 -0.0706 -0.9972
vn -0.0033 -0.9995 -0.0306
vn -0.9991 0.0331 -0.0270
vn 0.9996 0.0290 -0.0045
vn -0.0614 -0.9968 0.0508
vn -0.0127 -0.0746 -0.9971
vn 0.9994 0.0046 0.0350
vn 0.9888 0.0443 0.1423
vn -0.0099 -0.9996 -0.0266
vn 0.9860 -0.1619 0.0388
vn -0.0088 -0.9998 -0.0157
vn 0.0376 0.9985 -0.0403
vn -0.0465 0.9986 0.0237
vn 0.0279 -0.9974 -0.0664
vn 0.9965 -0.0515 -0.0653
vn 0.0041 -0.9991 0.0433
vn 0.0001 -0.0000 1.0000
vn -0.9977 -0.0001 -0.0671
vn 0.0001 -0.0000 -1.0000
vn -0.0237 0.9963 0.0822
vn -0.0215 0.0013 -0.9998
vn 0.9998 0.0139 -0.0126
vn 0.9991 0.0011 0.0430
vn 0.9833 -0.0000 0.1819
vn 0.0755 -0.0000 0.9971
vn 0.0575 0.9967 -0.0577
vn 0.0306 0.9989 -0.0358
vn 0.9860 -0.1620 0.0387
vn 0.0060 0.9997 -0.0242
vn 0.0366 0.9993 -0.0045
vn 0.0235 0.9992 0.0327
vn 0.9994 -0.0156 -0.0300
vn -0.0214 0.0013 -0.9998
vn -0.0474 0.9971 0.0600
vn 0.9989 -0.0007 0.0469
vn -0.0511 0.9987 0.0017
vn 0.0532 0.9986 0.0039
vn -0.0528 0.9979 -0.0365
vn -0.0000 -0.0001 1.0000
vn -0.0326 0.9953 0.0917
vn -0.9998 0.0164 -0.0138
vn 0.9997 0.0170 0.0155
vn -0.0396 -0.9990 0.0187
vn 0.0165 -0.9986 -0.0507
vn 0.1108 -0.0220 0.9936
vn 0.0432 0.9971 -0.0633
vn -0.0065 -0.0611 -0.9981
vn -0.0030 -0.9998 -0.0210
vn -0.9998 0.0166 -0.0133
vn -0.0755 0.9962 0.0440
vn 0.1136 -0.0278 0.9931
vn -0.0221 -0.9998 -0.0028
vn 0.0172 -0.9981 -0.0592
vn -0.0120 -0.0590 -0.9982
vn -0.0066 -0.0610 -0.9981
vn 0.0331 0.9994 -0.0115
vn -0.0118 -0.0592 -0.9982
vn 0.0052 -0.9992 0.0397
vn 0.0078 -0.9999 0.0087
vn -0.0042 0.9994 0.0331
vn 0.9940 -0.1082 -0.0160
vn 0.0016 1.0000 -0.0049
vn -1.0000 -0.0001 -0.0000
vn -0.0168 -0.9992 0.0360
vn 0.9944 -0.1052 -0.0094
vn -0.9994 -0.0006 -0.0335
vn -0.0326 0.9953 0.0916
vn -0.0107 0.0006 -0.9999
vn 0.0670 -0.0052 0.9977
vn -0.0754 0.9962 0.0439
vn -0.0000 -0.0001 -1.0000
vn 0.0330 0.9994 -0.0115
vn 0.9980 -0.0020 0.0628
vn -0.0045 0.9994 0.0329
vn -0.0237 0.9997 0.0021
vn 0.9999 -0.0089 0.0087
vn -0.0635 0.9980 -0.0041
vn -0.0943 0.9935 0.0637
vn -0.9994 -0.0007 -0.0335
vn 0.0038 1.0000 0.0062
vn -0.0427 0.9959 0.0801
vn 0.0670 -0.0056 0.9977
vn 0.0395 0.9987 0.0317
vn -0.0761 0.9970 0.0126
vn 0.9980 -0.0019 0.0627
vn -0.0811 0.9967 0.0006
vt 0.634624 0.307247
vt 0.638546 0.365464
vt 0.632800 0.371211
vt 0.629221 0.307247
vt 0.798907 0.261223
vt 0.798535 0.260966
vt 0.790008 0.214114
vt 0.793157 0.210256
vt 0.695709 0.368823
vt 0.746147 0.317766
vt 0.709693 0.287878
vt 0.629176 0.365781
vt 0.637484 0.307247
vt 0.637484 0.218374
vt 0.790369 0.272299
vt 0.780744 0.220220
vt 0.786867 0.214097
vt 0.796503 0.266164
vt 0.693030 0.365484
vt 0.693030 0.371195
vt 0.632800 0.371211
vt 0.715543 0.209956
vt 0.672192 0.257256
vt 0.790297 0.209891
vt 0.781903 0.362792
vt 0.693030 0.362792
vt 0.781903 0.362793
vt 0.718988 0.169666
vt 0.673901 0.193378
vt 0.715542 0.209956
vt 0.723619 0.218583
vt 0.775471 0.222513
vt 0.775471 0.222513
vt 0.723619 0.218583
vt 0.629163 0.216907
vt 0.629169 0.304198
vt 0.783246 0.368812
vt 0.806898 0.320856
vt 0.643995 0.362792
vt 0.643995 0.362793
vt 0.830464 0.273074
vt 0.796619 0.266674
vt 0.831894 0.270176
vt 0.801719 0.264238
vt 0.801975 0.264498
vt 0.629169 0.304198
vt 0.629176 0.365781
vt 0.868805 0.276430
vt 0.870754 0.323835
vt 0.868818 0.282476
vt 0.868720 0.271898
vt 0.734104 0.207418
vt 0.721570 0.207293
vt 0.790040 0.207454
vt 0.786759 0.211229
vt 0.778746 0.225454
vt 0.787366 0.272066
vt 0.787366 0.272066
vt 0.778746 0.225454
vt 0.693030 0.373772
vt 0.693030 0.371665
vt 0.629350 0.368866
vt 0.632701 0.373659
vt 0.626375 0.307247
vt 0.629785 0.370809
vt 0.626526 0.365967
vt 0.676366 0.129501
vt 0.639910 0.129501
vt 0.629152 0.129501
vt 0.629152 0.129501
vt 0.626375 0.218374
vt 0.626375 0.218374
vt 0.785290 0.277191
vt 0.740450 0.318795
vt 0.709729 0.292758
vt 0.775690 0.225330
vt 0.867998 0.323832
vt 0.867997 0.361848
vt 0.783416 0.360017
vt 0.804121 0.322039
vt 0.640158 0.216846
vt 0.676366 0.196156
vt 0.679167 0.262810
vt 0.640165 0.304388
vt 0.824906 0.283914
vt 0.693030 0.365484
vt 0.781903 0.365493
vt 0.781903 0.371188
vt 0.693030 0.371195
vt 0.723361 0.215862
vt 0.717915 0.172604
vt 0.723692 0.169715
vt 0.729469 0.209755
vt 0.715248 0.173937
vt 0.720503 0.215618
vt 0.720503 0.215618
vt 0.718395 0.220990
vt 0.712808 0.129501
vt 0.676366 0.129501
vt 0.712822 0.129501
vt 0.634633 0.218374
vt 0.629214 0.218374
vt 0.639924 0.129501
vt 0.639910 0.129501
vt 0.640170 0.132274
vt 0.676366 0.132278
vt 0.640158 0.216846
vt 0.626375 0.132278
vt 0.626375 0.132278
vt 0.790609 0.275259
vt 0.826339 0.281285
vt 0.723708 0.132277
vt 0.676259 0.132276
vt 0.718988 0.169666
vt 0.717922 0.132265
vt 0.723685 0.132263
vt 0.723692 0.169715
vt 0.866862 0.364628
vt 0.781903 0.362792
vt 0.867618 0.364628
vt 0.827690 0.278583
vt 0.790369 0.272299
vt 0.796503 0.266164
vt 0.830540 0.272884
vt 0.870506 0.362375
vt 0.870776 0.323910
vt 0.870778 0.323837
vt 0.869354 0.362432
vt 0.866050 0.282597
vt 0.824906 0.283914
vt 0.865932 0.273422
vt 0.865923 0.269135
vt 0.831894 0.270176
vt 0.723580 0.129501
vt 0.723580 0.129501
vt 0.868004 0.368031
vt 0.867995 0.323777
vt 0.783246 0.368812
vt 0.781903 0.365493
vt 0.866498 0.367244
vt 0.866500 0.373107
vt 0.781903 0.371188
vt 0.796619 0.266674
vt 0.790297 0.209891
vt 0.712653 0.175420
vt 0.718395 0.220990
vt 0.676366 0.132278
vt 0.712613 0.132268
vt 0.783416 0.360017
vt 0.696016 0.360022
vt 0.643933 0.360017
vt 0.696016 0.360022
vt 0.643933 0.360017
vt 0.866036 0.276683
vt 0.830464 0.273074
vt 0.676259 0.132276
vt 0.629163 0.132275
vt 0.781903 0.373767
vt 0.781903 0.371670
vt 0.726105 0.168383
vt 0.721679 0.168383
vt 0.718840 0.204496
vt 0.730992 0.204514
vt 0.870693 0.368227
vt 0.869363 0.372759
vt 0.869354 0.362432
vt 0.870696 0.323836
vt 0.641032 0.360021
vt 0.641032 0.360021
vt 0.715248 0.132278
vt 0.715248 0.132278
vt 0.726292 0.132274
vt 0.726066 0.132260
vt 0.637484 0.132278
vt 0.637484 0.132278
vt 0.634636 0.132273
vt 0.629211 0.132273
vt 0.865921 0.280010
vt 0.865921 0.280010
vt 0.865923 0.277346
vt 0.830540 0.272884
vt 0.865924 0.271578
vt 0.868818 0.282484
vt 0.868818 0.282476
vt 0.870772 0.323834
vt 0.870776 0.323910
vt 0.866570 0.375475
vt 0.867906 0.370998
vt 0.781903 0.373767
vt 0.723361 0.215862
vt 0.729469 0.209755
vt 0.780744 0.220220
s 1
f 35/1/1 71/2/2 16/3/3 68/4/4
f 50/5/5 87/6/5 12/7/5 32/8/5
f 51/9/6 7/10/7 8/11/8 18/12/9
f 36/13/10 134/14/11 137/14/11 110/13/12
f 46/15/13 82/16/14 13/17/15 86/18/16
f 71/2/2 54/19/17 78/20/17 16/21/3
f 40/22/18 6/23/19 8/11/8 34/24/20
f 148/25/21 53/26/22 113/26/22 151/27/23
f 130/28/24 9/29/25 6/23/19 40/30/18
f 42/31/26 81/32/26 97/33/26 109/34/26
f 9/29/25 124/35/27 37/36/28 6/23/19
f 146/37/29 10/38/30 7/10/7 51/9/6
f 53/26/22 70/39/22 100/40/22 113/26/22
f 10/38/30 140/41/31 48/42/32 7/10/7
f 139/43/33 143/43/34 88/44/35 49/45/35
f 6/23/19 37/46/28 18/47/9 8/11/8
f 30/48/36 160/49/37 75/50/38 24/51/36
f 85/52/39 41/53/39 33/54/39 11/55/39
f 80/56/40 45/57/40 114/58/40 95/59/40
f 79/60/41 52/61/42 17/62/43 14/63/43
f 38/64/44 67/64/45 15/65/46 19/66/46
f 162/67/47 92/68/47 59/69/47 65/70/47
f 123/71/11 127/72/11 67/64/45 38/64/44
f 116/73/48 3/74/49 1/75/50 96/76/51
f 156/77/52 101/78/53 152/79/54 5/80/55
f 138/81/56 4/82/57 2/83/58 111/84/59
f 154/85/60 5/80/55 3/74/49 116/73/48
f 54/86/17 147/87/61 142/88/62 78/89/17
f 44/90/63 131/91/64 126/92/65 83/93/66
f 132/94/67 43/95/68 108/96/68 135/94/69
f 2/83/58 107/97/70 96/76/51 1/75/50
f 117/98/47 157/99/47 162/99/47 89/100/47
f 133/101/71 35/1/1 68/4/4 128/102/71
f 157/99/47 122/103/47 92/104/47 162/99/47
f 120/105/72 158/106/73 4/82/57 138/107/56
f 66/108/11 58/109/11 127/72/11 123/72/11
f 47/110/74 150/111/75 153/111/76 115/110/74
f 62/112/77 161/113/78 9/29/25 130/114/24
f 131/91/64 90/115/79 57/116/79 126/117/65
f 72/118/80 148/119/21 151/25/23 103/120/80
f 149/121/81 46/122/13 86/123/16 144/124/82
f 102/125/83 155/126/84 160/127/37 73/128/85
f 104/129/86 156/77/52 5/80/55 154/130/60
f 31/131/87 23/132/87 143/133/34 139/43/33
f 55/134/47 89/100/47 162/99/47 61/135/47
f 27/136/88 159/137/89 10/38/30 146/138/29
f 147/139/61 74/140/90 22/141/90 142/142/62
f 7/10/7 48/143/32 34/144/20 8/11/8
f 4/82/57 136/145/91 107/146/70 2/83/58
f 158/147/73 119/148/92 136/145/91 4/82/57
f 5/80/55 152/149/54 112/150/93 3/74/49
f 111/84/59 2/83/58 1/75/50 99/151/94
f 3/74/49 112/152/93 99/153/94 1/75/50
f 159/137/89 29/154/95 140/155/31 10/38/30
f 161/156/78 64/157/96 124/35/27 9/29/25
f 141/158/97 145/159/98 52/61/42 79/60/41
f 125/160/99 129/161/100 39/162/101 84/163/101
f 26/164/102 20/165/102 73/166/85 160/167/37
f 69/168/103 36/13/10 110/13/12 98/169/103
f 91/170/104 132/94/67 135/94/69 118/171/104
f 56/172/105 63/173/105 129/161/100 125/160/99
f 134/14/11 93/174/11 121/175/11 137/14/11
f 94/176/106 133/101/71 128/102/71 60/177/106
f 150/111/75 76/178/107 105/179/107 153/111/76
f 77/180/108 149/121/81 144/181/82 25/182/108
f 106/183/109 75/184/38 160/185/37 155/186/84
f 21/187/110 28/188/110 145/159/98 141/189/97
f 11/55/111 12/7/5 13/17/112
f 14/63/43 15/65/46 16/21/113
f 17/62/114 18/47/115 19/66/116
f 20/165/102 21/187/110 22/141/90
f 23/132/87 24/51/36 25/182/108
f 26/164/117 27/136/118 28/188/119
f 29/154/95 30/48/120 31/131/87
f 32/8/121 33/54/39 34/144/122
f 39/162/123 40/22/124 41/53/39
f 42/31/26 43/95/68 44/190/125
f 45/57/40 46/122/126 47/110/74
f 48/42/127 49/45/35 50/5/121
f 55/134/47 56/172/128 57/116/79
f 58/109/11 59/69/47 60/177/106
f 61/135/47 62/112/77 63/173/105
f 64/157/129 65/70/130 66/108/11
f 69/168/131 70/39/132 71/2/133
f 72/118/134 73/166/135 74/140/90
f 75/184/136 76/178/107 77/180/108
f 80/56/137 81/32/138 82/16/139
f 83/93/140 84/163/141 85/52/111
f 86/18/142 87/6/5 88/44/35
f 89/100/47 90/115/79 91/170/104
f 92/104/47 93/174/11 94/176/106
f 95/59/40 96/76/143 97/33/138
f 98/169/103 99/153/144 100/40/132
f 101/78/53 102/125/145 103/120/146
f 104/129/147 105/179/107 106/183/148
f 107/146/149 108/96/68 109/34/138
f 114/58/40 115/110/74 116/73/150
f 117/98/47 118/171/104 119/148/92
f 120/105/151 121/175/11 122/103/152
f 14/63/43 17/62/114 19/66/116 15/65/46
f 68/4/153 16/3/113 15/65/46 67/64/154
f 160/49/155 30/48/120 29/154/95 159/137/156
f 20/165/102 26/164/117 28/188/119 21/187/110
f 23/132/87 31/131/87 30/48/120 24/51/36
f 140/155/157 29/154/95 31/131/87 139/43/158
f 142/142/159 22/141/90 21/187/110 141/189/160
f 18/47/115 37/46/161 38/64/162 19/66/116
f 13/17/112 83/191/140 85/52/111 11/55/111
f 97/33/138 81/32/138 80/56/137 95/59/40
f 41/53/39 85/52/111 84/163/141 39/162/123
f 144/124/163 86/123/142 88/44/35 143/43/164
f 34/144/122 48/143/127 50/5/121 32/8/121
f 146/37/165 51/9/166 52/61/167 145/159/168
f 47/110/74 115/110/74 114/58/40 45/57/40
f 87/6/5 50/5/121 49/45/35 88/44/35
f 11/55/111 33/54/39 32/8/121 12/7/5
f 40/22/124 34/24/122 33/54/39 41/53/39
f 86/18/142 13/17/112 12/7/5 87/6/5
f 51/9/166 18/12/115 17/62/114 52/61/167
f 16/21/113 78/20/169 79/60/170 14/63/43
f 91/170/104 118/171/104 117/98/47 89/100/47
f 162/67/47 65/70/130 64/157/129 161/156/171
f 55/134/47 61/135/47 63/173/105 56/172/128
f 58/109/11 66/108/11 65/70/130 59/69/47
f 124/35/172 64/157/129 66/108/11 123/72/11
f 126/117/173 57/116/79 56/172/128 125/160/174
f 128/102/175 68/4/153 67/64/154 127/72/176
f 130/28/177 40/30/124 39/162/123 129/161/178
f 36/13/179 69/168/131 71/2/133 35/1/180
f 148/119/181 72/118/134 74/140/90 147/139/159
f 81/32/138 42/31/26 44/190/125 82/192/139
f 150/111/182 47/110/74 46/122/126 149/121/183
f 45/57/40 80/56/137 82/16/139 46/15/126
f 70/39/132 53/26/184 54/19/185 71/2/133
f 132/94/186 91/170/104 90/115/79 131/91/187
f 134/14/176 36/13/179 35/1/180 133/101/175
f 22/141/90 74/140/90 73/166/135 20/165/102
f 77/180/108 25/182/108 24/51/36 75/50/136
f 89/100/47 55/134/47 57/116/79 90/115/79
f 59/69/47 92/68/47 94/176/106 60/177/106
f 156/77/188 104/129/147 106/183/148 155/186/189
f 158/106/190 120/105/151 122/103/152 157/99/47
f 111/84/191 99/151/144 98/169/103 110/13/192
f 152/79/193 101/78/53 103/120/146 151/25/181
f 96/76/143 107/97/149 109/34/138 97/33/138
f 154/85/194 116/73/150 115/110/74 153/111/195
f 116/73/150 96/76/143 95/59/40 114/58/40
f 99/153/144 112/152/196 113/26/184 100/40/132
f 136/145/197 119/148/92 118/171/104 135/94/198
f 138/81/199 111/84/191 110/13/192 137/14/11
f 121/175/11 93/174/11 92/104/47 122/103/152
f 69/168/131 98/169/103 100/40/132 70/39/132
f 102/125/145 73/128/135 72/118/134 103/120/146
f 42/31/26 109/34/138 108/96/68 43/95/68
f 105/179/107 76/178/107 75/184/136 106/183/148
f 37/36/161 124/35/172 123/71/11 38/64/162
f 83/93/140 126/92/173 125/160/174 84/163/141
f 60/177/106 128/102/175 127/72/176 58/109/11
f 62/112/77 130/114/177 129/161/178 63/173/105
f 43/95/68 132/94/186 131/91/187 44/90/125
f 93/174/11 134/14/176 133/101/175 94/176/106
f 107/146/149 136/145/197 135/94/198 108/96/68
f 120/105/151 138/107/199 137/14/11 121/175/11
f 48/42/127 140/41/157 139/43/158 49/45/35
f 78/89/169 142/88/159 141/158/160 79/60/170
f 25/182/108 144/181/163 143/133/164 23/132/87
f 27/136/118 146/138/165 145/159/168 28/188/119
f 53/26/184 148/25/181 147/87/159 54/86/185
f 76/178/107 150/111/182 149/121/183 77/180/108
f 112/150/196 152/149/193 151/27/181 113/26/184
f 104/129/147 154/130/194 153/111/195 105/179/107
f 101/78/53 156/77/188 155/126/189 102/125/145
f 119/148/92 158/147/190 157/99/47 117/98/47
f 26/164/117 160/167/155 159/137/156 27/136/118
f 61/135/47 162/99/47 161/113/171 62/112/77
f 82/192/14 44/190/63 83/191/66 13/17/15
